<?xml version="1.0" encoding="utf-8"?>
<!DOCTYPE svg PUBLIC "-//W3C//DTD SVG 1.1//EN" "http://www.w3.org/Graphics/SVG/1.1/DTD/svg11.dtd">
<svg version="1.1" id="图形" xmlns="http://www.w3.org/2000/svg" xmlns:xlink="http://www.w3.org/1999/xlink" x="0px" y="0px" width="1024px" height="1024px" viewBox="0 0 1024 1024" enable-background="new 0 0 1024 1024" xml:space="preserve">
  <path fill="#272636" d="M63.989383 747.923636l235.360426 0 0-235.360426-235.360426 0 0 235.360426ZM722.998575 747.923636l236.383732 0 0-235.360426-236.383732 0 0 235.360426ZM393.493979 747.923636l236.383732 0 0-235.360426-236.383732 0 0 235.360426ZM63.989383 418.41904l235.360426 0 0-236.383732-235.360426 0 0 236.383732ZM722.998575 418.41904l236.383732 0 0-236.383732-236.383732 0 0 236.383732ZM393.493979 418.41904l236.383732 0 0-236.383732-236.383732 0 0 236.383732ZM63.989383 88.914444l235.360426 0 0-236.383732-235.360426 0 0 236.383732ZM722.998575 88.914444l236.383732 0 0-236.383732-236.383732 0 0 236.383732ZM393.493979 88.914444l236.383732 0 0-236.383732-236.383732 0 0 236.383732Z" transform="translate(0, 812) scale(1, -1)"/>
</svg>
