<?xml version="1.0" encoding="utf-8"?>
<!DOCTYPE svg PUBLIC "-//W3C//DTD SVG 1.1//EN" "http://www.w3.org/Graphics/SVG/1.1/DTD/svg11.dtd">
<svg version="1.1" id="图形" xmlns="http://www.w3.org/2000/svg" xmlns:xlink="http://www.w3.org/1999/xlink" x="0px" y="0px" width="1024px" height="1024px" viewBox="0 0 1024 1024" enable-background="new 0 0 1024 1024" xml:space="preserve">
  <path fill="#272636" d="M512 300m-449.069739 0a438.842 438.842 0 1 0 898.139477 0 438.842 438.842 0 1 0-898.139477 0ZM743.272317 135.128999c-22.309098 17.203824-63.774489 46.093804-63.774489 84.337827l0 131.484613-0.340761 0c-3.202948 86.291318-50.509371 137.581472-135.675052 148.137899 8.157797 6.348592 13.233396 15.4509 13.233396 27.171849 0 24.206308-21.37789 50.089815-47.752584 50.089815-26.373671 0-47.75463-25.88453-47.75463-50.089815 0-11.720949 5.074575-20.823258 13.235442-27.171849-85.182055-10.556427-132.471081-61.84658-135.678122-148.137899l-0.340761 0 0-131.484613c0-39.809681-41.461297-67.13298-63.770396-84.337827-14.597463-18.447141 10.095939-22.101367 24.505114-22.101367L718.712969 113.027631C733.134423 113.026608 757.828848 116.681858 743.272317 135.128999L743.272317 135.128999zM502.111792 25.369176c40.550555 0 74.129324 27.086915 80.638575 62.613036L421.476287 87.982212C427.986561 52.456091 461.561237 25.369176 502.111792 25.369176L502.111792 25.369176z" transform="translate(0, 812) scale(1, -1)"/>
</svg>
