<?xml version="1.0" encoding="utf-8"?>
<!DOCTYPE svg PUBLIC "-//W3C//DTD SVG 1.1//EN" "http://www.w3.org/Graphics/SVG/1.1/DTD/svg11.dtd">
<svg version="1.1" id="图形" xmlns="http://www.w3.org/2000/svg" xmlns:xlink="http://www.w3.org/1999/xlink" x="0px" y="0px" width="1024px" height="1024px" viewBox="0 0 1024 1024" enable-background="new 0 0 1024 1024" xml:space="preserve">
  <path fill="#272636" d="M846.561 148.546h-555.477l-131.623 471.744h-94.448v77.771h153.797l21.95-77.771h718.228l-112.427-471.744zM350.432 228.364h434.332l74.951 312.108-597.006 0 87.723-312.108zM285.766-28.444c-0-0-0-0-0-0 0-51.497 41.747-93.244 93.244-93.244 51.497 0 93.244 41.747 93.244 93.244 0 0 0 0 0 0 0 0 0 0 0 0 0 51.497-41.747 93.244-93.244 93.244-51.497 0-93.244-41.747-93.244-93.244 0-0 0-0 0-0zM677.346-28.444c0-51.497 41.747-93.244 93.244-93.244s93.244 41.747 93.244 93.244c0 51.497-41.747 93.244-93.244 93.244-51.497 0-93.244-41.747-93.244-93.244z" transform="translate(0, 812) scale(1, -1)"/>
</svg>
