<?xml version="1.0" encoding="utf-8"?>
<!-- Generator: Adobe Illustrator 17.0.0, SVG Export Plug-In . SVG Version: 6.00 Build 0)  -->
<!DOCTYPE svg PUBLIC "-//W3C//DTD SVG 1.1//EN" "http://www.w3.org/Graphics/SVG/1.1/DTD/svg11.dtd">
<svg version="1.1" id="图层_1" xmlns="http://www.w3.org/2000/svg" xmlns:xlink="http://www.w3.org/1999/xlink" x="0px" y="0px"
	 width="80px" height="79.995px" viewBox="0 0 80 79.995" enable-background="new 0 0 80 79.995" xml:space="preserve">
<g>
	<path fill="#5ABDA6" d="M40,0C17.909,0,0,17.909,0,39.996c0,22.091,17.91,39.999,40,39.999c22.087,0,40-17.908,40-39.999
		C80,17.909,62.088,0,40,0z M54.338,50.926c-3.663,0-21.253,0-26.899,0c-5.902,0-10.685-4.783-10.685-10.683
		c0-5.903,4.784-10.686,10.685-10.686c0.938,0,2.303,0.579,3.17,0.805c1.625-4.607,5.557-8.364,10.719-8.364
		c6.324,0,11.491,4.956,11.83,11.197c0.387-0.053,0.777-0.088,1.18-0.088c4.921,0,8.91,3.989,8.91,8.908
		C63.248,46.936,59.258,50.926,54.338,50.926z"/>
	<path fill="#5ABDA6" d="M50.818,40.562c-0.095-0.1-0.197-0.182-0.308-0.254c-0.712-0.475-1.686-0.408-2.326,0.214l-1.678,1.625
		v-1.005V39.86c0-0.019-0.003-0.038-0.003-0.054v-6.031v-0.942v-0.05v-1.536c0-0.02-0.001-0.041-0.003-0.063
		c-0.002-0.037-0.008-0.073-0.011-0.112c-0.054-0.572-0.36-1.072-0.812-1.373c-0.297-0.196-0.653-0.314-1.036-0.314
		c-1.031,0-1.863,0.83-1.863,1.861v0.229v0.041v1.417v0.037v1.059v0.079v2.024h-0.239c-0.062-0.197-0.155-0.381-0.272-0.543
		c-0.128-0.177-0.291-0.328-0.472-0.45c-0.298-0.197-0.651-0.321-1.037-0.321c-0.836,0-1.545,0.554-1.779,1.314h-0.438
		c-0.055-0.185-0.143-0.353-0.25-0.512c-0.131-0.189-0.301-0.351-0.495-0.481c-0.297-0.197-0.65-0.321-1.037-0.321
		c-0.835,0-1.544,0.554-1.78,1.314h-0.324c-0.069,0-0.132,0.006-0.198,0.01c-0.099-0.196-0.235-0.37-0.398-0.518
		c-0.069-0.066-0.144-0.126-0.223-0.177c-0.297-0.201-0.651-0.318-1.034-0.318c-0.499,0-0.95,0.198-1.285,0.521v9.161v1.511
		c0,0.623,0.22,1.2,0.588,1.653c0.07,0.088,0.146,0.17,0.227,0.248c0.049,0.047,0.099,0.092,0.151,0.136
		c0.713,0.739,1.305,1.434,1.388,1.962c0.007,0.041,0.012,0.084,0.012,0.123c0,0.114,0,0.411,0,0.411s12.18-0.002,12.196,0
		c0-0.16,0-0.296,0-0.397c0-0.37,0.112-1.099,0.263-1.924c0.018-0.097,0.038-0.196,0.056-0.295c0.061-0.323,0.128-0.654,0.196-0.981
		l4.185-4.063C51.518,42.481,51.537,41.3,50.818,40.562z M44.631,32.749c-0.602,0-1.088-0.603-1.088-1.343
		c0-0.741,0.486-1.342,1.088-1.342c0.599,0,1.085,0.601,1.085,1.342C45.716,32.146,45.23,32.749,44.631,32.749z"/>
	<path fill="#FFFFFF" d="M47.142,51.627h-0.069h-0.998L33.88,51.615h-0.837h-0.036c-0.577,0-1.049,0.374-1.05,0.832v4.705
		c-0.003,0.458,0.463,0.833,1.041,0.833l14.136,0.013c0.577,0,1.05-0.374,1.05-0.833l0.005-4.704
		C48.192,52.002,47.717,51.627,47.142,51.627z M46.559,55.456c-0.502,0.502-1.319,0.502-1.82,0
		c-0.359-0.358-0.455-0.873-0.303-1.324c0.029-0.088,0.067-0.173,0.118-0.255c0.053-0.086,0.112-0.167,0.186-0.242
		c0.345-0.343,0.833-0.446,1.271-0.32c0.202,0.059,0.392,0.163,0.55,0.321c0.058,0.056,0.106,0.117,0.149,0.18
		C47.055,54.32,47.006,55.012,46.559,55.456z"/>
</g>
</svg>
