<?xml version="1.0" encoding="utf-8"?>
<!-- Generator: Adobe Illustrator 17.0.0, SVG Export Plug-In . SVG Version: 6.00 Build 0)  -->
<!DOCTYPE svg PUBLIC "-//W3C//DTD SVG 1.1//EN" "http://www.w3.org/Graphics/SVG/1.1/DTD/svg11.dtd">
<svg version="1.1" id="图层_1" xmlns="http://www.w3.org/2000/svg" xmlns:xlink="http://www.w3.org/1999/xlink" x="0px" y="0px"
	 width="25px" height="22.223px" viewBox="0 0 25 22.223" enable-background="new 0 0 25 22.223" xml:space="preserve">
<g>
	<path fill="#626365" d="M23.455,6.66h-1.7v6.006c0,1.893-1.617,3.433-3.605,3.433h-7.538l-1.44,1.436
		C9.445,17.933,9.927,18.2,10.48,18.2h6.584l4.034,4.023V18.2h2.357c0.853,0,1.545-0.63,1.545-1.408V8.068
		C25,7.29,24.308,6.66,23.455,6.66z"/>
	<path fill="#626365" d="M9.92,14.426h8.23c1.066,0,1.931-0.788,1.931-1.76V1.76c0-0.972-0.865-1.76-1.931-1.76H1.931
		C0.865,0,0,0.788,0,1.76v10.905c0,0.972,0.865,1.76,1.931,1.76h2.947v5.028L9.92,14.426z M14.526,5.72
		c0.693,0,1.255,0.562,1.255,1.255S15.219,8.23,14.526,8.23s-1.255-0.562-1.255-1.255S13.833,5.72,14.526,5.72z M10.029,5.72
		c0.693,0,1.255,0.562,1.255,1.255S10.722,8.23,10.029,8.23c-0.693,0-1.255-0.562-1.255-1.255S9.336,5.72,10.029,5.72z M4.276,6.975
		c0-0.693,0.562-1.255,1.255-1.255s1.255,0.562,1.255,1.255S6.225,8.23,5.531,8.23S4.276,7.668,4.276,6.975z"/>
</g>
</svg>
