<?xml version="1.0" encoding="utf-8"?>
<!-- Generator: Adobe Illustrator 17.0.0, SVG Export Plug-In . SVG Version: 6.00 Build 0)  -->
<!DOCTYPE svg PUBLIC "-//W3C//DTD SVG 1.1//EN" "http://www.w3.org/Graphics/SVG/1.1/DTD/svg11.dtd">
<svg version="1.1" id="图层_1" xmlns="http://www.w3.org/2000/svg" xmlns:xlink="http://www.w3.org/1999/xlink" x="0px" y="0px"
	 width="25px" height="22.223px" viewBox="-169.081 237.835 25 22.223" enable-background="new -169.081 237.835 25 22.223"
	 xml:space="preserve">
<g>
	<g>
		<path fill="#626365" d="M-145.626,244.495h-1.7v6.006c0,1.893-1.617,3.433-3.605,3.433h-7.538l-1.44,1.436
			c0.273,0.398,0.754,0.666,1.308,0.666h6.584l4.034,4.023v-4.023h2.357c0.853,0,1.545-0.63,1.545-1.408v-8.724
			C-144.081,245.125-144.773,244.495-145.626,244.495z"/>
		<path fill="#626365" d="M-159.161,252.26h8.23c1.066,0,1.931-0.788,1.931-1.76v-10.905c0-0.972-0.865-1.76-1.931-1.76h-16.219
			c-1.066,0-1.931,0.788-1.931,1.76V250.5c0,0.972,0.865,1.76,1.931,1.76h2.947v5.028L-159.161,252.26z M-154.555,243.555
			c0.693,0,1.255,0.562,1.255,1.255s-0.562,1.255-1.255,1.255s-1.255-0.562-1.255-1.255S-155.248,243.555-154.555,243.555z
			 M-159.052,243.555c0.693,0,1.255,0.562,1.255,1.255s-0.562,1.255-1.255,1.255s-1.255-0.562-1.255-1.255
			S-159.746,243.555-159.052,243.555z M-164.805,244.81c0-0.693,0.562-1.255,1.255-1.255s1.255,0.562,1.255,1.255
			s-0.562,1.255-1.255,1.255S-164.805,245.503-164.805,244.81z"/>
	</g>
</g>
</svg>
