<?xml version="1.0" encoding="utf-8"?>
<!DOCTYPE svg PUBLIC "-//W3C//DTD SVG 1.1//EN" "http://www.w3.org/Graphics/SVG/1.1/DTD/svg11.dtd">
<svg version="1.1" id="图形" xmlns="http://www.w3.org/2000/svg" xmlns:xlink="http://www.w3.org/1999/xlink" x="0px" y="0px" width="1024px" height="1024px" viewBox="0 0 1024 1024" enable-background="new 0 0 1024 1024" xml:space="preserve">
  <path fill="#272636" d="M955.289-115.467c0-22.513-18.42-40.932-40.932-40.932h-809.572c-22.513 0-40.932 18.42-40.932 40.932v810.738c0 22.513 18.42 40.932 40.932 40.932h211.284c0 0 9.090-0.604 13.24-5.488 12.202-14.359 31.305-46.126 43.521-53.347 2.573-1.521 11.752-2.181 11.752-2.181h529.775c22.513 0 40.932-18.42 40.932-40.932l0-749.722zM727.834 307.763c-5.632 1.748-16.611-6.902-22.295-13.46-26.633-30.727-54.53-60.764-77.572-94.066-19.954-28.775-45.488-30.763-69.052-15.719-26.175 16.669-47.944 40.875-69.582 63.735-14.736 15.646-10.238 32.202 3.84 48.357 28.144 32.254 55.295 65.407 81.739 99.013 6.539 8.356 8.871 19.991 13.103 30.121-10.525 3.758-20.851 9.832-31.655 10.909-158.084 15.682-276.436-137.244-222.406-288.658 8.798-24.674 5.806-40.654-10.707-59.995-32.772-38.325-120.297-147.872-198.651-244.4h207.063c42.416 59.352 78.343 100.407 94.309 121.529 25.823 34.144 50.808 47.247 95.481 42.105 149.402-17.21 268.217 134.592 221.674 277.622-2.77 8.52-8.445 20.775-15.289 22.908zM737.546 413.792l-36.116-16.8-33.091 24.005 2.957 40.774 36.116 16.8 33.091-24.005-2.957-40.774zM711.857 539.363l-89.918-41.827-7.401-101.565 82.464-59.805 89.918 41.827 7.385 101.599-82.449 59.771z" transform="translate(0, 812) scale(1, -1)"/>
</svg>
