<?xml version="1.0" encoding="utf-8"?>
<!DOCTYPE svg PUBLIC "-//W3C//DTD SVG 1.1//EN" "http://www.w3.org/Graphics/SVG/1.1/DTD/svg11.dtd">
<svg version="1.1" id="图形" xmlns="http://www.w3.org/2000/svg" xmlns:xlink="http://www.w3.org/1999/xlink" x="0px" y="0px" width="1024px" height="1024px" viewBox="0 0 1024 1024" enable-background="new 0 0 1024 1024" xml:space="preserve">
  <path fill="#272636" d="M640.014 223.992v0-166.378c0-14.156-11.442-25.598-25.606-25.598l-230.378-0c0 0 0 528.81 0 539.346 0 16.15-8.372 40.738-35.894 54.586-15.348 7.748-220.126 110.082-220.126 110.082h486.4c14.166 0 25.608-11.478 25.608-25.6v-230.42h64.036l0 281.62c-0.004 21.208-17.232 38.37-38.44 38.37h-627.214c-21.206 0-38.4-17.162-38.4-38.37v-755.222c0-14.858 8.476-27.694 20.79-34.112 0.104-0.066 0.17-0.14 0.28-0.14 16.81-8.996 248.694-135.96 333.904-180.886 18.102-9.488 29.058 1.046 29.058 11.3 0 10.258 0 165.402 0 165.402h281.584c21.21 0 38.438 17.234 38.438 38.438v217.582h-64.040zM960 352l-191.978 192.016v-128.010h-319.992v-128.006h319.992v-127.976z" transform="translate(0, 812) scale(1, -1)"/>
</svg>
