<?xml version="1.0" encoding="utf-8"?>
<!DOCTYPE svg PUBLIC "-//W3C//DTD SVG 1.1//EN" "http://www.w3.org/Graphics/SVG/1.1/DTD/svg11.dtd">
<svg version="1.1" id="图形" xmlns="http://www.w3.org/2000/svg" xmlns:xlink="http://www.w3.org/1999/xlink" x="0px" y="0px" width="1024px" height="1024px" viewBox="0 0 1024 1024" enable-background="new 0 0 1024 1024" xml:space="preserve">
  <path fill="#272636" d="M634.778 87.66l183.086-227.489c0 0 18.73-30.244 58.907-14.741s39.227 53.15 10.564 86.62c-28.664 33.47-178.909 199.777-178.909 199.777l-73.647-44.167zM136.993 330.468c0 0-33.348 21.006-15.971 105.967 7.918 38.717 29.452 227.563 237.629 284.438 224.459 61.324 436.921-86.161 464.312-267.893 32.882-218.168-46.482-389.504-314.218-410.732-279.64-22.172-320.601 244.928-269.414 370.58 46.86 115.032 130.668 134.443 211.006 136.989 80.338 2.546 222.75-75.45 154.058-254.092 0 0-52.97-98.686-147.443-57.869-74.21 32.061-90.348 113.020-34.526 144.469s81.151-43.896 47.628-62.222c-18.176-9.936 15.778-40.264 44.274-18.827 34.46 25.923 52.982 107.261-12.728 147.893-59.523 36.806-177.994 17.798-192.251-99.1-14.257-116.898 150.421-257.827 310.074-154.078 178.523 116.012 84.031 436.601-127.307 442.997-212.58 6.435-271.139-112.489-301.29-179.284-26.256-58.169-4.264-140.892-53.832-129.237z" transform="translate(0, 812) scale(1, -1)"/>
</svg>
