<?xml version="1.0" encoding="utf-8"?>
<!DOCTYPE svg PUBLIC "-//W3C//DTD SVG 1.1//EN" "http://www.w3.org/Graphics/SVG/1.1/DTD/svg11.dtd">
<svg version="1.1" id="图形" xmlns="http://www.w3.org/2000/svg" xmlns:xlink="http://www.w3.org/1999/xlink" x="0px" y="0px" width="1024px" height="1024px" viewBox="0 0 1024 1024" enable-background="new 0 0 1024 1024" xml:space="preserve">
  <path fill="#272636" d="M511.998977 749.869964c-248.458745 0-449.868941-201.411219-449.868941-449.869964S263.540232-149.869964 511.998977-149.869964c248.458745 0 449.870987 201.411219 449.870987 449.869964S760.457722 749.869964 511.998977 749.869964zM684.938748 352.563146c22.712281 0 41.125653-18.413372 41.125653-41.125653s-18.413372-41.125653-41.125653-41.125653c-22.713304 0-41.099047 18.413372-41.099047 41.125653S662.225443 352.563146 684.938748 352.563146zM522.410094 463.286923c29.877471 0 54.076616-24.200168 54.076616-54.077639 0-29.877471-24.199145-54.077639-54.076616-54.077639-29.878494 0-54.078663 24.200168-54.078663 54.077639C468.331431 439.086755 492.530576 463.286923 522.410094 463.286923zM360.447329 355.131645c23.334451 0 42.261523-18.927071 42.261523-42.234917 0-23.361057-18.927071-42.261523-42.261523-42.261523s-42.233893 18.900465-42.233893 42.261523C318.213435 336.204573 337.112877 355.131645 360.447329 355.131645zM275.464819 161.968274c2.64934 63.377446 39.963177 81.494059 86.009909 81.494059s83.33294-18.116613 85.983303-81.494059L275.464819 161.968274zM462.194664 216.045913c-8.977465 18.575054-22.73991 32.635281-40.936341 41.774429 15.925714 47.182602 55.402821 62.540382 102.449323 62.540382 48.291866 0 88.632643-16.169261 103.639428-66.406432-15.953344-8.895601-28.634154-21.847587-37.582967-37.908378L462.194664 216.045913zM602.226954 161.968274c2.568499 54.077639 38.882566 79.33079 83.711564 79.33079 44.830021 0 81.143065-25.254174 83.711564-79.33079L602.226954 161.968274z" transform="translate(0, 812) scale(1, -1)"/>
</svg>
