<?xml version="1.0" encoding="utf-8"?>
<!-- Generator: Adobe Illustrator 17.0.0, SVG Export Plug-In . SVG Version: 6.00 Build 0)  -->
<!DOCTYPE svg PUBLIC "-//W3C//DTD SVG 1.1//EN" "http://www.w3.org/Graphics/SVG/1.1/DTD/svg11.dtd">
<svg version="1.1" id="图层_1" xmlns="http://www.w3.org/2000/svg" xmlns:xlink="http://www.w3.org/1999/xlink" x="0px" y="0px"
	 width="12px" height="12.857px" viewBox="0 0 12 12.857" enable-background="new 0 0 12 12.857" xml:space="preserve">
<path fill="#606061" d="M10.342,3.857h0.008c0-2-1.903-3.857-4.25-3.857c-2.347,0-4.25,1.665-4.25,4.012
	c0,0.029,0.008-0.155,0.008-0.155H0v9h12v-9H10.342z M4.201,10.857l1.168-1.901c-0.403-0.269-0.668-0.51-0.668-1.03
	c0-0.828,0.672-1.391,1.5-1.391s1.5,0.726,1.5,1.554c0,0.52-0.265,0.571-0.668,0.84l1.168,1.928H4.201z M8.342,3.857H3.859
	c-0.001,0-0.008,0-0.008,0c0-1,1.01-1.857,2.25-1.857s2.25,0.771,2.25,2.012C8.351,4.04,8.344,3.857,8.342,3.857z"/>
</svg>
