<?xml version="1.0" encoding="utf-8"?>
<!-- Generator: Adobe Illustrator 17.0.0, SVG Export Plug-In . SVG Version: 6.00 Build 0)  -->
<!DOCTYPE svg PUBLIC "-//W3C//DTD SVG 1.1//EN" "http://www.w3.org/Graphics/SVG/1.1/DTD/svg11.dtd">
<svg version="1.1" id="图层_1" xmlns="http://www.w3.org/2000/svg" xmlns:xlink="http://www.w3.org/1999/xlink" x="0px" y="0px"
	 width="35px" height="32.409px" viewBox="0 0 35 32.409" enable-background="new 0 0 35 32.409" xml:space="preserve">
<g>
	<g>
		<rect x="5.583" y="0" fill="#FFFFFF" width="8.864" height="8.645"/>
		<path fill="#FFFFFF" d="M14.448,9.779H5.583v8.645h8.864V9.779z M10.299,17.407c-1.995,0-3.226-0.966-3.226-2.134
			c0-1.452,2.044-1.55,2.044-1.744c0-0.165-1.859-0.861-1.859-2.089c0-0.269,0.406-0.217,0.726-0.217h4.063
			c0.234,0,0.616-0.037,0.616,0.165c0,0.165-0.259,1.063-0.443,1.063c-0.234,0-1.256-0.27-2.229-0.27
			c-0.222,0-0.591-0.008-0.591,0.127c0,0.225,2.339,1.467,2.339,1.759c0,0.12-0.271,0.157-0.431,0.157
			c-1.379,0-2.438,0.3-2.438,0.988c0,0.411,0.579,0.861,1.28,0.861c1.034,0,1.391-0.532,1.65-0.532c0.123,0,1.281,0.958,1.281,1.018
			C13.081,16.658,12.084,17.407,10.299,17.407z"/>
		<rect x="5.583" y="19.724" fill="#FFFFFF" width="8.864" height="8.645"/>
		<polygon fill="#FFFFFF" points="5.583,29.503 0.613,32.409 9.477,32.409 14.448,29.503 		"/>
		<rect x="15.913" y="0" fill="#FFFFFF" width="8.865" height="8.197"/>
		<rect x="15.913" y="19.724" fill="#FFFFFF" width="8.865" height="8.645"/>
		<polygon fill="#FFFFFF" points="15.913,29.503 10.942,32.409 19.807,32.409 24.778,29.503 		"/>
		<rect x="26.136" y="19.724" fill="#FFFFFF" width="8.864" height="8.645"/>
		<polygon fill="#FFFFFF" points="21.165,32.409 30.029,32.409 35,29.503 26.136,29.503 		"/>
		<polygon fill="#FFFFFF" points="4.432,0 0,2.802 0,11.447 4.432,8.645 		"/>
		<polygon fill="#FFFFFF" points="4.432,9.779 0,12.581 0,21.226 4.432,18.425 		"/>
		<polygon fill="#FFFFFF" points="4.432,19.724 0,22.525 0,31.171 4.432,28.369 		"/>
		<path fill="#FFFFFF" d="M20.87,11.231h-3.194v5.907h3.562c0.691,0,1.183-0.03,1.474-0.088c0.434-0.087,0.866-0.291,1.297-0.611
			c0.62-0.461,0.93-1.213,0.93-2.253C24.938,12.215,23.582,11.231,20.87,11.231z M22.502,15.538
			c-0.278,0.484-0.822,0.727-1.632,0.727h-1.005v-4.153h0.816c1.37,0,2.056,0.691,2.056,2.073
			C22.737,14.815,22.658,15.266,22.502,15.538z"/>
		<path fill="#FFFFFF" d="M31.045,17.206c2.303,0,3.454-0.592,3.454-1.777v-4.199h-1.632v4.103c0,0.356-0.121,0.611-0.363,0.763
			c-0.243,0.153-0.658,0.229-1.243,0.229c-0.553,0-0.956-0.076-1.208-0.229c-0.253-0.153-0.38-0.397-0.38-0.733v-4.134h-2.208v3.969
			C27.464,16.537,28.658,17.206,31.045,17.206z"/>
	</g>
</g>
</svg>
