<?xml version="1.0" encoding="utf-8"?>
<!-- Generator: Adobe Illustrator 17.0.0, SVG Export Plug-In . SVG Version: 6.00 Build 0)  -->
<!DOCTYPE svg PUBLIC "-//W3C//DTD SVG 1.1//EN" "http://www.w3.org/Graphics/SVG/1.1/DTD/svg11.dtd">
<svg version="1.1" id="图层_1" xmlns="http://www.w3.org/2000/svg" xmlns:xlink="http://www.w3.org/1999/xlink" x="0px" y="0px"
	 width="142.673px" height="32.409px" viewBox="0 0 142.673 32.409" enable-background="new 0 0 142.673 32.409"
	 xml:space="preserve">
<g>
	<g>
		<g>
			<rect x="5.583" y="0" fill="#FFFFFF" width="8.864" height="8.645"/>
		</g>
		<g>
			<path fill="#FFFFFF" d="M14.448,9.779H5.583v8.645h8.864V9.779z M10.299,17.407c-1.995,0-3.226-0.966-3.226-2.134
				c0-1.452,2.044-1.55,2.044-1.744c0-0.165-1.859-0.861-1.859-2.089c0-0.269,0.406-0.217,0.726-0.217h4.063
				c0.234,0,0.616-0.037,0.616,0.165c0,0.165-0.259,1.063-0.443,1.063c-0.234,0-1.256-0.27-2.229-0.27
				c-0.222,0-0.591-0.008-0.591,0.127c0,0.225,2.339,1.467,2.339,1.759c0,0.12-0.271,0.157-0.431,0.157
				c-1.379,0-2.438,0.3-2.438,0.988c0,0.411,0.579,0.861,1.28,0.861c1.034,0,1.391-0.532,1.65-0.532
				c0.123,0,1.281,0.958,1.281,1.018C13.081,16.658,12.084,17.407,10.299,17.407z"/>
		</g>
		<g>
			<rect x="5.583" y="19.723" fill="#FFFFFF" width="8.864" height="8.645"/>
		</g>
		<g>
			<polygon fill="#FFFFFF" points="5.583,29.503 0.613,32.409 9.477,32.409 14.448,29.503 			"/>
		</g>
		<g>
			<rect x="15.913" y="0" fill="#FFFFFF" width="8.865" height="8.197"/>
		</g>
		<g>
			<rect x="15.913" y="19.723" fill="#FFFFFF" width="8.865" height="8.645"/>
		</g>
		<g>
			<polygon fill="#FFFFFF" points="15.913,29.503 10.942,32.409 19.807,32.409 24.778,29.503 			"/>
		</g>
		<g>
			<rect x="26.136" y="19.723" fill="#FFFFFF" width="8.864" height="8.645"/>
		</g>
		<g>
			<polygon fill="#FFFFFF" points="21.165,32.409 30.029,32.409 35,29.503 26.136,29.503 			"/>
		</g>
		<g>
			<polygon fill="#FFFFFF" points="4.432,0 0,2.802 0,11.447 4.432,8.645 			"/>
		</g>
		<g>
			<polygon fill="#FFFFFF" points="4.432,9.779 0,12.581 0,21.226 4.432,18.424 			"/>
		</g>
		<g>
			<polygon fill="#FFFFFF" points="4.432,19.723 0,22.525 0,31.17 4.432,28.369 			"/>
		</g>
		<g>
			<path fill="#FFFFFF" d="M20.87,11.23h-3.194v5.907h3.562c0.691,0,1.183-0.03,1.474-0.088c0.434-0.087,0.866-0.291,1.297-0.611
				c0.62-0.461,0.93-1.213,0.93-2.253C24.938,12.215,23.582,11.23,20.87,11.23z M22.502,15.537
				c-0.278,0.484-0.822,0.727-1.632,0.727h-1.005v-4.153h0.816c1.37,0,2.056,0.691,2.056,2.073
				C22.737,14.814,22.658,15.265,22.502,15.537z"/>
		</g>
		<g>
			<path fill="#FFFFFF" d="M31.045,17.206c2.303,0,3.454-0.592,3.454-1.777V11.23h-1.632v4.103c0,0.356-0.121,0.611-0.363,0.763
				c-0.243,0.153-0.658,0.229-1.243,0.229c-0.553,0-0.956-0.076-1.208-0.229c-0.253-0.153-0.38-0.397-0.38-0.733V11.23h-2.208v3.969
				C27.464,16.537,28.658,17.206,31.045,17.206z"/>
		</g>
	</g>
	<g>
		<path fill="#FFFFFF" d="M53.579,14.589v-1.6h16.189v1.6H57.103l-1.415,5.44c-0.047,0.182-0.07,0.352-0.07,0.51
			c0,0.328,0.129,0.565,0.387,0.712c0.152,0.088,0.305,0.132,0.457,0.132h0.527h9.527c0.463,0,0.75-0.021,0.861-0.062
			c0.305-0.117,0.457-0.357,0.457-0.721c0-0.141-0.015-0.272-0.044-0.396l-0.888-3.683h1.679l0.791,3.437
			c0.105,0.457,0.158,0.864,0.158,1.222c0,0.604-0.287,1.096-0.861,1.477c-0.398,0.264-1.008,0.396-1.828,0.396H56.382
			c-0.662,0-1.222-0.161-1.679-0.483c-0.551-0.387-0.826-0.929-0.826-1.626c0-0.24,0.044-0.53,0.132-0.87l1.415-5.484H53.579z
			 M53.886,9.799V8.226h15.609v1.573H53.886z"/>
		<path fill="#FFFFFF" d="M71.561,10.942V9.316h7.286V8.164h1.617v1.151h7.339v1.626H71.561z M71.561,23.079v-1.652h16.242v1.652
			H71.561z M72.335,12.155h1.617l0.65,5.01c0.088,0.656,0.202,1.093,0.343,1.31c0.211,0.328,0.536,0.492,0.976,0.492v1.626
			c-0.855-0.053-1.547-0.357-2.074-0.914c-0.422-0.445-0.697-1.172-0.826-2.18L72.335,12.155z M83.506,20.583v-1.617
			c0.404-0.041,0.694-0.164,0.87-0.369c0.188-0.217,0.313-0.574,0.378-1.072l0.721-5.37h1.635l-0.712,5.361
			c-0.094,0.715-0.22,1.222-0.378,1.521c-0.311,0.621-0.765,1.063-1.362,1.327C84.382,20.481,83.998,20.554,83.506,20.583z"/>
		<path fill="#FFFFFF" d="M89.552,23.167v-1.626c0.217,0,0.401-0.047,0.554-0.141c0.363-0.205,0.571-0.51,0.624-0.914l1.266-9.404
			h-2.417V9.43h7.058V8.243h1.626V9.43h7.532v1.652h-12.19l-0.325,2.435h9.738c0.768,0,1.368,0.205,1.802,0.615
			c0.445,0.422,0.668,0.996,0.668,1.723v4.966c0,0.65-0.211,1.189-0.633,1.617s-1.017,0.642-1.784,0.642h-3.788v-1.626h3.639
			c0.311,0,0.557-0.114,0.738-0.343c0.135-0.17,0.202-0.398,0.202-0.686v-4.289c0-0.662-0.363-0.993-1.09-0.993h-9.677l-0.747,5.476
			c-0.094,0.668-0.34,1.213-0.738,1.635C91.076,22.822,90.39,23.126,89.552,23.167z"/>
		<path fill="#FFFFFF" d="M107.535,18.834v-1.626l8.851,0.009l2.602-1.679c0.252-0.164,0.378-0.334,0.378-0.51
			c0-0.07-0.032-0.126-0.097-0.167c-0.082-0.059-0.299-0.088-0.65-0.088h-9.932l0.009-1.652h10.652c0.744,0,1.315,0.144,1.714,0.431
			c0.416,0.299,0.624,0.691,0.624,1.178c0,0.598-0.343,1.122-1.028,1.573l-1.362,0.905h4.535v1.626l-5.361,0.009v1.573
			c0,0.738-0.211,1.348-0.633,1.828c-0.486,0.557-1.134,0.835-1.942,0.835h-3.252l-0.009-1.652l2.848,0.009
			c0.398,0,0.686-0.091,0.861-0.272c0.193-0.199,0.29-0.448,0.29-0.747v-1.582H107.535z M107.561,12.682l-0.009-0.958
			c-0.006-1.113,0.583-1.875,1.767-2.285l0.009-1.336h1.626v1.301h3.938V8.12l1.635-0.018v1.301h3.999V8.103h1.626l-0.009,1.362
			c0.762,0.264,1.266,0.677,1.512,1.239c0.146,0.322,0.217,0.729,0.211,1.222l-0.009,0.756h-1.617V11.97
			c0-0.633-0.407-0.949-1.222-0.949h-10.731c-0.709,0-1.066,0.316-1.072,0.949l-0.009,0.712H107.561z"/>
		<path fill="#FFFFFF" d="M125.579,23.018V9.72c0-0.521,0.141-0.92,0.422-1.195c0.281-0.281,0.615-0.422,1.002-0.422h2.232
			c0.521,0,0.92,0.141,1.195,0.422c0.287,0.299,0.431,0.612,0.431,0.94v4.368c0,0.422-0.138,0.765-0.413,1.028
			c0.223,0.129,0.349,0.281,0.378,0.457c0.023,0.123,0.035,0.281,0.035,0.475v4.649c0,0.451-0.149,0.817-0.448,1.099
			c-0.293,0.275-0.63,0.413-1.011,0.413h-1.134V20.32h0.448c0.346,0,0.519-0.176,0.519-0.527V16.25c0-0.357-0.158-0.536-0.475-0.536
			h-0.633v-1.652h0.589c0.346,0,0.519-0.158,0.519-0.475v-3.331c0-0.182-0.041-0.319-0.123-0.413
			c-0.076-0.082-0.226-0.123-0.448-0.123h-0.932c-0.223,0-0.375,0.053-0.457,0.158c-0.047,0.059-0.07,0.176-0.07,0.352v12.788
			H125.579z M131.248,23.053v-1.582c0.51-0.012,0.967-0.249,1.371-0.712c0.357-0.41,0.601-1.113,0.729-2.109
			c0.035-0.305,0.073-0.741,0.114-1.31h-2.092v-1.626h10.397v1.626h-1.942v3.384c0,0.264,0.047,0.445,0.141,0.545
			c0.082,0.082,0.261,0.123,0.536,0.123h1.336v1.626h-2.224c-0.375,0-0.7-0.141-0.976-0.422c-0.293-0.305-0.439-0.706-0.439-1.204
			V17.34h-3.146c-0.129,1.213-0.261,2.086-0.396,2.619c-0.328,1.301-0.923,2.174-1.784,2.619
			C132.346,22.848,131.804,23.006,131.248,23.053z M131.362,11.821v-1.345c0-0.398,0.17-0.771,0.51-1.116
			c0.398-0.398,0.961-0.598,1.688-0.598h2.188V8.147h1.617v0.615h2.101c0.691,0,1.228,0.164,1.608,0.492
			c0.434,0.369,0.65,0.876,0.65,1.521v1.046h-1.591v-0.536c0-0.246-0.082-0.454-0.246-0.624c-0.152-0.164-0.363-0.246-0.633-0.246
			h-5.379c-0.305,0-0.524,0.079-0.659,0.237c-0.152,0.182-0.229,0.372-0.229,0.571v0.598H131.362z M131.388,14.44v-1.652h10.336
			v1.652H131.388z"/>
	</g>
</g>
</svg>
