<?xml version="1.0" encoding="utf-8"?>
<!DOCTYPE svg PUBLIC "-//W3C//DTD SVG 1.1//EN" "http://www.w3.org/Graphics/SVG/1.1/DTD/svg11.dtd">
<svg version="1.1" id="图形" xmlns="http://www.w3.org/2000/svg" xmlns:xlink="http://www.w3.org/1999/xlink" x="0px" y="0px" width="1024px" height="1024px" viewBox="0 0 1024 1024" enable-background="new 0 0 1024 1024" xml:space="preserve">
  <path fill="#272636" d="M970.809-98.753v749.722c0 22.513-18.42 40.932-40.932 40.932h-529.775c0 0-9.179 0.66-11.752 2.181-12.216 7.221-31.319 38.988-43.521 53.347-4.15 4.884-13.24 5.488-13.24 5.488h-211.284c-22.513 0-40.932-18.42-40.932-40.932v-810.738c0-22.513 18.42-40.932 40.932-40.932h809.572c22.513 0 40.932 18.42 40.931 40.932v0zM198.213 513.184h296.759v-295.735h-296.759v295.735zM853.129-20.982h-654.916v60.375h654.916v-60.375zM853.129 96.698h-654.916v60.375h654.916v-60.375zM853.129 217.448h-298.805v58.328h298.805l0-58.328zM853.129 335.128h-298.805v60.375h298.805l0-60.375zM853.129 453.832h-298.805v59.352h298.805l0-59.352z" transform="translate(0, 812) scale(1, -1)"/>
</svg>
