<?xml version="1.0" encoding="utf-8"?>
<!DOCTYPE svg PUBLIC "-//W3C//DTD SVG 1.1//EN" "http://www.w3.org/Graphics/SVG/1.1/DTD/svg11.dtd">
<svg version="1.1" id="图形" xmlns="http://www.w3.org/2000/svg" xmlns:xlink="http://www.w3.org/1999/xlink" x="0px" y="0px" width="1024px" height="1024px" viewBox="0 0 1024 1024" enable-background="new 0 0 1024 1024" xml:space="preserve">
  <path fill="#272636" d="M513.845 394.837c-57.694 0-104.523-46.779-104.523-104.523s46.829-104.473 104.523-104.473c57.694 0 104.473 46.779 104.473 104.473-0.001 57.693-46.731 104.523-104.473 104.523zM512 737.070c-248.014 0-449.069-201.055-449.069-449.070s201.055-449.069 449.069-449.069 449.070 201.055 449.070 449.069-201.056 449.070-449.070 449.070zM702.881 160.355l17.833-17.735c8.103-8.197 8.103-21.533 0-29.636l-29.636-29.587c-8.152-8.152-21.44-8.152-29.64 0l-17.682 17.784c-8.103 8.099-23.116 10.322-33.243 4.839l-34.973-14.325c-10.918-3.46-19.906-15.61-19.906-27.119v-25.042c0-11.46-9.436-20.898-20.897-20.898h-41.835c-11.509 0-20.946 9.388-20.946 20.898v25.042c0 11.46-8.94 23.659-19.955 27.119l-35.022 14.373c-10.127 5.484-25.042 3.26-33.095-4.838l-17.833-17.784c-8.098-8.152-21.435-8.152-29.538 0l-29.587 29.538c-8.103 8.103-8.103 21.44 0 29.636l17.784 17.735c8.148 8.050 10.322 23.067 4.936 33.243l-14.472 34.973c-3.357 10.967-15.56 19.906-27.071 19.955h-25.042c-11.558 0-20.946 9.387-20.946 20.897v41.786c0 11.509 9.388 20.897 20.946 20.897l25.042-0.048c11.509 0 23.713 8.988 27.071 19.954l14.422 35.022c5.435 10.127 3.211 25.042-4.936 33.194l-17.784 17.784c-8.103 8.148-8.103 21.436 0 29.538l29.587 29.587c8.104 8.099 21.44 8.099 29.539 0l17.832-17.784c8.152-8.148 23.018-10.322 33.145-4.936l35.071 14.521c11.016 3.357 19.955 15.56 19.955 27.119v25.042c-0.049 11.509 9.387 20.898 20.897 20.898h41.786c11.46 0 20.897-9.388 20.897-20.898v-25.042c0-11.509 9.038-23.712 19.906-27.119l34.973-14.422c10.126-5.435 25.141-3.211 33.243 4.936l17.731 17.784c8.201 8.103 21.489 8.103 29.64 0l29.636-29.587c8.103-8.104 8.103-21.44 0-29.587l-17.833-17.735c-8.098-8.152-10.273-23.067-4.887-33.194l14.373-34.973c3.456-11.016 15.61-19.955 27.12-19.955h25.14c11.411 0 20.849-9.384 20.849-20.893v-41.839c0-11.559-9.388-20.995-20.849-20.995l-25.142 0c-11.412 0-23.664-8.989-27.12-19.906l-14.373-34.973c-5.385-10.176-3.21-25.194 4.888-33.243z" transform="translate(0, 812) scale(1, -1)"/>
</svg>
