<?xml version="1.0" encoding="utf-8"?>
<!-- Generator: Adobe Illustrator 17.0.0, SVG Export Plug-In . SVG Version: 6.00 Build 0)  -->
<!DOCTYPE svg PUBLIC "-//W3C//DTD SVG 1.1//EN" "http://www.w3.org/Graphics/SVG/1.1/DTD/svg11.dtd">
<svg version="1.1" id="图层_1" xmlns="http://www.w3.org/2000/svg" xmlns:xlink="http://www.w3.org/1999/xlink" x="0px" y="0px"
	 width="80px" height="79.998px" viewBox="0 0 80 79.998" enable-background="new 0 0 80 79.998" xml:space="preserve">
<g>
	<path id="color_5_" fill="#5ABDA6" d="M0,39.997c0,22.092,17.909,40,39.997,40c22.092,0,40.003-17.908,40.003-40
		C80,17.909,62.089,0,39.997,0C17.909,0,0,17.909,0,39.997z"/>
	<g id="_x32_9_2_">
		<g>
			<path id="icon_2_" fill="#FDFBF7" d="M42.914,30.24c-5.51,0-9.975,4.468-9.975,9.978c0,5.509,4.465,9.975,9.975,9.975
				c5.509,0,9.973-4.466,9.973-9.975C52.887,34.707,48.423,30.24,42.914,30.24z M41.885,33.427h0.485v-0.578h-0.334h-0.093v-1.484
				h0.607v-0.76l0.035-0.079c0.108-0.006,0.217-0.01,0.328-0.01c0.485,0,0.961,0.035,1.426,0.106v0.499h0.697v0.789v1.104h-0.53
				l-0.457,0.458l-1.105,1.107l-0.574,0.576l-0.485-0.487V33.427z M40.022,30.957l0.179,0.179l-0.32,0.318h-0.545V32h0.759h0.392
				v2.517H39.61v-1.819h-0.608v-0.881h-0.394v0.513l-0.378,0.383h-0.893l-0.248-0.248C37.962,31.805,38.952,31.291,40.022,30.957z
				 M43.187,45.035H42.37l-0.427,0.61v1.361l-1.243,0.912v1.637l-1.396-1.272v-3.338l-1.487-1.395v-1.695l-1.027-0.76h-0.911
				l-0.654-0.654V39.55l-0.436-0.273l-0.125,0.334l0.215,0.119v0.761l-0.546-0.669l-0.272-1.062l-0.243-0.06v-1.855
				c0.485-1.304,1.243-2.479,2.207-3.451l3.037,0.032l-0.121,0.636l-0.91,0.059l0.091,0.302l0.213,0.243l-0.246,0.395l-0.725-0.089
				l0.426,0.576l0.725,0.513l0.243,0.578l0.303-0.091v-1.487h0.818v0.183h0.851v1.031h-0.365v0.422h-0.364v0.273h0.513l-0.333,0.334
				l-0.136-0.136l-0.32,0.317v0.271l-0.287,0.292l-0.363,0.364l-0.426,0.424l-0.286,0.287v0.909h-0.398V39.55h-1.302v0.549
				l1.275,1.211h2.544v0.242h0.911l1.002,1.273h0.788V45.035z M50.918,39.396v0.792h-1.303l-0.639-0.638v-0.425h-0.378v0.592
				l0.863,0.865h0.987v0.711l-0.896,0.895v1.304v1.213h-0.681v1.288l-0.529,0.529h-1.247v-1.145l-0.675-0.672v-2.112l-0.837-0.837
				H43.83l-0.689-0.689v-1.745l0.59-0.59h1.002l0.636-0.636h0.334h0.426v0.333h2.333v-0.409h-0.59l0.348-0.346l0.334-0.336h0.572
				l-0.361-0.359h-0.543l-0.572,0.571v0.447l-0.612-0.612h-0.382l0.56,0.56h-0.452L46.4,37.579v-0.243l-0.546-0.546l-0.409,0.411
				l-0.351,0.348v0.636H44.4v-0.302v-0.969h0.254v-0.229l0.167-0.166l-0.301-0.304l-0.397,0.393l-0.316-0.32l0.168-0.166v-0.301
				v-0.609h0.635v0.364l0.545,0.546h0.395v-0.425h1.214v-0.425h0.483v-0.604h-0.513v-0.576h-0.273v1.154l-0.214,0.213l-0.425-0.186
				l-0.729-0.179l0.062-0.697l0.728-0.546l0.425-0.727l0.788-0.182l-0.09,0.362l0.513,0.091l-0.029,0.364l0.576-0.062l0.273-0.182
				l0.06-0.301h1.216c1.843,1.764,2.996,4.253,2.996,7.003c0,0.15-0.004,0.292-0.011,0.44l-2.109-2.109l-0.214,0.213L50.918,39.396z
				"/>
		</g>
		<g>
			<path fill="#FDFBF7" d="M53.419,17.059c-3.598,0.059-6.488,2.674-6.452,5.842c0.026,2.109,1.341,3.926,3.276,4.891l-1.159,2.565
				l3.326-1.895c0.373,0.053,0.754,0.081,1.142,0.076c3.602-0.057,6.487-2.674,6.453-5.845
				C59.966,19.523,57.02,17.003,53.419,17.059z"/>
			<g>
				<circle fill="#5ABDA6" cx="53.089" cy="21.052" r="1.68"/>
				<path fill="#5ABDA6" d="M55.9,26.23c-0.001,0-0.001,0.002-0.001,0.003c-0.004,0-0.008,0-0.012,0
					c-0.151,0.034-0.304,0.054-0.465,0.054h-4.665c-0.162,0-0.315-0.021-0.466-0.054c-0.003,0-0.01,0-0.012-0.001v-0.003
					c-0.001-0.006-0.005-0.015-0.005-0.022c0-0.139,0.025-0.263,0.037-0.395c0.18-1.879,1.574-2.867,2.779-2.867
					c1.195,0,2.58,1.175,2.774,2.867c0.016,0.132,0.04,0.258,0.04,0.395C55.903,26.214,55.9,26.222,55.9,26.23z"/>
			</g>
		</g>
		<g>
			<path fill="#FDFBF7" d="M55.414,62.939c-3.599-0.059-6.487-2.674-6.451-5.843c0.026-2.108,1.34-3.925,3.275-4.89l-1.159-2.565
				l3.326,1.893c0.373-0.051,0.754-0.079,1.143-0.075c3.602,0.057,6.487,2.672,6.452,5.845
				C61.961,60.474,59.015,62.995,55.414,62.939z"/>
			<g>
				<circle fill="#5ABDA6" cx="55.748" cy="55.391" r="1.68"/>
				<path fill="#5ABDA6" d="M58.56,60.569c0,0,0,0.002,0,0.003c-0.004,0-0.009,0-0.012,0c-0.15,0.034-0.306,0.054-0.465,0.054
					h-4.667c-0.161,0-0.315-0.021-0.466-0.054c-0.004,0-0.008,0-0.012-0.001v-0.003c-0.001-0.006-0.004-0.015-0.004-0.022
					c0-0.141,0.024-0.263,0.036-0.396c0.179-1.877,1.576-2.864,2.779-2.864c1.196,0,2.581,1.173,2.776,2.866
					c0.015,0.132,0.037,0.258,0.037,0.395C58.562,60.553,58.56,60.562,58.56,60.569z"/>
			</g>
		</g>
		<g>
			<path fill="#FDFBF7" d="M28.285,60.943c3.598-0.057,6.487-2.672,6.451-5.842c-0.026-2.108-1.34-3.925-3.275-4.891l1.159-2.564
				l-3.326,1.893c-0.373-0.051-0.753-0.079-1.143-0.075c-3.601,0.057-6.487,2.674-6.453,5.845
				C21.737,58.479,24.684,61,28.285,60.943z"/>
			<g>
				<circle fill="#5ABDA6" cx="27.949" cy="53.397" r="1.68"/>
				<path fill="#5ABDA6" d="M25.136,58.549c0-0.135,0.023-0.261,0.039-0.393c0.194-1.694,1.578-2.867,2.774-2.867
					c1.203,0,2.6,0.989,2.779,2.866c0.012,0.133,0.036,0.255,0.036,0.396c0,0.007-0.003,0.016-0.004,0.022v0.003
					c-0.004,0-0.01,0-0.012,0c-0.153,0.035-0.307,0.056-0.467,0.056h-4.666c-0.16,0-0.315-0.021-0.466-0.056
					c-0.003,0-0.007,0-0.011,0c0,0,0-0.001-0.001-0.001C25.139,58.567,25.136,58.558,25.136,58.549z"/>
			</g>
		</g>
		<g>
			<path fill="#FDFBF7" d="M24.585,26.324c3.599,0.056,6.488,2.672,6.452,5.84c-0.026,2.108-1.341,3.925-3.276,4.891l1.159,2.565
				l-3.326-1.895c-0.373,0.051-0.754,0.081-1.143,0.075c-3.601-0.057-6.487-2.672-6.452-5.843
				C18.039,28.786,20.984,26.266,24.585,26.324z"/>
			<g>
				<circle fill="#5ABDA6" cx="24.383" cy="30.315" r="1.681"/>
				<path fill="#5ABDA6" d="M21.569,35.468c0-0.135,0.023-0.263,0.039-0.393c0.194-1.693,1.579-2.866,2.775-2.866
					c1.203,0,2.6,0.986,2.779,2.864c0.012,0.132,0.036,0.255,0.036,0.396c0,0.007-0.004,0.016-0.004,0.022v0.003
					c-0.004,0.001-0.008,0.001-0.012,0.001c-0.15,0.032-0.305,0.054-0.466,0.054h-4.666c-0.159,0-0.315-0.022-0.465-0.054
					c-0.003,0-0.009,0-0.011,0c0-0.001,0-0.004-0.001-0.004C21.572,35.486,21.569,35.477,21.569,35.468z"/>
			</g>
		</g>
	</g>
</g>
</svg>
