<?xml version="1.0" encoding="utf-8"?>
<!DOCTYPE svg PUBLIC "-//W3C//DTD SVG 1.1//EN" "http://www.w3.org/Graphics/SVG/1.1/DTD/svg11.dtd">
<svg version="1.1" id="图形" xmlns="http://www.w3.org/2000/svg" xmlns:xlink="http://www.w3.org/1999/xlink" x="0px" y="0px" width="1024px" height="1024px" viewBox="0 0 1024 1024" enable-background="new 0 0 1024 1024" xml:space="preserve">
  <path fill="#272636" d="M337.705 243.179c-48.765-101.537-77.279-161.946-121.494-265.5 0 0-35.901-86.222 48.186-126.644 81.441-39.151 121.88 38.756 124.166 43.789 40.273 88.649 109.023 238.336 109.023 238.336 19.907 48.712 45.983 70.373 100.668 78.343 182.975 26.67 276.53 243.658 176.143 398.959-5.994 9.272-16.382 21.13-25.153 21.495-7.237 0.299-17.575-13.44-22.273-23.045-21.971-44.902-45.6-89.393-62.534-136.237-14.638-40.49-44.331-50.884-77.101-40.459-36.336 11.559-69.858 33.443-102.761 53.81-22.468 13.909-22.353 35.034-10.694 58.672 23.269 47.188 45.072 95.142 65.89 143.463 5.153 11.962 10.113 36.008 6.091 39.925-8.332 7.015-27.888 5.131-41.072 2.993-192.799-31.254-285.243-250.31-173.259-413.229 18.248-26.545 19.726-46.459 6.176-74.672zM259.801-52.957c0-25.414 20.602-46.016 46.016-46.016s46.016 20.602 46.016 46.016c0 25.414-20.602 46.016-46.016 46.016-25.414 0-46.016-20.602-46.016-46.016z" transform="translate(0, 812) scale(1, -1)"/>
</svg>
