<?xml version="1.0" encoding="utf-8"?>
<!DOCTYPE svg PUBLIC "-//W3C//DTD SVG 1.1//EN" "http://www.w3.org/Graphics/SVG/1.1/DTD/svg11.dtd">
<svg version="1.1" id="图形" xmlns="http://www.w3.org/2000/svg" xmlns:xlink="http://www.w3.org/1999/xlink" x="0px" y="0px" width="1024px" height="1024px" viewBox="0 0 1024 1024" enable-background="new 0 0 1024 1024" xml:space="preserve">
  <path fill="#272636" d="M897.324 32.123c-26.903 26.003-185.904 69.77-233.277 103.144-25.433 17.927-39.432 45.405-47.015 70.044 20.359 14.871 32.2 31.761 40.002 56.864 4.421 14.357 8.869 28.541 13.099 43.552l0.162-0.466c20.218-6.22 29.523 19.072 40.522 50.507 11.026 31.463 19.565 56.99-0.626 63.187-3.767 1.174-8.405 1.232-13.29 0.958 3.302 20.001 5.264 38.072 5.264 52.697 0 107.185-81.233 194.079-190.162 194.409-108.929-0.33-190.162-87.241-190.162-194.426 0-14.625 1.962-32.723 5.264-52.724-4.884 0.274-9.523 0.166-13.29-1.007-20.191-6.197-11.651-31.821-0.626-63.283 10.997-31.435 20.302-56.918 40.522-50.699 0 0 0.134 0.055 0.162 0.084 4.23-15.011 8.679-29.959 13.099-44.316 7.802-25.103 19.643-43.522 40.002-58.393-7.584-24.639-21.583-55.175-47.015-73.102-47.373-33.374-206.374-71.026-233.277-97.029-59.215-57.192-61.751-123.031-61.751-123.031h894.143c0.002-0.002-2.536 65.837-61.75 123.029z" transform="translate(0, 812) scale(1, -1)"/>
</svg>
