<?xml version="1.0" encoding="utf-8"?>
<!-- Generator: Adobe Illustrator 17.0.0, SVG Export Plug-In . SVG Version: 6.00 Build 0)  -->
<!DOCTYPE svg PUBLIC "-//W3C//DTD SVG 1.1//EN" "http://www.w3.org/Graphics/SVG/1.1/DTD/svg11.dtd">
<svg version="1.1" id="图层_1" xmlns="http://www.w3.org/2000/svg" xmlns:xlink="http://www.w3.org/1999/xlink" x="0px" y="0px"
	 width="16px" height="14.782px" viewBox="0 0 16 14.782" enable-background="new 0 0 16 14.782" xml:space="preserve">
<path fill="#606061" d="M14.895,11.971c-0.481-0.465-3.327-1.554-4.174-2.151c-0.455-0.321-0.706-0.965-0.841-1.406
	c0.364-0.266,0.576-0.645,0.716-1.094c0.079-0.257,0.159-0.549,0.234-0.817l0.003-0.011c0.362,0.111,0.528-0.351,0.725-0.913
	c0.197-0.563,0.35-1.025-0.011-1.135c-0.067-0.021-0.15-0.024-0.238-0.02c0.059-0.358,0.094-0.682,0.094-0.944
	C11.403,1.561,9.949,0.006,8,0C6.051,0.006,4.597,1.561,4.597,3.479c0,0.262,0.035,0.585,0.094,0.943
	C4.604,4.417,4.521,4.419,4.454,4.44C4.092,4.551,4.245,5.009,4.442,5.572C4.639,6.135,4.806,6.591,5.168,6.48
	c0,0,0.002-0.001,0.003-0.002c0.076,0.269,0.155,0.536,0.234,0.793C5.544,7.72,5.756,8.05,6.121,8.316
	C5.985,8.757,5.734,9.303,5.279,9.624c-0.848,0.597-3.693,1.881-4.174,2.347C0.045,12.994,0,14.782,0,14.782h16
	C16,14.782,15.955,12.994,14.895,11.971z"/>
</svg>
