<?xml version="1.0" encoding="utf-8"?>
<!DOCTYPE svg PUBLIC "-//W3C//DTD SVG 1.1//EN" "http://www.w3.org/Graphics/SVG/1.1/DTD/svg11.dtd">
<svg version="1.1" id="图形" xmlns="http://www.w3.org/2000/svg" xmlns:xlink="http://www.w3.org/1999/xlink" x="0px" y="0px" width="1024px" height="1024px" viewBox="0 0 1024 1024" enable-background="new 0 0 1024 1024" xml:space="preserve">
  <path fill="#272636" d="M512 569.726c-246.966 0-447.172-281.724-447.172-281.724s200.206-281.728 447.172-281.728 447.172 281.728 447.172 281.728-200.206 281.724-447.172 281.724zM512 115.193c-95.437 0-172.806 77.369-172.806 172.81 0 95.437 77.369 172.806 172.806 172.806s172.806-77.369 172.806-172.806c-0-95.442-77.369-172.81-172.806-172.81zM512 382.777c-52.343 0-94.775-42.435-94.775-94.775 0-52.343 42.431-94.775 94.775-94.775s94.775 42.431 94.775 94.775c0 52.34-42.431 94.775-94.775 94.775z" transform="translate(0, 812) scale(1, -1)"/>
</svg>
