<?xml version="1.0" encoding="utf-8"?>
<!-- Generator: Adobe Illustrator 17.0.0, SVG Export Plug-In . SVG Version: 6.00 Build 0)  -->
<!DOCTYPE svg PUBLIC "-//W3C//DTD SVG 1.1//EN" "http://www.w3.org/Graphics/SVG/1.1/DTD/svg11.dtd">
<svg version="1.1" id="图层_1" xmlns="http://www.w3.org/2000/svg" xmlns:xlink="http://www.w3.org/1999/xlink" x="0px" y="0px"
	 width="272.971px" height="288.699px" viewBox="0 0 272.971 288.699" enable-background="new 0 0 272.971 288.699"
	 xml:space="preserve">
<g>
	<g>
		<g>
			<line fill="none" stroke="#FFFFFF" stroke-miterlimit="10" x1="30.928" y1="99.917" x2="120.706" y2="130.584"/>
			<line fill="none" stroke="#FFFFFF" stroke-miterlimit="10" x1="56.262" y1="83.917" x2="120.706" y2="130.584"/>
			<line fill="none" stroke="#FFFFFF" stroke-miterlimit="10" x1="74.928" y1="34.584" x2="120.706" y2="130.584"/>
			<line fill="none" stroke="#FFFFFF" stroke-miterlimit="10" x1="97.595" y1="60.584" x2="120.706" y2="130.584"/>
			<line fill="none" stroke="#FFFFFF" stroke-miterlimit="10" x1="135.595" y1="37.917" x2="120.706" y2="130.584"/>
			<line fill="none" stroke="#FFFFFF" stroke-miterlimit="10" x1="148.928" y1="74.584" x2="120.706" y2="130.584"/>
			<line fill="none" stroke="#FFFFFF" stroke-miterlimit="10" x1="180.262" y1="92.584" x2="120.706" y2="130.584"/>
			<line fill="none" stroke="#FFFFFF" stroke-miterlimit="10" x1="120.706" y1="130.584" x2="30.928" y2="119.917"/>
			<line fill="none" stroke="#FFFFFF" stroke-miterlimit="10" x1="120.706" y1="130.584" x2="206.262" y2="103.917"/>
		</g>
		<g>
			<g>
				
					<ellipse transform="matrix(0.6666 0.7454 -0.7454 0.6666 143.1702 -136.4323)" fill="#E64F5F" cx="224.114" cy="91.846" rx="17.695" ry="19.397"/>
				<polygon fill="#E64F5F" points="209.268,109.342 203.37,102.747 211.677,101.252 211.677,101.252 				"/>
			</g>
		</g>
		<line fill="none" stroke="#FFFFFF" stroke-miterlimit="10" x1="120.234" y1="129.411" x2="159.362" y2="44.288"/>
		<line fill="none" stroke="#FFFFFF" stroke-miterlimit="10" x1="120.875" y1="130.213" x2="170.909" y2="64.333"/>
		<g>
			<g>
				
					<ellipse transform="matrix(0.955 0.2967 -0.2967 0.955 16.1156 -47.7813)" fill="#5ABDA6" cx="165.47" cy="29.201" rx="13" ry="14.25"/>
				<polygon fill="#5ABDA6" points="162.739,45.335 156.532,43.406 161.202,39.327 161.202,39.327 				"/>
			</g>
		</g>
		<g>
			<g>
				
					<ellipse transform="matrix(0.9775 0.2108 -0.2108 0.9775 7.2476 -29.3353)" fill="#E64F5F" cx="141.223" cy="19.328" rx="17.695" ry="19.397"/>
				<polygon fill="#E64F5F" points="139.505,42.21 130.856,40.345 136.696,34.25 136.696,34.25 				"/>
			</g>
		</g>
		<g>
			<g>
				
					<ellipse transform="matrix(0.8947 0.4467 -0.4467 0.8947 43.237 -84.8733)" fill="#61C4F0" cx="201.618" cy="49.26" rx="13" ry="14.25"/>
				<polygon fill="#61C4F0" points="196.323,64.743 190.507,61.84 195.774,58.566 195.774,58.566 				"/>
			</g>
		</g>
		<g>
			<g>
				
					<ellipse transform="matrix(0.84 0.5427 -0.5427 0.84 71.6334 -92.1955)" fill="#5ABDA6" cx="192.117" cy="75.343" rx="17.695" ry="19.397"/>
				<polygon fill="#5ABDA6" points="182.649,95.167 175.217,90.366 182.834,86.728 182.834,86.728 				"/>
			</g>
		</g>
		<g>
			<g>
				
					<ellipse transform="matrix(0.9867 -0.1626 0.1626 0.9867 -2.0076 11.8794)" fill="#E64F5F" cx="71.589" cy="18.208" rx="13" ry="14.25"/>
				<polygon fill="#E64F5F" points="77.582,34.592 71.168,35.648 73.516,29.909 73.516,29.909 				"/>
			</g>
		</g>
		<g>
			<g>
				
					<ellipse transform="matrix(0.8949 -0.4463 0.4463 0.8949 -27.8802 43.5201)" fill="#61C4F0" cx="78.447" cy="80.946" rx="13" ry="14.25"/>
				<polygon fill="#61C4F0" points="89.005,94.834 83.189,97.735 83.74,91.559 83.74,91.559 				"/>
			</g>
		</g>
		<g>
			<g>
				
					<ellipse transform="matrix(0.8949 -0.4463 0.4463 0.8949 -9.1907 26.8705)" fill="#61C4F0" cx="52.447" cy="32.946" rx="13" ry="14.25"/>
				<polygon fill="#61C4F0" points="63.005,46.834 57.189,49.735 57.74,43.559 57.74,43.559 				"/>
			</g>
		</g>
		<g>
			<g>
				
					<ellipse transform="matrix(0.9939 -0.1103 0.1103 0.9939 -1.2372 12.1557)" fill="#FAC11F" cx="109.29" cy="17.265" rx="13" ry="14.25"/>
				<line fill="none" stroke="#FFFFFF" stroke-miterlimit="10" x1="111.093" y1="34.505" x2="120.262" y2="129.251"/>
				<polygon fill="#FAC11F" points="114.41,33.942 107.95,34.659 110.598,29.052 110.598,29.052 				"/>
			</g>
		</g>
		<g>
			<g>
				
					<ellipse transform="matrix(0.3917 -0.9201 0.9201 0.3917 -93.9045 84.4689)" fill="#FAC11F" cx="16.928" cy="113.251" rx="13" ry="14.25"/>
				<polygon fill="#FAC11F" points="33.972,116.974 31.426,122.955 27.84,117.896 27.84,117.896 				"/>
			</g>
		</g>
		<g>
			<g>
				
					<ellipse transform="matrix(0.9273 0.3744 -0.3744 0.9273 31.1095 -62.8627)" fill="#FAC11F" cx="177.37" cy="48.648" rx="13" ry="14.25"/>
				<polygon fill="#FAC11F" points="173.967,65.759 167.94,63.325 172.93,59.645 172.93,59.645 				"/>
			</g>
		</g>
		<g>
			<g>
				
					<ellipse transform="matrix(0.9746 -0.2238 0.2238 0.9746 -13.2113 20.2318)" fill="#FAC11F" cx="82.651" cy="68.401" rx="13" ry="14.25"/>
				<polygon fill="#FAC11F" points="71.508,66.232 65.173,67.687 67.158,61.812 67.158,61.812 				"/>
			</g>
		</g>
		<g>
			<g>
				
					<ellipse transform="matrix(0.7967 -0.6043 0.6043 0.7967 -46.6569 27.2485)" fill="#61C4F0" cx="17.178" cy="82.983" rx="16.579" ry="18.173"/>
				<polygon fill="#61C4F0" points="33.691,97.894 27.086,102.904 26.318,95.033 26.318,95.033 				"/>
			</g>
		</g>
		<g>
			<g>
				
					<ellipse transform="matrix(0.9486 0.3164 -0.3164 0.9486 26.9303 -46.1186)" fill="#61C4F0" cx="155.49" cy="59.874" rx="13" ry="14.25"/>
				<polygon fill="#61C4F0" points="152.425,75.948 146.259,73.891 151.013,69.91 151.013,69.91 				"/>
			</g>
		</g>
		<g>
			<g>
				
					<ellipse transform="matrix(0.9872 0.1592 -0.1592 0.9872 16.394 -22.0341)" fill="#E64F5F" cx="145.68" cy="91.274" rx="13" ry="14.25"/>
				<polygon fill="#E64F5F" points="146.159,108.714 139.742,107.679 143.791,102.982 143.791,102.982 				"/>
			</g>
		</g>
		<g>
			<g>
				
					<ellipse transform="matrix(0.6694 -0.7429 0.7429 0.6694 -57.7553 76.7149)" fill="#5ABDA6" cx="57.313" cy="103.246" rx="13" ry="14.25"/>
				<polygon fill="#5ABDA6" points="72.222,112.305 67.871,117.134 66.123,111.185 66.123,111.185 				"/>
			</g>
		</g>
		<g>
			<g>
				<g>
					
						<ellipse transform="matrix(0.9958 -0.0913 0.0913 0.9958 -3.742 9.0308)" fill="#5ABDA6" cx="96.818" cy="45.408" rx="13" ry="14.25"/>
					<polygon fill="#5ABDA6" points="101.62,62.18 95.147,62.773 97.901,57.218 97.901,57.218 					"/>
				</g>
			</g>
		</g>
		<g>
			<g>
				
					<ellipse transform="matrix(0.8459 -0.5333 0.5333 0.8459 -26.6859 31.9003)" fill="#E64F5F" cx="41.86" cy="62.13" rx="20.454" ry="22.421"/>
				<polygon fill="#E64F5F" points="60.57,82.216 51.918,87.67 51.812,77.914 51.812,77.914 				"/>
			</g>
		</g>
		<g>
			<g>
				
					<ellipse transform="matrix(0.9978 0.0665 -0.0665 0.9978 5.1727 -7.5441)" fill="#FAC11F" cx="115.904" cy="73.926" rx="13" ry="14.25"/>
				<polygon fill="#FAC11F" points="118.007,91.245 111.521,90.812 115.115,85.759 115.115,85.759 				"/>
			</g>
		</g>
		<line fill="none" stroke="#FFFFFF" stroke-miterlimit="10" x1="70.753" y1="114.702" x2="118.088" y2="127.451"/>
	</g>
	<g>
		<path id="color_4_" fill="#FAC11F" d="M123.218,277.58c41.421,0,75.006-33.578,75.006-74.999
			c0-41.415-33.586-74.994-75.006-74.994c-41.416,0-74.994,33.579-74.994,74.994C48.224,244.002,81.801,277.58,123.218,277.58z"/>
		<g id="_x31_4_3_">
			<path fill="#E1E1E1" d="M195.379,220.69c-0.206-0.341-0.492-0.626-0.833-0.833c-0.208-0.342-0.491-0.626-0.832-0.833
				c-0.208-0.342-0.492-0.628-0.836-0.834c-0.206-0.341-0.491-0.627-0.832-0.833c-0.206-0.342-0.492-0.627-0.835-0.834
				c-0.206-0.342-0.491-0.626-0.832-0.833c-0.206-0.342-0.492-0.627-0.833-0.833c-0.208-0.342-0.492-0.627-0.835-0.835
				c-0.206-0.341-0.491-0.626-0.833-0.833c-0.206-0.342-0.492-0.627-0.833-0.833c-0.206-0.342-0.492-0.627-0.833-0.834
				c-0.206-0.342-0.492-0.627-0.833-0.833c-0.206-0.342-0.491-0.627-0.832-0.834c-0.209-0.342-0.494-0.626-0.836-0.833
				c-0.206-0.341-0.49-0.626-0.832-0.832c-0.206-0.342-0.492-0.627-0.833-0.833c-0.206-0.342-0.492-0.627-0.833-0.834
				c-0.206-0.342-0.492-0.627-0.833-0.833c-0.206-0.342-0.492-0.627-0.833-0.834c-0.208-0.342-0.492-0.626-0.835-0.834
				c-0.206-0.341-0.492-0.626-0.833-0.833c-0.206-0.342-0.491-0.627-0.832-0.834c-0.206-0.341-0.492-0.625-0.833-0.832
				c-0.206-0.342-0.492-0.628-0.833-0.834c-0.206-0.342-0.492-0.626-0.833-0.833c-0.208-0.342-0.492-0.627-0.835-0.834
				c-0.206-0.341-0.492-0.626-0.833-0.833c-0.206-0.342-0.492-0.626-0.833-0.833c-0.206-0.341-0.491-0.626-0.832-0.833
				c-0.206-0.342-0.492-0.628-0.835-0.834c-0.208-0.342-0.491-0.627-0.832-0.834c-0.208-0.34-0.492-0.626-0.833-0.831
				c-0.206-0.342-0.491-0.628-0.835-0.834c-0.206-0.342-0.492-0.627-0.833-0.835c-0.206-0.341-0.492-0.626-0.833-0.833
				c-0.206-0.342-0.492-0.627-0.833-0.833c-0.208-0.342-0.492-0.627-0.835-0.835c-0.206-0.341-0.491-0.626-0.833-0.833
				c-0.206-0.341-0.491-0.626-0.832-0.833c-0.208-0.343-0.494-0.628-0.835-0.835c-0.206-0.34-0.491-0.625-0.832-0.831
				c-0.206-0.341-0.492-0.627-0.833-0.833c-0.208-0.342-0.491-0.627-0.835-0.834c-0.206-0.342-0.491-0.627-0.833-0.834
				c-0.429-0.708-1.198-1.19-2.08-1.19h-9.602c0.947,1.125,1.671,2.428,2.126,3.86h0.523c0.111,0.274,0.22,0.549,0.311,0.833h0.524
				c0.11,0.274,0.219,0.549,0.309,0.834h0.524c0.111,0.273,0.22,0.549,0.311,0.833h0.523c0.111,0.274,0.22,0.549,0.311,0.833h0.521
				c0.111,0.274,0.22,0.549,0.311,0.834h0.523c0.111,0.274,0.22,0.549,0.311,0.833h0.522c0.111,0.274,0.22,0.549,0.311,0.833h0.225
				v1.215c-0.201-0.212-0.417-0.409-0.637-0.603c-0.261-0.294-0.538-0.571-0.833-0.833c-0.261-0.295-0.538-0.572-0.835-0.834
				c-0.26-0.295-0.539-0.573-0.835-0.835c-0.259-0.294-0.536-0.571-0.83-0.832c-0.26-0.294-0.539-0.571-0.833-0.833
				c-0.263-0.296-0.542-0.576-0.839-0.839c-0.26-0.293-0.535-0.569-0.829-0.828c-0.26-0.294-0.538-0.571-0.83-0.833
				c-0.261-0.294-0.54-0.571-0.835-0.832c-0.26-0.296-0.539-0.574-0.835-0.836c-0.261-0.294-0.538-0.571-0.833-0.833
				c-0.36-0.407-0.742-0.795-1.167-1.139c-0.512-0.414-1.077-0.756-1.664-1.061c-0.124-0.122-0.252-0.24-0.378-0.357
				c-0.265-0.29-0.542-0.566-0.83-0.83c-0.265-0.292-0.544-0.569-0.836-0.833c-0.263-0.292-0.542-0.57-0.833-0.835
				c-0.263-0.29-0.54-0.566-0.83-0.83c-0.265-0.292-0.543-0.57-0.835-0.835c-0.267-0.292-0.544-0.57-0.836-0.836
				c-0.264-0.289-0.54-0.566-0.829-0.83c-0.265-0.291-0.546-0.57-0.837-0.835c-0.263-0.29-0.54-0.566-0.829-0.83
				c-0.265-0.293-0.546-0.571-0.837-0.837c-2.287-2.511-5.567-4.096-9.232-4.096c-5.456,0-9.608,3.961-11.319,8.834
				c-0.928-0.237-2.365-0.844-3.358-0.844c-4.256,0-7.913,2.382-9.837,5.857c-0.294,0.532-0.54,1.09-0.745,1.667h-0.934
				c0.099-0.276,0.172-0.565,0.293-0.833H97.61c0.099-0.277,0.171-0.565,0.293-0.833h-8.086c-1.343,0-2.44,1.103-2.44,2.445v42.404
				c0,0.326,0.067,0.627,0.184,0.918h0.659c0.01,0.292,0.069,0.567,0.176,0.833h0.657c0.01,0.293,0.069,0.569,0.176,0.834h0.656
				c0.012,0.292,0.07,0.568,0.177,0.833h0.656c0.011,0.293,0.07,0.568,0.177,0.833h0.656c0.011,0.293,0.07,0.569,0.176,0.833h0.659
				c0.004,0.122,0.014,0.243,0.036,0.359H87.56h-9.336c0,0,0.014,1.782,1.384,2.621c0.198,0.314,0.461,0.606,0.833,0.833
				c0.198,0.314,0.462,0.605,0.833,0.833c0.197,0.314,0.461,0.605,0.831,0.833c0.198,0.312,0.462,0.605,0.835,0.833
				c0.197,0.314,0.461,0.605,0.833,0.833c0.197,0.314,0.461,0.606,0.835,0.833c0.198,0.314,0.461,0.606,0.833,0.835
				c0.198,0.312,0.462,0.606,0.833,0.833c0.198,0.312,0.462,0.605,0.833,0.832c0.197,0.314,0.462,0.606,0.833,0.835
				c0.197,0.312,0.462,0.606,0.835,0.833c0.197,0.312,0.461,0.605,0.832,0.832c0.198,0.313,0.461,0.605,0.832,0.833
				c0.198,0.313,0.463,0.608,0.835,0.835c0.198,0.312,0.462,0.605,0.832,0.832c0.198,0.313,0.462,0.608,0.836,0.836
				c0.197,0.314,0.461,0.605,0.833,0.833c0.198,0.312,0.461,0.604,0.832,0.831c0.198,0.313,0.461,0.608,0.835,0.836
				c0.198,0.314,0.462,0.605,0.833,0.833c0.198,0.312,0.462,0.605,0.833,0.832c0.197,0.312,0.461,0.605,0.833,0.833
				c0.195,0.314,0.461,0.606,0.835,0.835c0.197,0.312,0.459,0.605,0.832,0.832c0.198,0.314,0.459,0.606,0.832,0.835
				c0.198,0.312,0.462,0.605,0.835,0.833c0.198,0.314,0.462,0.605,0.833,0.833c0.198,0.313,0.462,0.605,0.833,0.833
				c0.197,0.312,0.461,0.605,0.832,0.832c0.197,0.312,0.461,0.606,0.833,0.833c0.198,0.314,0.462,0.606,0.835,0.835
				c0.198,0.313,0.462,0.606,0.835,0.833c0.197,0.313,0.461,0.605,0.832,0.833c0.197,0.313,0.462,0.605,0.835,0.833
				c0.195,0.313,0.461,0.605,0.833,0.833c0.197,0.313,0.461,0.605,0.833,0.833c0.197,0.313,0.462,0.606,0.833,0.833
				c0.197,0.313,0.462,0.606,0.833,0.833c0.198,0.313,0.462,0.605,0.832,0.833c0.198,0.313,0.462,0.606,0.835,0.833
				c0.195,0.313,0.461,0.606,0.833,0.833c0.198,0.314,0.461,0.606,0.833,0.833c0.197,0.314,0.462,0.608,0.833,0.835
				c0.198,0.314,0.462,0.606,0.833,0.833c0.198,0.312,0.462,0.606,0.833,0.833c0.198,0.312,0.462,0.605,0.833,0.832
				c0.197,0.314,0.461,0.606,0.833,0.833c0.198,0.314,0.461,0.605,0.832,0.834c0.198,0.314,0.461,0.605,0.835,0.833
				c0.198,0.314,0.462,0.608,0.835,0.836c0.028,0.041,0.065,0.077,0.093,0.118c0.616,0.014,1.229,0.047,1.849,0.047
				c35.016,0,64.43-24,72.688-56.447C195.749,220.964,195.578,220.811,195.379,220.69z"/>
		</g>
		<path fill="#FDFBF7" d="M168.224,233.126c0,0,0,3.054-3.048,3.054c-3.055,0-80.847,0-83.901,0c-3.051,0-3.051-3.054-3.051-3.054
			h9.336h71.327H168.224z M158.886,228.601c0.12-0.291,0.184-0.592,0.184-0.918v-42.404c0-1.341-1.097-2.445-2.439-2.445h-9.602
			c0.947,1.125,1.671,2.428,2.126,3.86h6.058v38.347H91.235v-38.347h5.637c0.158-1.356,0.485-2.656,1.03-3.86h-8.086
			c-1.343,0-2.44,1.103-2.44,2.445v42.404c0,0.326,0.067,0.627,0.184,0.918H158.886z"/>
		<path fill="#73747B" d="M109.958,199.543c5.963,0,24.551,0,28.418,0c5.178,0,9.398-4.22,9.398-9.41
			c0-1.215-0.252-2.372-0.668-3.438c-0.604-1.532-1.605-2.841-2.864-3.86c-1.616-1.305-3.637-2.119-5.866-2.119
			c-0.448,0-0.864,0.032-1.247,0.095c-0.384-6.579-5.818-11.824-12.495-11.824c-5.456,0-9.608,3.961-11.319,8.834
			c-0.928-0.237-2.365-0.844-3.358-0.844c-4.256,0-7.913,2.382-9.837,5.857c-0.653,1.178-1.095,2.471-1.29,3.86
			c-0.069,0.517-0.158,1.03-0.158,1.564C98.674,194.495,103.727,199.543,109.958,199.543z"/>
		<g>
			<rect x="101.758" y="205.271" fill="#FFFFFF" width="6.137" height="15.315"/>
			<rect x="111.125" y="209.169" fill="#FFFFFF" width="5.491" height="11.416"/>
			<rect x="121.201" y="204.436" fill="#FFFFFF" width="4.845" height="16.15"/>
			<g>
				<path fill="#FFFFFF" d="M147.638,210.313c-0.255-4.14-3.66-7.429-7.865-7.429c-4.37,0-7.914,3.543-7.914,7.914
					c0,4.094,3.121,7.422,7.106,7.832v-8.317H147.638z"/>
				<path fill="#FFFFFF" d="M148.979,212.735c0-0.166-0.039-0.321-0.049-0.485h-8.002v8.317c0.269,0.028-0.139,0.081,0.137,0.081
					C145.436,220.649,148.979,217.106,148.979,212.735z"/>
			</g>
		</g>
	</g>
	<g>
		<g>
			<rect x="147.085" y="282.994" fill="#292929" width="17.902" height="3.138"/>
			<path fill="#292929" d="M147.131,286.543l-0.779,1.668c0,0,0.082,0.488,0.407,0.488c0.327,0,18.394,0,18.718,0
				c0.326,0,0.326-0.488,0.326-0.488l-0.778-1.668H147.131z"/>
			<path fill="#292929" d="M184.716,243.22v32.6v0.766v3.812c0,1.004-0.732,1.829-1.627,1.829h-55.337
				c-0.897,0-1.629-0.825-1.629-1.829v-3.812v-0.766v-32.6c0-0.895,0.732-1.627,1.629-1.627h55.337
				C183.984,241.592,184.716,242.324,184.716,243.22z"/>
			<rect x="129.395" y="245.644" fill="#61C4F0" width="51.918" height="29.313"/>
		</g>
		<polygon fill="#D9D9D9" points="134.523,249.769 175.265,249.824 181.398,258.476 181.398,275.068 138.137,275.123 
			134.413,271.071 		"/>
		<rect x="134.483" y="249.732" fill="#FDFBF7" width="40.7" height="21.41"/>
	</g>
	<g>
		<g>
			<rect x="135.177" y="267.412" fill="#A6A8AC" width="39.751" height="0.392"/>
		</g>
		<g>
			<rect x="135.128" y="267.623" fill="#A6A8AC" width="0.098" height="0.857"/>
		</g>
		<g>
			<rect x="140.355" y="267.623" fill="#A6A8AC" width="0.098" height="0.857"/>
		</g>
		<g>
			<rect x="145.583" y="267.623" fill="#A6A8AC" width="0.098" height="0.857"/>
		</g>
		<g>
			<rect x="150.81" y="267.623" fill="#A6A8AC" width="0.098" height="0.857"/>
		</g>
		<g>
			<rect x="156.038" y="267.623" fill="#A6A8AC" width="0.098" height="0.857"/>
		</g>
		<g>
			<rect x="161.265" y="267.623" fill="#A6A8AC" width="0.098" height="0.857"/>
		</g>
		<g>
			<rect x="166.493" y="267.623" fill="#A6A8AC" width="0.098" height="0.857"/>
		</g>
		<g>
			<rect x="171.72" y="267.623" fill="#A6A8AC" width="0.098" height="0.857"/>
		</g>
		<g>
			<g>
				<rect x="135.177" y="264.343" fill="#8A8A8B" width="0.392" height="0.098"/>
			</g>
			<g>
				<path fill="#8A8A8B" d="M140.453,264.441h-0.814v-0.098h0.814V264.441z M138.01,264.441h-0.814v-0.098h0.814V264.441z"/>
			</g>
			<g>
				<path fill="#8A8A8B" d="M174.641,264.441h-0.814v-0.098h0.814V264.441z M172.199,264.441h-0.814v-0.098h0.814V264.441z
					 M169.757,264.441h-0.814v-0.098h0.814V264.441z M167.315,264.441h-0.814v-0.098h0.814V264.441z M164.873,264.441h-0.814v-0.098
					h0.814V264.441z M162.431,264.441h-0.814v-0.098h0.814V264.441z M159.989,264.441h-0.814v-0.098h0.814V264.441z
					 M157.547,264.441h-0.814v-0.098h0.814V264.441z M155.105,264.441h-0.814v-0.098h0.814V264.441z M152.663,264.441h-0.814v-0.098
					h0.814V264.441z M150.22,264.441h-0.814v-0.098h0.814V264.441z M147.779,264.441h-0.814v-0.098h0.814V264.441z M145.337,264.441
					h-0.814v-0.098h0.814V264.441z M142.895,264.441h-0.814v-0.098h0.814V264.441z"/>
			</g>
		</g>
		<g>
			<g>
				<rect x="135.177" y="259.942" fill="#8A8A8B" width="0.392" height="0.098"/>
			</g>
			<g>
				<path fill="#8A8A8B" d="M140.453,260.04h-0.814v-0.098h0.814V260.04z M138.01,260.04h-0.814v-0.098h0.814V260.04z"/>
			</g>
			<g>
				<path fill="#8A8A8B" d="M174.641,260.04h-0.814v-0.098h0.814V260.04z M172.199,260.04h-0.814v-0.098h0.814V260.04z
					 M169.757,260.04h-0.814v-0.098h0.814V260.04z M167.315,260.04h-0.814v-0.098h0.814V260.04z M164.873,260.04h-0.814v-0.098
					h0.814V260.04z M162.431,260.04h-0.814v-0.098h0.814V260.04z M159.989,260.04h-0.814v-0.098h0.814V260.04z M157.547,260.04
					h-0.814v-0.098h0.814V260.04z M155.105,260.04h-0.814v-0.098h0.814V260.04z M152.663,260.04h-0.814v-0.098h0.814V260.04z
					 M150.22,260.04h-0.814v-0.098h0.814V260.04z M147.779,260.04h-0.814v-0.098h0.814V260.04z M145.337,260.04h-0.814v-0.098h0.814
					V260.04z M142.895,260.04h-0.814v-0.098h0.814V260.04z"/>
			</g>
		</g>
		<g>
			<g>
				<rect x="135.177" y="255.54" fill="#8A8A8B" width="0.392" height="0.098"/>
			</g>
			<g>
				<path fill="#8A8A8B" d="M140.453,255.638h-0.814v-0.098h0.814V255.638z M138.01,255.638h-0.814v-0.098h0.814V255.638z"/>
			</g>
			<g>
				<path fill="#8A8A8B" d="M174.641,255.638h-0.814v-0.098h0.814V255.638z M172.199,255.638h-0.814v-0.098h0.814V255.638z
					 M169.757,255.638h-0.814v-0.098h0.814V255.638z M167.315,255.638h-0.814v-0.098h0.814V255.638z M164.873,255.638h-0.814v-0.098
					h0.814V255.638z M162.431,255.638h-0.814v-0.098h0.814V255.638z M159.989,255.638h-0.814v-0.098h0.814V255.638z
					 M157.547,255.638h-0.814v-0.098h0.814V255.638z M155.105,255.638h-0.814v-0.098h0.814V255.638z M152.663,255.638h-0.814v-0.098
					h0.814V255.638z M150.22,255.638h-0.814v-0.098h0.814V255.638z M147.779,255.638h-0.814v-0.098h0.814V255.638z M145.337,255.638
					h-0.814v-0.098h0.814V255.638z M142.895,255.638h-0.814v-0.098h0.814V255.638z"/>
			</g>
		</g>
		<g>
			<g>
				<rect x="135.177" y="251.14" fill="#8A8A8B" width="0.392" height="0.098"/>
			</g>
			<g>
				<path fill="#8A8A8B" d="M140.453,251.238h-0.814v-0.098h0.814V251.238z M138.01,251.238h-0.814v-0.098h0.814V251.238z"/>
			</g>
			<g>
				<path fill="#8A8A8B" d="M174.641,251.238h-0.814v-0.098h0.814V251.238z M172.199,251.238h-0.814v-0.098h0.814V251.238z
					 M169.757,251.238h-0.814v-0.098h0.814V251.238z M167.315,251.238h-0.814v-0.098h0.814V251.238z M164.873,251.238h-0.814v-0.098
					h0.814V251.238z M162.431,251.238h-0.814v-0.098h0.814V251.238z M159.989,251.238h-0.814v-0.098h0.814V251.238z
					 M157.547,251.238h-0.814v-0.098h0.814V251.238z M155.105,251.238h-0.814v-0.098h0.814V251.238z M152.663,251.238h-0.814v-0.098
					h0.814V251.238z M150.22,251.238h-0.814v-0.098h0.814V251.238z M147.779,251.238h-0.814v-0.098h0.814V251.238z M145.337,251.238
					h-0.814v-0.098h0.814V251.238z M142.895,251.238h-0.814v-0.098h0.814V251.238z"/>
			</g>
		</g>
		<g>
			<path fill="#939498" d="M137.876,269.935h-0.55v-0.105h0.215v-0.729l-0.221,0.064v-0.111l0.342-0.099v0.876h0.215V269.935z"/>
		</g>
		<g>
			<path fill="#939498" d="M143.195,270.062h-0.584v-0.105l0.279-0.278c0.077-0.077,0.128-0.138,0.154-0.182
				c0.026-0.045,0.039-0.091,0.039-0.139c0-0.055-0.015-0.096-0.046-0.125c-0.03-0.029-0.075-0.044-0.133-0.044
				c-0.085,0-0.167,0.036-0.245,0.109v-0.124c0.076-0.058,0.164-0.087,0.264-0.087c0.086,0,0.155,0.023,0.205,0.07
				c0.05,0.047,0.075,0.109,0.075,0.188c0,0.06-0.016,0.118-0.048,0.175c-0.032,0.057-0.093,0.13-0.182,0.218l-0.219,0.214v0.002
				h0.44V270.062z"/>
		</g>
		<g>
			<path fill="#939498" d="M147.845,269.902c0.066,0.051,0.14,0.077,0.223,0.077c0.066,0,0.119-0.016,0.157-0.049
				c0.039-0.032,0.058-0.076,0.058-0.13c0-0.121-0.087-0.182-0.261-0.182h-0.08v-0.101h0.076c0.154,0,0.231-0.057,0.231-0.171
				c0-0.106-0.059-0.158-0.177-0.158c-0.067,0-0.131,0.023-0.19,0.068v-0.115c0.063-0.036,0.136-0.054,0.22-0.054
				c0.082,0,0.147,0.021,0.197,0.064c0.05,0.043,0.074,0.098,0.074,0.166c0,0.126-0.064,0.207-0.192,0.243v0.003
				c0.069,0.007,0.124,0.032,0.165,0.073c0.04,0.041,0.06,0.093,0.06,0.155c0,0.086-0.031,0.156-0.093,0.209
				c-0.062,0.053-0.145,0.079-0.248,0.079c-0.091,0-0.164-0.017-0.22-0.051V269.902z"/>
		</g>
		<g>
			<path fill="#939498" d="M152.905,269.813h-0.123v0.249h-0.118v-0.249h-0.448v-0.079l0.425-0.632h0.141v0.615h0.123V269.813z
				 M152.664,269.717v-0.402c0-0.029,0.001-0.062,0.002-0.099h-0.002c-0.006,0.016-0.018,0.04-0.037,0.074l-0.286,0.427H152.664z"/>
		</g>
		<g>
			<path fill="#939498" d="M157.399,269.914c0.064,0.042,0.132,0.064,0.201,0.064c0.066,0,0.119-0.019,0.16-0.055
				c0.041-0.037,0.061-0.086,0.061-0.147c0-0.062-0.021-0.109-0.062-0.143c-0.041-0.034-0.101-0.051-0.179-0.051
				c-0.037,0-0.088,0.003-0.152,0.009v-0.488h0.472v0.107h-0.36v0.272c0.036-0.002,0.063-0.003,0.081-0.003
				c0.101,0,0.18,0.026,0.237,0.077c0.057,0.051,0.085,0.122,0.085,0.212c0,0.093-0.03,0.168-0.091,0.226
				c-0.061,0.057-0.145,0.086-0.251,0.086c-0.09,0-0.157-0.013-0.203-0.04V269.914z"/>
		</g>
		<g>
			<path fill="#939498" d="M163.385,269.225c-0.05-0.026-0.102-0.038-0.157-0.038c-0.083,0-0.15,0.036-0.2,0.108
				c-0.05,0.072-0.076,0.171-0.077,0.296h0.003c0.046-0.088,0.118-0.132,0.218-0.132c0.083,0,0.149,0.027,0.199,0.081
				c0.05,0.054,0.074,0.126,0.074,0.216c0,0.094-0.029,0.171-0.086,0.231c-0.057,0.06-0.13,0.09-0.219,0.09
				c-0.098,0-0.174-0.038-0.23-0.114c-0.055-0.076-0.083-0.184-0.083-0.324c0-0.169,0.037-0.304,0.11-0.404
				c0.073-0.1,0.169-0.15,0.288-0.15c0.068,0,0.122,0.009,0.161,0.028V269.225z M162.958,269.748c0,0.063,0.017,0.117,0.05,0.163
				s0.078,0.068,0.134,0.068c0.053,0,0.096-0.02,0.129-0.059c0.033-0.039,0.05-0.089,0.05-0.15c0-0.066-0.016-0.117-0.047-0.154
				c-0.031-0.037-0.076-0.055-0.133-0.055c-0.055,0-0.099,0.019-0.133,0.056C162.975,269.653,162.958,269.697,162.958,269.748z"/>
		</g>
		<g>
			<path fill="#939498" d="M168.647,269.144l-0.376,0.918h-0.126l0.357-0.853h-0.48v-0.107h0.624V269.144z"/>
		</g>
		<g>
			<path fill="#939498" d="M173.828,269.557c-0.115-0.053-0.172-0.13-0.172-0.232c0-0.071,0.027-0.128,0.081-0.173
				s0.122-0.067,0.206-0.067c0.076,0,0.14,0.021,0.189,0.062c0.05,0.042,0.074,0.096,0.074,0.162c0,0.107-0.06,0.189-0.179,0.246
				v0.002c0.14,0.051,0.21,0.137,0.21,0.258c0,0.08-0.029,0.143-0.086,0.191c-0.058,0.047-0.138,0.071-0.242,0.071
				c-0.085,0-0.154-0.023-0.207-0.07c-0.053-0.047-0.08-0.107-0.08-0.182c0-0.122,0.068-0.211,0.206-0.267V269.557z
				 M173.922,269.614c-0.119,0.048-0.178,0.117-0.178,0.206c0,0.046,0.017,0.084,0.052,0.114c0.035,0.03,0.08,0.045,0.136,0.045
				c0.054,0,0.098-0.015,0.132-0.044c0.034-0.029,0.051-0.067,0.051-0.111C174.114,269.731,174.05,269.661,173.922,269.614z
				 M174.083,269.325c0-0.043-0.013-0.077-0.04-0.102c-0.027-0.025-0.063-0.038-0.109-0.038c-0.043,0-0.08,0.013-0.11,0.039
				c-0.03,0.026-0.045,0.059-0.045,0.099c0,0.08,0.05,0.141,0.151,0.183C174.032,269.463,174.083,269.403,174.083,269.325z"/>
		</g>
		<g>
			<path fill="#8A8A8B" d="M137.68,267.354h-0.098v-0.783h0.098V267.354z M137.68,265.004h-0.098v-0.783h0.098V265.004z
				 M137.68,262.654h-0.098v-0.783h0.098V262.654z M137.68,260.303h-0.098v-0.783h0.098V260.303z M137.68,257.953h-0.098v-0.783
				h0.098V257.953z M137.68,255.603h-0.098v-0.783h0.098V255.603z M137.68,253.253h-0.098v-0.783h0.098V253.253z"/>
		</g>
		<g>
			<path fill="#8A8A8B" d="M142.914,267.354h-0.098v-0.783h0.098V267.354z M142.914,265.004h-0.098v-0.783h0.098V265.004z
				 M142.914,262.654h-0.098v-0.783h0.098V262.654z M142.914,260.303h-0.098v-0.783h0.098V260.303z M142.914,257.953h-0.098v-0.783
				h0.098V257.953z M142.914,255.603h-0.098v-0.783h0.098V255.603z M142.914,253.253h-0.098v-0.783h0.098V253.253z"/>
		</g>
		<g>
			<path fill="#8A8A8B" d="M148.148,267.354h-0.098v-0.783h0.098V267.354z M148.148,265.004h-0.098v-0.783h0.098V265.004z
				 M148.148,262.654h-0.098v-0.783h0.098V262.654z M148.148,260.303h-0.098v-0.783h0.098V260.303z M148.148,257.953h-0.098v-0.783
				h0.098V257.953z M148.148,255.603h-0.098v-0.783h0.098V255.603z M148.148,253.253h-0.098v-0.783h0.098V253.253z"/>
		</g>
		<g>
			<path fill="#8A8A8B" d="M153.383,267.354h-0.098v-0.783h0.098V267.354z M153.383,265.004h-0.098v-0.783h0.098V265.004z
				 M153.383,262.654h-0.098v-0.783h0.098V262.654z M153.383,260.303h-0.098v-0.783h0.098V260.303z M153.383,257.953h-0.098v-0.783
				h0.098V257.953z M153.383,255.603h-0.098v-0.783h0.098V255.603z M153.383,253.253h-0.098v-0.783h0.098V253.253z"/>
		</g>
		<g>
			<path fill="#8A8A8B" d="M158.617,267.354h-0.098v-0.783h0.098V267.354z M158.617,265.004h-0.098v-0.783h0.098V265.004z
				 M158.617,262.654h-0.098v-0.783h0.098V262.654z M158.617,260.303h-0.098v-0.783h0.098V260.303z M158.617,257.953h-0.098v-0.783
				h0.098V257.953z M158.617,255.603h-0.098v-0.783h0.098V255.603z M158.617,253.253h-0.098v-0.783h0.098V253.253z"/>
		</g>
		<g>
			<path fill="#8A8A8B" d="M163.851,267.354h-0.098v-0.783h0.098V267.354z M163.851,265.004h-0.098v-0.783h0.098V265.004z
				 M163.851,262.654h-0.098v-0.783h0.098V262.654z M163.851,260.303h-0.098v-0.783h0.098V260.303z M163.851,257.953h-0.098v-0.783
				h0.098V257.953z M163.851,255.603h-0.098v-0.783h0.098V255.603z M163.851,253.253h-0.098v-0.783h0.098V253.253z"/>
		</g>
		<g>
			<path fill="#8A8A8B" d="M169.085,267.354h-0.098v-0.783h0.098V267.354z M169.085,265.004h-0.098v-0.783h0.098V265.004z
				 M169.085,262.654h-0.098v-0.783h0.098V262.654z M169.085,260.303h-0.098v-0.783h0.098V260.303z M169.085,257.953h-0.098v-0.783
				h0.098V257.953z M169.085,255.603h-0.098v-0.783h0.098V255.603z M169.085,253.253h-0.098v-0.783h0.098V253.253z"/>
		</g>
		<g>
			<path fill="#8A8A8B" d="M174.319,267.354h-0.098v-0.783h0.098V267.354z M174.319,265.004h-0.098v-0.783h0.098V265.004z
				 M174.319,262.654h-0.098v-0.783h0.098V262.654z M174.319,260.303h-0.098v-0.783h0.098V260.303z M174.319,257.953h-0.098v-0.783
				h0.098V257.953z M174.319,255.603h-0.098v-0.783h0.098V255.603z M174.319,253.253h-0.098v-0.783h0.098V253.253z"/>
		</g>
		<g opacity="0.1">
			<polygon fill="#E64F5F" points="137.623,267.557 137.623,253.812 148.333,261.351 153.331,264.349 154.981,261.937 
				158.705,255.505 163.699,253.474 169.116,260.075 174.345,252.225 174.314,267.334 			"/>
		</g>
		<g>
			
				<rect x="137.272" y="253.369" transform="matrix(-0.7071 0.7071 -0.7071 -0.7071 414.3637 335.8201)" fill="#E64F5F" width="0.718" height="0.718"/>
		</g>
		<g>
			
				<rect x="153.057" y="263.736" transform="matrix(-0.7071 0.7071 -0.7071 -0.7071 448.6406 342.3578)" fill="#E64F5F" width="0.718" height="0.718"/>
		</g>
		<g>
			
				<rect x="158.304" y="255.273" transform="matrix(-0.7071 0.7071 -0.7071 -0.7071 451.6139 324.1992)" fill="#E64F5F" width="0.718" height="0.718"/>
		</g>
		<g>
			
				<rect x="163.297" y="253.157" transform="matrix(-0.7071 0.7071 -0.7071 -0.7071 458.6421 317.0563)" fill="#E64F5F" width="0.718" height="0.718"/>
		</g>
		<g>
			
				<rect x="168.62" y="259.533" transform="matrix(-0.7071 0.7071 -0.7071 -0.7071 472.2375 324.1773)" fill="#E64F5F" width="0.718" height="0.718"/>
		</g>
		<g>
			
				<rect x="173.921" y="251.872" transform="matrix(-0.7071 0.7071 -0.7071 -0.7071 475.8691 307.3503)" fill="#E64F5F" width="0.718" height="0.718"/>
		</g>
		<g>
			<circle fill="#FFFFFF" cx="142.921" cy="257.579" r="0.933"/>
			<path fill="#E64F5F" d="M142.921,258.707c-0.622,0-1.129-0.506-1.129-1.129s0.506-1.128,1.129-1.128
				c0.622,0,1.129,0.506,1.129,1.128S143.543,258.707,142.921,258.707z M142.921,256.842c-0.406,0-0.737,0.331-0.737,0.737
				c0,0.407,0.33,0.737,0.737,0.737c0.406,0,0.737-0.33,0.737-0.737C143.658,257.172,143.327,256.842,142.921,256.842z"/>
		</g>
		<g>
			
				<rect x="142.441" y="257.099" transform="matrix(-0.7071 0.7071 -0.7071 -0.7071 426.1168 338.6537)" fill="#E64F5F" width="0.959" height="0.959"/>
		</g>
		<g>
			
				<rect x="147.809" y="260.986" transform="matrix(-0.7071 0.7071 -0.7071 -0.7071 437.7377 341.3727)" fill="#E64F5F" width="0.718" height="0.718"/>
		</g>
	</g>
	<g>
		<polygon fill="#E64F5F" points="174.22,251.85 168.939,259.537 163.759,253.238 158.569,255.349 154.82,261.826 153.313,264.007 
			148.287,261.199 137.83,253.695 137.602,254.013 148.077,261.529 153.433,264.523 155.151,262.035 158.841,255.661 
			163.639,253.709 169.132,260.273 174.314,252.49 174.314,251.881 		"/>
	</g>
	<path fill="none" stroke="#FFFFFF" stroke-miterlimit="10" d="M120.262,129.251"/>
	<g id="_x31_1_2_">
		<g>
			<path fill="#292929" d="M199.481,258.145h-19.18c-1.027,0-1.867,0.84-1.867,1.867v25.969c0,1.026,0.84,1.867,1.867,1.867h19.18
				c1.027,0,1.867-0.841,1.867-1.867v-25.969C201.348,258.984,200.508,258.145,199.481,258.145z"/>
			<rect x="180.344" y="261.922" fill="#FFFFFF" width="19.094" height="22.15"/>
			<circle fill="#CCCCCC" cx="189.849" cy="259.248" r="0.495"/>
			<path fill="#CCCCCC" d="M191.334,286.229c0,0.149-0.122,0.27-0.271,0.27h-2.172c-0.15,0-0.272-0.121-0.272-0.27v-0.137
				c0-0.15,0.122-0.271,0.272-0.271h2.172c0.15,0,0.271,0.121,0.271,0.271V286.229z"/>
		</g>
		<g>
			<path fill="#E64F5F" d="M189.955,266.171c-3.516,0.02-6.361,2.875-6.361,6.395c0,3.533,2.864,6.397,6.397,6.397
				s6.397-2.864,6.397-6.397c0-0.013-0.002-0.025-0.002-0.038h-6.431V266.171z"/>
			<path fill="#FFFFFF" d="M190.969,265.191c-0.012,0-0.024,0.002-0.036,0.002v6.358h6.431
				C197.344,268.034,194.49,265.191,190.969,265.191z"/>
			<path fill="#73747B" d="M190.969,265.191c-0.012,0-0.024,0.002-0.036,0.002v6.358h6.431
				C197.344,268.034,194.49,265.191,190.969,265.191z"/>
		</g>
	</g>
	<g>
		<g>
			<g>
				
					<ellipse transform="matrix(0.9775 0.2109 -0.2109 0.9775 49.4787 -45.682)" fill="#5ABDA6" cx="238.92" cy="209.141" rx="14.422" ry="15.809"/>
				<polygon fill="#5ABDA6" points="238.434,228.49 231.385,226.969 236.146,222.002 236.146,222.002 				"/>
			</g>
			
				<path fill="none" stroke="#5ABDA6" stroke-linecap="round" stroke-linejoin="round" stroke-miterlimit="10" stroke-dasharray="0.5,4,0.5,4,0.5,4" d="
				M235.013,228.376c-1.306,8.586,3.485,13.629-4.056,20.528"/>
		</g>
		
			<path fill="none" stroke="#E84D50" stroke-linecap="round" stroke-linejoin="round" stroke-miterlimit="10" stroke-dasharray="0.5,4,0.5,4,0.5,4" d="
			M218.662,239.523c-1.733,13.287,11.554,14.442,15.02,23.685"/>
		
			<path fill="none" stroke="#61C4F0" stroke-linecap="round" stroke-linejoin="round" stroke-miterlimit="10" stroke-dasharray="0.5,4,0.5,4,0.5,4" d="
			M245.236,240.101c-0.578,8.665,4.622,13.287-2.311,20.797"/>
		<g>
			
				<ellipse transform="matrix(0.9918 0.1277 -0.1277 0.9918 30.1995 -29.8022)" fill="#61C4F0" cx="247.507" cy="220.605" rx="14.422" ry="15.809"/>
			<polygon fill="#61C4F0" points="248.655,239.926 241.503,239.005 245.827,233.654 245.827,233.654 			"/>
		</g>
		<g>
			
				<ellipse transform="matrix(0.9571 0.2897 -0.2897 0.9571 72.4981 -56.1453)" fill="#E64F5F" cx="225.921" cy="216.843" rx="17.725" ry="19.429"/>
			<polygon fill="#E64F5F" points="223.393,240.495 214.91,237.927 221.237,232.319 221.237,232.319 			"/>
		</g>
		<text transform="matrix(0.9885 0.1512 -0.1512 0.9885 215.0992 212.0199)"><tspan x="0" y="0" fill="#FFFFFF" font-family="'MicrosoftYaHei'" font-size="12.1316">Big</tspan><tspan x="0" y="12.131" fill="#FFFFFF" font-family="'MicrosoftYaHei'" font-size="12.1316">Date</tspan></text>
		<g>
			<g>
				
					<ellipse transform="matrix(0.9978 0.0665 -0.0665 0.9978 15.3938 -16.9102)" fill="#FAC11F" cx="261.701" cy="222.77" rx="11.265" ry="12.348"/>
				<polygon fill="#FAC11F" points="263.523,237.778 257.903,237.403 261.017,233.024 261.017,233.024 				"/>
			</g>
		</g>
		
			<path fill="none" stroke="#FAC11F" stroke-linecap="round" stroke-linejoin="round" stroke-miterlimit="10" stroke-dasharray="0.5,4,0.5,4,0.5,4" d="
			M260.741,238.473c-1.373,6.537-4.778,12.275-10.372,15.92"/>
	</g>
</g>
</svg>
