<?xml version="1.0" encoding="utf-8"?>
<!-- Generator: Adobe Illustrator 17.0.0, SVG Export Plug-In . SVG Version: 6.00 Build 0)  -->
<!DOCTYPE svg PUBLIC "-//W3C//DTD SVG 1.1//EN" "http://www.w3.org/Graphics/SVG/1.1/DTD/svg11.dtd">
<svg version="1.1" id="图层_1" xmlns="http://www.w3.org/2000/svg" xmlns:xlink="http://www.w3.org/1999/xlink" x="0px" y="0px"
	 width="374.911px" height="241.62px" viewBox="0 0 374.911 241.62" enable-background="new 0 0 374.911 241.62"
	 xml:space="preserve">
<g>
	<g>
		<path id="color_3_" fill="#5ABDA6" d="M203.193,210.643c41.419,0,75.001-33.57,75.001-74.997
			c0-41.414-33.582-75.001-75.001-75.001c-41.42,0-74.999,33.587-74.999,75.001C128.193,177.073,161.772,210.643,203.193,210.643z"
			/>
		<path id="_x31_5_3_" fill="#E1E1E1" d="M276.419,140.571c-0.26-0.289-0.536-0.566-0.83-0.831c-0.261-0.291-0.54-0.569-0.836-0.835
			c-0.258-0.287-0.533-0.562-0.825-0.826c-0.265-0.295-0.549-0.577-0.848-0.848c-0.254-0.283-0.528-0.555-0.815-0.815
			c-0.264-0.295-0.547-0.577-0.847-0.846c-0.259-0.288-0.533-0.563-0.826-0.828c-0.264-0.293-0.544-0.573-0.844-0.842
			c-0.257-0.288-0.535-0.563-0.828-0.827c-0.257-0.287-0.532-0.562-0.824-0.826c-0.265-0.296-0.549-0.578-0.848-0.848
			c-0.257-0.285-0.529-0.558-0.819-0.819c-0.263-0.293-0.542-0.573-0.84-0.841c-0.26-0.29-0.538-0.567-0.833-0.833
			c-0.261-0.291-0.542-0.571-0.839-0.838c-0.257-0.287-0.533-0.561-0.825-0.825c-0.261-0.292-0.543-0.572-0.84-0.84
			c-0.26-0.288-0.536-0.564-0.829-0.829c-0.26-0.288-0.535-0.564-0.829-0.828c-0.263-0.294-0.544-0.575-0.844-0.845
			c-0.256-0.285-0.529-0.558-0.819-0.82c-0.264-0.294-0.547-0.577-0.847-0.847c-0.259-0.286-0.534-0.561-0.825-0.824
			c-0.26-0.29-0.538-0.568-0.833-0.834c-0.263-0.293-0.543-0.573-0.843-0.842c-0.257-0.287-0.532-0.562-0.825-0.826
			c-0.261-0.29-0.54-0.568-0.835-0.834c-0.257-0.287-0.535-0.563-0.826-0.826c-0.264-0.296-0.547-0.578-0.847-0.848
			c-0.257-0.285-0.529-0.558-0.82-0.819c-0.265-0.296-0.549-0.579-0.851-0.85c-0.253-0.283-0.524-0.553-0.813-0.814
			c-0.264-0.295-0.547-0.577-0.847-0.847c-0.259-0.289-0.536-0.566-0.83-0.831c-0.261-0.29-0.539-0.567-0.833-0.833
			c-0.261-0.291-0.54-0.569-0.836-0.835c-0.258-0.287-0.532-0.562-0.825-0.825c-0.263-0.294-0.543-0.574-0.843-0.844
			c-0.257-0.287-0.533-0.561-0.825-0.825c-0.261-0.292-0.542-0.571-0.839-0.838c-0.26-0.289-0.536-0.565-0.829-0.829
			c-0.261-0.291-0.539-0.569-0.836-0.837c-0.26-0.289-0.538-0.568-0.833-0.833c-0.261-0.291-0.542-0.57-0.837-0.837
			c-0.257-0.288-0.535-0.563-0.828-0.828c-0.258-0.29-0.538-0.567-0.832-0.833c-0.264-0.294-0.546-0.575-0.846-0.844
			c-0.254-0.284-0.527-0.555-0.815-0.815c-0.264-0.294-0.544-0.576-0.846-0.846c-0.259-0.288-0.535-0.564-0.829-0.83
			c-0.26-0.291-0.54-0.57-0.836-0.836c-0.391-0.435-0.81-0.852-1.279-1.231c-4.745-3.822-11.685-3.079-15.509,1.661
			c-3.596,4.442-3.114,10.797,0.865,14.729l-4.052,4.998c-6.071-4.337-13.892-4.665-20.175-1.358
			c-0.219-0.254-0.477-0.482-0.729-0.714c-0.245-0.294-0.536-0.558-0.825-0.823c-0.247-0.3-0.543-0.567-0.835-0.837
			c-0.25-0.299-0.544-0.566-0.837-0.837c-0.246-0.297-0.54-0.563-0.832-0.831c-0.248-0.298-0.542-0.565-0.835-0.834
			c-0.246-0.298-0.54-0.562-0.831-0.831c-0.248-0.3-0.544-0.569-0.839-0.839c-0.243-0.295-0.536-0.559-0.826-0.826
			c-0.249-0.3-0.544-0.568-0.839-0.839c-0.245-0.296-0.539-0.561-0.828-0.828c-0.249-0.3-0.544-0.568-0.837-0.838
			c-0.246-0.298-0.54-0.564-0.832-0.832c-0.369-0.444-0.781-0.861-1.249-1.239c-3.796-3.062-9.351-2.47-12.409,1.324
			c-2.987,3.697-2.493,9.063,1.041,12.167c0.256,0.294,0.536,0.573,0.836,0.837c0.254,0.29,0.531,0.565,0.826,0.826
			c0.257,0.294,0.536,0.571,0.835,0.835c0.258,0.296,0.539,0.575,0.841,0.84c0.252,0.29,0.529,0.564,0.825,0.825
			c0.256,0.294,0.536,0.573,0.836,0.837c0.254,0.292,0.533,0.569,0.83,0.831c0.257,0.295,0.538,0.575,0.84,0.839
			c0.254,0.291,0.531,0.567,0.831,0.83c0.254,0.292,0.532,0.569,0.83,0.831c0.257,0.296,0.539,0.576,0.842,0.841
			c0.25,0.289,0.527,0.561,0.821,0.82c0.257,0.298,0.54,0.579,0.844,0.845c0.253,0.29,0.529,0.564,0.824,0.824
			c0.259,0.296,0.539,0.575,0.842,0.84c0.213,0.247,0.447,0.483,0.694,0.708c-0.714,5.983,1.373,12.169,6.077,16.486l-4.235,5.222
			c-5.501-3.763-13.05-2.725-17.311,2.55c-4.304,5.34-3.653,13.056,1.345,17.619c0.265,0.29,0.543,0.568,0.837,0.837
			c0.261,0.286,0.536,0.561,0.828,0.826c0.264,0.29,0.542,0.568,0.836,0.837c0.261,0.286,0.536,0.561,0.828,0.828
			c0.265,0.292,0.543,0.571,0.84,0.84c0.26,0.286,0.535,0.562,0.826,0.828c0.265,0.29,0.544,0.569,0.839,0.839
			c0.264,0.287,0.542,0.567,0.836,0.835c0.261,0.287,0.538,0.564,0.829,0.83c0.265,0.289,0.543,0.568,0.839,0.836
			c0.26,0.286,0.535,0.561,0.825,0.828c0.265,0.29,0.546,0.569,0.84,0.839c0.261,0.286,0.536,0.561,0.826,0.825
			c0.265,0.291,0.543,0.572,0.839,0.842c0.261,0.286,0.536,0.561,0.828,0.828c0.265,0.289,0.543,0.569,0.837,0.839
			c0.264,0.287,0.543,0.566,0.837,0.833c0.261,0.289,0.539,0.566,0.832,0.833c0.263,0.287,0.539,0.564,0.832,0.83
			c0.26,0.286,0.535,0.561,0.825,0.825c0.265,0.292,0.545,0.572,0.84,0.843c0.264,0.289,0.542,0.566,0.836,0.835
			c0.261,0.286,0.539,0.564,0.83,0.831c0.263,0.289,0.54,0.566,0.833,0.833c0.264,0.289,0.542,0.566,0.835,0.836
			c0.264,0.289,0.542,0.567,0.836,0.835c0.263,0.287,0.539,0.565,0.832,0.833c0.263,0.286,0.539,0.562,0.83,0.829
			c0.261,0.286,0.536,0.561,0.826,0.826c0.267,0.294,0.55,0.576,0.848,0.848c0.261,0.286,0.536,0.561,0.828,0.828
			c0.263,0.286,0.539,0.564,0.831,0.831c0.263,0.287,0.539,0.564,0.83,0.83c0.264,0.289,0.542,0.568,0.835,0.836
			c0.265,0.289,0.544,0.569,0.84,0.839c0.263,0.287,0.539,0.564,0.832,0.833c0.263,0.286,0.539,0.561,0.83,0.828
			c0.263,0.289,0.539,0.567,0.832,0.833c0.264,0.289,0.542,0.568,0.836,0.836c0.261,0.286,0.535,0.56,0.825,0.825
			c0.265,0.292,0.547,0.572,0.843,0.843c0.263,0.287,0.539,0.565,0.832,0.832c0.264,0.289,0.543,0.57,0.839,0.839
			c0.26,0.283,0.533,0.558,0.824,0.822c0.125,0.137,0.264,0.264,0.396,0.396c37.719-1.667,68.182-31.187,71.342-68.504
			c-0.209-0.222-0.421-0.443-0.65-0.651C276.992,141.113,276.714,140.836,276.419,140.571z"/>
		<g id="_x31_5_2_">
			<path fill="#FDFBF7" d="M237.258,148.248c-4.168-3.37-10.143-2.902-13.809,0.877l-4.986-4.052
				c5.637-7.928,4.469-18.835-2.72-25.398l4.058-5.002c4.672,2.991,10.93,2.103,14.497-2.322c3.825-4.737,3.085-11.682-1.658-15.513
				c-4.745-3.822-11.685-3.079-15.509,1.661c-3.596,4.442-3.114,10.797,0.865,14.729l-4.052,4.998
				c-7.898-5.642-18.772-4.524-25.349,2.599l-5.071-4.124c2.542-3.753,1.867-8.881-1.727-11.782
				c-3.796-3.062-9.351-2.47-12.409,1.324c-3.065,3.794-2.474,9.352,1.316,12.413c3.377,2.719,8.14,2.54,11.308-0.201l5.119,4.155
				c-5.739,7.929-4.617,18.896,2.573,25.496l-4.235,5.222c-5.501-3.763-13.05-2.725-17.311,2.55
				c-4.473,5.548-3.609,13.674,1.939,18.15c5.55,4.476,13.678,3.612,18.149-1.943c4.206-5.21,3.699-12.696-0.983-17.294l4.236-5.226
				c7.95,5.721,18.943,4.562,25.517-2.693l5.019,4.08c-2.635,4.335-1.757,10.045,2.296,13.318c4.426,3.566,10.911,2.88,14.48-1.544
				C242.381,158.303,241.687,151.819,237.258,148.248z"/>
			<g>
				<circle fill="#73747B" cx="178.113" cy="159.646" r="3.731"/>
				<path fill="#73747B" d="M184.355,171.144c-0.003,0.001-0.003,0.003-0.003,0.007c-0.007,0-0.018,0-0.025,0
					c-0.334,0.076-0.678,0.12-1.033,0.12h-10.361c-0.357,0-0.7-0.044-1.035-0.12c-0.01,0-0.021,0-0.029-0.004v-0.005
					c-0.001-0.014-0.008-0.033-0.008-0.05c0-0.309,0.051-0.584,0.08-0.877c0.397-4.17,3.499-6.364,6.171-6.364
					c2.655,0,5.73,2.608,6.163,6.367c0.033,0.29,0.085,0.572,0.085,0.874C184.361,171.108,184.355,171.128,184.355,171.144z"/>
			</g>
			<g>
				<circle fill="#73747B" cx="225.887" cy="100.79" r="3.349"/>
				<path fill="#73747B" d="M231.49,111.109c-0.003,0.001-0.003,0.003-0.003,0.006c-0.007,0-0.015,0-0.022,0
					c-0.3,0.069-0.611,0.109-0.927,0.109h-9.298c-0.322,0-0.63-0.04-0.931-0.109c-0.007,0-0.018,0-0.026-0.004v-0.005
					c0-0.012-0.005-0.03-0.005-0.043c0-0.28,0.045-0.526,0.072-0.787c0.357-3.744,3.14-5.713,5.537-5.713
					c2.383,0,5.142,2.342,5.532,5.715c0.03,0.26,0.077,0.514,0.077,0.785C231.496,111.077,231.49,111.094,231.49,111.109z"/>
			</g>
			<g>
				<circle fill="#73747B" cx="202.919" cy="128.669" r="4.353"/>
				<path fill="#73747B" d="M210.202,142.083c-0.003,0.001-0.003,0.005-0.003,0.008c-0.008,0-0.021,0-0.029,0
					c-0.391,0.087-0.791,0.141-1.205,0.141h-12.088c-0.419,0-0.818-0.054-1.21-0.141c-0.008,0-0.023,0-0.033-0.003v-0.008
					c-0.001-0.016-0.008-0.037-0.008-0.056c0-0.363,0.059-0.684,0.092-1.024c0.465-4.865,4.082-7.426,7.2-7.426
					c3.098,0,6.687,3.044,7.19,7.428c0.04,0.338,0.102,0.668,0.102,1.02C210.211,142.043,210.202,142.064,210.202,142.083z"/>
			</g>
			<g>
				<circle fill="#73747B" cx="230.94" cy="152.136" r="3.013"/>
				<path fill="#73747B" d="M235.984,161.423c-0.003,0.001-0.003,0.004-0.003,0.005c-0.005,0-0.014,0-0.021,0
					c-0.268,0.062-0.547,0.098-0.833,0.098h-8.367c-0.29,0-0.568-0.036-0.839-0.098c-0.006,0-0.015,0-0.022-0.001v-0.005
					c-0.001-0.01-0.007-0.027-0.007-0.039c0-0.251,0.043-0.474,0.063-0.709c0.323-3.369,2.828-5.142,4.984-5.142
					c2.146,0,4.63,2.108,4.977,5.144c0.027,0.233,0.07,0.462,0.07,0.705C235.988,161.395,235.984,161.411,235.984,161.423z"/>
			</g>
			<g>
				<circle fill="#73747B" cx="176.732" cy="108.389" r="2.678"/>
				<path fill="#73747B" d="M181.215,116.645c-0.001,0-0.001,0.003-0.001,0.004c-0.007,0-0.012,0-0.018,0
					c-0.239,0.055-0.487,0.087-0.744,0.087h-7.437c-0.256,0-0.502-0.032-0.744-0.087c-0.004,0-0.012,0-0.019-0.001v-0.004
					c-0.001-0.009-0.005-0.024-0.005-0.034c0-0.223,0.037-0.421,0.056-0.632c0.286-2.993,2.513-4.569,4.43-4.569
					c1.907,0,4.115,1.873,4.425,4.572c0.025,0.207,0.061,0.41,0.061,0.627C181.217,116.619,181.215,116.634,181.215,116.645z"/>
			</g>
		</g>
	</g>
	<g id="_x31_0_1_">
		<path fill="#292929" d="M284.315,219.006c0.104-0.253,0.165-0.529,0.165-0.819v-38.051c0-1.205-0.987-2.19-2.189-2.19h-59.951
			c-1.203,0-2.189,0.985-2.189,2.19v38.051c0,0.29,0.061,0.565,0.165,0.819H284.315z"/>
		<rect x="223.614" y="181.408" fill="#B3B4B4" width="57.405" height="34.411"/>
		<path fill="#292929" d="M284.315,220.551h-63.998h-8.377c0,0,0,2.737,2.737,2.737c2.739,0,72.54,0,75.277,0
			c2.738,0,2.738-2.737,2.738-2.737H284.315z"/>
		<path fill="#D9D9D9" d="M280.384,211.562c-0.1-0.141-0.213-0.272-0.327-0.403c-0.101-0.141-0.215-0.272-0.328-0.403
			c-0.099-0.138-0.211-0.266-0.321-0.396c-0.103-0.141-0.215-0.272-0.329-0.404c-0.1-0.14-0.214-0.27-0.326-0.4
			c-0.099-0.138-0.211-0.266-0.322-0.396c-0.101-0.142-0.217-0.275-0.331-0.408c-0.099-0.137-0.21-0.265-0.32-0.393
			c-0.1-0.14-0.213-0.272-0.328-0.403c-0.1-0.138-0.212-0.268-0.323-0.399c-0.107-0.146-0.224-0.282-0.344-0.419
			c-0.105-0.145-0.223-0.279-0.341-0.412c-0.105-0.141-0.221-0.272-0.336-0.404c-0.101-0.136-0.214-0.263-0.326-0.391
			c-0.105-0.142-0.222-0.274-0.338-0.408c-0.103-0.138-0.216-0.267-0.33-0.397c-0.104-0.141-0.22-0.272-0.336-0.403
			c-0.104-0.142-0.222-0.275-0.338-0.407c-0.099-0.133-0.21-0.258-0.32-0.384c-0.108-0.146-0.228-0.283-0.349-0.42
			c-0.099-0.133-0.21-0.257-0.319-0.383c-0.105-0.141-0.22-0.273-0.335-0.404c-0.106-0.141-0.222-0.275-0.338-0.407
			c-0.104-0.137-0.216-0.267-0.33-0.397c-0.106-0.139-0.221-0.272-0.336-0.404c-0.104-0.137-0.218-0.267-0.331-0.397
			c-0.105-0.139-0.22-0.271-0.335-0.403c-0.105-0.14-0.22-0.272-0.336-0.403c-0.102-0.134-0.213-0.263-0.325-0.391
			c-0.106-0.141-0.222-0.275-0.339-0.409c-0.105-0.137-0.218-0.267-0.331-0.397c-0.104-0.138-0.218-0.27-0.334-0.401
			c-0.105-0.138-0.22-0.27-0.335-0.401c-0.104-0.138-0.216-0.269-0.331-0.399c-0.104-0.137-0.216-0.269-0.331-0.399
			c-0.106-0.139-0.221-0.273-0.338-0.405c-0.104-0.137-0.215-0.266-0.329-0.396c-0.106-0.137-0.217-0.268-0.331-0.399
			c-0.107-0.138-0.221-0.272-0.336-0.403c-0.106-0.138-0.217-0.269-0.332-0.399c-0.106-0.138-0.219-0.271-0.334-0.402
			c-0.107-0.138-0.22-0.272-0.336-0.404c-0.105-0.136-0.216-0.266-0.33-0.396c-0.106-0.136-0.218-0.268-0.333-0.398
			c-0.106-0.138-0.219-0.272-0.335-0.403c-0.106-0.138-0.219-0.27-0.334-0.401c-0.106-0.137-0.218-0.269-0.331-0.399
			c-0.22-0.282-0.458-0.551-0.715-0.806c-0.092-0.117-0.186-0.234-0.285-0.348c-0.104-0.136-0.209-0.27-0.321-0.399
			c-0.104-0.136-0.208-0.272-0.321-0.401c-0.098-0.126-0.194-0.254-0.297-0.375c-0.294-0.387-0.613-0.753-0.977-1.088
			c-0.885-0.813-1.946-1.438-3.186-1.873c-1.239-0.433-2.604-0.65-4.09-0.65c-1.816,0-3.474,0.302-4.981,0.904
			c-1.506,0.602-2.781,1.439-3.826,2.505c-1.044,1.067-1.845,2.324-2.399,3.773c-0.556,1.447-0.834,3.004-0.834,4.672
			c0,1.593,0.271,3.051,0.808,4.37c0.54,1.319,1.337,2.451,2.389,3.403c0.106,0.095,0.223,0.178,0.334,0.268
			c0.023,0.022,0.043,0.046,0.068,0.068c0.107,0.098,0.229,0.183,0.343,0.275c0.021,0.021,0.039,0.043,0.06,0.062
			c0.105,0.096,0.223,0.178,0.332,0.268c0.025,0.022,0.046,0.047,0.07,0.069c0.106,0.096,0.224,0.18,0.335,0.269
			c0.024,0.022,0.043,0.046,0.067,0.068c0.108,0.098,0.23,0.185,0.345,0.278c0.021,0.018,0.038,0.04,0.058,0.059
			c0.314,0.284,0.658,0.54,1.016,0.782c0.088,0.076,0.181,0.146,0.272,0.219c0.006,0.006,0.01,0.012,0.017,0.018
			c0.123,0.113,0.263,0.211,0.394,0.318c0.006,0.006,0.011,0.013,0.019,0.019c0.125,0.114,0.264,0.214,0.396,0.32
			c0.007,0.006,0.012,0.013,0.018,0.018c0.126,0.116,0.268,0.216,0.401,0.324c0.005,0.005,0.009,0.01,0.015,0.015
			c0.13,0.118,0.272,0.221,0.411,0.331c0.001,0.002,0.002,0.004,0.005,0.006c0.123,0.112,0.26,0.21,0.391,0.315
			c0.007,0.007,0.015,0.016,0.022,0.023c0.128,0.115,0.27,0.217,0.404,0.326c0.003,0.003,0.007,0.007,0.011,0.011
			c0.125,0.114,0.265,0.216,0.397,0.323c0.006,0.005,0.011,0.011,0.017,0.017c0.126,0.115,0.267,0.217,0.401,0.325
			c0.006,0.003,0.009,0.009,0.012,0.012c0.128,0.115,0.27,0.218,0.405,0.327c0.003,0.004,0.006,0.007,0.01,0.01
			c0.13,0.119,0.273,0.225,0.412,0.335c0,0,0.002,0.003,0.003,0.004c0.125,0.114,0.264,0.216,0.398,0.322
			c0.006,0.005,0.01,0.01,0.015,0.015c0.128,0.117,0.269,0.219,0.403,0.326c0.005,0.005,0.007,0.01,0.011,0.014
			c0.13,0.119,0.275,0.224,0.415,0.336c0,0,0.001,0,0.001,0.001c0.13,0.118,0.273,0.223,0.411,0.334
			c0.001,0.001,0.002,0.002,0.003,0.003c0.128,0.117,0.27,0.221,0.405,0.33c0.002,0.002,0.005,0.006,0.008,0.009
			c0.13,0.119,0.273,0.224,0.412,0.335c0.001,0.001,0.002,0.002,0.003,0.003c0.129,0.117,0.27,0.221,0.407,0.331
			c0.002,0.001,0.005,0.003,0.007,0.006c0.228,0.208,0.469,0.405,0.723,0.588c0.034,0.029,0.069,0.057,0.105,0.085
			c0.001,0.001,0.001,0.002,0.002,0.002c0.113,0.103,0.238,0.194,0.356,0.292h23.719v-3.477c-0.099-0.135-0.208-0.264-0.319-0.392
			C280.603,211.815,280.494,211.689,280.384,211.562z"/>
		<path fill="#FDFBF7" d="M256.446,193.146l0.295-1.302h3.098l-1.785,8.414c-0.108,0.532-0.164,0.885-0.164,1.055
			c0,0.181,0.046,0.322,0.136,0.424c0.09,0.102,0.197,0.153,0.322,0.153c0.424,0,0.969-0.278,1.638-0.829
			c0.671-0.551,1.251-1.302,1.748-2.254c0.499-0.95,0.746-1.987,0.746-3.113c0-0.939-0.18-1.823-0.534-2.653
			c-0.358-0.829-0.872-1.548-1.544-2.159c-0.673-0.61-1.503-1.087-2.493-1.432c-0.991-0.343-2.11-0.516-3.361-0.516
			c-1.276,0-2.447,0.167-3.51,0.5c-1.066,0.332-2,0.809-2.805,1.432c-0.806,0.621-1.479,1.39-2.019,2.306
			c-0.477,0.797-0.839,1.681-1.091,2.652c-0.248,0.97-0.375,1.959-0.375,2.969c0,1.344,0.265,2.575,0.803,3.691
			c0.536,1.115,1.315,2.049,2.335,2.805c1.023,0.753,2.255,1.29,3.702,1.607c1.447,0.318,3.083,0.382,4.905,0.193
			c1.448-0.172,2.674-0.501,3.681-0.985c1.004-0.484,1.855-1.164,2.552-2.043h2.499c-0.407,0.839-0.936,1.586-1.591,2.243
			c-0.651,0.656-1.417,1.211-2.294,1.659c-0.875,0.45-1.858,0.793-2.945,1.028c-1.088,0.234-2.271,0.352-3.555,0.352
			c-1.923,0-3.658-0.252-5.197-0.757c-1.543-0.506-2.839-1.233-3.891-2.183c-1.052-0.952-1.849-2.084-2.389-3.403
			c-0.537-1.319-0.808-2.777-0.808-4.37c0-1.668,0.278-3.225,0.834-4.672c0.555-1.449,1.355-2.706,2.399-3.773
			c1.045-1.067,2.321-1.903,3.826-2.505c1.507-0.602,3.165-0.904,4.981-0.904c1.485,0,2.85,0.218,4.09,0.65
			c1.24,0.436,2.301,1.06,3.186,1.873c0.884,0.813,1.558,1.779,2.024,2.893c0.465,1.115,0.697,2.345,0.697,3.69
			c0,1.049-0.186,2.077-0.563,3.079c-0.376,1.008-0.913,1.911-1.614,2.713c-0.699,0.801-1.524,1.434-2.47,1.9
			c-0.946,0.467-1.968,0.699-3.062,0.699c-0.634,0-1.127-0.108-1.477-0.323c-0.352-0.215-0.59-0.558-0.706-1.027
			c-0.681,0.673-1.462,1.098-2.348,1.275c-0.883,0.175-1.739,0.093-2.568-0.248c-0.83-0.341-1.501-0.913-2.011-1.72
			c-0.515-0.806-0.771-1.798-0.771-2.981c0-1.226,0.264-2.436,0.794-3.625c0.527-1.19,1.279-2.164,2.252-2.921
			c0.974-0.76,2.074-1.138,3.303-1.138C254.757,191.563,255.79,192.091,256.446,193.146z M250.027,199.226
			c0,0.939,0.196,1.658,0.588,2.159c0.392,0.5,0.903,0.75,1.539,0.75c0.733,0,1.381-0.294,1.94-0.881
			c0.558-0.585,0.984-1.326,1.274-2.221c0.288-0.897,0.433-1.764,0.433-2.602c0-0.413-0.048-0.787-0.148-1.119
			c-0.097-0.332-0.241-0.625-0.434-0.875c-0.19-0.25-0.421-0.44-0.69-0.569c-0.272-0.129-0.577-0.193-0.921-0.193
			c-0.689,0-1.308,0.268-1.86,0.804c-0.551,0.535-0.977,1.23-1.276,2.088C250.175,197.424,250.027,198.309,250.027,199.226z"/>
	</g>
	<path fill="#D9D9D9" d="M266.243,11.784c-10.248,0-18.557,7.232-18.557,16.146c0,8.916,8.308,16.143,18.557,16.143
		c0.591,0,1.178-0.022,1.757-0.073c-0.03,4.21-4.868,7.485-4.868,7.485c12.102-4.061,16.948-11.28,18.636-14.718
		c1.913-2.536,3.031-5.571,3.031-8.836C284.799,19.015,276.489,11.784,266.243,11.784z"/>
	<path fill="#D9D9D9" d="M107.113,63.93c-10.248,0-18.557,7.232-18.557,16.146c0,8.916,8.308,16.143,18.557,16.143
		c0.591,0,1.178-0.022,1.757-0.073c-0.03,4.21-4.868,7.485-4.868,7.485c12.102-4.061,16.948-11.28,18.636-14.718
		c1.913-2.536,3.031-5.571,3.031-8.836C125.668,71.161,117.359,63.93,107.113,63.93z"/>
	<path fill="#ADADAD" d="M333.113,59.131c-14.963,0-27.093,10.559-27.093,23.574c0,13.018,12.131,23.569,27.093,23.569
		c0.863,0,1.72-0.033,2.565-0.106c-0.044,6.147-7.108,10.928-7.108,10.928c17.669-5.929,24.745-16.469,27.209-21.489
		c2.793-3.703,4.425-8.134,4.425-12.901C360.204,69.69,348.073,59.131,333.113,59.131z"/>
	<g id="_x37__1_">
		<path id="angry_x2C__frustrated_1_" fill="#FDFBF7" d="M251.089,30.232l6.263-2.415l-6.263-2.414v-3.219l10.305,4.282v2.69
			l-10.305,4.275V30.232z M262.772,28.185h5.366v2.855h-5.366V28.185z M279.822,33.432l-10.306-4.275v-2.69l10.306-4.282v3.219
			l-6.264,2.414l6.264,2.415V33.432z"/>
	</g>
	<path fill="#292929" d="M314.479,137.591c-11.928,0-21.598,8.417-21.598,18.793c0,10.378,9.67,18.788,21.598,18.788
		c0.688,0,1.371-0.026,2.045-0.084c-0.035,4.9-5.666,8.711-5.666,8.711c14.085-4.727,19.726-13.129,21.69-17.131
		c2.227-2.952,3.528-6.484,3.528-10.285C336.076,146.008,326.404,137.591,314.479,137.591z"/>
	<g>
		<path fill="#D9D9D9" d="M109.104,174.016c14.69,0,26.599,10.366,26.599,23.143c0,12.78-11.909,23.138-26.599,23.138
			c-0.847,0-1.689-0.032-2.518-0.104c0.043,6.034,6.978,10.728,6.978,10.728c-17.346-5.821-24.293-16.168-26.712-21.096
			c-2.742-3.635-4.345-7.985-4.345-12.666C82.508,184.382,94.418,174.016,109.104,174.016z"/>
		<g>
			<circle fill="#FFFFFF" cx="93.67" cy="196.965" r="2.973"/>
			<circle fill="#FFFFFF" cx="109.105" cy="196.965" r="2.973"/>
			<circle fill="#FFFFFF" cx="124.54" cy="196.965" r="2.973"/>
		</g>
	</g>
	<g>
		<circle fill="#FFFFFF" cx="304.609" cy="165.475" r="2.414"/>
		<circle fill="#FFFFFF" cx="315.1" cy="165.475" r="2.414"/>
		<circle fill="#FFFFFF" cx="324.86" cy="165.475" r="2.414"/>
	</g>
	<g id="_x35__2_">
		<path fill="#FDFBF7" d="M307.884,214.985v-20.256c-0.004-1.813-1.471-3.28-3.285-3.284h-31.385
			c-1.814,0.004-3.281,1.471-3.285,3.284v20.256c0.004,1.814,1.471,3.28,3.285,3.284h31.385
			C306.413,218.265,307.881,216.799,307.884,214.985L307.884,214.985z"/>
		<g>
			<path fill="#FAC11F" d="M303.647,193.637l-13.558,13.556c-0.292,0.292-0.674,0.438-1.064,0.439
				c-0.39-0.001-0.772-0.146-1.065-0.439l-13.558-13.556H303.647z"/>
			<path fill="#FAC11F" d="M272.593,215.88c-0.284-0.199-0.474-0.528-0.474-0.894v-20.256c0-0.384,0.211-0.726,0.519-0.922
				l11.014,11.013L272.593,215.88z"/>
			<path fill="#FAC11F" d="M274.328,216.08l10.292-10.291l2.372,2.372c0.559,0.56,1.299,0.839,2.033,0.839c0.002,0,0.003,0,0.003,0
				c0.733,0,1.471-0.281,2.028-0.839l2.373-2.372l10.291,10.291H274.328z"/>
			<path fill="#FAC11F" d="M305.694,214.985c0,0.308-0.135,0.586-0.345,0.788l-10.952-10.953l10.913-10.911
				c0.231,0.202,0.385,0.495,0.385,0.82V214.985z"/>
		</g>
		<g>
			<path fill="#FDFBF7" d="M294.717,196.843h-11.753c-0.376,0-0.68,0.232-0.68,0.518c0,0.288,0.304,0.518,0.68,0.518h11.753
				c0.374,0,0.679-0.23,0.679-0.518C295.397,197.075,295.091,196.843,294.717,196.843z"/>
			<path fill="#FDFBF7" d="M293.763,199.057h-8.96c-0.287,0-0.519,0.232-0.519,0.519c0,0.286,0.232,0.519,0.519,0.519h8.96
				c0.286,0,0.519-0.232,0.519-0.519C294.282,199.289,294.049,199.057,293.763,199.057z"/>
		</g>
	</g>
	<text transform="matrix(1 0 0 1 301.3198 159.0417)" fill="#FFFFFF" font-family="'MicrosoftYaHei-Bold'" font-size="14">提问</text>
	<path fill="#ADADAD" d="M47.86,70.167c17.451,0,31.599,12.314,31.599,27.494c0,15.183-14.148,27.488-31.599,27.488
		c-1.006,0-2.006-0.038-2.991-0.124c0.051,7.169,8.29,12.745,8.29,12.745c-20.607-6.915-28.86-19.207-31.733-25.062
		c-3.258-4.319-5.161-9.487-5.161-15.047C16.263,82.481,30.413,70.167,47.86,70.167z"/>
	<g id="_x34__2_">
		<path id="smile_1_" fill="#FDFBF7" d="M338.338,89.853c0,2.838-2.309,5.147-5.147,5.147c-2.838,0-5.147-2.309-5.147-5.147h1.98
			c0,1.747,1.421,3.168,3.167,3.168c1.748,0,3.167-1.422,3.167-3.168H338.338z"/>
		<path id="hearts_2_" fill="#FDFBF7" d="M328.595,81.548c-2.881,1.161-4.036,2.721-4.036,2.721s-1.152-1.561-4.035-2.721
			c-3.38-1.361-3.819-6.703,0.281-7.697c1.66-0.403,2.925,0.202,3.754,1.365c0.829-1.163,2.094-1.769,3.755-1.365
			C332.414,74.844,331.975,80.187,328.595,81.548z M344.838,81.548c-2.881,1.161-4.035,2.721-4.035,2.721s-1.154-1.561-4.036-2.721
			c-3.379-1.361-3.817-6.703,0.282-7.697c1.661-0.403,2.925,0.202,3.754,1.365c0.828-1.163,2.094-1.769,3.755-1.365
			C348.657,74.844,348.217,80.187,344.838,81.548z"/>
	</g>
	<g id="_x31_1_1_">
		<g>
			<path fill="#292929" d="M207.631,190.153h-24.202c-1.296,0-2.356,1.06-2.356,2.356v32.769c0,1.295,1.061,2.356,2.356,2.356
				h24.202c1.296,0,2.356-1.061,2.356-2.356v-32.769C209.987,191.212,208.927,190.153,207.631,190.153z"/>
			<rect x="183.483" y="194.918" fill="#FAC11F" width="24.094" height="27.95"/>
			<circle fill="#CCCCCC" cx="195.477" cy="191.544" r="0.624"/>
			<path fill="#CCCCCC" d="M197.35,225.59c0,0.188-0.153,0.341-0.342,0.341h-2.741c-0.189,0-0.343-0.153-0.343-0.341v-0.172
				c0-0.189,0.154-0.342,0.343-0.342h2.741c0.189,0,0.342,0.152,0.342,0.342V225.59z"/>
		</g>
		<path fill="#D9D9D9" d="M207.366,212.44l0.211-0.4v0.297L207.366,212.44z M207.484,201.106c-0.066-0.076-0.141-0.145-0.215-0.215
			c-0.066-0.076-0.141-0.145-0.216-0.216c-0.065-0.075-0.14-0.144-0.214-0.214c-0.066-0.076-0.141-0.145-0.216-0.216
			c-0.066-0.076-0.141-0.145-0.215-0.215c-0.066-0.076-0.141-0.145-0.216-0.216c-0.066-0.076-0.14-0.145-0.215-0.215
			c-0.066-0.076-0.141-0.145-0.216-0.216c-0.066-0.076-0.141-0.145-0.215-0.215c-0.708-0.814-1.931-1.348-3.324-1.329
			c-2.167,0.03-3.906,1.377-3.884,3.009c0.009,0.707,0.354,1.348,0.911,1.849c0.069,0.075,0.14,0.148,0.217,0.217
			c0.068,0.074,0.137,0.146,0.214,0.214c0.069,0.074,0.139,0.147,0.216,0.216c0.068,0.074,0.138,0.146,0.214,0.215
			c0.02,0.022,0.04,0.044,0.061,0.066l-0.561,1.062l0.443-0.216l-0.228,0.431l0.443-0.216l-0.228,0.431l0.443-0.216l-0.228,0.431
			l0.443-0.216l-0.228,0.431l0.443-0.216l-0.228,0.431l0.443-0.216l-0.228,0.431l0.443-0.216l-0.228,0.431l0.443-0.216l-0.228,0.431
			l0.443-0.216l-0.228,0.431l0.443-0.216l-0.228,0.432l0.443-0.215l-0.227,0.43l0.443-0.215l-0.228,0.431l0.443-0.216l-0.228,0.431
			l0.443-0.216l-0.228,0.431l0.443-0.216l-0.228,0.431l0.443-0.216l-0.228,0.431l0.443-0.216l-0.228,0.431l0.443-0.216l-0.227,0.431
			l0.443-0.216l-0.228,0.431l0.443-0.215l-0.228,0.431l0.443-0.216l-0.228,0.431l0.443-0.216l-0.228,0.431l0.443-0.216l-0.228,0.431
			l0.443-0.216l-0.228,0.431l0.443-0.216l-0.228,0.431l0.443-0.216l-0.227,0.431l0.443-0.216l-0.228,0.431l0.443-0.216l-0.228,0.431
			l0.443-0.215l-0.228,0.431l0.443-0.216l-0.228,0.431l0.443-0.216l-0.228,0.431l0.443-0.216l-0.228,0.431l0.443-0.216l-0.228,0.431
			l0.444-0.216l-0.228,0.431l0.443-0.216l-0.228,0.431l0.427-0.208v-10.817C207.546,201.168,207.516,201.137,207.484,201.106z
			 M207.203,214.245c-0.048-0.093-0.123-0.167-0.215-0.215c-0.048-0.092-0.123-0.167-0.215-0.215
			c-0.048-0.092-0.122-0.166-0.215-0.215c-0.047-0.093-0.122-0.167-0.215-0.215c-0.048-0.093-0.123-0.168-0.216-0.216
			c-0.047-0.093-0.123-0.167-0.215-0.215c-0.047-0.092-0.123-0.166-0.215-0.215c-0.048-0.093-0.123-0.167-0.215-0.216
			c-0.048-0.092-0.123-0.166-0.215-0.215c-0.047-0.093-0.123-0.167-0.216-0.216c-0.047-0.093-0.123-0.167-0.215-0.215
			c-0.047-0.093-0.122-0.167-0.216-0.216c-0.047-0.092-0.122-0.166-0.215-0.215c-0.048-0.093-0.123-0.167-0.216-0.215
			c-0.047-0.093-0.123-0.167-0.215-0.215c-0.048-0.093-0.123-0.167-0.215-0.215c-0.047-0.093-0.123-0.167-0.216-0.216
			c-0.047-0.093-0.123-0.167-0.215-0.216c-0.048-0.092-0.123-0.167-0.215-0.215c-0.048-0.093-0.122-0.167-0.215-0.216
			c-0.047-0.093-0.122-0.167-0.215-0.215c-0.048-0.093-0.123-0.167-0.215-0.215c-0.047-0.093-0.123-0.167-0.216-0.215
			c-0.048-0.093-0.123-0.167-0.216-0.215c-0.048-0.093-0.123-0.167-0.216-0.216c-0.048-0.092-0.122-0.166-0.215-0.215
			c-0.048-0.093-0.123-0.168-0.216-0.216c-0.047-0.093-0.122-0.167-0.215-0.215c-0.047-0.093-0.123-0.167-0.215-0.216
			c-0.048-0.092-0.123-0.166-0.215-0.215c-0.048-0.093-0.123-0.167-0.216-0.216c-0.048-0.093-0.123-0.167-0.215-0.215
			c-0.048-0.093-0.123-0.167-0.215-0.216c-0.048-0.093-0.123-0.167-0.216-0.216c-0.047-0.093-0.122-0.167-0.215-0.215
			c-0.047-0.093-0.122-0.167-0.215-0.215c-0.062-0.121-0.17-0.21-0.304-0.25c-0.048-0.09-0.12-0.161-0.211-0.209
			c-0.047-0.093-0.123-0.167-0.216-0.216c-0.083-0.163-0.25-0.278-0.449-0.278c-0.056,0-0.107,0.017-0.157,0.034
			c-0.012-0.007-0.023-0.017-0.035-0.023c-0.047-0.093-0.122-0.166-0.215-0.215c-0.084-0.165-0.252-0.28-0.45-0.28
			c-0.125,0-0.228,0.054-0.316,0.126c-0.046-0.062-0.102-0.114-0.171-0.15c-0.084-0.163-0.251-0.279-0.449-0.279
			c-0.165,0-0.308,0.081-0.4,0.202c-0.031-0.027-0.067-0.046-0.103-0.065c-0.083-0.165-0.252-0.281-0.451-0.281
			c-0.252,0-0.461,0.183-0.5,0.422l-0.001,0c-0.083-0.165-0.252-0.278-0.452-0.278c-0.28,0-0.507,0.226-0.507,0.502
			c0,0.012,0.001,0.024,0.003,0.034c-0.089-0.141-0.247-0.234-0.43-0.234c-0.28,0-0.508,0.223-0.508,0.5
			c0,0.052,0.01,0.102,0.025,0.15c-0.092-0.101-0.227-0.166-0.376-0.166c-0.281,0-0.508,0.224-0.508,0.5
			c0,0.104,0.031,0.199,0.086,0.279c-0.086-0.065-0.193-0.105-0.309-0.105c-0.281,0-0.507,0.225-0.507,0.501
			c0,0.191,0.113,0.354,0.274,0.437c0.01,0.019,0.017,0.039,0.028,0.056c0,0-0.001,0.001-0.001,0.002
			c-0.093-0.117-0.237-0.194-0.401-0.194c-0.28,0-0.508,0.224-0.508,0.499c0,0.165,0.081,0.308,0.205,0.4
			c-0.029-0.004-0.06-0.008-0.091-0.008c-0.281,0-0.509,0.223-0.509,0.5c0,0.193,0.115,0.358,0.276,0.442
			c0.001,0.002,0.002,0.004,0.003,0.006c-0.247,0.033-0.44,0.238-0.44,0.492c0,0.194,0.114,0.359,0.279,0.442
			c0.016,0.03,0.031,0.061,0.053,0.087c-0.187,0.074-0.324,0.247-0.324,0.457c0,0.19,0.113,0.35,0.273,0.434
			c0.031,0.063,0.076,0.115,0.13,0.159c-0.115,0.091-0.193,0.227-0.193,0.383c0,0.191,0.113,0.353,0.274,0.437
			c0.048,0.093,0.123,0.167,0.216,0.216c0.045,0.087,0.115,0.157,0.201,0.206c-0.072,0.087-0.125,0.188-0.125,0.31
			c0,0.196,0.115,0.361,0.278,0.445c0.048,0.093,0.123,0.167,0.215,0.216c0.028,0.054,0.064,0.103,0.109,0.144c0,0,0,0.001,0,0.001
			c0,0.195,0.115,0.36,0.278,0.445c0.048,0.093,0.123,0.168,0.216,0.216c0.048,0.092,0.122,0.166,0.214,0.214
			c0.048,0.093,0.123,0.167,0.215,0.216c0.048,0.093,0.123,0.168,0.216,0.216c0.048,0.092,0.122,0.166,0.215,0.215
			c0.048,0.093,0.123,0.167,0.215,0.216c0.048,0.093,0.123,0.167,0.216,0.216c0.048,0.092,0.122,0.167,0.215,0.214
			c0.048,0.093,0.123,0.167,0.216,0.216c0.013,0.026,0.03,0.048,0.047,0.071c-0.079,0.25-0.181,0.49-0.324,0.693
			c-0.235,0.334-0.544,0.536-0.916,0.599c-0.067,0.012-0.165,0.015-0.258,0.02c-0.046,0.003-0.092,0.004-0.134,0.007l-0.152,0.01
			l0.015,0.013c-2.145,0.052-3.159,3.689-3.18,5.602h0.224c-0.003,0.064-0.006,0.129-0.008,0.19h18.286v-8.27
			c-0.044-0.055-0.094-0.103-0.158-0.137C207.372,214.368,207.296,214.294,207.203,214.245z"/>
		<g>
			<path fill="#B3B4B4" d="M202.221,197.838c-2.167,0.03-3.906,1.377-3.884,3.009c0.014,1.084,0.807,2.02,1.971,2.518l-0.697,1.32
				l2.004-0.975c0.224,0.026,0.452,0.042,0.687,0.038c2.167-0.029,3.905-1.376,3.884-3.009
				C206.162,199.107,204.388,197.809,202.221,197.838z"/>
			<circle fill="#FDFBF7" cx="200.315" cy="200.89" r="0.485"/>
			<circle fill="#FDFBF7" cx="202.261" cy="200.89" r="0.485"/>
			<circle fill="#FDFBF7" cx="204.209" cy="200.89" r="0.485"/>
		</g>
		<g>
			<path fill="#73747B" d="M199.682,217.075l0.013-0.013l-0.146-0.006c-0.315-0.013-1.151-0.046-1.371-0.334
				c-0.331-0.436-0.644-1.115-0.799-1.835c0.274-0.007,0.496-0.23,0.496-0.507c0-0.041-0.007-0.079-0.016-0.118
				c0.092,0.104,0.226,0.171,0.377,0.171c0.28,0,0.508-0.227,0.508-0.507c0-0.105-0.033-0.203-0.087-0.283
				c0.002,0,0.004-0.003,0.006-0.003c0.092,0.091,0.218,0.147,0.358,0.147c0.282,0,0.509-0.228,0.509-0.507
				c0-0.144-0.062-0.275-0.158-0.367c0.074,0.042,0.158,0.07,0.25,0.07c0.28,0,0.508-0.228,0.508-0.508
				c0-0.182-0.096-0.34-0.239-0.43c0.038-0.08,0.074-0.161,0.107-0.244c0.255-0.028,0.452-0.238,0.452-0.495
				c0-0.158-0.075-0.296-0.19-0.387c0.007-0.037,0.015-0.072,0.021-0.109c0.217-0.057,0.378-0.249,0.378-0.48
				c0-0.21-0.132-0.386-0.317-0.461c-0.001-0.019,0-0.04-0.001-0.06c0.19-0.072,0.326-0.252,0.326-0.465
				c0-0.255-0.195-0.462-0.444-0.493c0.167-0.083,0.282-0.251,0.282-0.447c0-0.277-0.226-0.5-0.508-0.5
				c-0.03,0-0.061,0.004-0.09,0.008c0.124-0.092,0.205-0.235,0.205-0.4c0-0.276-0.229-0.499-0.508-0.499
				c-0.105,0-0.202,0.031-0.282,0.084c-0.001-0.001-0.001-0.001-0.001-0.001c0.112-0.092,0.185-0.229,0.185-0.383
				c0-0.277-0.227-0.501-0.507-0.501c-0.118,0-0.224,0.039-0.309,0.105c0.054-0.08,0.085-0.175,0.085-0.279
				c0-0.275-0.226-0.5-0.507-0.5c-0.15,0-0.283,0.065-0.377,0.166c0.015-0.048,0.027-0.098,0.027-0.15c0-0.277-0.229-0.5-0.508-0.5
				c-0.182,0-0.34,0.092-0.43,0.234c0-0.011,0.003-0.022,0.003-0.034c0-0.276-0.228-0.502-0.508-0.502
				c-0.199,0-0.369,0.114-0.453,0.279c-0.039-0.24-0.248-0.423-0.501-0.423c-0.253,0-0.461,0.183-0.5,0.423
				c-0.083-0.165-0.252-0.279-0.453-0.279c-0.28,0-0.507,0.226-0.507,0.502c0,0.012,0.001,0.024,0.003,0.034
				c-0.089-0.141-0.247-0.234-0.43-0.234c-0.28,0-0.508,0.223-0.508,0.5c0,0.052,0.01,0.102,0.025,0.15
				c-0.092-0.101-0.227-0.166-0.376-0.166c-0.281,0-0.508,0.224-0.508,0.5c0,0.104,0.031,0.199,0.086,0.279
				c-0.086-0.065-0.193-0.105-0.309-0.105c-0.281,0-0.507,0.225-0.507,0.501c0,0.212,0.134,0.393,0.325,0.464
				c-0.008,0.01-0.016,0.02-0.023,0.03c-0.093-0.117-0.237-0.194-0.401-0.194c-0.28,0-0.508,0.224-0.508,0.499
				c0,0.165,0.081,0.308,0.205,0.4c-0.029-0.004-0.06-0.008-0.091-0.008c-0.281,0-0.509,0.223-0.509,0.5
				c0,0.196,0.118,0.364,0.283,0.447c-0.249,0.031-0.444,0.238-0.444,0.493c0,0.251,0.188,0.457,0.432,0.493
				c-0.239,0.04-0.425,0.244-0.425,0.492c0,0.276,0.229,0.499,0.509,0.499c0.027,0,0.052-0.003,0.076-0.007
				c0.001,0.001,0.001,0.002,0.001,0.003c-0.217,0.058-0.376,0.251-0.376,0.481c0,0.276,0.227,0.501,0.509,0.501
				c0.049,0,0.096-0.009,0.142-0.023c0.039,0.096,0.08,0.19,0.124,0.283c-0.125,0.092-0.209,0.24-0.209,0.408
				c0,0.281,0.229,0.508,0.51,0.508c0.084,0,0.161-0.024,0.231-0.059c0.002,0.003,0.003,0.004,0.004,0.005
				c-0.087,0.092-0.143,0.215-0.143,0.352c0,0.28,0.227,0.507,0.508,0.507c0.129,0,0.247-0.051,0.336-0.13
				c0.004,0.004,0.009,0.009,0.013,0.011c-0.044,0.077-0.073,0.164-0.073,0.258c0,0.28,0.229,0.507,0.508,0.507
				c0.151,0,0.287-0.067,0.378-0.171c-0.009,0.039-0.014,0.078-0.014,0.118c0,0.28,0.226,0.507,0.508,0.507
				c0.104,0,0.198-0.033,0.278-0.087c-0.046,0.549-0.185,1.174-0.504,1.626c-0.235,0.334-0.544,0.536-0.916,0.599
				c-0.067,0.012-0.165,0.015-0.258,0.02c-0.046,0.003-0.092,0.004-0.134,0.007l-0.152,0.01l0.015,0.013
				c-2.145,0.052-3.159,3.689-3.18,5.602h13.519C202.578,220.741,201.848,217.079,199.682,217.075z"/>
			<path fill="#FDFBF7" d="M192.932,217.119c0.35-0.089,0.642-0.297,0.87-0.621c0.326-0.464,0.471-1.099,0.52-1.66
				c0.033,0.03,0.065,0.058,0.097,0.085c0.082,0.07,0.164,0.136,0.244,0.197c0.383,0.286,0.748,0.461,1.023,0.477
				c0.013,0.001,0.027,0.001,0.039,0.001c0.378,0,0.889-0.305,1.382-0.783c0.037-0.036,0.074-0.073,0.111-0.111
				c0.01,0.057,0.02,0.114,0.032,0.171c0.157,0.754,0.483,1.466,0.828,1.921c0.153,0.201,0.512,0.295,0.902,0.341
				c0.133,0.016,0.27,0.027,0.404,0.034c-0.603,0.448-1.908,0.762-3.207,0.762c-0.04,0-0.078-0.001-0.116-0.001
				c-1.393-0.02-2.837-0.343-3.491-0.766c0.084-0.004,0.169-0.009,0.233-0.021C192.848,217.14,192.89,217.13,192.932,217.119z"/>
			<polygon fill="#FDFBF7" points="196.82,208.183 196.817,208.196 196.815,208.195 			"/>
			<polygon fill="#FDFBF7" points="194.516,208.195 194.513,208.196 194.511,208.183 			"/>
			<path fill="#FDFBF7" d="M195.903,206.352c1.249,0.165,2.228,1.128,2.583,2.38c-0.528-0.916-1.455-1.585-2.57-1.733
				c-1.373-0.182-2.655,0.475-3.347,1.58c0.027-0.079,0.059-0.155,0.092-0.231c0.082-0.19,0.177-0.37,0.286-0.539
				C193.604,206.794,194.72,206.195,195.903,206.352z"/>
			<path fill="#FDFBF7" d="M194.163,205.545c-0.006,0.002-0.013,0.005-0.019,0.006c0-0.011-0.002-0.022-0.003-0.033
				C194.146,205.527,194.155,205.536,194.163,205.545z"/>
			<path fill="#FDFBF7" d="M193.301,205.923c-0.009,0.005-0.018,0.011-0.027,0.016c-0.003-0.017-0.008-0.034-0.014-0.051
				C193.273,205.901,193.287,205.912,193.301,205.923z"/>
			<path fill="#FDFBF7" d="M192.527,206.47c-0.009,0.008-0.017,0.014-0.024,0.021c-0.011-0.019-0.021-0.039-0.034-0.057
				C192.487,206.447,192.507,206.46,192.527,206.47z"/>
			<polygon fill="#FDFBF7" points="191.359,208.005 191.357,208.009 191.351,208.004 			"/>
			<path fill="#FDFBF7" d="M192.661,212.523c-0.376,0.098-0.643-0.658-0.643-0.658c-0.132-0.396-0.121-0.762-0.066-0.909
				c0.16-0.43,0.482-0.314,0.618-0.242c0.002,0.028,0.003,0.055,0.005,0.083c0.002,0.033,0.007,0.065,0.011,0.099
				c0.016,0.161,0.034,0.319,0.057,0.474c0.013,0.091,0.026,0.184,0.041,0.275c0.002-0.102,0.006-0.201,0.012-0.3
				c0.003,0.009,0.005,0.018,0.008,0.027c0-0.051,0-0.103,0.001-0.153c0.023-0.315,0.064-0.612,0.125-0.888
				c0.034,0.009,0.071,0.014,0.107,0.014c0.281,0,0.509-0.268,0.509-0.599c0-0.041-0.003-0.08-0.008-0.118
				c0.08,0.062,0.176,0.101,0.281,0.101c0.281,0,0.51-0.269,0.51-0.602c0-0.08-0.014-0.158-0.038-0.228
				c0.007-0.003,0.016-0.005,0.023-0.009c0.054,0.264,0.255,0.461,0.494,0.461c0.261,0,0.472-0.23,0.503-0.525
				c0.084,0.199,0.256,0.337,0.456,0.337c0.201,0,0.373-0.138,0.457-0.337c0.031,0.296,0.243,0.525,0.503,0.525
				c0.24,0,0.442-0.197,0.494-0.461c0.008,0.004,0.017,0.006,0.024,0.009c-0.026,0.07-0.038,0.147-0.038,0.228
				c0,0.333,0.228,0.602,0.509,0.602c0.104,0,0.202-0.039,0.282-0.101c-0.006,0.038-0.01,0.077-0.01,0.118
				c0,0.326,0.223,0.59,0.498,0.598c0.077,0.361,0.123,0.756,0.136,1.183c0.001,0.039,0.003,0.079,0.004,0.118
				c0.014-0.085,0.026-0.172,0.039-0.257c0.018-0.119,0.033-0.239,0.046-0.36c0.003,0.052,0.003,0.109,0.005,0.163
				c0.03-0.145,0.044-0.293,0.026-0.44c0,0,0.004-0.003,0.01-0.007c0.011-0.007,0.029-0.019,0.055-0.032
				c0.136-0.073,0.456-0.184,0.615,0.243c0.054,0.147,0.065,0.514-0.066,0.909c0,0-0.266,0.756-0.642,0.658
				c-0.016-0.004-0.028-0.011-0.042-0.015c-0.019-0.006-0.039-0.013-0.055-0.021c-0.021-0.009-0.037-0.02-0.053-0.032
				c-0.227,0.732-0.666,1.445-1.155,1.995c-0.018,0.021-0.036,0.04-0.055,0.06c-0.018,0.019-0.035,0.039-0.053,0.058
				c-0.059,0.063-0.119,0.123-0.179,0.181c-0.035,0.034-0.071,0.067-0.106,0.099c-0.123,0.113-0.246,0.211-0.368,0.296
				c-0.299,0.212-0.586,0.334-0.819,0.334c-0.011,0-0.022,0-0.033-0.001c-0.217-0.013-0.495-0.132-0.793-0.328
				c-0.182-0.121-0.371-0.27-0.56-0.444c-0.003-0.002-0.005-0.004-0.008-0.007c-0.002-0.001-0.004-0.004-0.007-0.006
				c-0.017-0.016-0.033-0.032-0.05-0.048c-0.02-0.019-0.039-0.037-0.059-0.056c-0.576-0.565-1.12-1.342-1.37-2.156
				c-0.014,0.014-0.033,0.024-0.052,0.037c-0.016,0.009-0.033,0.018-0.053,0.026C192.717,212.503,192.692,212.514,192.661,212.523z"
				/>
			<path fill="#FDFBF7" d="M194.851,213.869c-0.037-0.01-0.073-0.021-0.11-0.026c0.054-0.019,0.104-0.05,0.15-0.085
				c0.027-0.021,0.053-0.042,0.078-0.065c0.024-0.023,0.047-0.043,0.069-0.067c0.007-0.007,0.015-0.013,0.021-0.021
				c0.092-0.092,0.235-0.15,0.366-0.155c0.044-0.002,0.085,0.001,0.128,0.014c0.045,0.014,0.089,0.039,0.138,0.029
				c0.113-0.023,0.186-0.065,0.306-0.03c0.105,0.029,0.187,0.078,0.265,0.133c0.028,0.02,0.055,0.041,0.081,0.06
				c0.027,0.02,0.056,0.04,0.085,0.061c0.026,0.018,0.05,0.036,0.078,0.054c0.028,0.017,0.064,0.02,0.086,0.035
				c0.007,0.005,0.034,0.01,0.038,0.015c0.02,0.05-0.074,0.091-0.124,0.101c-0.15,0.214-0.319,0.352-0.6,0.409
				c-0.249,0.049-0.442-0.004-0.442-0.004c-0.373-0.055-0.577-0.371-0.577-0.371C194.871,213.929,194.861,213.899,194.851,213.869z"
				/>
		</g>
	</g>
	<g id="_x33_3_1_">
		<path id="smiley_-_small_mouth_1_" fill="#FDFBF7" d="M36.774,90.287l4.987,9.939h-4.314l-2.36-6.002l-2.384,6.002h-4.327
			l4.987-9.939H36.774z M44.891,108.514h5.317v-4.988h-5.317V108.514z M61.638,90.287h-3.411l-4.988,9.939h4.328l2.383-6.002
			l2.36,6.002h4.313L61.638,90.287z"/>
	</g>
	<g>
		<text transform="matrix(1 0 0 1 96.504 85.3832)" fill="#FFFFFF" font-family="'MicrosoftYaHei-Bold'" font-size="16">OK</text>
	</g>
</g>
</svg>
