<?xml version="1.0" encoding="utf-8"?>
<!-- Generator: Adobe Illustrator 17.0.0, SVG Export Plug-In . SVG Version: 6.00 Build 0)  -->
<!DOCTYPE svg PUBLIC "-//W3C//DTD SVG 1.1//EN" "http://www.w3.org/Graphics/SVG/1.1/DTD/svg11.dtd">
<svg version="1.1" id="图层_1" xmlns="http://www.w3.org/2000/svg" xmlns:xlink="http://www.w3.org/1999/xlink" x="0px" y="0px"
	 width="374.911px" height="241.62px" viewBox="0 0 374.911 241.62" enable-background="new 0 0 374.911 241.62"
	 xml:space="preserve">
<g>
	<g>
		<g>
			<path fill="#FDFBF7" d="M243.096,105.446c1.679,0,4.124,1.037,5.676,1.442c2.91-8.249,9.95-14.977,19.192-14.977
				c11.324,0,20.574,8.874,21.182,20.048c0.693-0.095,1.392-0.157,2.113-0.157c8.811,0,15.954,7.143,15.954,15.951
				c0,8.813-7.143,15.956-15.954,15.956c-6.559,0-38.054,0-48.163,0c-10.567,0-19.133-8.564-19.133-19.128
				C223.964,114.01,232.53,105.446,243.096,105.446z"/>
		</g>
		<g>
			<path fill="#FDFBF7" d="M11.762,123.21c1.032,0,2.535,0.638,3.49,0.886c1.789-5.071,6.117-9.207,11.798-9.207
				c6.961,0,12.648,5.455,13.022,12.324c0.426-0.058,0.856-0.097,1.299-0.097c5.416,0,9.807,4.391,9.807,9.806
				c0,5.418-4.391,9.809-9.807,9.809c-4.032,0-23.394,0-29.608,0C5.266,146.731,0,141.467,0,134.972
				C0,128.474,5.266,123.21,11.762,123.21z"/>
		</g>
		<g>
			<path fill="#FDFBF7" d="M30.439,40.833c1.355,0,3.328,0.837,4.58,1.163c2.348-6.656,8.029-12.085,15.487-12.085
				c9.138,0,16.602,7.16,17.093,16.177c0.559-0.076,1.123-0.127,1.705-0.127c7.11,0,12.874,5.764,12.874,12.871
				c0,7.112-5.764,12.876-12.874,12.876c-5.293,0-30.708,0-38.865,0C21.912,71.709,15,64.798,15,56.273
				C15,47.744,21.912,40.833,30.439,40.833z"/>
		</g>
		<g>
			<path fill="#FDFBF7" d="M250.983,27.364c0.966,0,2.372,0.597,3.265,0.829c1.674-4.745,5.724-8.616,11.041-8.616
				c6.514,0,11.836,5.105,12.185,11.533c0.399-0.054,0.801-0.091,1.215-0.091c5.068,0,9.178,4.109,9.178,9.176
				c0,5.07-4.109,9.179-9.178,9.179c-3.773,0-21.891,0-27.707,0c-6.079,0-11.006-4.926-11.006-11.004
				C239.977,32.291,244.904,27.364,250.983,27.364z"/>
		</g>
		<g>
			<path fill="#FDFBF7" d="M260.463,222.695c0.83,0,2.04,0.513,2.808,0.713c1.439-4.08,4.922-7.408,9.493-7.408
				c5.601,0,10.177,4.389,10.477,9.916c0.343-0.047,0.688-0.078,1.045-0.078c4.358,0,7.891,3.533,7.891,7.89
				c0,4.359-3.533,7.892-7.891,7.892c-3.244,0-18.823,0-23.823,0c-5.227,0-9.463-4.236-9.463-9.461
				C251,226.931,255.237,222.695,260.463,222.695z"/>
		</g>
		<g>
			<path fill="#FDFBF7" d="M143.463,6.695c0.83,0,2.04,0.513,2.808,0.713C147.71,3.328,151.193,0,155.764,0
				c5.601,0,10.176,4.389,10.477,9.916c0.343-0.047,0.688-0.078,1.045-0.078c4.358,0,7.891,3.533,7.891,7.89
				c0,4.359-3.533,7.892-7.891,7.892c-3.244,0-18.823,0-23.823,0c-5.227,0-9.463-4.236-9.463-9.461
				C134,10.931,138.237,6.695,143.463,6.695z"/>
		</g>
		<g>
			<path fill="#FDFBF7" d="M323.523,148.469c1.354,0.026,3.311,0.901,4.557,1.251c2.475-6.61,8.259-11.93,15.715-11.787
				c9.136,0.175,16.462,7.476,16.78,16.501c0.561-0.066,1.125-0.106,1.707-0.094c7.108,0.136,12.761,6.009,12.625,13.115
				c-0.136,7.11-6.009,12.763-13.117,12.627c-5.292-0.101-30.702-0.587-38.858-0.743c-8.525-0.163-15.304-7.204-15.141-15.728
				C307.955,155.083,314.998,148.306,323.523,148.469z"/>
		</g>
		<g>
			<path fill="#FDFBF7" d="M67.772,201.833c1.355,0,3.328,0.837,4.58,1.163c2.348-6.656,8.029-12.085,15.487-12.085
				c9.138,0,16.602,7.16,17.093,16.177c0.559-0.076,1.123-0.127,1.705-0.127c7.11,0,12.874,5.764,12.874,12.871
				c0,7.112-5.764,12.876-12.874,12.876c-5.293,0-30.708,0-38.865,0c-8.527,0-15.439-6.91-15.439-15.436
				C52.333,208.744,59.245,201.833,67.772,201.833z"/>
		</g>
		<g>
			<path id="color_2_" fill="#61C4F0" d="M177.579,194.454c41.414,0,75-33.578,75-74.998c0-41.412-33.586-74.993-75-74.993
				c-41.42,0-75,33.58-75,74.993C102.579,160.877,136.159,194.454,177.579,194.454z"/>
			<g id="_x32_8_1_">
				<path fill="#D9D9D9" d="M247.506,142.702c-0.268-0.289-0.546-0.566-0.833-0.833c-0.268-0.289-0.546-0.566-0.833-0.833
					c-0.269-0.289-0.547-0.566-0.833-0.833c-0.27-0.289-0.549-0.569-0.837-0.839c-0.264-0.283-0.538-0.555-0.821-0.819
					c-0.272-0.294-0.555-0.578-0.848-0.85c-0.268-0.286-0.544-0.564-0.83-0.831c-0.267-0.286-0.543-0.561-0.829-0.828
					c-0.268-0.289-0.544-0.564-0.831-0.83c-0.27-0.289-0.549-0.569-0.837-0.839c-0.268-0.286-0.546-0.564-0.833-0.833
					c-0.268-0.286-0.544-0.564-0.83-0.831c-0.272-0.291-0.553-0.572-0.847-0.844c-0.261-0.28-0.532-0.553-0.814-0.814
					c-0.271-0.294-0.551-0.575-0.846-0.847c-0.265-0.286-0.543-0.564-0.83-0.83c-0.268-0.286-0.545-0.566-0.833-0.833
					c-0.268-0.289-0.545-0.564-0.832-0.833c-0.269-0.289-0.546-0.564-0.833-0.833c-0.268-0.289-0.546-0.564-0.833-0.833
					c-0.269-0.289-0.547-0.564-0.833-0.833c-0.268-0.286-0.545-0.564-0.829-0.828c-0.272-0.291-0.551-0.572-0.843-0.844
					c-0.268-0.286-0.545-0.564-0.833-0.83c-0.265-0.286-0.54-0.561-0.825-0.828c-0.269-0.289-0.547-0.567-0.836-0.836
					c-0.268-0.289-0.547-0.564-0.833-0.833c-0.269-0.289-0.547-0.566-0.835-0.833c-0.268-0.289-0.546-0.566-0.833-0.833
					c-0.27-0.289-0.546-0.566-0.833-0.833c-0.268-0.289-0.546-0.566-0.833-0.833c-0.269-0.289-0.549-0.566-0.835-0.836
					c-0.268-0.286-0.544-0.561-0.829-0.828c-0.269-0.289-0.549-0.569-0.836-0.836c-0.27-0.289-0.546-0.567-0.833-0.833
					c-0.268-0.289-0.546-0.567-0.833-0.833c-0.269-0.289-0.546-0.567-0.833-0.833c-1.394-1.496-3.055-2.731-4.914-3.636
					c-0.25-0.256-0.495-0.511-0.758-0.756c-0.274-0.283-0.544-0.564-0.833-0.833c-0.275-0.283-0.546-0.564-0.835-0.833
					c-0.274-0.283-0.546-0.566-0.835-0.836c-0.272-0.278-0.542-0.561-0.829-0.828c-0.276-0.283-0.55-0.572-0.84-0.842
					c-0.271-0.278-0.54-0.558-0.825-0.825c-0.275-0.28-0.547-0.566-0.836-0.836c-0.275-0.283-0.546-0.564-0.835-0.833
					c-0.274-0.283-0.545-0.567-0.833-0.833c-0.274-0.283-0.545-0.567-0.833-0.833c-0.274-0.283-0.545-0.567-0.833-0.833
					c-0.272-0.281-0.542-0.564-0.829-0.831c-0.275-0.283-0.549-0.566-0.836-0.836c-0.276-0.286-0.55-0.569-0.84-0.839
					c-0.271-0.278-0.539-0.561-0.825-0.825c-0.275-0.286-0.549-0.572-0.84-0.841c-0.271-0.278-0.539-0.558-0.825-0.825
					c-0.276-0.283-0.55-0.572-0.844-0.841c-4.037-4.161-9.67-6.765-15.927-6.765c-9.678,0-17.051,7.046-20.098,15.683
					c-1.626-0.424-4.186-1.51-5.944-1.51c-11.065,0-20.035,8.968-20.035,20.037c0,5.742,2.43,10.907,6.304,14.561
					c0.269,0.286,0.547,0.564,0.832,0.833c0.271,0.286,0.548,0.564,0.835,0.833c0.27,0.286,0.547,0.564,0.833,0.833
					c0.271,0.286,0.549,0.564,0.836,0.836c0.272,0.286,0.551,0.566,0.838,0.839c0.268,0.28,0.544,0.555,0.826,0.825
					c0.269,0.286,0.547,0.564,0.832,0.833c0.271,0.286,0.549,0.564,0.837,0.833c0.268,0.286,0.544,0.564,0.83,0.831
					c0.269,0.289,0.547,0.564,0.833,0.836c0.271,0.289,0.551,0.567,0.839,0.839c0.268,0.283,0.543,0.561,0.828,0.825
					c0.271,0.289,0.549,0.569,0.836,0.839c0.272,0.289,0.548,0.564,0.835,0.833c0.269,0.286,0.545,0.564,0.83,0.83
					c0.27,0.286,0.547,0.564,0.831,0.833c0.271,0.286,0.548,0.564,0.835,0.833c0.27,0.286,0.546,0.564,0.832,0.833
					c0.27,0.286,0.548,0.564,0.833,0.833c0.271,0.286,0.548,0.564,0.835,0.836c0.27,0.286,0.546,0.564,0.833,0.833
					c0.272,0.289,0.551,0.567,0.841,0.839c0.265,0.283,0.539,0.555,0.822,0.822c0.273,0.289,0.554,0.572,0.842,0.844
					c0.268,0.281,0.544,0.558,0.827,0.825c0.271,0.286,0.548,0.564,0.834,0.833c0.27,0.286,0.546,0.564,0.832,0.833
					c0.271,0.289,0.549,0.566,0.836,0.836c0.269,0.286,0.547,0.564,0.834,0.833c0.271,0.286,0.549,0.567,0.837,0.836
					c0.268,0.286,0.544,0.561,0.829,0.83c0.27,0.286,0.548,0.564,0.835,0.836c0.27,0.283,0.545,0.561,0.831,0.828
					c0.269,0.289,0.547,0.564,0.832,0.833c0.269,0.286,0.548,0.564,0.834,0.833c0.27,0.286,0.548,0.566,0.833,0.836
					c0.271,0.286,0.548,0.564,0.835,0.833c0.271,0.289,0.55,0.566,0.837,0.836c0.268,0.286,0.544,0.558,0.826,0.828
					c0.272,0.289,0.552,0.567,0.841,0.839c0.268,0.283,0.542,0.558,0.824,0.825c0.274,0.291,0.556,0.572,0.844,0.844
					c0.268,0.286,0.545,0.561,0.829,0.828c0.268,0.286,0.544,0.564,0.831,0.833c0.271,0.286,0.548,0.564,0.835,0.833
					c0.27,0.286,0.548,0.564,0.834,0.833c0.269,0.286,0.547,0.564,0.833,0.836c0.271,0.286,0.549,0.564,0.836,0.836
					c0.268,0.283,0.546,0.561,0.83,0.828c0.268,0.283,0.544,0.561,0.829,0.83c0.269,0.286,0.549,0.566,0.836,0.836
					c0.272,0.289,0.55,0.566,0.837,0.836c0.268,0.286,0.544,0.561,0.829,0.83c0.269,0.286,0.547,0.564,0.835,0.836
					c0.269,0.283,0.549,0.564,0.833,0.833c0.269,0.286,0.547,0.561,0.835,0.833c0.269,0.286,0.546,0.561,0.833,0.833
					c0.269,0.286,0.547,0.564,0.833,0.833c0.27,0.286,0.544,0.561,0.83,0.83c0.271,0.286,0.549,0.567,0.836,0.836
					c0.27,0.286,0.547,0.564,0.832,0.833c0.27,0.286,0.549,0.564,0.835,0.833c0.27,0.286,0.546,0.561,0.832,0.83
					c0.272,0.289,0.55,0.567,0.839,0.839c0.267,0.283,0.54,0.556,0.822,0.822c0.274,0.291,0.554,0.572,0.843,0.847
					c0.268,0.283,0.544,0.558,0.826,0.825c0.271,0.286,0.549,0.564,0.835,0.833c0.194,0.206,0.396,0.402,0.598,0.6
					c23.902-6.592,43.011-24.709,50.982-48.01c-0.069-0.066-0.132-0.135-0.201-0.201
					C248.07,143.246,247.794,142.969,247.506,142.702z"/>
			</g>
			<g>
				<path fill="#FDFBF7" d="M154.026,99.882c1.758,0,4.318,1.086,5.944,1.51c3.047-8.638,10.42-15.683,20.098-15.683
					c11.858,0,21.545,9.292,22.182,20.993c0.726-0.099,1.457-0.165,2.212-0.165c9.226,0,16.706,7.48,16.706,16.703
					c0,9.229-7.48,16.709-16.706,16.709c-6.868,0-39.85,0-50.436,0c-11.065,0-20.035-8.968-20.035-20.031
					C133.991,108.849,142.961,99.882,154.026,99.882z"/>
			</g>
			<path fill="#C7C7C7" d="M218.249,130.173c-0.232-0.322-0.505-0.611-0.833-0.833c-0.23-0.319-0.501-0.605-0.824-0.825
				c-0.235-0.324-0.512-0.613-0.837-0.836c-0.235-0.325-0.51-0.613-0.839-0.839c-0.232-0.319-0.505-0.605-0.831-0.828
				c-0.234-0.325-0.509-0.616-0.839-0.842c-0.231-0.319-0.503-0.605-0.828-0.828c-0.232-0.322-0.507-0.611-0.836-0.836
				c-0.234-0.322-0.506-0.611-0.833-0.833c-0.232-0.319-0.506-0.608-0.83-0.833c-0.231-0.316-0.502-0.6-0.824-0.822
				c-0.237-0.327-0.514-0.621-0.847-0.847c-0.232-0.319-0.507-0.611-0.835-0.833c-0.23-0.316-0.499-0.602-0.822-0.822
				c-0.235-0.327-0.513-0.621-0.846-0.847c-0.232-0.319-0.503-0.605-0.831-0.828c-0.232-0.322-0.505-0.611-0.833-0.836
				c-0.232-0.319-0.505-0.608-0.833-0.831c-0.232-0.322-0.505-0.611-0.833-0.836c-0.234-0.319-0.506-0.608-0.833-0.831
				c-0.232-0.319-0.503-0.608-0.828-0.83c-0.234-0.325-0.509-0.616-0.84-0.842c-0.231-0.319-0.503-0.605-0.831-0.828
				c-0.232-0.322-0.506-0.613-0.835-0.836c-0.232-0.319-0.507-0.608-0.833-0.831c-0.234-0.322-0.506-0.61-0.833-0.836
				c-0.234-0.319-0.506-0.608-0.835-0.83c-0.232-0.325-0.505-0.611-0.833-0.836c-0.231-0.319-0.503-0.608-0.83-0.83
				c-0.23-0.319-0.499-0.602-0.822-0.825c-0.239-0.33-0.521-0.627-0.858-0.852c-0.228-0.319-0.498-0.602-0.819-0.822
				c-0.234-0.322-0.505-0.608-0.829-0.831c-0.235-0.327-0.512-0.619-0.843-0.841c-0.232-0.322-0.506-0.611-0.835-0.836
				c-0.239-0.327-0.517-0.624-0.855-0.85c-0.557-0.368-1.224-0.589-1.943-0.589c-1.933,0-3.494,1.557-3.494,3.49v0.429v0.077v2.656
				v0.069v1.985v0.149v3.74c-0.03-0.022-0.058-0.049-0.091-0.071c-0.012-0.019-0.022-0.041-0.034-0.058
				c-0.219-0.305-0.495-0.558-0.797-0.775c-0.012-0.017-0.023-0.039-0.036-0.058c-0.241-0.333-0.546-0.616-0.884-0.844
				c-0.558-0.368-1.221-0.602-1.944-0.602c-1.568,0-2.897,1.04-3.335,2.464h-0.307c-0.047-0.036-0.092-0.077-0.142-0.113
				c-0.003-0.005-0.004-0.008-0.008-0.014c-0.219-0.322-0.507-0.589-0.823-0.817c-0.004-0.005-0.006-0.011-0.01-0.016
				c-0.246-0.355-0.565-0.657-0.927-0.902c-0.556-0.368-1.218-0.602-1.945-0.602c-1.566,0-2.896,1.04-3.337,2.464h-0.608
				c-0.057,0-0.111,0.005-0.166,0.008c-0.041-0.041-0.076-0.088-0.118-0.127c-0.11-0.104-0.23-0.192-0.352-0.28
				c-0.142-0.198-0.299-0.388-0.482-0.553c-0.129-0.124-0.271-0.236-0.417-0.333c-0.557-0.377-1.22-0.597-1.939-0.597
				c-0.936,0-1.781,0.371-2.41,0.976v17.177v2.833c0,1.169,0.413,2.249,1.103,3.099c0.132,0.165,0.274,0.319,0.426,0.465
				c0.093,0.088,0.185,0.173,0.283,0.256c1.337,1.386,2.446,2.689,2.602,3.679c0.013,0.077,0.022,0.157,0.022,0.231
				c0,0.214,0,0.77,0,0.77s0.306,0,0.827,0c0.002,0.022,0.006,0.044,0.006,0.063s0,0.05,0,0.069c13.934,0,32.554,0,37.521,0
				c6.383,0,11.925-3.58,14.739-8.844c-0.041-0.03-0.076-0.069-0.118-0.099C218.85,130.684,218.578,130.396,218.249,130.173z"/>
			<g>
				<path fill="#EDD4CB" d="M197.787,125.454l-7.847,7.618c-0.128,0.613-0.253,1.235-0.367,1.84
					c-0.033,0.184-0.07,0.371-0.105,0.553c-0.283,1.548-0.494,2.915-0.494,3.608c0,0.19,0,0.445,0,0.745
					c-0.03-0.003-22.867,0-22.867,0s0-0.556,0-0.77c0-0.074-0.009-0.154-0.022-0.231c-0.155-0.99-1.264-2.293-2.602-3.679
					c-0.098-0.083-0.19-0.168-0.283-0.256c-0.152-0.146-0.294-0.3-0.426-0.465c-0.69-0.85-1.103-1.931-1.103-3.099v-2.833v-17.177
					c0.628-0.605,1.473-0.976,2.41-0.976c0.719,0,1.383,0.22,1.939,0.597c0.146,0.096,0.289,0.209,0.417,0.333
					c0.305,0.278,0.56,0.602,0.746,0.971c0.124-0.008,0.243-0.019,0.372-0.019h0.608c0.441-1.424,1.771-2.464,3.337-2.464
					c0.727,0,1.389,0.234,1.945,0.602c0.362,0.245,0.681,0.547,0.927,0.902c0.201,0.297,0.365,0.613,0.469,0.96h0.822
					c0.438-1.424,1.767-2.464,3.335-2.464c0.723,0,1.386,0.234,1.944,0.602c0.338,0.228,0.644,0.512,0.884,0.844
					c0.22,0.302,0.395,0.649,0.51,1.017h0.448v-3.795v-0.149v-1.985v-0.069v-2.656v-0.077v-0.429c0-1.933,1.561-3.49,3.494-3.49
					c0.719,0,1.386,0.22,1.943,0.589c0.847,0.564,1.422,1.501,1.522,2.574c0.005,0.072,0.016,0.14,0.021,0.209
					c0.004,0.041,0.005,0.08,0.005,0.118v2.879v0.093v1.765l0,0v11.308c0,0.03,0.005,0.066,0.005,0.102v2.406v1.884l3.146-3.047
					c1.2-1.166,3.026-1.293,4.361-0.401c0.208,0.135,0.4,0.289,0.578,0.476C199.211,121.901,199.175,124.115,197.787,125.454z
					 M188.297,103.349c0-1.389-0.912-2.516-2.035-2.516c-1.129,0-2.04,1.128-2.04,2.516c0,1.389,0.912,2.519,2.04,2.519
					C187.386,105.868,188.297,104.738,188.297,103.349z"/>
				<path fill="#F26C61" d="M192.932,142.828l-0.01,8.819c0,0.861-0.887,1.562-1.969,1.562l-26.505-0.025
					c-1.083,0-1.956-0.704-1.951-1.562v-8.822c0.001-0.858,0.886-1.559,1.968-1.559h0.067h1.57l22.866,0.022h1.871h0.129
					C192.048,141.264,192.938,141.968,192.932,142.828z"/>
				<path fill="#FDFBF7" d="M190.16,145.369c-0.08-0.118-0.17-0.234-0.279-0.338c-0.296-0.297-0.653-0.492-1.031-0.602
					c-0.821-0.237-1.737-0.044-2.383,0.599c-0.139,0.14-0.25,0.292-0.349,0.454c-0.096,0.154-0.168,0.314-0.221,0.479
					c-0.286,0.847-0.106,1.812,0.568,2.483c0.941,0.941,2.471,0.941,3.413,0C190.716,147.611,190.807,146.313,190.16,145.369z"/>
			</g>
		</g>
		<path fill="#D9D9D9" d="M263.503,25.89c-5.615,0-10.167,4.552-10.167,10.167s4.552,10.167,10.167,10.167
			s10.167-4.552,10.167-10.167S269.118,25.89,263.503,25.89z M268.573,28.685l2.3,2.3l-1.15,1.15l-2.3-2.3L268.573,28.685z
			 M258.432,28.685l1.15,1.15l-2.3,2.3l-1.15-1.15L258.432,28.685z M258.432,43.427l-2.3-2.3l1.15-1.15l2.3,2.3L258.432,43.427z
			 M263.503,40.033c-2.196,0-3.977-1.781-3.977-3.977s1.78-3.977,3.977-3.977s3.977,1.781,3.977,3.977
			S265.699,40.033,263.503,40.033z M268.573,43.427l-1.15-1.15l2.3-2.3l1.15,1.15L268.573,43.427z"/>
		<g>
			<path fill="#D9D9D9" d="M348.538,151.426l-13.063-0.25c-0.931-0.018-1.7,0.722-1.718,1.653l-0.354,18.541
				c-0.018,0.931,0.722,1.7,1.653,1.718l13.063,0.25c0.931,0.018,1.7-0.722,1.718-1.653l0.354-18.541
				C350.209,152.212,349.469,151.443,348.538,151.426z M345.096,163.307c-0.66,0.662-1.482,0.984-2.466,0.965
				c-0.4-0.008-0.774-0.071-1.12-0.188c-0.346-0.118-0.646-0.286-0.899-0.503l-0.039,2.017l0.942,0.018
				c0.336,0.006,0.576,0.075,0.719,0.207c0.143,0.131,0.212,0.343,0.207,0.634c-0.005,0.287-0.081,0.49-0.227,0.611
				c-0.146,0.121-0.389,0.178-0.73,0.171l-3.144-0.06c-0.341-0.007-0.58-0.072-0.716-0.196s-0.201-0.331-0.196-0.623
				c0.006-0.292,0.08-0.5,0.223-0.626c0.144-0.126,0.383-0.185,0.719-0.179l0.437,0.008l0.125-6.547l-0.119-0.002
				c-0.262-0.005-0.461-0.078-0.597-0.219c-0.136-0.141-0.201-0.345-0.196-0.612c0.006-0.292,0.079-0.498,0.22-0.619
				c0.141-0.121,0.382-0.178,0.723-0.172l1.142,0.022c0.143,0.003,0.249,0.031,0.317,0.084c0.068,0.054,0.101,0.129,0.1,0.228
				l-0.01,0.534c0.258-0.331,0.568-0.579,0.93-0.743c0.362-0.163,0.768-0.241,1.217-0.232c1.013,0.019,1.847,0.359,2.502,1.019
				c0.655,0.66,0.973,1.482,0.954,2.466C346.097,161.799,345.757,162.644,345.096,163.307z"/>
			<path fill="#D9D9D9" d="M342.415,158.861c-0.489-0.009-0.896,0.163-1.219,0.518c-0.323,0.355-0.49,0.814-0.501,1.377
				s0.139,1.029,0.448,1.395c0.309,0.367,0.709,0.555,1.198,0.564c0.489,0.009,0.897-0.165,1.222-0.522
				c0.326-0.358,0.494-0.815,0.505-1.374c0.011-0.563-0.139-1.029-0.448-1.396C343.311,159.058,342.909,158.87,342.415,158.861z"/>
			<path fill="#D9D9D9" d="M346.885,149.708c0.018-0.931-0.722-1.7-1.653-1.718l-13.063-0.25c-0.931-0.018-1.7,0.722-1.718,1.653
				l-0.354,18.541c-0.018,0.931,0.722,1.7,1.653,1.718l0.354-18.541c0.018-0.931,0.787-1.671,1.718-1.653L346.885,149.708z"/>
		</g>
		<g id="_x31_3_1_">
			<g>
				<rect x="212.36" y="208.399" fill="#292929" width="17.902" height="3.138"/>
				<path fill="#292929" d="M212.406,211.948l-0.779,1.668c0,0,0.082,0.488,0.407,0.488c0.327,0,18.393,0,18.718,0
					c0.326,0,0.326-0.488,0.326-0.488l-0.778-1.668H212.406z"/>
				<path fill="#292929" d="M249.991,168.625v32.6v0.766v3.812c0,1.004-0.732,1.829-1.627,1.829h-55.337
					c-0.897,0-1.629-0.825-1.629-1.829v-3.812v-0.766v-32.6c0-0.896,0.732-1.627,1.629-1.627h55.337
					C249.259,166.998,249.991,167.729,249.991,168.625z"/>
				<rect x="194.669" y="171.049" fill="#61C4F0" width="51.918" height="29.313"/>
			</g>
			<g>
				<polygon fill="#D9D9D9" points="239.461,200.111 239.461,199.794 239.144,199.794 239.144,199.477 238.826,199.477 
					238.826,199.159 238.508,199.159 238.508,198.841 238.191,198.841 238.191,198.523 237.873,198.523 237.873,198.206 
					237.556,198.206 237.556,197.889 237.238,197.889 237.238,197.572 236.921,197.572 236.921,197.254 236.604,197.254 
					236.604,196.936 236.285,196.936 236.285,196.619 235.968,196.619 235.968,196.301 235.65,196.301 235.65,195.984 
					235.333,195.984 235.333,195.666 235.017,195.666 235.017,195.349 234.698,195.349 234.698,195.031 234.382,195.031 
					234.382,194.714 234.063,194.714 234.063,194.396 233.746,194.396 233.746,194.079 233.429,194.079 233.429,193.762 
					233.11,193.762 233.11,193.444 232.794,193.444 232.794,193.126 232.476,193.126 232.476,192.809 232.158,192.809 
					232.158,192.491 231.841,192.491 231.841,192.174 231.523,192.174 231.523,191.857 231.206,191.857 231.206,191.539 
					230.888,191.539 230.888,191.221 230.57,191.221 230.57,190.904 230.253,190.904 230.253,190.586 229.936,190.586 
					229.936,190.269 229.618,190.269 229.618,189.951 229.302,189.951 229.302,189.635 228.984,189.635 228.984,189.317 
					228.666,189.317 228.666,188.999 228.349,188.999 228.349,188.682 228.031,188.682 228.031,188.364 227.714,188.364 
					227.714,188.047 227.396,188.047 227.396,187.729 227.078,187.729 227.078,187.412 226.761,187.412 226.761,187.094 
					226.443,187.094 226.443,186.777 226.126,186.777 226.126,186.459 225.809,186.459 225.809,186.142 225.49,186.142 
					225.49,185.824 225.174,185.824 225.174,185.507 224.855,185.507 224.855,185.189 224.538,185.189 224.538,184.872 
					224.222,184.872 224.222,184.554 223.904,184.554 223.904,184.237 223.587,184.237 223.587,183.92 223.27,183.92 
					223.27,183.602 222.951,183.602 222.951,183.284 222.634,183.284 222.634,182.967 222.316,182.967 222.316,182.649 
					221.999,182.649 221.999,182.332 221.682,182.332 221.682,182.014 221.364,182.014 221.364,181.697 221.046,181.697 
					221.046,181.38 220.729,181.38 220.729,181.062 220.411,181.062 220.411,180.745 220.094,180.745 220.094,180.427 
					219.777,180.427 219.777,180.109 219.459,180.109 219.459,179.792 219.142,179.792 219.142,179.475 218.825,179.475 
					218.825,179.157 218.506,179.157 218.506,178.84 218.189,178.84 218.189,178.522 217.872,178.522 217.872,178.205 
					217.555,178.205 217.555,177.887 199.758,177.887 199.758,194.047 200.075,194.047 200.075,194.365 200.394,194.365 
					200.394,194.683 200.711,194.683 200.711,195 201.028,195 201.028,195.317 201.346,195.317 201.346,195.634 201.663,195.634 
					201.663,195.952 201.981,195.952 201.981,196.269 202.298,196.269 202.298,196.587 202.615,196.587 202.615,196.905 
					202.933,196.905 202.933,197.222 203.251,197.222 203.251,197.539 203.568,197.539 203.568,197.856 203.885,197.856 
					203.885,198.175 204.202,198.175 204.202,198.492 204.521,198.492 204.521,198.81 204.838,198.81 204.838,199.127 
					205.155,199.127 205.155,199.445 205.473,199.445 205.473,199.762 205.79,199.762 205.79,200.08 206.108,200.08 
					206.108,200.362 239.778,200.362 239.778,200.111 				"/>
			</g>
			<rect x="199.758" y="177.887" fill="#FDFBF7" width="17.797" height="16.16"/>
			<g>
				<rect x="202.811" y="180.103" fill="#CACACA" width="11.515" height="1.095"/>
				<rect x="202.811" y="184.909" fill="#CACACA" width="11.515" height="1.097"/>
				<rect x="202.811" y="182.507" fill="#CACACA" width="11.515" height="1.096"/>
				<rect x="202.812" y="187.312" fill="#CACACA" width="6.521" height="1.097"/>
			</g>
			<path d="M239.494,191.45l0.001-0.006c-0.093-0.049-0.19-0.092-0.288-0.139c-0.059-0.031-0.117-0.058-0.178-0.087
				c-0.198-0.094-0.405-0.184-0.617-0.268c-0.04-0.017-0.08-0.033-0.12-0.051c-0.721-0.279-1.506-0.507-2.342-0.672
				c-0.11-0.36-0.19-0.753-0.234-1.179c0.855-0.084,3.415-0.739,3.154-1.062c-0.828-1.022-0.482-2.697-0.333-3.811
				c0.312-2.411,0.729-3.523-0.226-6.233c-0.723-2.043-2.941-3.975-5.65-3.788c-1.077,0.072-1.844,0.369-2.935,1.107
				c-2.297,0.271-3.88,2.317-3.704,5.893c0.101,2.053,1.712,4.337,0.246,6.754c-0.25,0.415,2.316,1.644,3.746,1.451
				c-0.018,0.263-0.052,0.527-0.106,0.783c-1.003,0.167-1.935,0.429-2.781,0.756c-0.041,0.018-0.079,0.034-0.116,0.05
				c-0.216,0.084-0.422,0.175-0.622,0.269c-0.061,0.029-0.118,0.056-0.176,0.085c-0.097,0.047-0.198,0.092-0.29,0.141v0.006
				c-1.992,1.062-3.242,2.586-3.242,4.279v4.58c0.03,0,0.062,0,0.095,0v0.002h19.773c0.033,0,0.064-0.102,0.096-0.204
				c0.033-0.102,0.065-0.205,0.095-0.206v-4.172C242.739,194.036,241.488,192.512,239.494,191.45z M233.045,175.144
				c1.943,0.257,3.465,1.757,4.018,3.702c-0.823-1.424-2.264-2.465-3.998-2.695c-2.137-0.282-4.132,0.74-5.209,2.459
				C228.666,176.331,230.777,174.843,233.045,175.144z M229.767,186.973c-0.039-0.044-0.077-0.089-0.11-0.135
				c-0.512-0.646-0.957-1.388-1.244-2.158c-0.088-0.795-0.107-1.597,0-2.393c0.176-1.346,0.705-2.665,1.866-3.851
				c0.172,0.416,0.435,0.892,0.796,1.344c0.588,0.74,1.443,1.417,2.604,1.65c-0.627-0.411-1.256-1.011-1.786-1.827
				c-0.118-0.18-0.232-0.366-0.339-0.567c0.169,0.193,0.349,0.372,0.536,0.54c1.46,1.307,3.441,1.839,4.148,2.015
				c-0.896-0.547-1.592-1.083-2.314-1.836c1.043,0.547,1.975,1.074,2.858,2.477c0.009,0.019,0.018,0.035,0.025,0.052
				c-0.093,1.592-0.083,2.02,0.185,0.455c0.003,0.01,0.006,0.02,0.009,0.029c0.092,0.357,0.125,0.793,0.115,1.256
				c-0.229,0.927-0.708,1.909-1.396,2.826c-0.036,0.045-0.066,0.088-0.102,0.132c-0.02,0.027-0.038,0.052-0.059,0.077
				c-0.016,0.022-0.03,0.04-0.048,0.059c-0.826,1.025-1.761,1.754-2.452,1.923c-0.119,0.031-0.233,0.044-0.34,0.038
				c-0.048-0.002-0.099-0.009-0.15-0.021c-0.669-0.121-1.618-0.773-2.475-1.707C229.981,187.229,229.872,187.104,229.767,186.973z
				 M236.536,191.452c-0.047,0.049-0.096,0.099-0.14,0.149c-1.026,1.098-2.302,2.304-3.688,2.304c-1.309,0-2.521-1.078-3.515-2.121
				c-0.048-0.052-0.092-0.098-0.139-0.148c-0.287-0.306-0.559-0.607-0.802-0.871c0.501-0.133,1.031-0.243,1.577-0.331
				c0.071-0.013,0.145-0.022,0.215-0.031c0.01-0.031,0.02-0.058,0.026-0.089c0.006-0.032,0.013-0.066,0.021-0.1
				c0.009-0.034,0.015-0.066,0.021-0.1c0,0,0-0.001,0.002-0.002c0.063-0.317,0.096-0.641,0.105-0.96
				c0.02-0.548-0.027-1.072-0.083-1.482c0.635,0.652,1.304,1.15,1.876,1.412c0.254,0.116,0.489,0.185,0.693,0.197
				c0.019,0.001,0.04,0.001,0.062,0.001c0.261,0,0.562-0.096,0.885-0.263c0.585-0.307,1.235-0.862,1.833-1.563
				c-0.031,0.521,0.007,1.483,0.002,1.49c-0.015,0.019,0.138,0.891,0.237,1.238c0,0,0,0.003,0,0.003
				c0.011,0.036,0.023,0.067,0.032,0.103c0.012,0.036,0.022,0.068,0.031,0.103c0.011,0.028,0.018,0.056,0.026,0.083
				c0.076,0.013,0.151,0.024,0.227,0.038c0.387,0.072,0.76,0.157,1.121,0.251C236.969,190.975,236.759,191.209,236.536,191.452z"/>
		</g>
		<g id="_x31_9_2_">
			<g>
				<path fill="#292929" d="M163.975,199.332v20.623c0,3.355,2.743,6.098,6.093,6.098h46.408c3.352,0,6.093-2.742,6.093-6.098
					v-20.623c0-3.354-2.741-6.094-6.093-6.094h-46.408C166.719,193.238,163.975,195.978,163.975,199.332z"/>
				<path fill="#CCCCCC" d="M165.758,213.393c-0.207,0-0.376-0.336-0.376-0.748v-5.998c0-0.412,0.169-0.75,0.376-0.75h0.188
					c0.206,0,0.374,0.338,0.374,0.75v5.998c0,0.412-0.168,0.748-0.374,0.748H165.758z"/>
				<circle fill="#CCCCCC" cx="167.962" cy="209.642" r="0.701"/>
				<path fill="#CCCCCC" d="M219.477,205.896c0.413,0,0.751,0.338,0.751,0.75v5.998c0,0.412-0.338,0.748-0.751,0.748h-0.375
					c-0.411,0-0.75-0.336-0.75-0.748v-5.998c0-0.412,0.339-0.75,0.75-0.75H219.477z"/>
			</g>
			<rect x="170.068" y="195.441" fill="#F26C61" width="46.408" height="28.408"/>
			<path fill="#E1E1E1" d="M216.196,214.676c0-0.094,0-0.152,0-0.152c0-0.242-0.197-0.439-0.439-0.439h-0.152
				c0-0.092,0-0.152,0-0.152c0-0.242-0.197-0.441-0.439-0.441h-0.152c0-0.09,0-0.15,0-0.15c0-0.242-0.197-0.439-0.439-0.439h-0.153
				c0-0.094,0-0.152,0-0.152c0-0.242-0.196-0.439-0.439-0.439h-0.153c0-0.094,0-0.152,0-0.152c0-0.242-0.196-0.439-0.438-0.439
				h-0.153c0-0.094,0-0.152,0-0.152c0-0.244-0.196-0.439-0.438-0.439h-0.153c0-0.094,0-0.152,0-0.152
				c0-0.242-0.196-0.441-0.439-0.441h-0.151c0-0.092,0-0.15,0-0.15c0-0.244-0.198-0.442-0.439-0.442h-0.153c0-0.092,0-0.15,0-0.15
				c0-0.244-0.196-0.442-0.439-0.442h-0.153c0-0.092,0-0.15,0-0.15c0-0.244-0.196-0.439-0.438-0.439h-0.153c0-0.094,0-0.152,0-0.152
				c0-0.244-0.196-0.439-0.438-0.439h-0.153c0-0.094,0-0.152,0-0.152c0-0.244-0.196-0.441-0.439-0.441h-0.153c0-0.092,0-0.15,0-0.15
				c0-0.244-0.196-0.441-0.439-0.441h-0.152c0-0.092,0-0.15,0-0.15c0-0.244-0.197-0.44-0.439-0.44h-0.152c0-0.094,0-0.154,0-0.154
				c0-0.242-0.197-0.439-0.439-0.439h-0.153c0-0.092,0-0.152,0-0.152c0-0.242-0.196-0.439-0.438-0.439h-0.153
				c0-0.092,0-0.152,0-0.152c0-0.242-0.195-0.439-0.438-0.439h-0.153c0-0.092,0-0.15,0-0.15c0-0.244-0.196-0.441-0.438-0.441h-0.154
				c0-0.092,0-0.15,0-0.15c0-0.244-0.196-0.441-0.438-0.441h-0.152c0-0.092,0-0.15,0-0.15c0-0.244-0.197-0.439-0.439-0.439h-0.152
				c0-0.094,0-0.152,0-0.152c0-0.244-0.197-0.441-0.439-0.441h-0.153c0-0.092,0-0.15,0-0.15c0-0.244-0.196-0.441-0.439-0.441
				h-19.337c-0.242,0-0.439,0.197-0.439,0.441c0,0,0,0.961,0,1.281c0,0.318,0.184,0.508,0.481,0.508c0.036,0,0.073,0,0.11,0
				c0,0.027,0,0.061,0,0.082c0,0.322,0.183,0.508,0.481,0.508c0.037,0,0.073,0,0.11,0c0,0.029,0,0.062,0,0.086
				c0,0.275,0.142,0.443,0.369,0.488v9.92c0,0.24-0.197,0.438-0.439,0.438c0,0-0.507,0-0.727,0c-0.22,0-0.387,0.156-0.387,0.402
				c0,0.25,0,1.389,0,1.389c0,0.24,0.196,0.438,0.439,0.438h0.153c0,0.092,0,0.154,0,0.154c0,0.24,0.196,0.438,0.438,0.438h0.154
				c0,0.092,0,0.154,0,0.154c0,0.242,0.197,0.438,0.439,0.438h0.152c0,0.092,0,0.154,0,0.154c0,0.242,0.197,0.438,0.439,0.438h0.154
				c0,0.092,0,0.154,0,0.154c0,0.242,0.195,0.438,0.438,0.438h0.153c0,0.092,0,0.154,0,0.154c0,0.242,0.196,0.438,0.438,0.438h0.153
				c0,0.092,0,0.154,0,0.154c0,0.24,0.196,0.438,0.438,0.438h0.153c0,0.092,0,0.154,0,0.154c0,0.24,0.196,0.438,0.439,0.438h0.152
				c0,0.092,0,0.154,0,0.154c0,0.242,0.197,0.438,0.439,0.438h0.152c0,0.092,0,0.154,0,0.154c0,0.242,0.197,0.438,0.439,0.438h0.153
				c0,0.092,0,0.154,0,0.154c0,0.242,0.196,0.438,0.438,0.438h0.153c0,0.092,0,0.154,0,0.154c0,0.051,0.014,0.098,0.029,0.143
				h26.384v-9.148c-0.042-0.012-0.083-0.025-0.128-0.025H216.196z"/>
			<g>
				<path fill="#F26C61" d="M202.287,203.885c0,0,0.716,0,1.009,0c0.292,0,0.471-0.18,0.471-0.492c0-0.309,0-1.297,0-1.297
					c0-0.244-0.196-0.441-0.439-0.441h-19.337c-0.242,0-0.439,0.197-0.439,0.441c0,0,0,0.961,0,1.281
					c0,0.318,0.184,0.508,0.481,0.508c0.298,0,0.633,0,0.633,0c0.241,0,0.439,0.197,0.439,0.438v10.646
					c0,0.24-0.197,0.438-0.439,0.438c0,0-0.507,0-0.727,0c-0.22,0-0.387,0.156-0.387,0.402c0,0.25,0,1.389,0,1.389
					c0,0.24,0.196,0.438,0.439,0.438h19.337c0.242,0,0.439-0.197,0.439-0.438c0,0,0-0.994,0-1.301c0-0.307-0.182-0.49-0.484-0.49
					c-0.301,0-0.995,0-0.995,0c-0.24,0-0.438-0.197-0.438-0.438v-10.646C201.85,204.082,202.047,203.885,202.287,203.885z"/>
				<path fill="#FDFBF7" d="M195.424,209.139l-3.431,1.746c-0.108,0.055-0.196,0-0.196-0.121v-3.383
					c0-0.123,0.088-0.178,0.196-0.125l3.43,1.688C195.531,208.996,195.531,209.084,195.424,209.139z M183.991,201.654h19.337
					c0.242,0,0.439,0.197,0.439,0.441c0,0,0,0.988,0,1.297c0,0.312-0.179,0.492-0.471,0.492c-0.293,0-1.009,0-1.009,0
					c-0.24,0-0.438,0.197-0.438,0.438v10.646c0,0.24,0.197,0.438,0.438,0.438c0,0,0.694,0,0.995,0c0.303,0,0.484,0.184,0.484,0.49
					c0,0.307,0,1.301,0,1.301c0,0.24-0.196,0.438-0.439,0.438h-19.337c-0.242,0-0.439-0.197-0.439-0.438c0,0,0-1.139,0-1.389
					c0-0.246,0.167-0.402,0.387-0.402c0.221,0,0.727,0,0.727,0c0.241,0,0.439-0.197,0.439-0.438v-10.646
					c0-0.24-0.197-0.438-0.439-0.438c0,0-0.335,0-0.633,0c-0.298,0-0.481-0.189-0.481-0.508c0-0.32,0-1.281,0-1.281
					C183.553,201.852,183.749,201.654,183.991,201.654z M186.031,203.24v-1.018c0-0.023-0.018-0.043-0.041-0.043h-0.963
					c-0.022,0-0.042,0.02-0.042,0.043v1.018c0,0.023,0.02,0.043,0.042,0.043h0.963C186.014,203.283,186.031,203.264,186.031,203.24z
					 M184.985,215.988v1.018c0,0.025,0.02,0.043,0.042,0.043h0.963c0.023,0,0.041-0.018,0.041-0.043v-1.018
					c0-0.021-0.018-0.041-0.041-0.041h-0.963C185.005,215.947,184.985,215.967,184.985,215.988z M201.298,215.947
					c-0.023,0-0.042,0.02-0.042,0.041v1.018c0,0.025,0.02,0.043,0.042,0.043h0.964c0.023,0,0.041-0.018,0.041-0.043v-1.018
					c0-0.021-0.018-0.041-0.041-0.041H201.298z M198.045,215.947c-0.023,0-0.043,0.02-0.043,0.041v1.018
					c0,0.025,0.02,0.043,0.043,0.043h0.961c0.025,0,0.042-0.018,0.042-0.043v-1.018c0-0.021-0.017-0.041-0.042-0.041H198.045z
					 M194.791,215.947c-0.026,0-0.044,0.02-0.044,0.041v1.018c0,0.025,0.018,0.043,0.044,0.043h0.963
					c0.023,0,0.043-0.018,0.043-0.043v-1.018c0-0.021-0.02-0.041-0.043-0.041H194.791z M191.536,215.947
					c-0.023,0-0.042,0.02-0.042,0.041v1.018c0,0.025,0.02,0.043,0.042,0.043h0.965c0.021,0,0.039-0.018,0.039-0.043v-1.018
					c0-0.021-0.019-0.041-0.039-0.041H191.536z M188.281,215.947c-0.023,0-0.043,0.02-0.043,0.041v1.018
					c0,0.025,0.02,0.043,0.043,0.043h0.963c0.024,0,0.043-0.018,0.043-0.043v-1.018c0-0.021-0.019-0.041-0.043-0.041H188.281z
					 M188.623,203.885c-0.243,0-0.439,0.197-0.439,0.438v10.646c0,0.24,0.195,0.438,0.439,0.438h10.074
					c0.241,0,0.438-0.197,0.438-0.438v-10.646c0-0.24-0.196-0.438-0.438-0.438H188.623z M201.298,202.18
					c-0.023,0-0.042,0.02-0.042,0.043v1.018c0,0.023,0.02,0.043,0.042,0.043h0.964c0.023,0,0.041-0.02,0.041-0.043v-1.018
					c0-0.023-0.018-0.043-0.041-0.043H201.298z M198.045,202.18c-0.023,0-0.043,0.02-0.043,0.043v1.018
					c0,0.023,0.02,0.043,0.043,0.043h0.961c0.025,0,0.042-0.02,0.042-0.043v-1.018c0-0.023-0.017-0.043-0.042-0.043H198.045z
					 M194.791,202.18c-0.026,0-0.044,0.02-0.044,0.043v1.018c0,0.023,0.018,0.043,0.044,0.043h0.963c0.023,0,0.043-0.02,0.043-0.043
					v-1.018c0-0.023-0.02-0.043-0.043-0.043H194.791z M191.536,202.18c-0.023,0-0.042,0.02-0.042,0.043v1.018
					c0,0.023,0.02,0.043,0.042,0.043h0.965c0.021,0,0.039-0.02,0.039-0.043v-1.018c0-0.023-0.019-0.043-0.039-0.043H191.536z
					 M188.281,202.18c-0.023,0-0.043,0.02-0.043,0.043v1.018c0,0.023,0.02,0.043,0.043,0.043h0.963c0.024,0,0.043-0.02,0.043-0.043
					v-1.018c0-0.023-0.019-0.043-0.043-0.043H188.281z"/>
			</g>
		</g>
		<g>
			<polygon fill="#CBCBCB" points="52.204,43.267 52.204,50.741 58.842,50.741 			"/>
			<polygon fill="#CBCBCB" points="50.204,43.741 41.204,43.741 41.204,65.741 59.204,65.741 59.204,52.741 50.204,52.741 			"/>
		</g>
	</g>
</g>
</svg>
