<?xml version="1.0" encoding="utf-8"?>
<!-- Generator: Adobe Illustrator 17.0.0, SVG Export Plug-In . SVG Version: 6.00 Build 0)  -->
<!DOCTYPE svg PUBLIC "-//W3C//DTD SVG 1.1//EN" "http://www.w3.org/Graphics/SVG/1.1/DTD/svg11.dtd">
<svg version="1.1" id="图层_1" xmlns="http://www.w3.org/2000/svg" xmlns:xlink="http://www.w3.org/1999/xlink" x="0px" y="0px"
	 width="263.349px" height="237.082px" viewBox="0 0 263.349 237.082" enable-background="new 0 0 263.349 237.082"
	 xml:space="preserve">
<g>
	<path id="color_34_" fill="#6746A6" d="M49.656,126.019c0,40.67,32.968,73.636,73.631,73.636c40.668,0,73.64-32.967,73.64-73.636
		c0-40.662-32.972-73.631-73.64-73.631C82.623,52.389,49.656,85.358,49.656,126.019z"/>
	<path fill="#E1E1E1" d="M196.898,127.125l0-0.001l-39.364-39.365l-15.387,15.792l-2.133,4.722l50.199,48.459
		C194.366,147.697,196.742,137.683,196.898,127.125z"/>
	<path fill="#E1E1E1" d="M142.021,113.859c0,0-4.251-5.931-13.905-5.767c-8.59,0.146-13.826,6.912-13.826,6.912l-9.312-9.309
		L86.24,118.765l22.105,22.107l-15.343,20.558l37.841,37.842c0.001,0,0.002,0,0.003,0l18.187-4.253
		c17.015-6.352,31.041-18.815,39.426-34.721L142.021,113.859z"/>
	<g id="_x32_9_1_">
		<g>
			<path id="icon_1_" fill="#FDFBF7" d="M128.655,108.057c-10.142,0-18.362,8.224-18.362,18.368c0,10.141,8.22,18.362,18.362,18.362
				c10.141,0,18.36-8.221,18.36-18.362C147.015,116.281,138.796,108.057,128.655,108.057z M126.761,113.924h0.894v-1.064h-0.614
				h-0.171v-2.732h1.118v-1.399l0.065-0.146c0.199-0.011,0.4-0.019,0.604-0.019c0.894,0,1.768,0.065,2.624,0.195v0.918h1.284v1.453
				v2.033h-0.976l-0.841,0.842l-2.034,2.038l-1.057,1.061l-0.894-0.896V113.924z M123.332,109.377l0.329,0.329l-0.59,0.586h-1.003
				v1.004h1.397h0.721v4.633h-1.614v-3.348h-1.119v-1.623h-0.725v0.945l-0.695,0.705h-1.644l-0.456-0.456
				C119.539,110.937,121.361,109.992,123.332,109.377z M129.158,135.294h-1.503l-0.786,1.123v2.506l-2.288,1.679v3.013l-2.569-2.341
				v-6.145l-2.738-2.568v-3.121l-1.89-1.399h-1.677l-1.204-1.204v-1.642l-0.803-0.502l-0.231,0.616l0.396,0.219v1.401l-1.004-1.231
				l-0.501-1.955l-0.448-0.111v-3.415c0.892-2.4,2.288-4.563,4.063-6.353l5.592,0.059l-0.223,1.172l-1.675,0.108l0.167,0.556
				l0.391,0.448l-0.452,0.726l-1.334-0.165l0.784,1.061l1.335,0.945l0.448,1.064l0.558-0.167v-2.738h1.505v0.338h1.567v1.898h-0.671
				v0.778h-0.669v0.502h0.945l-0.613,0.616l-0.25-0.251l-0.588,0.583v0.5l-0.528,0.537l-0.668,0.67l-0.784,0.78l-0.526,0.529v1.674
				h-0.733v-0.891h-2.396v1.01l2.348,2.23h4.683v0.446h1.677l1.844,2.344h1.45V135.294z M143.389,124.912v1.458h-2.399l-1.176-1.174
				v-0.783h-0.695v1.091l1.589,1.593h1.817v1.309l-1.65,1.647v2.4v2.233h-1.254v2.371l-0.975,0.975h-2.296v-2.109l-1.242-1.237
				v-3.888l-1.54-1.542h-3.226l-1.268-1.269v-3.213l1.085-1.085h1.844l1.17-1.172h0.616h0.784v0.613h4.296v-0.753h-1.087
				l0.641-0.637l0.616-0.618h1.053l-0.664-0.661h-0.999l-1.053,1.05v0.823l-1.126-1.126h-0.703l1.031,1.031h-0.833l-0.672-0.672
				v-0.448l-1.004-1.004l-0.753,0.756l-0.645,0.64v1.172h-1.278v-0.556v-1.785h0.468v-0.421l0.308-0.305l-0.553-0.559l-0.73,0.724
				l-0.582-0.589l0.309-0.305v-0.554v-1.12h1.169v0.67l1.003,1.004h0.728v-0.783h2.234v-0.783h0.89v-1.112h-0.945v-1.061h-0.502
				v2.125l-0.394,0.391l-0.782-0.343l-1.342-0.329l0.113-1.282l1.34-1.004l0.783-1.339l1.45-0.335l-0.166,0.667l0.945,0.167
				l-0.053,0.67l1.06-0.113l0.503-0.335l0.111-0.554h2.238c3.393,3.248,5.516,7.83,5.516,12.892c0,0.275-0.007,0.537-0.02,0.81
				l-3.883-3.883l-0.394,0.391L143.389,124.912z"/>
		</g>
		<g>
			<path fill="#FDFBF7" d="M147.994,83.792c-6.624,0.108-11.943,4.922-11.877,10.754c0.047,3.883,2.469,7.228,6.03,9.004
				l-2.133,4.722l6.122-3.488c0.686,0.097,1.388,0.148,2.102,0.14c6.631-0.105,11.942-4.922,11.879-10.759
				C160.046,88.328,154.622,83.689,147.994,83.792z"/>
			<g>
				<circle fill="#61C4F0" cx="147.386" cy="91.143" r="3.093"/>
				<path fill="#61C4F0" d="M152.561,100.675c-0.001,0-0.001,0.003-0.001,0.005c-0.007,0-0.015,0-0.022,0
					c-0.278,0.062-0.56,0.1-0.856,0.1h-8.589c-0.298,0-0.579-0.038-0.859-0.1c-0.005,0-0.018,0-0.023-0.003v-0.006
					c-0.001-0.011-0.009-0.027-0.009-0.04c0-0.257,0.046-0.483,0.069-0.726c0.331-3.459,2.898-5.278,5.115-5.278
					c2.2,0,4.749,2.163,5.107,5.278c0.03,0.243,0.073,0.475,0.073,0.726C152.566,100.645,152.561,100.661,152.561,100.675z"/>
			</g>
		</g>
		<g>
			<path fill="#FDFBF7" d="M151.666,168.252c-6.626-0.108-11.942-4.922-11.876-10.757c0.047-3.88,2.468-7.225,6.029-9.002
				l-2.133-4.722l6.122,3.486c0.687-0.095,1.388-0.146,2.103-0.138c6.631,0.105,11.942,4.919,11.877,10.759
				C163.718,163.714,158.295,168.355,151.666,168.252z"/>
			<g>
				<circle fill="#E64F5F" cx="152.281" cy="154.357" r="3.093"/>
				<path fill="#E64F5F" d="M157.457,163.889c0,0,0,0.003,0,0.005c-0.008,0-0.016,0-0.022,0c-0.277,0.062-0.563,0.1-0.856,0.1
					h-8.591c-0.296,0-0.579-0.038-0.859-0.1c-0.007,0-0.015,0-0.023-0.003v-0.005c-0.001-0.011-0.007-0.027-0.007-0.041
					c0-0.259,0.045-0.483,0.066-0.729c0.329-3.456,2.901-5.273,5.115-5.273c2.202,0,4.751,2.16,5.111,5.276
					c0.027,0.243,0.069,0.475,0.069,0.726C157.461,163.859,157.457,163.876,157.457,163.889z"/>
			</g>
		</g>
		<g>
			<path fill="#FDFBF7" d="M101.724,164.578c6.623-0.105,11.942-4.919,11.876-10.754c-0.047-3.88-2.468-7.225-6.029-9.004
				l2.133-4.72l-6.122,3.486c-0.686-0.094-1.387-0.146-2.103-0.138c-6.63,0.105-11.942,4.922-11.879,10.759
				C89.672,160.042,95.096,164.683,101.724,164.578z"/>
			<g>
				<path fill="#FAC11F" d="M104.2,150.686c0,1.704-1.382,3.089-3.093,3.089c-1.709,0-3.094-1.385-3.094-3.089
					c0-1.709,1.385-3.097,3.094-3.097C102.818,147.589,104.2,148.977,104.2,150.686z"/>
				<path fill="#FAC11F" d="M95.929,160.171c0-0.248,0.042-0.481,0.072-0.724c0.358-3.118,2.905-5.278,5.107-5.278
					c2.215,0,4.787,1.82,5.116,5.276c0.022,0.246,0.066,0.47,0.066,0.729c0,0.014-0.005,0.03-0.007,0.04v0.005
					c-0.007,0-0.018,0-0.022,0c-0.281,0.065-0.564,0.103-0.86,0.103h-8.59c-0.294,0-0.58-0.038-0.857-0.103c-0.005,0-0.012,0-0.02,0
					c0,0,0-0.003-0.001-0.003C95.933,160.204,95.929,160.188,95.929,160.171z"/>
			</g>
		</g>
		<g>
			<path fill="#FDFBF7" d="M94.914,100.848c6.626,0.103,11.943,4.919,11.877,10.751c-0.049,3.88-2.469,7.225-6.03,9.004l2.134,4.722
				l-6.124-3.488c-0.687,0.095-1.388,0.148-2.103,0.138c-6.63-0.105-11.942-4.919-11.877-10.757
				C82.863,105.381,88.285,100.742,94.914,100.848z"/>
			<g>
				<circle fill="#5ABDA6" cx="94.543" cy="108.194" r="3.094"/>
				<path fill="#5ABDA6" d="M89.363,117.682c0-0.248,0.042-0.483,0.072-0.724c0.356-3.116,2.906-5.276,5.108-5.276
					c2.215,0,4.787,1.814,5.116,5.273c0.023,0.243,0.066,0.47,0.066,0.729c0,0.014-0.008,0.03-0.008,0.041v0.005
					c-0.007,0.003-0.015,0.003-0.023,0.003c-0.277,0.059-0.562,0.1-0.859,0.1h-8.59c-0.293,0-0.579-0.041-0.856-0.1
					c-0.005,0-0.016,0-0.02,0c0-0.003,0-0.008-0.001-0.008C89.368,117.714,89.363,117.698,89.363,117.682z"/>
			</g>
		</g>
	</g>
</g>
<g id="_x33__1_">
	<g>
		<path fill="#D9D9D9" d="M118.35,185.75v39.69c0,1.97,1.596,3.568,3.567,3.568h50.394c1.967,0,3.567-1.598,3.567-3.568v-39.69
			c0-1.97-1.599-3.567-3.567-3.567h-50.394C119.946,182.183,118.35,183.78,118.35,185.75z"/>
	</g>
	<g>
		<rect x="122.808" y="192.989" fill="#B3B4B4" width="48.609" height="31.561"/>
	</g>
	<g>
		<g>
			<rect x="129.413" y="185.538" fill="#B3B4B4" width="3.787" height="3.646"/>
		</g>
		<g>
			<rect x="136.022" y="185.538" fill="#B3B4B4" width="3.783" height="3.646"/>
		</g>
		<g>
			<rect x="122.808" y="185.538" fill="#B3B4B4" width="3.783" height="3.646"/>
		</g>
	</g>
	<g>
		<rect x="122.808" y="192.989" fill="#FDFBF7" width="48.609" height="31.561"/>
	</g>
	<g>
		<rect x="126.523" y="195.138" fill="#FAC11F" width="41.081" height="9.042"/>
		<rect x="126.685" y="207.879" fill="#FAC11F" width="10.945" height="13.004"/>
	</g>
	<g>
		<polyline fill="#BBBBBB" points="143.698,206.918 143.698,208.755 166.534,208.755 166.534,206.918 		"/>
		<rect x="143.698" y="214.975" fill="#BBBBBB" width="22.836" height="1.838"/>
		<rect x="143.698" y="210.947" fill="#BBBBBB" width="22.836" height="1.837"/>
		<rect x="143.698" y="219.005" fill="#BBBBBB" width="22.836" height="1.838"/>
	</g>
</g>
<g>
	<path fill="#ADADAD" d="M236.708,109.32c-12.62,0-22.85,10.23-22.85,22.849c0,6.137,2.425,11.706,6.362,15.811l32.298-32.298
		C248.413,111.744,242.845,109.32,236.708,109.32z M223.564,124.922l1.427-1.426l3.221,3.22l8.214-8.214l1.427,1.427l-9.644,9.638
		L223.564,124.922z"/>
	<path fill="#ADADAD" d="M254.513,117.856l-32.119,32.12c3.917,3.153,8.893,5.043,14.313,5.043c12.62,0,22.85-10.23,22.85-22.849
		C259.557,126.749,257.666,121.774,254.513,117.856z M249.27,145.318l-1.427,1.427l-3.567-3.567l-3.566,3.567l-1.426-1.427
		l3.566-3.567l-3.566-3.567l1.426-1.426l3.566,3.567l3.567-3.567l1.427,1.426l-3.567,3.567L249.27,145.318z"/>
</g>
<g>
	<g id="_x31_9_1_">
		<g>
			<path fill="#292929" d="M207.173,177.241h-20.248c-3.294,0-5.987,2.693-5.987,5.982v45.564c0,3.291,2.692,5.982,5.987,5.982
				h20.248c3.292,0,5.983-2.691,5.983-5.982v-45.564C213.156,179.935,210.466,177.241,207.173,177.241z"/>
			<path fill="#CCCCCC" d="M193.369,178.991c0-0.203,0.33-0.369,0.734-0.369h5.889c0.405,0,0.736,0.166,0.736,0.369v0.185
				c0,0.202-0.332,0.367-0.736,0.367h-5.889c-0.405,0-0.734-0.165-0.734-0.367V178.991z"/>
			<circle fill="#CCCCCC" cx="197.05" cy="181.155" r="0.688"/>
			<path fill="#CCCCCC" d="M200.728,231.732c0,0.406-0.332,0.737-0.736,0.737h-5.889c-0.405,0-0.734-0.332-0.734-0.737v-0.368
				c0-0.404,0.33-0.736,0.734-0.736h5.889c0.405,0,0.736,0.333,0.736,0.736V231.732z"/>
		</g>
		<rect x="183.102" y="183.223" fill="#73747B" width="27.891" height="45.564"/>
	</g>
	<path fill="#FFFFFF" d="M196.979,191.705c-6.325,0-11.453,4.463-11.453,9.965c0,5.503,5.128,9.963,11.453,9.963
		c0.365,0,0.727-0.014,1.084-0.045c-0.018,2.598-3.005,4.619-3.005,4.619c7.469-2.506,10.46-6.962,11.502-9.084
		c1.181-1.565,1.871-3.438,1.871-5.454C208.432,196.168,203.303,191.705,196.979,191.705z M190.333,202.866
		c-0.707,0-1.28-0.573-1.28-1.28c0-0.707,0.573-1.28,1.28-1.28s1.28,0.573,1.28,1.28
		C191.613,202.293,191.04,202.866,190.333,202.866z M196.979,202.866c-0.707,0-1.28-0.573-1.28-1.28c0-0.707,0.573-1.28,1.28-1.28
		c0.707,0,1.28,0.573,1.28,1.28C198.259,202.293,197.686,202.866,196.979,202.866z M203.625,202.866c-0.707,0-1.28-0.573-1.28-1.28
		c0-0.707,0.573-1.28,1.28-1.28c0.707,0,1.28,0.573,1.28,1.28C204.905,202.293,204.332,202.866,203.625,202.866z"/>
	<rect x="187.96" y="218.614" fill="#FFFFFF" width="18.176" height="2.152"/>
	<rect x="188.199" y="223.158" fill="#FFFFFF" width="18.176" height="2.152"/>
</g>
<g>
	<path fill="#ADADAD" d="M23.85,39.058C11.23,39.058,1,49.287,1,61.907c0,6.137,2.425,11.706,6.362,15.811L39.66,45.419
		C35.555,41.482,29.987,39.058,23.85,39.058z M21.414,58.283c-0.707-0.255-1.411-0.658-2.114-1.208
		c-0.73,0.407-1.535,0.611-2.416,0.611c-0.891,0-1.698-0.215-2.423-0.644c-0.725-0.43-1.283-1.034-1.675-1.812
		c-0.391-0.779-0.587-1.656-0.587-2.631c0-0.971,0.197-1.854,0.591-2.651c0.394-0.797,0.954-1.403,1.682-1.819
		c0.727-0.416,1.54-0.624,2.439-0.624c0.908,0,1.727,0.216,2.456,0.648c0.73,0.431,1.285,1.035,1.668,1.812
		c0.382,0.776,0.573,1.652,0.573,2.627c0,0.81-0.123,1.538-0.369,2.184c-0.246,0.647-0.617,1.21-1.114,1.688
		c0.604,0.416,1.161,0.72,1.671,0.913L21.414,58.283z"/>
	<path fill="#ADADAD" d="M19.859,50.504c-0.27-0.595-0.666-1.058-1.187-1.385c-0.522-0.33-1.106-0.494-1.756-0.494
		c-0.971,0-1.777,0.333-2.416,0.996c-0.64,0.665-0.96,1.657-0.96,2.977c0,1.28,0.316,2.262,0.949,2.946
		c0.634,0.685,1.442,1.027,2.427,1.027c0.465,0,0.904-0.087,1.315-0.262c-0.407-0.264-0.837-0.452-1.289-0.564l0.315-0.946
		c0.752,0.21,1.371,0.524,1.859,0.94c0.765-0.698,1.148-1.747,1.148-3.148C20.266,51.794,20.131,51.099,19.859,50.504z"/>
	<path fill="#ADADAD" d="M30.536,67.631c-0.126,0.631-0.302,1.257-0.53,1.879l-1.081,2.886h3.336l-1.027-2.725
		C30.921,68.844,30.689,68.163,30.536,67.631z"/>
	<path fill="#ADADAD" d="M41.655,47.593L9.536,79.713c3.917,3.153,8.894,5.043,14.313,5.043c12.62,0,22.85-10.23,22.85-22.849
		C46.699,56.487,44.808,51.511,41.655,47.593z M33.812,76.436l-1.148-2.98H28.55l-1.081,2.98h-1.383l3.779-9.839h1.403l4.027,9.839
		H33.812z"/>
</g>
<g>
	<path fill="#ADADAD" d="M188.699,10.536l-1.995-2.174C182.599,4.424,177.031,2,170.893,2c-12.62,0-22.85,10.23-22.85,22.849
		c0,6.137,2.425,11.706,6.362,15.811l2.174,1.995c3.917,3.153,8.894,5.043,14.313,5.043c12.62,0,22.85-10.23,22.85-22.849
		C193.743,19.429,191.852,14.454,188.699,10.536z"/>
	<g id="_x33_2_1_">
		<path id="color_6_" fill="#FDFBF7" d="M177.729,27.939c-0.85,0-1.633,0.277-2.275,0.736l-7.457-3.883l7.373-3.837
			c0.66,0.497,1.471,0.805,2.359,0.805c2.174,0,3.934-1.762,3.934-3.933c0-2.172-1.76-3.935-3.934-3.935
			c-2.173,0-3.933,1.763-3.933,3.935c0,0.046,0.013,0.091,0.014,0.14l-7.394,3.849c-0.658-0.5-1.469-0.805-2.359-0.805
			c-2.174,0-3.935,1.761-3.935,3.933s1.76,3.932,3.935,3.932c0.993,0,1.89-0.382,2.583-0.987l7.181,3.739
			c-0.005,0.082-0.025,0.161-0.025,0.246c0,2.172,1.76,3.934,3.933,3.934c2.174,0,3.934-1.762,3.934-3.934
			C181.664,29.701,179.903,27.939,177.729,27.939z"/>
	</g>
</g>
<g>
	<g>
		<path fill="#ADADAD" d="M58.84,182.357l-1.995-2.174c-4.105-3.938-9.673-6.362-15.811-6.362c-12.62,0-22.85,10.23-22.85,22.849
			c0,6.137,2.425,11.706,6.362,15.811l2.174,1.995c3.917,3.153,8.894,5.043,14.313,5.043c12.62,0,22.85-10.23,22.85-22.849
			C63.883,191.251,61.993,186.275,58.84,182.357z"/>
		<g>
			<polygon fill="#FDFBF7" points="31.62,182.55 31.62,189.379 31.62,194.596 31.62,205.476 31.62,207.199 31.62,210.792 
				50.447,210.792 50.447,182.55 			"/>
			<g>
				<rect x="35.8" y="192.982" fill="#BBBBBB" width="10.905" height="1.241"/>
				<rect x="35.8" y="195.137" fill="#BBBBBB" width="8.515" height="1.24"/>
				<rect x="35.8" y="197.321" fill="#BBBBBB" width="10.384" height="1.244"/>
				<rect x="35.8" y="199.507" fill="#BBBBBB" width="6.709" height="1.242"/>
				<rect x="35.8" y="201.715" fill="#BBBBBB" width="4.842" height="1.242"/>
			</g>
		</g>
	</g>
	<g>
		<circle fill="none" cx="41.553" cy="208.961" r="0.908"/>
		<polygon fill="none" points="40.496,185.525 39.113,184.143 39.113,190.054 37.455,188.86 35.8,190.054 35.8,184.143 
			34.371,185.597 35.8,184.143 33.214,184.143 33.214,207.238 48.856,207.238 48.858,184.143 39.113,184.143 		"/>
		<polygon fill="#E84D50" points="37.455,188.86 39.113,190.054 39.113,184.143 35.8,184.143 35.8,190.054 		"/>
		<path fill="#73747B" d="M31.62,182.55v6.829v5.218v10.879v1.723v3.594h18.827V182.55H31.62z M41.553,209.869
			c-0.502,0-0.909-0.409-0.909-0.91c0-0.5,0.406-0.906,0.909-0.906c0.499,0,0.905,0.407,0.905,0.906
			C42.458,209.46,42.053,209.869,41.553,209.869z M48.856,207.238H33.214v-23.095H35.8h3.314h9.745L48.856,207.238z"/>
	</g>
</g>
<circle fill="#ADADAD" cx="10.526" cy="133.917" r="5.823"/>
<circle fill="#ADADAD" cx="96.703" cy="31.491" r="5.823"/>
<circle fill="#ADADAD" cx="214.489" cy="69.487" r="5.823"/>
</svg>
