<?xml version="1.0" encoding="utf-8"?>
<!-- Generator: Adobe Illustrator 17.0.0, SVG Export Plug-In . SVG Version: 6.00 Build 0)  -->
<!DOCTYPE svg PUBLIC "-//W3C//DTD SVG 1.1//EN" "http://www.w3.org/Graphics/SVG/1.1/DTD/svg11.dtd">
<svg version="1.1" id="图层_1" xmlns="http://www.w3.org/2000/svg" xmlns:xlink="http://www.w3.org/1999/xlink" x="0px" y="0px"
	 width="482.234px" height="153.237px" viewBox="0 0 482.234 153.237" enable-background="new 0 0 482.234 153.237"
	 xml:space="preserve">
<g>
	<path fill="#F1484D" d="M65.403,26.373c-3.381-0.214-4.576-4.147-4.673-4.596c-0.921-4.245-0.692-7.416,1.685-10.73
		c0,0,0.618-0.843,0-1.742c-0.945-1.374-2.493-1.885-4.551-0.056c-3.103,2.759-2.004,14.336,2.938,21.577
		c0,0,25.697,34.572,0.45,57.73c-18.923,17.357-27.001,26.406-27.001,26.406s-27.433-42.951,1.416-68.04
		c0,0,10.699-8.373,15.825-5.062c0,0-22.988,12.528-17.586,50.344c0,0,0.759-31.243,20.983-47.222
		c0.019-0.02,0.028-0.045,0.05-0.063c1.627-1.386,2.658-3.45,2.658-5.754c0-0.885-0.154-1.734-0.433-2.523
		c-2.058-3.856-6.603-7.917-16.619-5.619C15.679,36.73,0,62.864,0,89.79c0,35.041,28.406,63.447,63.447,63.447
		c35.041,0,63.447-28.406,63.447-63.447C126.894,55.404,99.487,28.526,65.403,26.373z"/>
	<path fill="#2AB54A" d="M82.874,22.447C120.196,51.475,150,0.248,150,0.248s-4.416,1.24-32.955-0.122
		c-19.18-0.915-30.566,3.301-36.83,8.087c0,0-6.153,7.993,7.399,3.618c10.935-3.531,23.723-6.713,39.28-2.802
		c0,0-37.399,3.32-45.854,9.4C78.578,20.201,82.874,22.447,82.874,22.447z"/>
</g>
<g>
	<g>
		<path fill="#39B54A" d="M175.147,136.838l-7.98-15.651c-0.749-0.086-1.318-0.346-1.714-0.764
			c-0.389-0.418-0.583-0.929-0.583-1.527c0-0.691,0.238-1.253,0.713-1.678c0.468-0.425,1.261-0.641,2.37-0.641h4.206
			c1.109,0,1.901,0.216,2.37,0.641c0.476,0.425,0.713,0.987,0.713,1.678c0,0.67-0.238,1.225-0.713,1.649
			c-0.468,0.425-1.217,0.641-2.233,0.641l5.438,10.595l5.402-10.595c-0.994,0-1.722-0.216-2.197-0.641
			c-0.468-0.425-0.706-0.987-0.706-1.678c0-0.67,0.238-1.225,0.706-1.649c0.476-0.425,1.261-0.641,2.377-0.641h4.336
			c1.095,0,1.88,0.216,2.348,0.641c0.476,0.425,0.713,0.987,0.713,1.678c0,0.612-0.202,1.131-0.612,1.563
			c-0.403,0.425-1.001,0.67-1.793,0.728l-10.573,20.823c1.152,0,1.916,0.115,2.276,0.339c0.713,0.468,1.073,1.124,1.073,1.981
			c0,0.677-0.23,1.225-0.706,1.649c-0.468,0.432-1.261,0.641-2.37,0.641h-10.055c-1.109,0-1.901-0.209-2.37-0.641
			c-0.476-0.425-0.713-0.972-0.713-1.649c0-0.691,0.238-1.246,0.713-1.678c0.468-0.425,1.261-0.641,2.37-0.641h4.588
			L175.147,136.838z"/>
		<path fill="#39B54A" d="M217.729,127.172c0,1.765-0.49,3.479-1.469,5.136c-0.987,1.657-2.449,2.975-4.386,3.961
			c-1.945,0.98-3.969,1.469-6.086,1.469c-2.096,0-4.105-0.482-6.021-1.448c-1.923-0.972-3.385-2.283-4.386-3.947
			c-1.008-1.664-1.505-3.407-1.505-5.222c0-1.844,0.504-3.652,1.527-5.431c1.016-1.772,2.485-3.169,4.393-4.192
			c1.916-1.023,3.911-1.527,5.992-1.527c2.103,0,4.12,0.519,6.064,1.563c1.937,1.037,3.407,2.442,4.393,4.206
			C217.239,123.498,217.729,125.306,217.729,127.172z M213.119,127.193c0-1.484-0.533-2.852-1.592-4.098
			c-1.455-1.678-3.371-2.514-5.74-2.514c-2.082,0-3.817,0.663-5.215,2.002c-1.397,1.332-2.089,2.874-2.089,4.631
			c0,1.44,0.699,2.78,2.11,4.033c1.412,1.253,3.14,1.88,5.193,1.88c2.074,0,3.81-0.627,5.222-1.88
			C212.413,129.995,213.119,128.648,213.119,127.193z"/>
		<path fill="#39B54A" d="M243.91,116.577v15.809c0.98,0,1.7,0.216,2.161,0.648c0.468,0.439,0.699,0.994,0.699,1.671
			c0,0.67-0.238,1.225-0.706,1.649c-0.476,0.425-1.268,0.641-2.377,0.641H239.3v-1.059c-1.318,0.605-2.578,1.052-3.774,1.354
			c-1.203,0.295-2.341,0.446-3.421,0.446c-1.513,0-2.823-0.317-3.933-0.958c-1.109-0.634-1.988-1.513-2.636-2.644
			c-0.461-0.807-0.691-1.815-0.691-3.032v-9.918h-0.792c-1.109,0-1.894-0.216-2.37-0.641c-0.476-0.425-0.706-0.987-0.706-1.678
			c0-0.67,0.23-1.225,0.706-1.649c0.476-0.425,1.261-0.641,2.37-0.641h5.402v13.721c0,0.972,0.238,1.686,0.706,2.146
			c0.476,0.454,1.196,0.684,2.168,0.684c0.929,0,1.93-0.187,3.004-0.555c1.073-0.367,2.398-1.03,3.969-1.988v-9.399h-1.664
			c-1.109,0-1.901-0.216-2.37-0.641c-0.476-0.425-0.706-0.987-0.706-1.678c0-0.67,0.23-1.225,0.706-1.649
			c0.468-0.425,1.261-0.641,2.37-0.641h6.274V116.577z"/>
		<path fill="#39B54A" d="M258.74,116.577v1.549c0.836-0.72,1.765-1.253,2.773-1.613c1.016-0.36,2.11-0.54,3.299-0.54
			c2.73,0,4.883,0.843,6.475,2.535c1.261,1.354,1.887,3.119,1.887,5.308v8.571c0.979,0,1.692,0.216,2.161,0.641
			c0.468,0.425,0.699,0.987,0.699,1.678c0,0.67-0.238,1.225-0.713,1.649c-0.468,0.425-1.261,0.641-2.37,0.641h-4.163
			c-1.109,0-1.894-0.216-2.37-0.641c-0.476-0.425-0.706-0.987-0.706-1.678c0-0.67,0.23-1.225,0.691-1.649
			c0.468-0.425,1.188-0.641,2.161-0.641v-8.701c0-1.008-0.267-1.743-0.807-2.204c-0.706-0.605-1.765-0.9-3.169-0.9
			c-1.066,0-2.002,0.202-2.802,0.619c-0.807,0.41-1.822,1.282-3.047,2.614v8.571c1.181,0,1.945,0.115,2.29,0.339
			c0.735,0.446,1.102,1.109,1.102,1.981c0,0.67-0.238,1.225-0.706,1.649c-0.476,0.425-1.261,0.641-2.377,0.641h-5.236
			c-1.109,0-1.901-0.216-2.37-0.641c-0.476-0.425-0.713-0.987-0.713-1.678c0-0.836,0.36-1.491,1.08-1.952
			c0.36-0.223,1.131-0.339,2.319-0.339v-11.2c-0.98,0-1.7-0.216-2.161-0.655c-0.468-0.432-0.699-0.987-0.699-1.664
			c0-0.67,0.238-1.225,0.713-1.649c0.468-0.425,1.261-0.641,2.37-0.641H258.74z"/>
		<path fill="#39B54A" d="M297.137,117.945v-1.368h5.395c1.109,0,1.901,0.216,2.37,0.641c0.476,0.425,0.713,0.987,0.713,1.678
			c0,0.67-0.238,1.225-0.713,1.649c-0.468,0.425-1.261,0.641-2.37,0.641h-0.785v16.775c0,1.621-0.346,3.032-1.023,4.242
			c-0.684,1.203-1.728,2.247-3.14,3.111c-1.412,0.871-2.996,1.304-4.768,1.304h-5.215c-1.109,0-1.901-0.209-2.377-0.641
			c-0.468-0.425-0.706-0.972-0.706-1.649c0-0.691,0.238-1.246,0.706-1.678c0.476-0.425,1.268-0.641,2.377-0.641h5.085
			c1.404,0,2.499-0.382,3.277-1.145c0.785-0.764,1.174-1.728,1.174-2.903v-2.247c-1.023,0.663-2.06,1.152-3.119,1.484
			c-1.052,0.331-2.139,0.497-3.248,0.497c-3.133,0-5.755-1.044-7.872-3.14c-2.11-2.089-3.169-4.675-3.169-7.743
			c0-3.09,1.059-5.683,3.169-7.771c2.118-2.096,4.739-3.14,7.872-3.14c1.167,0,2.283,0.173,3.342,0.511
			C295.171,116.742,296.172,117.261,297.137,117.945z M297.115,126.783c0-1.692-0.627-3.162-1.88-4.401
			c-1.253-1.246-2.759-1.873-4.509-1.873c-1.758,0-3.256,0.627-4.509,1.873c-1.253,1.239-1.88,2.708-1.88,4.401
			c0,1.714,0.627,3.184,1.88,4.422c1.253,1.239,2.751,1.858,4.509,1.858c1.75,0,3.256-0.619,4.509-1.858
			C296.489,129.966,297.115,128.497,297.115,126.783z"/>
	</g>
	<g>
		<path fill="#39B54A" d="M320.394,116.577v1.304c0.756-0.735,1.433-1.239,2.038-1.52c0.605-0.274,1.311-0.41,2.103-0.41
			c0.677,0,1.34,0.158,2.002,0.49c0.655,0.331,1.304,0.828,1.93,1.484c0.8-0.655,1.606-1.145,2.42-1.469
			c0.814-0.324,1.649-0.482,2.507-0.482c1.707,0,3.097,0.454,4.163,1.368c1.404,1.203,2.11,2.773,2.11,4.725v10.321
			c0.958,0,1.671,0.216,2.139,0.648c0.461,0.439,0.699,0.994,0.699,1.671c0,0.67-0.238,1.225-0.699,1.649
			c-0.468,0.425-1.253,0.641-2.362,0.641h-4.386v-14.549c0-0.706-0.13-1.196-0.382-1.462c-0.252-0.274-0.641-0.403-1.167-0.403
			c-0.511,0-0.987,0.13-1.419,0.403c-0.555,0.375-1.232,1.08-2.024,2.11v9.291c0.958,0,1.671,0.216,2.139,0.648
			c0.461,0.439,0.691,0.994,0.691,1.671c0,0.67-0.23,1.225-0.691,1.649c-0.468,0.425-1.253,0.641-2.362,0.641h-4.386v-14.549
			c0-0.691-0.13-1.174-0.396-1.455c-0.259-0.274-0.655-0.41-1.181-0.41c-0.54,0-1.066,0.166-1.592,0.504
			c-0.526,0.339-1.16,1.008-1.894,2.01v9.291c0.965,0,1.678,0.216,2.153,0.648c0.468,0.439,0.706,0.994,0.706,1.671
			c0,0.67-0.238,1.225-0.706,1.649c-0.475,0.425-1.268,0.641-2.377,0.641h-4.156c-1.109,0-1.901-0.216-2.377-0.641
			c-0.468-0.425-0.706-0.987-0.706-1.678c0-0.67,0.23-1.225,0.699-1.649c0.461-0.425,1.181-0.641,2.153-0.641v-11.2
			c-0.972,0-1.692-0.216-2.153-0.655c-0.468-0.432-0.699-0.987-0.699-1.664c0-0.67,0.238-1.225,0.706-1.649
			c0.476-0.425,1.268-0.641,2.377-0.641L320.394,116.577L320.394,116.577z"/>
		<path fill="#39B54A" d="M361.427,136.996v-1.08c-1.16,0.619-2.427,1.08-3.825,1.383c-1.397,0.31-2.665,0.461-3.803,0.461
			c-2.471,0-4.48-0.655-6.028-1.966c-1.541-1.311-2.312-2.766-2.312-4.351c0-1.937,0.987-3.731,2.953-5.388
			c1.974-1.657,4.696-2.485,8.175-2.485c1.397,0,3.011,0.151,4.84,0.446v-1.102c0-0.684-0.295-1.246-0.893-1.686
			c-0.591-0.432-1.714-0.648-3.385-0.648c-1.361,0-3.133,0.267-5.301,0.807c-0.814,0.194-1.44,0.295-1.894,0.295
			c-0.612,0-1.131-0.223-1.563-0.663c-0.425-0.446-0.641-1.008-0.641-1.7c0-0.389,0.079-0.728,0.23-1.016
			c0.144-0.281,0.36-0.511,0.627-0.684c0.267-0.173,0.836-0.375,1.686-0.619c1.138-0.31,2.305-0.562,3.486-0.749
			c1.188-0.187,2.254-0.281,3.22-0.281c2.859,0,5.085,0.619,6.662,1.851c1.585,1.239,2.377,2.932,2.377,5.071v9.493h0.785
			c1.109,0,1.901,0.216,2.37,0.641c0.476,0.425,0.713,0.987,0.713,1.678c0,0.67-0.238,1.225-0.713,1.649
			c-0.468,0.425-1.261,0.641-2.37,0.641L361.427,136.996L361.427,136.996z M361.427,128.742c-1.844-0.36-3.551-0.54-5.106-0.54
			c-1.873,0-3.486,0.461-4.833,1.376c-0.843,0.583-1.261,1.174-1.261,1.772c0,0.439,0.202,0.792,0.605,1.059
			c0.749,0.497,1.779,0.742,3.083,0.742c1.109,0,2.362-0.216,3.767-0.648c1.397-0.439,2.65-1.03,3.745-1.779V128.742z"/>
		<path fill="#39B54A" d="M382.581,129.325v7.671h-5.402c-1.109,0-1.901-0.216-2.37-0.641c-0.476-0.425-0.713-0.987-0.713-1.678
			c0-0.67,0.245-1.225,0.72-1.649c0.482-0.425,1.268-0.641,2.362-0.641h0.785v-19.951h-0.785c-1.109,0-1.901-0.209-2.37-0.641
			c-0.476-0.425-0.713-0.98-0.713-1.671c0-0.677,0.238-1.225,0.713-1.657c0.468-0.425,1.261-0.641,2.37-0.641h5.402v15.543
			l3.594-2.903c-0.375-0.641-0.562-1.167-0.562-1.57c0-0.691,0.23-1.253,0.699-1.678c0.461-0.425,1.253-0.641,2.362-0.641h5.258
			c1.109,0,1.901,0.216,2.377,0.641c0.468,0.425,0.706,0.987,0.706,1.678c0,0.67-0.238,1.225-0.706,1.649
			c-0.476,0.425-1.268,0.641-2.377,0.641h-1.282l-5.597,4.545l7.534,6.655h1.347c1.109,0,1.901,0.216,2.377,0.641
			c0.468,0.425,0.706,0.987,0.706,1.678c0,0.67-0.238,1.225-0.706,1.649c-0.476,0.425-1.268,0.641-2.377,0.641h-5.308
			c-1.109,0-1.901-0.216-2.37-0.641c-0.476-0.425-0.706-0.987-0.706-1.678c0-0.583,0.252-1.16,0.764-1.728l-4.883-4.314
			L382.581,129.325z"/>
		<path fill="#39B54A" d="M426.221,129.124h-18.914c0.482,1.203,1.332,2.168,2.557,2.903c1.217,0.735,2.874,1.102,4.955,1.102
			c1.707,0,3.983-0.367,6.813-1.102c1.167-0.303,1.981-0.446,2.427-0.446c0.619,0,1.131,0.216,1.556,0.648
			c0.418,0.432,0.627,0.979,0.627,1.642c0,0.598-0.223,1.109-0.67,1.527c-0.605,0.555-2.067,1.088-4.387,1.585
			c-2.326,0.504-4.559,0.756-6.706,0.756c-3.688,0-6.634-1.044-8.845-3.126s-3.32-4.645-3.32-7.692c0-3.234,1.196-5.87,3.587-7.901
			c2.391-2.031,5.15-3.047,8.268-3.047c1.873,0,3.594,0.324,5.157,0.987c1.57,0.663,2.73,1.368,3.5,2.139
			c1.073,1.109,1.966,2.477,2.672,4.113c0.482,1.138,0.72,2.456,0.72,3.961L426.221,129.124L426.221,129.124z M421.114,124.514
			c-0.706-1.318-1.628-2.305-2.766-2.953c-1.138-0.655-2.492-0.979-4.069-0.979c-1.556,0-2.91,0.324-4.048,0.979
			c-1.138,0.648-2.067,1.635-2.787,2.953H421.114z"/>
		<path fill="#39B54A" d="M441.916,116.577v2.881c1.93-1.397,3.457-2.326,4.574-2.795c1.116-0.461,2.168-0.691,3.14-0.691
			c1.498,0,2.953,0.555,4.365,1.664c0.958,0.749,1.433,1.513,1.433,2.29c0,0.663-0.223,1.217-0.684,1.678
			c-0.454,0.454-1.008,0.684-1.649,0.684c-0.569,0-1.174-0.288-1.801-0.857c-0.627-0.569-1.196-0.85-1.686-0.85
			c-0.648,0-1.606,0.403-2.888,1.21c-1.282,0.814-2.888,2.024-4.804,3.644v6.95h6.569c1.109,0,1.901,0.216,2.37,0.641
			c0.476,0.425,0.706,0.987,0.706,1.678c0,0.67-0.23,1.225-0.706,1.649c-0.468,0.425-1.261,0.641-2.37,0.641h-13.923
			c-1.109,0-1.901-0.216-2.37-0.641c-0.476-0.425-0.713-0.987-0.713-1.678c0-0.67,0.238-1.225,0.713-1.649
			c0.468-0.425,1.261-0.641,2.37-0.641h2.744v-11.2h-1.664c-1.109,0-1.901-0.216-2.377-0.641c-0.468-0.425-0.706-0.987-0.706-1.678
			c0-0.67,0.238-1.225,0.706-1.649c0.476-0.425,1.268-0.641,2.377-0.641L441.916,116.577L441.916,116.577z"/>
		<path fill="#39B54A" d="M475.587,121.971c-0.749-0.461-1.534-0.814-2.362-1.044c-0.821-0.23-1.686-0.346-2.586-0.346
			c-1.779,0-3.198,0.288-4.25,0.871c-0.461,0.259-0.699,0.533-0.699,0.836c0,0.346,0.317,0.684,0.951,1.016
			c0.476,0.238,1.549,0.468,3.212,0.691c3.061,0.425,5.186,0.843,6.389,1.261c1.57,0.555,2.787,1.383,3.644,2.477
			c0.85,1.095,1.282,2.247,1.282,3.457c0,1.649-0.728,3.032-2.183,4.142c-2.089,1.606-4.79,2.406-8.117,2.406
			c-1.34,0-2.571-0.115-3.702-0.346c-1.131-0.238-2.168-0.576-3.111-1.023c-0.23,0.194-0.468,0.339-0.72,0.446
			c-0.259,0.108-0.519,0.158-0.792,0.158c-0.72,0-1.289-0.238-1.722-0.706c-0.425-0.476-0.641-1.268-0.641-2.377v-1.549
			c0-1.109,0.216-1.901,0.641-2.377c0.432-0.468,0.987-0.706,1.678-0.706c0.555,0,1.023,0.151,1.397,0.461
			c0.375,0.31,0.663,0.836,0.871,1.585c0.706,0.598,1.556,1.052,2.543,1.361c0.994,0.31,2.132,0.461,3.421,0.461
			c2.11,0,3.753-0.331,4.927-0.987c0.555-0.331,0.828-0.677,0.828-1.037c0-0.598-0.396-1.095-1.188-1.484
			c-0.8-0.389-2.442-0.72-4.927-0.987c-3.702-0.396-6.18-1.145-7.419-2.254c-1.246-1.095-1.873-2.442-1.873-4.048
			c0-1.649,0.699-3.018,2.096-4.113c1.887-1.498,4.357-2.247,7.419-2.247c1.066,0,2.089,0.101,3.068,0.303
			c0.987,0.202,1.923,0.511,2.823,0.929c0.288-0.209,0.555-0.367,0.8-0.468c0.245-0.108,0.476-0.158,0.684-0.158
			c0.634,0,1.152,0.238,1.577,0.706c0.418,0.476,0.627,1.268,0.627,2.377v1.124c0,1.001-0.115,1.686-0.36,2.046
			c-0.476,0.691-1.131,1.037-1.952,1.037c-0.555,0-1.044-0.173-1.462-0.519C475.976,123.001,475.71,122.54,475.587,121.971z"/>
	</g>
	<g>
		<path fill="#F1484D" d="M399.187,24.491c0-2.232,1.827-4.067,4.063-4.067h67.005c2.232,0,4.059,1.835,4.059,4.067v5.746
			c0.616,0.016,1.264,0.034,1.919,0.055c0.004-0.005,0.008-0.009,0.011-0.015h4.976v-5.787c0-5.993-4.976-10.97-10.966-10.97
			h-30.054V6.619h-6.902v6.903H403.25c-5.993,0-10.966,4.976-10.966,10.97v5.787h6.903V24.491z"/>
		<path fill="#F1484D" d="M457.627,69.057h-41.748c-5.989,0-10.862,4.976-10.862,10.97v8.829c0,5.993,4.873,10.962,10.862,10.962
			h41.748c5.989,0,10.862-4.968,10.862-10.962v-8.829C468.489,74.034,463.616,69.057,457.627,69.057z M461.586,88.856
			c0,2.339-1.728,4.059-3.96,4.059h-41.748c-2.232,0-3.96-1.719-3.96-4.059v-8.829c0-2.24,1.728-4.067,3.96-4.067h41.748
			c2.232,0,3.96,1.827,3.96,4.067L461.586,88.856L461.586,88.856z"/>
		<path fill="#F1484D" d="M449.237,52.408c9.017-4.584,16.734-10.124,22.517-16.509c0.184-0.474,0.295-0.984,0.295-1.522
			c0-2.101-1.558-3.766-3.565-4.098h-56.608l2.641-4.472l-5.989-3.546l-5.115,8.844c-0.279,0.565-0.568,1.137-0.568,1.809
			c0,2.337,1.895,4.232,4.232,4.232c0.057,0-0.001,0.031,0.037,0.036h55.019c-5.278,4.976-12.689,9.234-21.522,12.789l-29.815-8.674
			L408.969,48l20.069,5.93c-11.577,3.356-24.672,5.588-37.87,6.497l0.608,6.903c16.55-1.215,33.096-4.77,47.513-10.557
			l41.118,11.681l1.827-6.704L449.237,52.408z"/>
	</g>
	<g>
		<path fill="#F1484D" d="M322.626,22.557h43.903v-6.903h-39.8l2.133-7.109l-6.803-1.827l-3.356,11.909
			C318.834,20.751,320.503,22.422,322.626,22.557z"/>
		<polygon fill="#F1484D" points="335.054,41.744 342.874,57.277 349.066,54.235 341.25,38.702 		"/>
		<polygon fill="#F1484D" points="350.083,85.4 342.262,69.867 336.071,72.917 343.887,88.451 		"/>
		<path fill="#F1484D" d="M365.409,59.211V41.339c0-7.002-5.481-12.789-12.078-12.789h-22.237c-6.7,0-12.181,5.787-12.181,12.789
			v17.872h-4.365v6.902h4.365v20.204c0,7.002,5.481,12.896,12.181,12.896h22.237c6.597,0,12.078-5.894,12.078-12.896V66.114h4.369
			v-6.902L365.409,59.211L365.409,59.211z M358.506,86.318c0,3.348-2.335,5.886-5.175,5.886h-22.237
			c-2.943,0-5.278-2.538-5.278-5.886V66.114h32.691L358.506,86.318L358.506,86.318z M358.506,59.211h-32.691V41.339
			c0-3.249,2.335-5.886,5.278-5.886h22.237c2.84,0,5.175,2.637,5.175,5.886L358.506,59.211L358.506,59.211z"/>
		<g>
			<path fill="#F1484D" d="M281.044,34.643c0,23.147-1.521,44.772-3.451,62.232l6.903,0.711c1.93-17.36,3.451-39.292,3.451-62.943
				v-4.067h-6.903V34.643z"/>
			<polygon fill="#F1484D" points="299.722,6.619 292.72,6.619 292.72,19.515 279.725,19.515 279.725,26.417 292.72,26.417 
				292.72,99.511 299.722,99.511 299.722,26.417 312.618,26.417 312.618,19.515 299.722,19.515 			"/>
			<path fill="#F1484D" d="M311.252,34.87c0,19.691,2.133,37.973,4.671,52.941l-6.907,0.962c-2.538-14.961-4.77-33.427-4.77-53.902
				v-3.584h7.006V34.87z"/>
		</g>
	</g>
	<g>
		<path fill="#F1484D" d="M244.121,37.272h-19.695l22.303-24.676c0.007-0.029-0.019-0.069-0.007-0.097
			c0.214-0.506,0.333-1.063,0.333-1.648c0-2.163-1.647-3.88-3.741-4.133h-37.061v6.903h30.153l-21.029,23.273
			c-0.002,0.009,0.081-0.04,0.06-0.017c-0.736,0.761-1.189,1.799-1.189,2.941c0,2.027,1.425,3.721,3.328,4.135
			c0.025,0.006-0.146,0.169-0.187,0.229h0.133c-1.926,21.617-6.7,38.572-13.706,52.485l6.196,3.15
			c7.308-14.723,12.586-32.695,14.417-55.635h8.833c-1.629,21.617-6.295,38.68-13.098,52.584l6.192,2.943
			c7.209-14.822,12.185-32.893,13.909-55.527h3.86c2.84,0,5.175,2.637,5.175,5.886v36.448c0,3.348-2.335,5.886-5.175,5.886h-6.497
			v6.903h6.497c6.597,0,12.082-5.787,12.082-12.789V50.069C256.203,43.066,250.718,37.272,244.121,37.272z"/>
		<g>
			<path fill="#F1484D" d="M171.07,34.643c0,23.147-1.521,44.772-3.451,62.232l6.903,0.711c1.93-17.36,3.451-39.292,3.451-62.943
				v-4.067h-6.903V34.643z"/>
			<polygon fill="#F1484D" points="189.749,6.619 182.747,6.619 182.747,19.515 169.752,19.515 169.752,26.417 182.747,26.417 
				182.747,99.511 189.749,99.511 189.749,26.417 202.645,26.417 202.645,19.515 189.749,19.515 			"/>
			<path fill="#F1484D" d="M201.279,34.87c0,19.691,2.133,37.973,4.671,52.941l-6.907,0.962c-2.538-14.961-4.77-33.427-4.77-53.902
				v-3.584h7.006V34.87L201.279,34.87z"/>
		</g>
	</g>
</g>
</svg>
