<?xml version="1.0" standalone="no"?>
<!DOCTYPE svg PUBLIC "-//W3C//DTD SVG 1.1//EN" "http://www.w3.org/Graphics/SVG/1.1/DTD/svg11.dtd" >
<svg xmlns="http://www.w3.org/2000/svg">
<metadata>
Created by FontForge 20120731 at Tue Mar  3 15:00:16 2015
 By Ads
</metadata>
<defs>
<font id="iconfont" horiz-adv-x="1024" >
  <font-face 
    font-family="iconfont"
    font-weight="500"
    font-stretch="normal"
    units-per-em="1024"
    panose-1="2 0 6 3 0 0 0 0 0 0"
    ascent="812"
    descent="-212"
    x-height="792"
    bbox="0 -212.2 1018 800"
    underline-thickness="50"
    underline-position="-100"
    unicode-range="U+0078-E617"
  />
<missing-glyph horiz-adv-x="374" 
d="M34 0v682h272v-682h-272zM68 34h204v614h-204v-614z" />
    <glyph glyph-name=".notdef" horiz-adv-x="374" 
d="M34 0v682h272v-682h-272zM68 34h204v614h-204v-614z" />
    <glyph glyph-name=".null" horiz-adv-x="0" 
 />
    <glyph glyph-name="nonmarkingreturn" horiz-adv-x="341" 
 />
    <glyph glyph-name="x" unicode="x" horiz-adv-x="1001" 
d="M281 543q-27 -1 -53 -1h-83q-18 0 -36.5 -6t-32.5 -18.5t-23 -32t-9 -45.5v-76h912v41q0 16 -0.5 30t-0.5 18q0 13 -5 29t-17 29.5t-31.5 22.5t-49.5 9h-133v-97h-438v97zM955 310v-52q0 -23 0.5 -52t0.5 -58t-10.5 -47.5t-26 -30t-33 -16t-31.5 -4.5q-14 -1 -29.5 -0.5
t-29.5 0.5h-32l-45 128h-439l-44 -128h-29h-34q-20 0 -45 1q-25 0 -41 9.5t-25.5 23t-13.5 29.5t-4 30v167h911zM163 247q-12 0 -21 -8.5t-9 -21.5t9 -21.5t21 -8.5q13 0 22 8.5t9 21.5t-9 21.5t-22 8.5zM316 123q-8 -26 -14 -48q-5 -19 -10.5 -37t-7.5 -25t-3 -15t1 -14.5
t9.5 -10.5t21.5 -4h37h67h81h80h64h36q23 0 34 12t2 38q-5 13 -9.5 30.5t-9.5 34.5q-5 19 -11 39h-368zM336 498v228q0 11 2.5 23t10 21.5t20.5 15.5t34 6h188q31 0 51.5 -14.5t20.5 -52.5v-227h-327z" />
    <glyph glyph-name="uniE600" unicode="&#xe600;" 
d="M971 -99v750q0 17 -12 29t-29 12h-530q-9 1 -12 2q-5 3 -13 13t-17 23t-13 17.5t-13 5.5h-212q-17 0 -29 -12t-12 -29v-811q0 -11 5.5 -20.5t15 -15t20.5 -5.5h810q17 0 29 12t12 29v0zM198 513h297v-296h-297v296zM853 -21h-655v60h655v-60zM853 97h-655v60h655v-60z
M853 217h-299v59h299v-59zM853 335h-299v61h299v-61zM853 454h-299v59h299v-59z" />
    <glyph glyph-name="uniE601" unicode="&#xe601;" 
d="M847 149h-556l-132 471h-94v78h154l22 -78h718zM350 228h435l75 312h-597zM286 -28q0 -26 12.5 -47.5t34 -34t46.5 -12.5q39 0 66 27.5t27 66.5v0q0 38 -27 65.5t-66 27.5t-66 -27.5t-27 -65.5zM677 -28.5q0 -38.5 27.5 -66t66 -27.5t66 27.5t27.5 66t-27.5 66t-66 27.5
t-66 -27.5t-27.5 -66z" />
    <glyph glyph-name="uniE602" unicode="&#xe602;" 
d="M512 764q-78 0 -150.5 -24t-131 -68t-102.5 -102.5t-68 -131t-24 -150.5q0 -97 37.5 -185t101.5 -152t152 -101.5t185 -37.5t185 37.5t152 101.5t101.5 152t37.5 185t-37.5 185t-101.5 152t-152 101.5t-185 37.5zM502 -3q-22 0 -40 8.5t-30.5 24t-15.5 33.5h171
q-3 -14 -10.5 -26t-18.5 -21t-26 -14t-30 -5zM731 90h-445q-16 0 -26 5t0 18q2 1 10 7.5t11 9t11 9t11.5 10.5t9 11.5t8.5 13.5t5 13.5t2 15.5v139q2 46 19 79t48.5 52.5t76.5 25.5q-14 11 -14 29q0 20 15 36.5t36 16.5q8 0 16 -3t14 -8.5t10.5 -12t7 -14.5t2.5 -15
q0 -9 -3.5 -16.5t-10.5 -12.5q68 -8 105 -48t39 -109h1v-139q0 -6 1 -12t3 -11t6 -11t6.5 -10t8.5 -9.5t8 -8t9 -8.5t8.5 -7t9.5 -7l7 -6q5 -7 5 -11.5t-6 -7t-12 -3.5t-13 -1z" />
    <glyph glyph-name="uniE603" unicode="&#xe603;" 
d="M747 377v-121l200 200l-199 199v-111q-7 1 -19.5 0t-50.5 -7.5t-73.5 -19.5t-82.5 -41.5t-85 -68t-73 -104.5t-54 -146q137 220 437 220zM856 215v-193h-689v414h150q10 10 26.5 30t28.5 34.5t28.5 26t30.5 11.5h-367v-618h895v407z" />
    <glyph glyph-name="uniE604" unicode="&#xe604;" 
d="M64 736h377v-377h-377v377zM64 217h377v-376h-377v376zM583 736h376v-377h-376v377zM583 217h376v-376h-376v376z" />
    <glyph glyph-name="uniE605" unicode="&#xe605;" 
d="M64 736h235v-235h-235v235zM723 736h236v-235h-236v235zM393 736h237v-235h-237v235zM64 406h235v-236h-235v236zM723 406h236v-236h-236v236zM393 406h237v-236h-237v236zM64 77h235v-236h-235v236zM723 77h236v-236h-236v236zM393 77h237v-236h-237v236z" />
    <glyph glyph-name="uniE606" unicode="&#xe606;" 
d="M407 474q0 44 30.5 74.5t74 30.5t74 -30.5t30.5 -74t-30.5 -74t-74 -30.5t-74 30.5t-30.5 73.5zM118 289q0 33 24 57t57.5 24t57.5 -24t24 -57.5t-24 -57.5t-57.5 -24t-57.5 24t-24 58zM367 -3q-6 158 -166 158q-74 0 -118 -36t-48 -122h332zM746 286q0 21 10.5 39.5
t29 29t39.5 10.5q33 0 56.5 -23t23.5 -56t-23.5 -56.5t-56.5 -23.5t-56 23.5t-23 56.5zM714 175q-20 68 -72 98t-128 30q-157 0 -197 -121q52 -26 79 -80h246q26 47 72 73v0zM989 -3q-4 75 -48.5 114t-113.5 39q-44 0 -79 -16t-57.5 -51t-24.5 -86h323zM989 -3z" />
    <glyph glyph-name="uniE607" unicode="&#xe607;" 
d="M955 -115q0 -17 -12 -29t-29 -12h-809q-17 0 -29 12t-12 29v810q0 17 12 29t29 12h211q9 0 13 -5q3 -4 8 -10.5t9.5 -13t9 -12.5t9 -11t8.5 -7q1 0 4 -0.5t5 -1.5h3h529q17 0 29 -12t12 -29v-749zM728 308q-9 2 -22 -14q-4 -4 -19.5 -21.5t-22 -25.5t-17.5 -21.5
t-19 -25.5q-29 -41 -69 -15q-23 14 -70 63q-10 13 -8.5 24.5t12.5 24.5q39 44 82 99q3 3 5 8t4.5 12t3.5 10q-3 1 -9.5 4t-12 4.5t-10.5 2.5q-46 4 -88.5 -10t-73 -41.5t-51 -66t-22.5 -82t13 -89.5q12 -33 -11 -60q-5 -6 -198 -244h207q18 26 38 51t35.5 44.5t20.5 25.5
q20 26 41.5 36t53.5 6q44 -5 85.5 8.5t71 40.5t50.5 64t24 79t-9 86q-6 20 -15 23zM738 414l-37 -17l-33 24l3 41l36 17l34 -24zM712 539l-90 -41l-7 -102l82 -60l90 42l7 102z" />
    <glyph glyph-name="uniE608" unicode="&#xe608;" 
d="M338 243q-28 -57 -44.5 -92.5t-36 -79t-41.5 -93.5q-1 -4 -3 -10t-3.5 -23t1.5 -32t16.5 -33t36.5 -29q20 -9 37.5 -10.5t31 3.5t23.5 12t17.5 16.5t10.5 14.5t5 8l109 238q7 19 16 32t21 22.5t27.5 15t35.5 9.5q67 9 118.5 51.5t76.5 99t21.5 124t-40.5 123.5
q-13 21 -25 22q-3 0 -7.5 -4t-8.5 -9t-6 -10l-11 -22l-12 -23q-4 -9 -10 -22t-10.5 -23.5t-9.5 -22.5t-10 -23q-21 -59 -77 -41q-6 2 -11.5 4.5t-12 5t-11.5 5t-12 6.5t-11 6t-11.5 6.5t-10.5 6.5t-11.5 7.5t-10.5 6.5q-31 19 -11 59q32 65 66 143q2 6 4.5 15t3 16t-1.5 9
q-4 3 -12 4t-14.5 0.5t-14.5 -1.5q-57 -9 -103 -39t-74 -73.5t-39.5 -93.5t-0.5 -105t44 -102q9 -14 12.5 -25.5t2 -23.5t-8.5 -26zM260 -53q0 -12 6 -23t16.5 -17t23.5 -6q19 0 32.5 13.5t13.5 32.5t-13.5 32.5t-32.5 13.5t-32.5 -13.5t-13.5 -32.5z" />
    <glyph glyph-name="uniE609" unicode="&#xe609;" 
d="M897 32q-13 13 -111 50t-122 53q-32 23 -47 70q29 21 40 57q10 32 13 44v-1q14 -4 22 8.5t19 42.5l7 22q3 8 4.5 18t-2 15.5t-10.5 7.5q-4 1 -13 1q5 32 5 53q0 53 -24.5 97.5t-68.5 70.5t-97 26q-81 0 -135.5 -56.5t-54.5 -137.5q0 -8 0.5 -16.5t1.5 -17.5t3 -19l-13 -1
q-7 -2 -10.5 -7.5t-2 -15.5t4 -18t7.5 -22l5 -12q1 -4 3.5 -10.5t4 -9.5t4.5 -8t5 -6t5.5 -4t6 -2t7.5 1q3 -11 6.5 -22t6.5 -22q4 -13 9.5 -23.5t13 -19t17.5 -16.5q-16 -51 -47 -73q-24 -17 -122 -50.5t-111 -46.5q-27 -25 -42.5 -57.5t-17.5 -46t-2 -19.5h894l-7 34
q-15 51 -55 89z" />
    <glyph glyph-name="uniE60A" unicode="&#xe60a;" 
d="M640 224v-166q0 -11 -7.5 -18.5t-18.5 -7.5h-230v539q0 37 -36 55l-220 110h486q11 0 18.5 -7.5t7.5 -18.5v-230h64v282q0 16 -11 27t-27 11h-628q-7 0 -14.5 -3t-12.5 -8t-8 -12.5t-3 -14.5v-756q0 -23 21 -34q4 -2 47.5 -25.5t94 -51t107 -58t85.5 -46.5q9 -4 15.5 -3
t10 5t3.5 10v165h282q16 0 27 11.5t11 26.5v218h-64zM960 352l-192 192v-128h-320v-128h320v-128z" />
    <glyph glyph-name="uniE60B" unicode="&#xe60b;" 
d="M514 402q-30 0 -56 -15t-41 -40.5t-15 -56.5q0 -46 33 -78.5t79 -32.5t78.5 32.5t32.5 79t-32.5 79t-78.5 32.5zM512 767q-97 0 -186 -38t-153 -102t-102 -153t-38 -186q0 -78 24 -151t68.5 -132t103.5 -103.5t132 -68.5t151 -24q97 0 186 38t153 102t102 153t38 186
t-38 186t-102 153t-153 102t-186 38zM716 152l19 -19q6 -7 6 -16t-6 -16l-32 -31q-7 -7 -16 -7t-16 7l-18 19q-5 4 -11 6t-13 2t-12 -3l-37 -15q-2 -1 -4.5 -2t-3.5 -3l-4 -3q-2 -2 -3.5 -4t-2.5 -4l-2 -4q-1 -2 -1 -5v-4v-27q0 -9 -7 -15.5t-16 -6.5h-44q-10 0 -16.5 6.5
t-6.5 15.5v27q0 6 -2.5 12t-7.5 10.5t-11 6.5l-37 15q-4 2 -7.5 2.5t-7.5 0.5t-7.5 -1t-7 -3t-6.5 -4l-19 -19q-6 -7 -15.5 -7t-15.5 7l-32 31q-6 7 -6 16t6 16l19 19q7 6 8.5 16.5t-3.5 18.5l-15 38q-2 5 -6.5 10t-10.5 8t-12 3h-27q-9 0 -15.5 6.5t-6.5 15.5v45
q0 9 6.5 15.5t15.5 6.5h27q9 0 17.5 6.5t11.5 14.5l15 38q3 5 3.5 11.5t-2 13t-6.5 10.5l-19 19q-6 7 -6 16t6 16l32 31q6 7 15.5 7t15.5 -7l19 -19q7 -6 17.5 -7.5t18.5 2.5l37 15q9 3 15 11.5t6 17.5v27q0 9 6.5 15.5t16.5 6.5h44q9 0 15.5 -6.5t6.5 -15.5v-27
q0 -9 6.5 -17.5t15.5 -11.5l37 -15q5 -3 12 -3.5t13 2t10 6.5l19 19q7 7 16 7t16 -7l32 -31q6 -7 6 -16t-6 -16l-19 -19q-2 -2 -3.5 -4t-2.5 -4.5t-2 -5.5t-1 -5.5t0.5 -5.5t1 -5.5t1.5 -4.5l16 -38q2 -5 6.5 -10t10.5 -8t12 -3h26q10 0 16.5 -6.5t6.5 -15.5v-45
q0 -3 -1.5 -6.5t-3.5 -6.5t-4.5 -5t-6 -3t-7.5 -1h-26h-4l-4 -2q-2 0 -4 -1l-4 -2q-2 -1 -3 -3l-4 -2q-1 -2 -2.5 -4t-2.5 -3.5t-1 -3.5l-16 -38q-4 -8 -2.5 -18.5t8.5 -16.5z" />
    <glyph glyph-name="uniE60C" unicode="&#xe60c;" horiz-adv-x="1080" 
d="M0 78zM310 746h-78v-713q0 -21 10.5 -39t28.5 -28.5t39 -10.5h708v78h-708v713zM751 630h-628v-78h554zM830 461v-611h79v696zM893 696l39 -39l-576 -624h-46v46z" />
    <glyph glyph-name="uniE60D" unicode="&#xe60d;" 
d="M512 768q-98 0 -186.5 -38t-153 -102.5t-102.5 -153t-38 -186.5t38 -186.5t102.5 -153t153 -102.5t186.5 -38t186.5 38t153 102.5t102.5 153t38 186.5t-38 186.5t-102.5 153t-153 102.5t-186.5 38zM696.5 344q18.5 0 31 -13t12.5 -31t-12.5 -31t-31 -13t-31 13t-12.5 31
t12.5 31t31 13zM523 462q24 0 41 -17t17 -40.5t-17 -40.5t-41 -17q-16 0 -29 7.5t-21 21t-8 28.5q0 24 17 41t41 17zM350 347q19 0 32 -13.5t13 -31.5q0 -9 -3.5 -17.5t-9.5 -14.5t-14 -9.5t-18 -3.5q-18 0 -31.5 13t-13.5 32q0 12 6 22.5t16.5 16.5t22.5 6zM260 141
q3 87 91.5 87t91.5 -87h-183zM459 198q-15 30 -44 45q23 67 109 67q90 0 111 -71q-25 -14 -40 -41h-136zM608 141q2 28 14 47.5t31.5 28t44 8.5t44 -8.5t32 -28t13.5 -47.5h-179z" />
    <glyph glyph-name="uniE60F" unicode="&#xe60f;" 
d="M831 428v10q0 128 -90.5 218.5t-218.5 90.5h-20q-84 0 -155 -41.5t-112.5 -112.5t-41.5 -155v-10h-64v-575h766v575h-64zM320 438q0 75 53.5 128t128.5 53h20q75 0 128.5 -53t53.5 -128v-10h-384v10zM512 -19h-128l73 145q-41 29 -41 78q0 40 28 68t68 28q10 0 19.5 -2
t18 -5.5t16 -9t14 -11.5t12 -14t9 -16.5t5.5 -18t2 -19.5q0 -49 -41 -78l73 -145h-128z" />
    <glyph glyph-name="uniE610" unicode="&#xe610;" 
d="M942 -10l-302 252l-128 -113l-128 113l-302 -252h860zM35 29l303 252l-303 265v-517zM943 586h-862l431 -378zM989 546l-303 -265l303 -252v517z" />
    <glyph glyph-name="uniE611" unicode="&#xe611;" 
d="M455 599q-9 0 -16 7t-9 12t-3 8q-4 19 -2 34.5t12 29.5q4 5 0 10q-10 16 -27 1q-7 -6 -9 -21t0 -33t9 -38.5t18 -36.5q3 -4 8 -11.5t18 -31.5t22.5 -48.5t15.5 -58.5t3.5 -65t-18.5 -65.5t-47 -62.5q-31 -29 -59.5 -56t-46 -44.5t-30.5 -31t-18 -19.5l-6 -6
q-4 5 -9.5 14.5t-19 39t-23 59t-15.5 70t-2 77t23 75.5t54 70q1 0 2.5 1t6 4.5t9 6.5t11.5 6.5t13.5 6.5t14 5.5t13.5 3.5t12.5 0t11.5 -4q-2 -1 -4.5 -3t-12 -9t-17.5 -16t-20 -23.5t-20 -31t-17.5 -39.5t-12.5 -49t-5 -59t5 -70q0 4 0.5 11t3 28t7 42t14 49.5t22.5 53.5
t33 51.5t44 45.5l1 1q7 6 11 15t4 19q0 8 -2 15q-7 13 -18 21.5t-31.5 14t-49.5 -2.5q-108 -25 -174.5 -125.5t-66.5 -223.5q0 -103 50.5 -190t137.5 -137.5t189.5 -50.5t189.5 50.5t137.5 137.5t50.5 190q0 60 -18.5 116t-52.5 101.5t-79 80t-100.5 55t-115.5 24.5z
M559 622q45 -35 91.5 -46.5t84.5 -2.5t74 29t62.5 46t46.5 50t30 39.5t10 16.5q-26 -7 -196 1q-79 4 -133 -10t-86 -38l-8 -16q-5 -24 52 -6q14 5 25.5 8t25.5 7t27 6t28 4t30 2.5t31 -0.5t33 -3.5t34 -6.5q-25 -2 -63.5 -6.5t-113 -19t-96.5 -30.5q-6 -5 -3.5 -10.5
t8.5 -9.5z" />
    <glyph glyph-name="uniE612" unicode="&#xe612;" 
d="M94 130l-23 44l-4 3l-2 4q0 1 0.5 2.5t1.5 2.5t3 1h4h12q4 0 6 -1l2 -5q0 -2 -0.5 -3t-1.5 -2l-6 -2l15 -29l15 29q-4 0 -6 2t-2 5q0 1 0.5 2.5t1.5 2.5t3 1h4h12l7 -1q2 -2 2 -5t-2 -4l-5 -3l-30 -58q5 0 6.5 -1t2.5 -2.5t1 -3.5l-2 -4q-2 -2 -7 -2h-28q-5 0 -7 2
q-1 1 -1.5 2t-0.5 2l2 5q2 2 7 2h13zM214 158q0 -8 -4 -15t-12.5 -11t-17.5 -4t-17 4t-12 11t-4 15q0 4 1 7.5t3 7.5q1 3 3 5t4.5 3.5t4.5 3.5q8 4 17 4t17 -4q4 -2 7.5 -5t5.5 -7q4 -7 4 -15zM201 157.5q0 6.5 -5 11.5q-6 7 -16 7q-9 -1 -14 -5q-6 -6 -6 -14q0 -3 1.5 -5.5
t4.5 -5.5q2 -2 4 -3t4.5 -1.5t5.5 -0.5q9 0 15 5t6 11.5zM288 187v-44q4 0 6 -2q1 -1 1.5 -2t0.5 -2.5t-0.5 -2.5t-1.5 -2l-7 -2h-12v3q-6 -3 -11 -4q-2 0 -3.5 -0.5t-2.5 -0.5h-4q-6 0 -10.5 2.5t-7.5 7.5q-2 3 -2 9v27h-2q-5 0 -7 2l-2 5q0 1 0.5 2.5t1.5 2.5l7 1h15v-38
q0 -2 0.5 -3.5t1.5 -2.5t2.5 -1.5t3.5 -0.5q5 0 8 1q5 2 12 6v26h-5q-5 0 -7 2t-2 5q0 1 0.5 2.5t1.5 2.5l7 1h18zM329 187v-4q2 2 4 3l4 2q5 1 10 1q3 0 6.5 -0.5t6.5 -2.5t5 -4q5 -6 5 -15v-24q4 0 6 -2l2 -5q0 -1 -0.5 -2t-1.5 -2t-2.5 -1.5t-4.5 -0.5h-11q-5 0 -7 2
t-2 4t0.5 3t1.5 2l6 2v24l-2 7q-3 2 -9 2q-5 0 -8 -1.5t-9 -7.5v-24q5 0 6.5 -1t2.5 -2.5t1 -3.5t-2 -4q-1 -1 -2.5 -1.5t-4.5 -0.5h-14q-3 0 -4.5 0.5t-2.5 1.5l-2 4q0 4 3 6q1 1 6 1v31q-4 0 -6 2q-1 1 -1.5 2.5t-0.5 2.5q0 3 2 4.5t7 1.5h12zM438 184v3h15q4 0 6 -1.5
t2 -4.5q0 -2 -0.5 -3t-1.5 -2l-6 -2h-2v-47q0 -2 -1 -4v-4l-2 -4q-2 -2 -4 -4.5t-5 -4.5q-2 -1 -4 -1.5t-4.5 -1t-5.5 -0.5h-14q-5 0 -7 2l-2 4q0 3 2 5l7 2h14q6 0 9.5 3t3.5 8v7q-5 -3 -9.5 -4.5t-8.5 -1.5q-14 0 -22.5 9t-8.5 22t8.5 21.5t22.5 8.5h4q3 0 5 -1q4 -1 9 -4
zM438 159q0 3 -1.5 6t-4 6t-6 4t-6.5 1q-8 0 -13 -5q-3 -3 -4 -6t-1 -6.5t1 -6.5t4 -6q5 -5 12.5 -5t13 5t5.5 13zM503 187v-3q3 3 5.5 4t6.5 1h3q1 0 2 -1l4 -2l2 -2q3 2 6.5 3.5t7 1.5t6.5 -1t5 -3q6 -6 6 -13v-29q4 0 6 -2l2 -5q0 -1 -0.5 -2t-1.5 -2l-6 -2h-13v41
q0 3 -1 4t-3 1t-4 -1l-2 -3l-4 -3v-26q4 0 6 -2l2 -5q0 -1 -0.5 -2t-1.5 -2l-6 -2h-13v41q0 3 -1 4t-3 1q-1 0 -2 -0.5t-3 -0.5q-2 -2 -5 -6v-26q2 0 3.5 -0.5t2.5 -1.5t1.5 -2t0.5 -2.5t-0.5 -2.5t-1.5 -2l-7 -2h-11l-7 2q-2 2 -2 4t0.5 3t1.5 2l6 2v31q-2 0 -3.5 0.5
t-2.5 1.5l-2 5q0 3 2 4.5t7 1.5h12zM619 130v3q-2 -1 -3.5 -1.5t-3.5 -1.5t-4 -1q-3 -1 -6 -1h-5q-10 0 -16.5 5.5t-6.5 12.5q0 4 2 7.5t6 7.5q8 7 23 7q2 0 4 -0.5t4.5 -0.5t5.5 -1v4q0 2 -2.5 4t-9.5 2q-6 0 -15 -2q-4 -1 -6 -1t-4 2t-2 5v2l1 1l2 2q1 0 4 1q2 1 3.5 1
t3 0.5t3.5 0.5q5 1 9 1q12 0 19 -5q3 -3 5 -6.5t2 -7.5v-27h2q5 0 7 -2t2 -5q0 -1 -0.5 -2t-1.5 -2t-3 -1.5t-4 -0.5h-15zM619 153q-8 2 -15 2q-4 0 -7 -1t-6 -3q-2 -1 -3 -2.5t-1 -2.5q1 -2 2 -3q3 -2 9 -2q2 0 4.5 0.5t5.5 1.5q6 1 11 5v5zM678 152v-22h-15q-5 0 -7 2
t-2 4l2 5l7 2h2v56h-2l-7 2q-2 2 -2 5l2 4q1 1 3 1.5t4 0.5h15v-44l10 8q-1 3 -1 5q0 1 0.5 2.5t1.5 2.5q2 1 6 1h15l7 -1q1 -1 1.5 -2.5t0.5 -2.5q0 -3 -2 -5t-7 -2h-3l-16 -12l21 -19h4l7 -2q1 -1 1.5 -2t0.5 -3t-2 -4t-7 -2h-15q-2 0 -4 0.5t-3 1.5t-1.5 2t-0.5 2l2 5
l-13 12zM801 152h-53q2 -5 7 -8t14 -3q7 0 19 3q3 1 4 1h3q3 0 5 -2q1 -2 1 -4t-0.5 -3t-1.5 -2t-4 -2t-8 -2q-10 -2 -19 -2q-8 0 -14 2t-10.5 6.5t-7 10t-2.5 11.5q0 7 2.5 12.5t7.5 10.5q10 8 23 8l15 -3q3 -1 5.5 -2.5t4.5 -3.5t4 -5t3 -6q2 -5 2 -11v-6zM787 165
q-2 3 -4 5t-4 3q-5 3 -11 3h-5q-2 0 -3.5 -1t-3.5 -2t-4 -3t-4 -5h39zM845 187v-8q9 6 13 8q2 1 3.5 1.5t2.5 0.5h3q6 0 12 -5q2 -1 3 -2.5t1 -3.5v-2q0 -2 -1 -3q-2 -2 -5 -2l-5 3q-3 2 -5 2q-1 0 -2 -0.5t-2.5 -1t-3.5 -1.5q-6 -4 -14 -11v-19h19q5 0 7 -2t2 -5
q0 -1 -0.5 -2t-1.5 -2t-3 -1.5t-4 -0.5h-39q-5 0 -7 2t-2 4l2 5q1 1 2.5 1.5t4.5 0.5h7v31h-4l-7 2q-2 2 -2 5q0 1 0.5 2.5t1.5 2.5l7 1h17zM940 172q-3 2 -6.5 3t-7.5 1h-4q-2 0 -4 -0.5t-4 -1.5l-2 -3q0 -1 3 -3l9 -1q7 -1 11.5 -2t6.5 -2q7 -3 10 -7q2 -2 3 -4.5t1 -5.5
t-1.5 -6t-4.5 -5q-5 -4 -10.5 -5.5t-12.5 -1.5h-5q-3 0 -5 1l-9 3q-1 -1 -1.5 -1t-0.5 -1h-2l-5 2q-2 2 -2 7v4q0 5 2 7l4 2q2 0 3 -0.5t1 -1.5q2 -1 3 -4q1 -1 2 -1.5t2.5 -1t2.5 -1.5q4 -1 10 -1l13 3q3 1 3 3q0 1 -1 2t-3 2q-1 0 -2.5 0.5t-4.5 1t-6 0.5q-16 2 -21 7
q-3 2 -4.5 5t-1.5 6q0 7 6 12q8 6 21 6q5 0 9 -1l8 -2l2 1h2q3 0 4.5 -2t1.5 -6v-3v-4q0 -1 -1 -2q-2 -3 -5 -3q-1 0 -3 1h-1q-2 2 -3 4zM725 447q0 5 3.5 8t8.5 3h188q5 0 8.5 -3t3.5 -8v-16h3q1 0 2 -1v1h14v16q0 13 -9 22t-22 9h-84v19h-20v-19h-84q-5 0 -9 -1.5t-7 -3.5
t-6 -4.5t-5 -6t-3 -7.5t-1 -8v-16h19v16zM890 321h-118q-13 0 -22 -9t-9 -22v-24q0 -13 9 -22t22 -9h118q5 0 9.5 1.5t8.5 4.5t6.5 6.5t4 8.5t1.5 10v24q0 9 -4 16t-11 11t-15 4zM901 266q0 -12 -11 -12h-118q-5 0 -8 3.5t-3 8.5v24q0 5 3 8.5t8 3.5h118q3 0 5.5 -1.5t4 -4
t1.5 -6.5v-24zM866 368q40 20 63 47l1 4q0 3 -1 5.5t-3.5 4t-5.5 2.5h-159l7 12l-17 10l-14 -25q-2 -3 -2 -5q0 -3 2 -6t4.5 -4.5t5.5 -1.5h155q-7 -7 -16.5 -13.5t-20.5 -12t-23 -10.5l-84 25l-5 -19l56 -17q-49 -14 -107 -18l2 -20q36 3 70 10.5t64 19.5l116 -33l5 19z
M509 452h124v20h-112l6 20l-19 5l-10 -34q1 -10 11 -11zM544 398l22 -44l18 9l-22 44zM587 275l-22 44l-18 -9l22 -43zM630 349v50q0 15 -10 25.5t-24 10.5h-63q-9 0 -17 -4.5t-12.5 -13t-4.5 -18.5v-50h-12v-19h12v-57q0 -15 10 -26t24 -11h63q14 0 24 11t10 26v57h12v19
h-12zM610 273q0 -7 -4 -12t-10 -5h-63q-6 0 -10.5 5t-4.5 12v57h92v-57zM610 349h-92v50q0 4 1.5 7t3.5 5t4.5 3.5t5.5 1.5h63q12 -3 14 -17v-50zM392 418q0 -87 -9 -175l19 -2q10 87 10 177v12h-20v-12zM445 497h-20v-36h-36v-20h36v-205h20v205h36v20h-36v36zM477 418
q0 -72 14 -150l-20 -2q-13 79 -13 152v10h19v-10zM288 411h-55l63 69v1l1 4q0 5 -3.5 8t-7.5 4h-104v-20h85l-60 -65q-1 -1 -1 -2l-2 -4v-2q0 -10 9 -12v-1q-4 -44 -13.5 -80.5t-24.5 -66.5l17 -9q34 67 41 156h25q-7 -86 -37 -148l17 -8q33 66 39 156h11q3 0 6 -1t5 -3.5
t3 -5.5t1 -6v-103q0 -7 -4.5 -11.5t-10.5 -4.5h-18v-20h18q9 0 17 5t12.5 13t4.5 18v103q0 15 -10 25.5t-24 10.5zM82 418q0 -87 -9 -175l19 -2q10 87 10 177v12h-20v-12zM135 497h-20v-36h-36v-20h36v-205h20v205h36v20h-36v36zM168 418q0 -72 13 -150l-20 -2
q-13 79 -13 152v10h20v-10z" />
    <glyph glyph-name="uniE613" unicode="&#xe613;" 
d="M194 340q-3 0 -4 3q-1 5 2 8v1q-2 2 -4 1q-2 -2 -1 -7t3 -9q1 -1 2.5 -3t4 -7.5t4 -10.5t-0.5 -10.5t-8 -10.5q-9 -6 -14 -11t-6 -7l-1 -1l-1 2q-1 1 -3 4.5t-3.5 7t-2.5 9t-1 10t2.5 9t6.5 8.5l11 4l4 -1q-2 -1 -5 -3.5t-6.5 -12t-1.5 -21.5v2l0.5 3t1 5.5t1.5 6
t2.5 6.5t4 6t5.5 6l2 4v2q-4 6 -12.5 4t-15.5 -8.5t-10.5 -15.5t-3.5 -19q0 -19 13.5 -32.5t32.5 -13.5t32.5 13.5t13.5 32.5t-13 32t-31 14zM206 343q14 -9 25 -6t18 11l6 9l-24 2q-17 2 -26 -6l1 -2q2 -1 5 0q16 5 27 2q-3 -1 -7.5 -1.5t-13.5 -2t-12 -3.5q-1 -2 1 -3z
M95 268l-22 45q-2 0 -3 0.5t-2 1.5t-1.5 2t-0.5 2q0 3 2 5t7 2h12q5 0 7 -2t2 -5q0 -1 -0.5 -2.5t-1.5 -2.5l-7 -1l16 -30l15 30q-4 0 -6 1.5t-2 4.5t2 5q1 1 2.5 1.5t3.5 0.5h13q2 0 3.5 -0.5t2.5 -1.5q2 -2 2 -5t-1.5 -4.5t-4.5 -1.5l-30 -59q5 0 6 -1q3 -2 3 -6
q0 -1 -0.5 -2.5t-1.5 -2.5q-2 -1 -7 -1h-28h-4q-2 0 -3 1q-2 2 -2 5t2 5t7 2h13zM314 326v-45q4 0 6 -2q1 -1 1.5 -2t0.5 -3q0 -3 -2 -4q-1 -1 -2.5 -1.5t-3.5 -0.5h-13v3q-3 -1 -5 -2l-6 -2q-2 -1 -4 -1h-5q-3 0 -6 0.5t-5 1.5q-5 3 -8 8v2l-2 4v2v29h-2q-5 0 -7 1.5
t-2 4.5q0 2 0.5 3t1.5 2q2 2 7 2h15v-39q0 -4 2 -6t7 -2q1 0 3.5 0.5t4.5 1t5 2t6 3.5v27h-4q-5 0 -7 1.5t-2 4.5t2 5t7 2h17zM354 326v-5l2 2q1 1 2.5 1.5t2.5 1.5q3 1 5 1h5q4 0 7 -0.5t6 -2t5 -4.5q5 -6 5 -15v-24q3 0 4.5 -0.5t2.5 -1.5t1.5 -2t0.5 -3q0 -3 -2 -4.5
t-7 -1.5h-12q-5 0 -7 1.5t-2 4.5t2 5l6 2v24q0 3 -0.5 4.5t-1.5 2.5t-3.5 1.5t-5.5 0.5q-2 0 -4 -0.5t-4 -0.5q-3 -2 -8 -8v-24q5 0 6 -1q3 -3 3 -6t-2 -4.5t-7 -1.5h-14q-5 0 -7 1.5t-2 4.5q0 4 3 6q1 1 6 1v32l-6 1q-2 2 -2 5t2 5t7 2h13zM459 322v4h16q4 0 6 -2t2 -5
t-2 -4.5t-6 -1.5h-3v-48q0 -7 -2 -12q-1 -2 -2 -3l-4 -4q-1 -1 -3 -2t-4.5 -2t-4.5 -1h-5h-15h-4q-1 0 -2 1t-1.5 2.5t-0.5 2.5q0 3 2 5t6 2h15q6 0 9 3t3 8v6q-4 -2 -8.5 -3.5t-9.5 -1.5q-4 0 -8 1t-7.5 3t-6.5 5q-9 9 -9 22q0 6 2.5 11.5t6.5 10.5q9 9 22 9q5 0 10 -2
l4 -2zM459 296.5q0 7.5 -5 12.5q-3 3 -6 4t-7 1q-7 0 -12.5 -5t-5.5 -12q0 -2 0.5 -3.5t1 -3.5t1.5 -3.5t2 -2.5l4 -2l2 -2h4q1 -1 3 -1q4 0 7 1.5t6 3.5q5 5 5 12.5zM517 326v-4q3 3 5.5 4t6.5 1l5 -1q3 -1 6 -4l7 4q3 1 7 1q7 0 12 -4q6 -5 6 -13v-29q4 0 6 -2
q1 -1 1.5 -2t0.5 -3q0 -3 -2 -4q-3 -2 -7 -2h-12v41q0 3 -1 4t-2 1h-2l-4 -1q-2 -1 -6 -6v-26q5 0 7 -2q0 -1 0.5 -2t0.5 -3q0 -3 -1 -4q-4 -2 -7 -2h-13v41v3q0 1 -1 1q-1 1 -3 1h-2q-1 0 -3 -1q-2 -2 -5 -6v-26q2 0 3.5 -0.5t2.5 -1.5q2 -2 2 -5l-2 -4l-7 -2h-11
q-5 0 -7 1.5t-2 4.5q0 2 0.5 3t1.5 2q2 2 6 2v32l-6 1l-2 5q0 3 2 5t7 2h12zM631 268v3q-5 -3 -11 -4t-11 -1q-10 0 -17 5.5t-7 12.5q0 8 8.5 15t23.5 7l14 -1v3q0 3 -2.5 4.5t-9.5 1.5q-3 0 -7 -0.5t-8 -1.5l-6 -1q-1 0 -2 0.5t-2 1.5q-2 2 -2 5v2l1 1q0 1 1 1l5 2
q2 1 3.5 1.5t3 0.5t3.5 1h9q12 0 19 -5q3 -3 5 -6.5t2 -7.5v-27h2q5 0 7 -2t2 -5q0 -1 -0.5 -2t-1.5 -2l-7 -2h-15zM631 291q-3 1 -5.5 1t-5 0.5t-4.5 0.5q-8 0 -13 -4l-4 -5q0 -2 1.5 -3t4 -1.5t4.5 -0.5q5 0 11 2q2 0 4 1t3.5 1.5t3.5 2.5v5zM688 290v-22h-15q-5 0 -7 1.5
t-2 4.5t2 5t7 2h2v56h-2q-3 0 -4.5 0.5t-2.5 1.5t-1.5 2t-0.5 2.5t0.5 3t1.5 2.5q2 1 7 1h15v-44l10 9q-1 1 -1.5 2t-0.5 2q0 3 2 5t7 2h15q5 0 7 -2l2 -5q0 -1 -0.5 -2.5t-1.5 -2.5t-3 -1h-4h-4l-15 -13l21 -19h4q4 0 6 -2q1 -1 1.5 -2t0.5 -2.5t-0.5 -2.5t-1.5 -2l-6 -2
h-15q-5 0 -7 2q-1 1 -1.5 2t-0.5 2q0 2 0.5 3t1.5 2l-14 12zM808 290h-53q2 -5 7 -8t14 -3q7 0 19 3l7 1q2 0 3 -0.5t2 -1.5l1 -4l-1 -5q-3 -2 -13 -4q-5 -1 -9.5 -1.5t-9.5 -0.5q-16 0 -25 8.5t-9 21.5q0 14 10 22.5t23 8.5q8 0 15 -2.5t10 -6.5q2 -2 4 -5t3 -6t1.5 -5.5
t0.5 -5.5v-6zM794 303q-3 6 -8 8.5t-11 2.5h-5q-2 0 -3.5 -1t-3.5 -1q-5 -3 -8 -9h39zM850 326v-9q8 6 12.5 8t9.5 2q6 0 12 -4q4 -4 4 -7q0 -1 -0.5 -2.5t-1.5 -2.5q-2 -2 -5 -2q-2 0 -4.5 2.5t-4.5 2.5q-3 0 -8.5 -3.5t-13.5 -9.5v-20h18q5 0 7 -2t2 -5t-2 -4l-7 -2h-39
l-7 2l-2 4q0 3 2 5t7 2h8v32h-5l-7 1q-1 1 -1.5 2.5t-0.5 2.5q0 3 2 5t7 2h18zM942 310q-3 2 -7 3q-1 1 -3 1h-4q-8 0 -12 -2q-2 -1 -2 -2.5t3 -2.5q2 -1 9 -2q6 -1 10.5 -2t7.5 -2q1 -1 2.5 -1.5t3 -1.5t2.5 -2l2 -2q2 -2 3 -4.5t1 -5.5q0 -7 -6 -11q-5 -4 -10.5 -5.5
t-12.5 -1.5h-4h-3q-2 0 -4 1q-5 1 -9 3q0 -1 -0.5 -1t-1.5 -1h-2q-2 0 -3 0.5t-2 1.5t-1.5 2.5t-0.5 4.5v4q0 5 2 7t5 2h2l2 -2q1 0 1.5 -1.5t0.5 -2.5q2 -1 3.5 -2t4 -2t4.5 -1h5q9 0 14 3l3 2q0 3 -4 5q-2 1 -5.5 1.5t-8.5 1t-9 1.5t-7 2t-5 3q-5 5 -5 11.5t6 11.5
q2 2 5.5 3.5t7 2t8.5 0.5l9 -1q2 0 4 -0.5t4 -1.5q1 1 2 1.5t2 0.5q2 0 4 -2l2 -7v-3q0 -2 -0.5 -3.5t-0.5 -2.5q-2 -3 -6 -3q-2 0 -4 1.5t-2 3.5z" />
    <glyph glyph-name="uniE614" unicode="&#xe614;" 
d="M512 683q-70 0 -136 -16.5t-119 -46.5t-93 -69.5t-61.5 -89t-21.5 -102.5q0 -71 38.5 -133.5t107.5 -108.5l-43 -200l212 131q58 -12 116 -12q88 0 167.5 25.5t137.5 69t92 103t34 125.5t-34 126t-92 103t-137.5 69t-167.5 26z" />
    <glyph glyph-name="uniE616" unicode="&#xe616;" 
d="M761 635q-45 10 -83 4.5t-68.5 -22t-52.5 -33.5t-33 -30l-12 -13q-2 3 -6 7l-18 18q-13 13 -27 22.5t-37 23t-45.5 18.5t-53 9t-60.5 -6q-53 -13 -89.5 -46t-52 -75.5t-15 -89.5t16.5 -92q12 -33 58.5 -87t95.5 -101.5t110.5 -102t85 -74t37.5 -30.5q14 11 37.5 30.5
t85 74t110.5 102t95 101.5t58 87q14 35 17.5 73t-4.5 74.5t-25.5 68t-50 55t-74.5 34.5z" />
    <glyph glyph-name="uniE617" unicode="&#xe617;" 
d="M512 595q-55 0 -112 -17t-104 -44t-90.5 -60t-76.5 -65.5t-57.5 -59.5t-37.5 -44l-12 -17q4 -6 12.5 -17t36.5 -43t58 -61t76 -64.5t91.5 -61t103 -43t112.5 -17.5q43 0 88 10.5t83.5 28.5t76 41t68.5 48.5t59 51t48.5 48.5t36 40.5t23.5 28.5l7 10l-45 56
q-158 179 -326 231q-60 20 -119 20zM512 104q-76 0 -130 54t-54 130q0 22 5 42.5t14 39t21.5 34.5t28.5 28.5t34 21.5t38.5 14t42.5 5q50 0 92.5 -25t67 -67.5t24.5 -92.5q0 -76 -54 -130t-130 -54zM512 349q-25 0 -43 -18t-18 -43t18 -43t43 -18q12 0 23.5 4.5t20 13t13 20
t4.5 23.5q0 17 -8 31t-22 22t-31 8z" />
  </font>
</defs>
</svg>
