<?xml version="1.0" encoding="utf-8"?>
<!-- Generator: Adobe Illustrator 17.0.0, SVG Export Plug-In . SVG Version: 6.00 Build 0)  -->
<!DOCTYPE svg PUBLIC "-//W3C//DTD SVG 1.1//EN" "http://www.w3.org/Graphics/SVG/1.1/DTD/svg11.dtd">
<svg version="1.1" id="图层_1" xmlns="http://www.w3.org/2000/svg" xmlns:xlink="http://www.w3.org/1999/xlink" x="0px" y="0px"
	 width="80px" height="79.996px" viewBox="0 0 80 79.996" enable-background="new 0 0 80 79.996" xml:space="preserve">
<g>
	<g>
		<path id="color_19_" fill="#5ABDA6" d="M39.997,79.996c22.091,0,40.003-17.908,40.003-40C80,17.909,62.088,0,39.997,0
			C17.908,0,0,17.909,0,39.997C0,62.088,17.908,79.996,39.997,79.996z"/>
		<g id="_x31_4_1_">
			<path fill="#FDFBF7" d="M64,56.287c0,0,0,1.629-1.626,1.629c-1.629,0-43.118,0-44.747,0C16,57.916,16,56.287,16,56.287h4.979
				H59.02H64z M59.02,53.874c0.064-0.155,0.098-0.316,0.098-0.489V30.769c0-0.715-0.585-1.304-1.301-1.304h-5.121
				c0.505,0.6,0.891,1.295,1.134,2.059h3.231v20.452H22.939V31.524h3.007c0.084-0.723,0.259-1.417,0.549-2.059h-4.313
				c-0.716,0-1.302,0.589-1.302,1.304v22.616c0,0.174,0.036,0.334,0.098,0.489H59.02z"/>
			<path fill="#FFFFFF" d="M32.925,38.376c3.181,0,13.094,0,15.157,0c2.762,0,5.012-2.251,5.012-5.019
				c0-0.648-0.134-1.265-0.356-1.834c-0.322-0.817-0.856-1.515-1.528-2.059c-0.862-0.696-1.94-1.13-3.128-1.13
				c-0.239,0-0.461,0.017-0.665,0.051c-0.205-3.509-3.103-6.306-6.664-6.306c-2.91,0-5.125,2.112-6.037,4.712
				c-0.495-0.127-1.261-0.45-1.791-0.45c-2.27,0-4.22,1.271-5.246,3.124c-0.348,0.628-0.584,1.318-0.688,2.059
				c-0.037,0.276-0.084,0.549-0.084,0.834C26.907,35.684,29.602,38.376,32.925,38.376z"/>
		</g>
	</g>
	<rect x="27.801" y="41.938" fill="#FFFFFF" width="3.273" height="8.168"/>
	<rect x="32.796" y="44.017" fill="#FFFFFF" width="2.929" height="6.089"/>
	<rect x="38.17" y="41.493" fill="#FFFFFF" width="2.584" height="8.613"/>
	<g>
		<path fill="#FFFFFF" d="M52.27,44.627c-0.136-2.208-1.952-3.962-4.195-3.962c-2.331,0-4.221,1.89-4.221,4.221
			c0,2.183,1.664,3.959,3.79,4.177v-4.436H52.27z"/>
		<path fill="#FFFFFF" d="M52.985,45.919c0-0.089-0.021-0.171-0.026-0.258h-4.268v4.436c0.144,0.015-0.074,0.043,0.073,0.043
			C51.096,50.14,52.985,48.25,52.985,45.919z"/>
	</g>
</g>
</svg>
