<?xml version="1.0" encoding="utf-8"?>
<!-- Generator: Adobe Illustrator 17.0.0, SVG Export Plug-In . SVG Version: 6.00 Build 0)  -->
<!DOCTYPE svg PUBLIC "-//W3C//DTD SVG 1.1//EN" "http://www.w3.org/Graphics/SVG/1.1/DTD/svg11.dtd">
<svg version="1.1" id="图层_1" xmlns="http://www.w3.org/2000/svg" xmlns:xlink="http://www.w3.org/1999/xlink" x="0px" y="0px"
	 width="80px" height="79.999px" viewBox="0 0 80 79.999" enable-background="new 0 0 80 79.999" xml:space="preserve">
<g>
	<path fill="#5ABDA6" d="M40,0C17.909,0,0,17.913,0,40.001c0,22.094,17.909,39.998,40,39.998c22.09,0,40-17.904,40-39.998
		C80,17.913,62.09,0,40,0z M58.995,54.444c-1.904,2.359-5.362,2.725-7.723,0.824c-2.162-1.745-2.63-4.791-1.225-7.103l-2.677-2.176
		c-3.506,3.869-9.369,4.488-13.609,1.436l-2.259,2.787c2.497,2.452,2.768,6.445,0.524,9.224c-2.384,2.963-6.719,3.423-9.679,1.036
		c-2.959-2.387-3.419-6.721-1.034-9.68c2.273-2.813,6.299-3.367,9.233-1.36l2.259-2.785c-3.835-3.52-4.433-9.369-1.372-13.598
		l-2.73-2.216c-1.69,1.462-4.23,1.557-6.031,0.107c-2.021-1.633-2.336-4.597-0.702-6.621c1.631-2.023,4.594-2.339,6.618-0.706
		c1.917,1.547,2.277,4.282,0.921,6.284l2.705,2.199c3.508-3.799,9.307-4.396,13.52-1.386l2.161-2.666
		c-2.122-2.097-2.379-5.486-0.461-7.855c2.039-2.528,5.741-2.924,8.271-0.886c2.53,2.043,2.924,5.747,0.884,8.273
		c-1.902,2.36-5.24,2.834-7.732,1.239l-2.164,2.668c3.834,3.5,4.457,9.317,1.451,13.546l2.659,2.161
		c1.955-2.015,5.142-2.265,7.365-0.468C60.53,48.626,60.9,52.084,58.995,54.444z"/>
	<circle fill="#5ABDA6" cx="26.624" cy="52.8" r="1.99"/>
	<path fill="#5ABDA6" d="M26.624,55.043c-1.425,0-3.079,1.17-3.291,3.394c-0.015,0.156-0.042,0.303-0.042,0.468
		c0,0.009,0.004,0.019,0.004,0.026v0.003c0.004,0.002,0.01,0.002,0.015,0.002C23.489,58.977,23.671,59,23.862,59h5.526
		c0.189,0,0.372-0.023,0.551-0.064c0.004,0,0.01,0,0.013,0c0-0.002,0-0.003,0.001-0.004c0-0.009,0.003-0.019,0.003-0.028
		c0-0.161-0.028-0.312-0.045-0.466C29.679,56.434,28.04,55.043,26.624,55.043z"/>
	<circle fill="#5ABDA6" cx="52.103" cy="21.411" r="1.786"/>
	<path fill="#5ABDA6" d="M49.115,26.916c0.004,0.002,0.01,0.002,0.014,0.002c0.161,0.037,0.325,0.058,0.497,0.058h4.959
		c0.169,0,0.334-0.021,0.494-0.058c0.004,0,0.008,0,0.012,0c0-0.002,0-0.003,0.002-0.003c0-0.008,0.003-0.017,0.003-0.025
		c0-0.144-0.025-0.28-0.041-0.418c-0.208-1.799-1.679-3.048-2.95-3.048c-1.278,0-2.762,1.05-2.953,3.047
		c-0.014,0.139-0.038,0.271-0.038,0.42c0,0.007,0.003,0.016,0.003,0.023V26.916z"/>
	<circle fill="#5ABDA6" cx="39.854" cy="36.279" r="2.322"/>
	<path fill="#5ABDA6" d="M39.854,38.896c-1.663,0-3.592,1.365-3.84,3.96c-0.018,0.181-0.049,0.352-0.049,0.546
		c0,0.01,0.004,0.022,0.004,0.03v0.004c0.005,0.001,0.013,0.001,0.018,0.001c0.209,0.047,0.422,0.076,0.645,0.076h6.447
		c0.221,0,0.434-0.029,0.642-0.076c0.004,0,0.011,0,0.015,0c0-0.001,0-0.004,0.001-0.004c0-0.01,0.004-0.021,0.004-0.032
		c0-0.188-0.033-0.364-0.054-0.544C43.42,40.519,41.506,38.896,39.854,38.896z"/>
	<circle fill="#5ABDA6" cx="54.798" cy="48.795" r="1.607"/>
	<path fill="#5ABDA6" d="M54.798,50.606c-1.15,0-2.486,0.945-2.658,2.742c-0.011,0.125-0.034,0.244-0.034,0.378
		c0,0.007,0.003,0.015,0.004,0.021v0.003c0.004,0.001,0.009,0.001,0.012,0.001c0.144,0.033,0.293,0.052,0.447,0.052h4.462
		c0.153,0,0.301-0.019,0.444-0.052c0.004,0,0.008,0,0.011,0c0-0.001,0-0.002,0.001-0.003c0-0.006,0.002-0.015,0.002-0.022
		c0-0.13-0.023-0.252-0.037-0.376C57.267,51.73,55.943,50.606,54.798,50.606z"/>
	<circle fill="#5ABDA6" cx="25.887" cy="25.464" r="1.429"/>
	<path fill="#5ABDA6" d="M25.887,27.074c-1.022,0-2.21,0.84-2.363,2.437c-0.01,0.112-0.03,0.218-0.03,0.337
		c0,0.005,0.002,0.014,0.003,0.018v0.002c0.004,0.001,0.008,0.001,0.01,0.001c0.129,0.029,0.26,0.047,0.397,0.047h3.967
		c0.137,0,0.269-0.017,0.397-0.047c0.003,0,0.006,0,0.01,0c0-0.001,0-0.002,0-0.002c0.001-0.005,0.002-0.014,0.002-0.02
		c0-0.116-0.019-0.224-0.032-0.334C28.082,28.073,26.904,27.074,25.887,27.074z"/>
</g>
</svg>
