<?xml version="1.0" encoding="utf-8"?>
<!-- Generator: Adobe Illustrator 17.0.0, SVG Export Plug-In . SVG Version: 6.00 Build 0)  -->
<!DOCTYPE svg PUBLIC "-//W3C//DTD SVG 1.1//EN" "http://www.w3.org/Graphics/SVG/1.1/DTD/svg11.dtd">
<svg version="1.1" id="图层_1" xmlns="http://www.w3.org/2000/svg" xmlns:xlink="http://www.w3.org/1999/xlink" x="0px" y="0px"
	 width="80px" height="80px" viewBox="0 0 80 80" enable-background="new 0 0 80 80" xml:space="preserve">
<g>
	<path id="color_1_" fill="#5ABDA6" d="M0,39.999C0,62.09,17.91,80,40.002,80C62.089,80,80,62.09,80,39.999
		C80,17.91,62.089,0,40.002,0C17.91,0,0,17.91,0,39.999z"/>
	<g id="_x32_3_2_">
		<path fill="#FFFFFF" d="M28.835,37.579v17.217c0,1.761-1.441,3.203-3.201,3.203h-6.07V34.377h6.07
			C27.393,34.377,28.835,35.815,28.835,37.579z"/>
		<path fill="#FFFFFF" d="M59.415,48.786c0-1.1-0.545-2.061-1.349-2.551c1.337-0.202,2.372-1.489,2.372-3.048
			c0-1.698-1.222-3.077-2.734-3.077h-0.386c0.997-0.403,1.709-1.474,1.709-2.731c0-1.603-1.156-2.906-2.581-2.906H45.116
			c2.616-4.588,4.151-8.763,1.792-11.251c-2.594-2.732-5.322-0.518-5.601,2.986c-0.28,3.505-1.619,4.937-2.882,6.477
			c-1.262,1.544-4.066,4.066-5.117,4.557c-1.05,0.491-3.576,0.28-3.576,0.28v18.282c0,0,3.903-1.493,7.549,0.051
			c3.768,1.593,10.26,1.084,10.26,1.084h8.447c1.426,0,2.582-1.301,2.582-2.904c0-1.011-0.459-1.901-1.153-2.42
			C58.562,51.32,59.415,50.166,59.415,48.786z"/>
		<circle fill="#5ABDA6" cx="23.643" cy="53.979" r="2.16"/>
	</g>
</g>
</svg>
