<?xml version="1.0" encoding="utf-8"?>
<!-- Generator: Adobe Illustrator 17.0.0, SVG Export Plug-In . SVG Version: 6.00 Build 0)  -->
<!DOCTYPE svg PUBLIC "-//W3C//DTD SVG 1.1//EN" "http://www.w3.org/Graphics/SVG/1.1/DTD/svg11.dtd">
<svg version="1.1" id="图层_1" xmlns="http://www.w3.org/2000/svg" xmlns:xlink="http://www.w3.org/1999/xlink" x="0px" y="0px"
	 width="536.751px" height="263.507px" viewBox="0 0 536.751 263.507" enable-background="new 0 0 536.751 263.507"
	 xml:space="preserve">
<g>
</g>
<g>
	<g>
		<g>
			<path fill="#FFFFFF" d="M49.876,136.626c-26.192,0-47.5-21.308-47.5-47.5s21.308-47.5,47.5-47.5s47.5,21.308,47.5,47.5
				S76.067,136.626,49.876,136.626z M49.876,43.619c-25.093,0-45.507,20.414-45.507,45.507s20.414,45.507,45.507,45.507
				s45.507-20.414,45.507-45.507S74.968,43.619,49.876,43.619z"/>
		</g>
	</g>
	<g>
		<g>
			<path fill="#FFFFFF" d="M49.876,123.45c-18.682,0-33.881-15.199-33.881-33.881s15.199-33.881,33.881-33.881
				s33.881,15.199,33.881,33.881S68.558,123.45,49.876,123.45z M49.876,57.016c-17.949,0-32.552,14.603-32.552,32.552
				s14.603,32.552,32.552,32.552s32.552-14.603,32.552-32.552S67.825,57.016,49.876,57.016z"/>
		</g>
	</g>
	<g>
		<g>
			<g>
				<path fill="#FFFFFF" d="M12.076,98.229l-0.2-0.81c0.323-0.09,0.579-0.223,0.767-0.398c0.189-0.175,0.325-0.422,0.408-0.742
					c0.083-0.319,0.096-0.666,0.038-1.04c-0.052-0.332-0.147-0.618-0.285-0.856c-0.139-0.239-0.303-0.407-0.495-0.504
					c-0.191-0.097-0.389-0.13-0.592-0.098c-0.206,0.032-0.377,0.12-0.513,0.264c-0.136,0.144-0.234,0.361-0.296,0.653
					c-0.041,0.187-0.087,0.594-0.138,1.221c-0.051,0.627-0.122,1.071-0.212,1.334c-0.115,0.34-0.283,0.606-0.503,0.798
					c-0.22,0.192-0.481,0.312-0.783,0.359c-0.332,0.052-0.657,0.006-0.975-0.138c-0.318-0.143-0.58-0.384-0.786-0.723
					c-0.206-0.339-0.344-0.729-0.413-1.172c-0.076-0.488-0.065-0.93,0.034-1.327c0.099-0.397,0.285-0.719,0.559-0.967
					c0.274-0.248,0.603-0.41,0.986-0.485l0.193,0.825C8.463,94.532,8.173,94.732,8,95.024c-0.172,0.292-0.218,0.691-0.139,1.196
					c0.082,0.526,0.238,0.895,0.469,1.106c0.231,0.211,0.482,0.295,0.754,0.252c0.236-0.037,0.417-0.152,0.543-0.347
					c0.127-0.191,0.215-0.653,0.264-1.386c0.05-0.732,0.114-1.239,0.192-1.521c0.117-0.41,0.296-0.728,0.538-0.953
					c0.242-0.225,0.54-0.365,0.893-0.42c0.35-0.054,0.695-0.006,1.036,0.146s0.627,0.403,0.857,0.751
					c0.23,0.349,0.382,0.758,0.456,1.227c0.093,0.595,0.084,1.108-0.027,1.537c-0.111,0.429-0.322,0.786-0.635,1.069
					C12.889,97.966,12.514,98.148,12.076,98.229z"/>
			</g>
		</g>
		<g>
			<g>
				<path fill="#FFFFFF" d="M13.298,91.68l-6.657-0.108l0.014-0.881l2.734,0.044l0.056-3.46l-2.734-0.044l0.014-0.881l6.657,0.108
					l-0.014,0.881l-3.138-0.051l-0.056,3.46l3.138,0.051L13.298,91.68z"/>
			</g>
		</g>
		<g>
			<g>
				<path fill="#FFFFFF" d="M13.379,85.968l-6.084-3.721l0.172-0.933l7.041-1.473l-0.182,0.987l-2.124,0.398l-0.504,2.738
					l1.85,1.084L13.379,85.968z M11.039,83.583l0.409-2.22l-1.939,0.349c-0.589,0.107-1.07,0.178-1.443,0.214
					c0.405,0.161,0.8,0.355,1.185,0.583L11.039,83.583z"/>
			</g>
		</g>
		<g>
			<g>
				<path fill="#FFFFFF" d="M14.659,79.44l-6.248-2.299l0.312-0.848l6.113-1.477L9.93,73.011l0.292-0.793l6.248,2.299l-0.312,0.848
					l-6.117,1.476l4.91,1.806L14.659,79.44z"/>
			</g>
		</g>
		<g>
			<g>
				<path fill="#FFFFFF" d="M16.308,69.41l-0.671-0.399l1.437-2.427l2.124,1.262c0.076,0.549,0.07,1.065-0.015,1.55
					c-0.086,0.485-0.252,0.935-0.5,1.352c-0.334,0.562-0.758,1.001-1.272,1.318s-1.068,0.456-1.663,0.42
					c-0.595-0.036-1.173-0.222-1.735-0.556c-0.557-0.331-1.008-0.756-1.352-1.276c-0.344-0.52-0.504-1.068-0.478-1.644
					c0.026-0.576,0.208-1.15,0.547-1.72c0.246-0.414,0.535-0.748,0.868-1.003c0.333-0.255,0.675-0.406,1.028-0.454
					s0.751-0.006,1.194,0.123l-0.219,0.795c-0.342-0.087-0.635-0.117-0.877-0.088c-0.242,0.029-0.484,0.131-0.725,0.309
					s-0.447,0.41-0.619,0.699c-0.206,0.346-0.331,0.677-0.376,0.992c-0.044,0.315-0.027,0.601,0.053,0.858
					c0.079,0.257,0.197,0.489,0.351,0.697c0.267,0.356,0.608,0.657,1.022,0.903c0.51,0.303,0.989,0.469,1.437,0.497
					c0.448,0.029,0.855-0.076,1.221-0.312c0.366-0.237,0.661-0.544,0.886-0.921c0.195-0.328,0.322-0.685,0.381-1.073
					c0.059-0.387,0.066-0.704,0.018-0.951l-1.066-0.633L16.308,69.41z"/>
			</g>
		</g>
		<g>
			<g>
				<path fill="#FFFFFF" d="M20.643,67.49l-5.011-4.383l0.58-0.663l2.058,1.8l2.278-2.605l-2.058-1.8l0.58-0.663l5.011,4.383
					l-0.58,0.663l-2.362-2.066l-2.278,2.604l2.362,2.066L20.643,67.49z"/>
			</g>
		</g>
		<g>
			<g>
				<path fill="#FFFFFF" d="M24.399,63.194l-2.223-6.777l0.736-0.599l6.317,3.441l-0.778,0.634l-1.876-1.073l-2.158,1.758
					l0.707,2.025L24.399,63.194z M24.162,59.861l1.75-1.426l-1.703-0.991c-0.518-0.3-0.931-0.558-1.238-0.772
					c0.204,0.385,0.379,0.789,0.525,1.213L24.162,59.861z"/>
			</g>
		</g>
		<g>
			<g>
				<path fill="#FFFFFF" d="M29.87,58.985l-3.585-5.61l0.743-0.474l3.585,5.61L29.87,58.985z"/>
			</g>
		</g>
		<g>
			<g>
				<path fill="#FFFFFF" d="M33.318,56.844l1.082-4.183l-3.302-2.101l0.972-0.394l1.761,1.129c0.366,0.234,0.634,0.419,0.804,0.556
					c0.046-0.28,0.114-0.581,0.203-0.901l0.578-2.141l0.888-0.36l-0.988,3.787l3.658,2.315l-1.01,0.409l-2.445-1.571
					c-0.138-0.091-0.284-0.192-0.437-0.303c-0.047,0.28-0.082,0.474-0.107,0.582l-0.677,2.779L33.318,56.844z"/>
			</g>
		</g>
		<g>
			<g>
				<path fill="#FFFFFF" d="M39.735,54.453l-1.769-6.418l0.849-0.234l1.769,6.418L39.735,54.453z"/>
			</g>
		</g>
		<g>
			<g>
				<path fill="#FFFFFF" d="M41.86,53.813l-0.974-6.586l0.894-0.132l4.224,4.659l-0.765-5.171l0.836-0.124l0.974,6.586l-0.894,0.132
					l-4.225-4.663l0.766,5.175L41.86,53.813z"/>
			</g>
		</g>
		<g>
			<g>
				<path fill="#FFFFFF" d="M53.325,52.414c0.399,0.295,0.768,0.514,1.109,0.656l-0.28,0.604c-0.472-0.189-0.939-0.478-1.402-0.866
					c-0.502,0.258-1.052,0.377-1.648,0.356c-0.602-0.02-1.143-0.185-1.623-0.492c-0.48-0.307-0.844-0.729-1.09-1.264
					c-0.247-0.536-0.359-1.133-0.336-1.793c0.023-0.657,0.176-1.25,0.461-1.779c0.285-0.529,0.678-0.926,1.179-1.191
					c0.501-0.264,1.056-0.386,1.664-0.365c0.614,0.021,1.163,0.186,1.646,0.495c0.483,0.309,0.845,0.731,1.086,1.264
					c0.24,0.534,0.349,1.13,0.327,1.79c-0.019,0.548-0.119,1.037-0.3,1.469C53.936,51.73,53.672,52.102,53.325,52.414z
					 M51.426,51.222c0.503,0.16,0.915,0.386,1.235,0.679c0.534-0.454,0.817-1.155,0.85-2.102c0.018-0.539-0.057-1.012-0.226-1.421
					c-0.169-0.409-0.426-0.731-0.771-0.965c-0.345-0.235-0.737-0.359-1.175-0.374c-0.657-0.023-1.209,0.183-1.657,0.618
					c-0.448,0.435-0.688,1.098-0.718,1.991c-0.03,0.865,0.161,1.537,0.574,2.014c0.412,0.478,0.951,0.728,1.617,0.751
					c0.315,0.011,0.613-0.038,0.896-0.146c-0.269-0.188-0.555-0.325-0.858-0.411L51.426,51.222z"/>
			</g>
		</g>
		<g>
			<g>
				<path fill="#FFFFFF" d="M55.418,53.445l1.078-6.57l0.869,0.143l-1.078,6.57L55.418,53.445z"/>
			</g>
		</g>
		<g>
			<g>
				<path fill="#FFFFFF" d="M56.937,53.576l4.287-5.699l0.913,0.261l0.791,7.15l-0.965-0.276L61.77,52.86l-2.677-0.765l-1.257,1.738
					L56.937,53.576z M59.535,51.475l2.17,0.62l-0.162-1.964c-0.05-0.597-0.075-1.082-0.075-1.457
					c-0.199,0.387-0.43,0.762-0.694,1.124L59.535,51.475z"/>
			</g>
		</g>
		<g>
			<g>
				<path fill="#FFFFFF" d="M64.524,52.437c0.487-0.992,1.134-1.638,1.942-1.939c0.808-0.3,1.634-0.244,2.476,0.17
					c0.552,0.271,0.984,0.646,1.299,1.127c0.314,0.481,0.471,1.014,0.472,1.6c0.001,0.586-0.145,1.178-0.438,1.775
					c-0.297,0.606-0.685,1.089-1.165,1.447c-0.479,0.359-1.003,0.551-1.573,0.577c-0.569,0.026-1.113-0.088-1.633-0.343
					c-0.563-0.276-0.999-0.658-1.309-1.147c-0.31-0.489-0.464-1.025-0.461-1.607C64.137,53.515,64.267,52.961,64.524,52.437z
					 M65.334,52.849c-0.353,0.72-0.438,1.383-0.254,1.987c0.184,0.604,0.568,1.05,1.153,1.336c0.595,0.292,1.188,0.323,1.778,0.093
					c0.59-0.23,1.074-0.73,1.451-1.499c0.238-0.487,0.365-0.952,0.378-1.395c0.014-0.443-0.089-0.843-0.308-1.198
					s-0.525-0.629-0.919-0.823c-0.56-0.274-1.136-0.318-1.728-0.132C66.292,51.406,65.775,51.949,65.334,52.849z"/>
			</g>
		</g>
		<g>
			<g>
				<path fill="#FFFFFF" d="M76.7,61.355l0.526,0.741c-0.61,0.43-1.221,0.634-1.833,0.612c-0.611-0.022-1.181-0.259-1.709-0.709
					c-0.546-0.466-0.895-0.956-1.047-1.47c-0.152-0.514-0.138-1.058,0.043-1.632c0.181-0.574,0.478-1.103,0.891-1.586
					c0.45-0.527,0.943-0.901,1.48-1.122c0.537-0.221,1.078-0.274,1.624-0.161c0.546,0.114,1.042,0.361,1.489,0.742
					c0.507,0.432,0.823,0.925,0.948,1.478c0.125,0.553,0.056,1.121-0.207,1.704l-0.792-0.407c0.197-0.469,0.256-0.883,0.175-1.241
					c-0.08-0.359-0.289-0.683-0.628-0.971c-0.389-0.332-0.794-0.517-1.215-0.553c-0.42-0.036-0.818,0.057-1.192,0.281
					c-0.374,0.224-0.704,0.503-0.989,0.837c-0.368,0.431-0.625,0.86-0.774,1.289c-0.149,0.428-0.158,0.835-0.029,1.22
					c0.129,0.385,0.348,0.709,0.657,0.972c0.375,0.32,0.786,0.483,1.231,0.489C75.794,61.874,76.244,61.703,76.7,61.355z"/>
			</g>
		</g>
		<g>
			<g>
				<path fill="#FFFFFF" d="M78.762,62.036c0.858-0.697,1.716-1.012,2.576-0.947c0.859,0.066,1.585,0.464,2.177,1.192
					c0.388,0.477,0.623,0.999,0.707,1.568c0.083,0.568,0.003,1.118-0.241,1.65c-0.244,0.532-0.625,1.008-1.142,1.429
					c-0.524,0.426-1.079,0.701-1.664,0.826c-0.585,0.125-1.142,0.08-1.67-0.135c-0.527-0.215-0.974-0.547-1.338-0.995
					c-0.395-0.486-0.631-1.017-0.707-1.59c-0.077-0.574,0.008-1.125,0.255-1.652C77.959,62.852,78.309,62.404,78.762,62.036z
					 M79.325,62.749c-0.623,0.506-0.977,1.072-1.063,1.698c-0.086,0.626,0.076,1.191,0.487,1.697
					c0.418,0.514,0.943,0.791,1.576,0.829c0.632,0.038,1.28-0.213,1.945-0.753c0.42-0.342,0.73-0.711,0.928-1.108
					c0.198-0.397,0.272-0.803,0.223-1.216c-0.05-0.414-0.213-0.791-0.49-1.132c-0.393-0.484-0.898-0.766-1.514-0.844
					C80.799,61.84,80.102,62.117,79.325,62.749z"/>
			</g>
		</g>
		<g>
			<g>
				<path fill="#FFFFFF" d="M80.654,69.776l5.777-3.31l0.438,0.765l-5.095,2.919l1.63,2.845l-0.682,0.391L80.654,69.776z"/>
			</g>
		</g>
		<g>
			<g>
				<path fill="#FFFFFF" d="M83.052,74.12l6.173-2.495l0.33,0.817l-5.444,2.2l1.228,3.04l-0.728,0.295L83.052,74.12z"/>
			</g>
		</g>
		<g>
			<g>
				<path fill="#FFFFFF" d="M84.872,78.767l6.476-1.543l1.116,4.683L91.7,82.089l-0.912-3.826l-1.984,0.473l0.854,3.583l-0.76,0.181
					l-0.853-3.583l-2.205,0.525l0.947,3.976L86.023,83.6L84.872,78.767z"/>
			</g>
		</g>
		<g>
			<g>
				<path fill="#FFFFFF" d="M88.972,87.491l0.78-0.045l0.167,2.815l-2.466,0.143c-0.37-0.412-0.655-0.843-0.855-1.293
					c-0.2-0.449-0.315-0.916-0.343-1.399c-0.038-0.653,0.068-1.254,0.317-1.804c0.248-0.55,0.63-0.976,1.143-1.278
					c0.513-0.303,1.096-0.473,1.749-0.511c0.647-0.038,1.258,0.063,1.835,0.301c0.576,0.238,1.015,0.603,1.317,1.095
					c0.301,0.492,0.471,1.069,0.51,1.731c0.028,0.48-0.025,0.92-0.158,1.317c-0.133,0.397-0.332,0.714-0.598,0.951
					c-0.265,0.237-0.619,0.426-1.059,0.566L91.046,89.3c0.332-0.119,0.591-0.259,0.776-0.418s0.328-0.38,0.428-0.662
					c0.1-0.282,0.141-0.59,0.121-0.926c-0.023-0.402-0.104-0.746-0.244-1.032c-0.139-0.286-0.314-0.513-0.524-0.682
					c-0.21-0.168-0.437-0.296-0.682-0.381c-0.421-0.145-0.872-0.204-1.352-0.176c-0.593,0.034-1.082,0.165-1.469,0.392
					c-0.387,0.227-0.666,0.541-0.837,0.942c-0.171,0.401-0.244,0.821-0.218,1.259c0.022,0.381,0.117,0.748,0.284,1.103
					c0.168,0.354,0.34,0.62,0.517,0.798l1.238-0.072L88.972,87.491z"/>
			</g>
		</g>
		<g>
			<g>
				<path fill="#FFFFFF" d="M86.44,91.515l6.613,0.774l-0.56,4.781l-0.78-0.091l0.457-3.906l-2.025-0.237l-0.428,3.658l-0.776-0.091
					l0.428-3.658l-2.251-0.263l-0.476,4.059l-0.78-0.091L86.44,91.515z"/>
			</g>
		</g>
	</g>
	<g>
		<g>
			<path fill="#FFFFFF" d="M49.876,60.781c-10.528,0-19.72,5.7-24.674,14.177c0.3,2.072,1.725,9.292,7.623,15.939
				c0,0-2.768,0.111-5.204-3.432c-2.186-3.179-3.653-8.053-3.693-10.063c-1.676,3.635-2.618,7.679-2.618,11.945
				c0,15.777,12.79,28.566,28.566,28.566c15.777,0,28.566-12.79,28.566-28.566C78.442,73.571,65.653,60.781,49.876,60.781z
				 M32.404,110.208c-1.068-0.643-1.096-1.58,0.753-2.812c0.997-0.664,12.318-7.695,23.279-3.128c0,0-5.896-0.747-10.048-0.083
				c-3.526,0.564-8.553,2.242-11.903,5.536C34.485,109.72,33.434,110.828,32.404,110.208z M39.579,112.267
				c-0.997,1.107-2.574,1.052-3.432,0.554c-0.977-0.567-0.488-1.866,0.775-2.547c7.418-6.2,18.767-4.54,21.093-3.765
				c2.325,0.775,3.266,1.993,3.266,1.993C46.554,105.402,40.575,111.16,39.579,112.267z M41.239,114.814
				c9.19-9.522,22.837-2.74,22.837-2.74C53.308,119.685,41.239,114.814,41.239,114.814z M72.935,85.063
				c-1.699,0.441-7.363,2.895-8.81,4.468c-1.447,1.573-2.454,2.895-5.16,3.021c-2.706,0.126-21.586,0.063-21.586,0.063
				s0.207-1.884,2.366-1.884s6.145,0,6.145,0s2.99-0.664,0.332-3.488c0,0-10.519-10.076-2.768-16.387
				c7.751-6.311,10.629-7.418,13.937-6.687c0,0-6.86,7.3-5.979,12.901c0.881,5.601,2.895,8.81,9.314,8.37
				c6.419-0.441,6.985-1.133,8.181-2.014c1.196-0.881,4.972-1.699,5.601,0.629C74.508,84.056,74.634,84.623,72.935,85.063z"/>
		</g>
	</g>
	<g>
		<g>
			<path fill="#FFFFFF" d="M42.506,131.75l-0.814-0.078l0.498-5.185c-0.214,0.168-0.489,0.33-0.825,0.486
				c-0.336,0.156-0.635,0.269-0.897,0.338l0.076-0.787c0.476-0.17,0.898-0.391,1.268-0.663c0.37-0.272,0.639-0.544,0.808-0.816
				l0.524,0.05L42.506,131.75z"/>
		</g>
	</g>
	<g>
		<g>
			<path fill="#FFFFFF" d="M45.149,130.547l0.786-0.073c0.067,0.369,0.194,0.637,0.381,0.804c0.188,0.166,0.429,0.25,0.722,0.25
				c0.251,0,0.472-0.057,0.661-0.173c0.189-0.115,0.344-0.269,0.465-0.461c0.121-0.192,0.223-0.452,0.304-0.779
				c0.082-0.327,0.123-0.66,0.123-0.999c0-0.036-0.002-0.091-0.005-0.163c-0.163,0.26-0.387,0.472-0.67,0.634
				c-0.283,0.162-0.59,0.243-0.92,0.243c-0.551,0-1.017-0.2-1.399-0.599s-0.572-0.926-0.572-1.58c0-0.675,0.199-1.219,0.597-1.63
				s0.897-0.618,1.496-0.618c0.433,0,0.829,0.116,1.188,0.35s0.631,0.565,0.817,0.997s0.279,1.056,0.279,1.873
				c0,0.851-0.092,1.528-0.277,2.032c-0.185,0.504-0.459,0.888-0.824,1.151c-0.365,0.263-0.792,0.395-1.283,0.395
				c-0.521,0-0.946-0.145-1.276-0.434C45.414,131.477,45.216,131.071,45.149,130.547z M48.496,127.609
				c0-0.469-0.125-0.842-0.375-1.117c-0.25-0.275-0.55-0.413-0.901-0.413c-0.363,0-0.68,0.148-0.949,0.445
				c-0.27,0.297-0.404,0.681-0.404,1.154c0,0.424,0.128,0.768,0.384,1.033c0.256,0.265,0.572,0.397,0.947,0.397
				c0.379,0,0.69-0.132,0.933-0.397C48.374,128.445,48.496,128.078,48.496,127.609z"/>
		</g>
	</g>
	<g>
		<g>
			<path fill="#FFFFFF" d="M50.957,131.083l0.781-0.109c0.083,0.366,0.223,0.628,0.418,0.785c0.195,0.158,0.44,0.23,0.733,0.216
				c0.251-0.012,0.469-0.079,0.652-0.203c0.184-0.124,0.332-0.284,0.444-0.482s0.202-0.462,0.268-0.792s0.092-0.665,0.077-1.004
				c-0.002-0.036-0.006-0.091-0.012-0.163c-0.151,0.268-0.365,0.489-0.64,0.664c-0.275,0.175-0.578,0.27-0.908,0.285
				c-0.551,0.025-1.025-0.153-1.425-0.535c-0.399-0.382-0.614-0.899-0.644-1.552c-0.031-0.674,0.143-1.227,0.522-1.656
				c0.379-0.429,0.868-0.658,1.466-0.686c0.433-0.02,0.833,0.078,1.202,0.295s0.657,0.536,0.862,0.958
				c0.206,0.422,0.327,1.042,0.365,1.859c0.039,0.85-0.022,1.531-0.184,2.043s-0.418,0.908-0.771,1.188
				c-0.352,0.28-0.774,0.431-1.263,0.454c-0.52,0.024-0.952-0.101-1.295-0.375S51.048,131.603,50.957,131.083z M54.166,127.994
				c-0.022-0.469-0.163-0.835-0.426-1.099c-0.262-0.264-0.569-0.388-0.919-0.371c-0.363,0.017-0.672,0.179-0.928,0.488
				c-0.256,0.309-0.373,0.699-0.351,1.171c0.019,0.424,0.163,0.761,0.431,1.014c0.268,0.253,0.589,0.371,0.964,0.354
				c0.378-0.017,0.683-0.164,0.914-0.44C54.083,128.835,54.188,128.463,54.166,127.994z"/>
		</g>
	</g>
	<g>
		<g>
			<path fill="#FFFFFF" d="M56.902,130.911l0.773-0.16c0.108,0.36,0.264,0.612,0.469,0.756c0.205,0.144,0.454,0.2,0.746,0.167
				c0.25-0.028,0.462-0.11,0.637-0.246s0.312-0.306,0.411-0.51c0.099-0.205,0.17-0.474,0.215-0.808s0.048-0.67,0.01-1.007
				c-0.004-0.036-0.012-0.09-0.023-0.162c-0.133,0.277-0.331,0.512-0.594,0.705c-0.263,0.193-0.559,0.308-0.887,0.345
				c-0.548,0.062-1.033-0.084-1.457-0.439c-0.424-0.354-0.673-0.856-0.746-1.506c-0.076-0.671,0.061-1.233,0.41-1.687
				c0.349-0.454,0.822-0.714,1.418-0.782c0.43-0.049,0.837,0.023,1.219,0.214c0.383,0.191,0.691,0.491,0.924,0.899
				c0.233,0.408,0.396,1.018,0.488,1.83c0.096,0.845,0.08,1.529-0.047,2.051c-0.127,0.522-0.357,0.934-0.69,1.236
				c-0.333,0.303-0.743,0.482-1.23,0.537c-0.517,0.058-0.956-0.038-1.317-0.288S57.027,131.424,56.902,130.911z M59.898,127.616
				c-0.053-0.466-0.219-0.822-0.498-1.068c-0.279-0.246-0.593-0.349-0.942-0.309c-0.361,0.041-0.659,0.224-0.893,0.549
				c-0.235,0.325-0.325,0.722-0.272,1.192c0.048,0.421,0.213,0.749,0.497,0.984c0.284,0.235,0.613,0.331,0.986,0.289
				c0.376-0.043,0.67-0.209,0.883-0.5C59.871,128.46,59.951,128.082,59.898,127.616z"/>
		</g>
	</g>
</g>
<g>
	<path fill="#FFFFFF" d="M7.026,225.934v1.537H2.801l-0.399,2.865c0.239-0.017,0.464-0.049,0.8-0.049
		c2.193,0,4.082,1.281,4.082,3.746c0,2.32-1.777,4.13-4.402,4.13c-1.185,0-2.257-0.32-2.816-0.673l0.416-1.408
		c0.479,0.271,1.36,0.608,2.337,0.608c1.36,0,2.577-0.929,2.577-2.497c0-1.553-1.057-2.529-3.202-2.529
		c-0.607,0-1.056,0.032-1.456,0.096l0.752-5.826H7.026z"/>
	<path fill="#FFFFFF" d="M10.048,227.311c-0.096-0.465-0.191-0.753-0.448-1.152c0.784-0.017,2.065-0.208,2.722-0.368
		c0.752-0.192,1.568-0.497,2.192-0.833c0.177,0.496,0.433,0.993,0.656,1.185c0.257,0.225,0.24,0.305-0.08,0.305
		c-0.111,0-0.256,0.016-1.952,0.336v2.289c0.992-0.017,1.584-0.048,2.112-0.145v1.393c-0.528-0.08-1.104-0.128-2.112-0.128v5.971
		c0,0.784,0.048,1.792,0.128,2.753h-1.457c0.08-0.961,0.128-1.969,0.128-2.753v-3.618c-0.607,1.537-1.344,2.85-2.129,3.794
		c-0.256-0.496-0.512-0.88-0.832-1.265c1.104-1.296,2.337-3.233,2.881-4.897c-1.264,0.016-1.92,0.063-2.513,0.144v-1.393
		c0.624,0.097,1.28,0.145,2.593,0.145v-2.049C11.232,227.134,10.528,227.247,10.048,227.311z M15.059,234.45
		c-0.417-0.896-1.121-1.985-1.761-2.737l0.864-0.769c0.64,0.801,1.44,1.985,1.872,2.77L15.059,234.45z M22.677,232.529
		c-0.176,0.064-0.352,0.304-1.232,2.033c-1.28,2.48-3.057,3.793-6.402,4.737c-0.224-0.416-0.528-0.8-1.104-1.104
		c2.673-0.528,4.594-1.761,5.746-3.201c0.736-0.928,1.232-2.177,1.473-3.329c0.513,0.272,1.104,0.512,1.537,0.592
		C22.917,232.305,22.917,232.433,22.677,232.529z M17.171,229.583c-0.112,0.513-0.4,1.457-0.784,2.514
		c-0.433-0.177-0.784-0.257-1.232-0.289c0.544-1.312,0.929-2.721,1.04-3.905c0.385,0.145,0.769,0.192,1.121,0.176
		c0.352-0.016,0.384,0.097,0.224,0.24C17.427,228.431,17.347,228.735,17.171,229.583z M19.604,225.438v6.467
		c0,0.849,0.032,1.408,0.112,2.177h-1.521c0.112-0.816,0.128-1.328,0.128-2.177v-5.202c0-1.169-0.063-1.697-0.176-2.081
		c0.464,0.08,1.217,0.112,1.553,0.08c0.4-0.032,0.4,0.128,0.08,0.304C19.636,225.085,19.604,225.166,19.604,225.438z
		 M22.501,231.344c-0.64-1.024-1.408-2.032-2.192-2.945l1.12-0.704c0.784,0.881,1.536,1.793,2.353,2.833L22.501,231.344z"/>
	<path fill="#FFFFFF" d="M31.026,226.766v1.377c-0.416-0.064-1.089-0.112-3.426-0.128c-0.624,1.104-1.04,1.729-1.568,2.353
		c-0.208-0.448-0.48-0.832-0.801-1.12c0.993-1.04,2.226-3.313,2.77-4.802c0.304,0.208,0.736,0.4,1.104,0.496
		c0.464,0.128,0.48,0.224,0.08,0.528c-0.176,0.144-0.433,0.528-0.944,1.425C29.954,226.878,30.61,226.831,31.026,226.766z
		 M25.792,233.969v-1.28c0.48,0.064,1.072,0.096,1.856,0.096v-1.904c-0.416,0.016-0.736,0.048-1.024,0.112v-1.281
		c0.48,0.064,1.137,0.097,2.033,0.097s1.553-0.032,2.017-0.097v1.281c-0.432-0.097-1.04-0.129-1.841-0.129v1.921
		c0.833,0,1.457-0.031,1.937-0.096v1.28c-0.496-0.063-1.104-0.096-1.937-0.096v2.705c0.721-0.513,1.169-0.832,1.729-1.312
		c0.017,0.64,0.097,1.088,0.272,1.408l-1.856,1.345c-0.561,0.4-0.896,0.688-1.152,0.992c-0.24-0.56-0.417-0.816-0.769-1.232
		c0.368-0.384,0.592-0.944,0.592-1.616v-2.289C26.849,233.874,26.256,233.906,25.792,233.969z M35.78,234.097v2.369
		c0,0.721,0.063,1.841,0.16,2.722h-1.473c0.08-0.769,0.111-2.001,0.111-2.722v-2.369h-1.824v1.329h-1.28
		c0.063-0.736,0.08-1.409,0.08-2.081v-4.178c0-0.561-0.032-1.185-0.08-1.648c0.496,0.063,1.473,0.144,3.104,0.16v-0.881
		c0-1.057-0.063-1.889-0.144-2.289c0.496,0.097,1.009,0.112,1.505,0.112c0.319,0,0.368,0.112,0.048,0.305
		c-0.145,0.079-0.208,0.352-0.208,0.752v2.001c1.776-0.017,2.801-0.064,3.329-0.16c-0.048,0.448-0.08,1.088-0.08,1.648v3.89
		c0,0.849,0.016,1.425,0.08,2.097h-1.312v-1.057H35.78z M34.579,233.025v-4.258h-1.824v4.258H34.579z M37.797,233.025v-4.258H35.78
		v4.258H37.797z"/>
	<path fill="#FFFFFF" d="M43.072,230.032c0.528,0.048,1.473,0.08,2.257,0.08c0.896,0,2.577-0.032,3.073-0.096l-0.288,3.97
		c-0.048,0.64-0.72,1.024-2.513,1.232c-0.016-0.513-0.192-0.961-0.448-1.329c1.44,0.064,1.856-0.16,1.889-0.576l0.16-2.129h-3.025
		v5.555c0,0.352,0.272,0.432,1.969,0.432c1.489,0,2.097-0.256,2.306-1.889c0.367,0.513,0.768,0.753,1.264,0.896
		c-0.752,1.937-1.456,2.225-3.425,2.225c-2.161,0-3.298-0.128-3.298-1.376v-5.187c0-0.752-0.031-1.265-0.08-1.633
		c-0.336,0.337-0.72,0.721-1.152,1.153c-0.063-0.448-0.384-1.153-0.704-1.425c1.169-0.721,2.001-1.553,3.073-3.17
		c0.592-0.896,0.944-1.664,1.009-2.049c0.24,0.16,1.2,0.561,1.521,0.673c0.16,0.063,0.176,0.192,0,0.288
		c-0.112,0.08-0.4,0.336-0.624,0.592c1.616,0.705,2.305,1.152,3.553,2.065l-0.896,1.136c-1.216-1.2-1.696-1.504-3.265-2.32
		C44.737,228.239,44.177,228.912,43.072,230.032z M50.26,235.747c0.111-0.705,0.128-1.345,0.128-1.938v-5.313
		c0-0.705-0.048-1.265-0.128-1.713c0.496,0.096,1.056,0.144,1.393,0.128c0.256-0.016,0.304,0.128,0.063,0.304
		c-0.063,0.049-0.128,0.465-0.128,0.688v5.906c0,0.593,0.016,1.249,0.128,1.938H50.26z M54.501,225.71v11.732
		c0,1.137-0.192,1.36-2.609,1.665c-0.048-0.576-0.319-1.137-0.704-1.585c1.761,0.112,2.081-0.064,2.081-0.513v-9.588
		c0-1.264-0.063-2.177-0.144-2.625c0.384,0.064,1.056,0.097,1.408,0.08c0.304-0.016,0.336,0.08,0.128,0.257
		C54.533,225.246,54.501,225.438,54.501,225.71z"/>
	<path fill="#FFFFFF" d="M71.27,237.075c-0.305,0.656-0.416,1.057-0.464,1.616c-6.932,0.24-8.964-0.239-10.82-1.984
		c-0.448,0.769-1.009,1.457-1.681,2.081c-0.24-0.4-0.528-0.624-0.993-0.864c0.769-0.625,1.393-1.329,1.889-2.177
		c-0.656-0.896-1.328-2.081-1.601-2.657l1.057-0.513c0.208,0.673,0.544,1.345,1.072,2.049c0.336-0.864,0.545-1.872,0.656-3.073
		c-1.136,0.08-1.553,0.145-2.08,0.305c-0.049-0.368-0.177-0.736-0.337-1.009c0.337-0.208,0.593-0.496,0.769-0.88l1.28-2.817h-1.056
		c-0.433,0-0.753,0.048-1.104,0.112v-1.185c0.576,0.031,1.248,0.031,1.937,0.031c0.64,0,1.28-0.031,1.856-0.08
		c-0.48,1.409-1.265,3.218-1.984,4.595c1.408-0.064,1.713-0.097,2.064-0.225c-0.208,2.129-0.576,3.81-1.185,5.202
		C62.402,237.539,64.034,237.827,71.27,237.075z M69.829,232.336v1.137c-0.913-0.08-1.617-0.112-3.346-0.112v1.377
		c1.825,0,2.93-0.032,3.905-0.128v1.137c-0.928-0.08-2.064-0.112-3.889-0.112c0,0.416,0.031,0.8,0.079,1.345h-1.328
		c0.048-0.545,0.064-0.913,0.08-1.345c-1.553,0-2.562,0.032-3.377,0.112v-1.137c0.848,0.096,1.84,0.128,3.377,0.128v-1.377
		c-1.473,0-2.129,0.032-2.961,0.112v-1.137c0.864,0.097,1.488,0.128,2.961,0.128v-1.36c-1.537,0-2.129,0.032-2.577,0.08v-1.04
		c0.448,0.048,0.992,0.063,2.577,0.08v-1.265c-1.616,0-2.449,0.032-3.426,0.112v-1.137c0.977,0.08,1.793,0.096,3.426,0.096v-1.104
		c-1.2,0-1.889,0.017-2.577,0.08v-1.072c0.624,0.048,1.312,0.064,2.577,0.08c-0.016-0.688-0.048-1.168-0.08-1.456
		c0.48,0.063,0.752,0.079,1.312,0.079c0.416,0,0.448,0.129,0.112,0.32c-0.145,0.08-0.192,0.465-0.192,1.057
		c1.905,0,2.657-0.032,3.361-0.144c-0.048,0.319-0.048,0.544-0.048,0.912v1.248c0.721,0,1.232-0.031,1.585-0.096v1.104
		c-0.353-0.048-0.881-0.064-1.585-0.08v0.896c0,0.496,0.016,0.88,0.064,1.296c-0.545-0.031-1.185-0.048-3.378-0.048v1.36
		C68.196,232.464,68.868,232.433,69.829,232.336z M68.677,228.031v-1.104h-2.193v1.104H68.677z M66.483,228.959v1.265h2.193v-1.265
		H66.483z"/>
	<path fill="#FFFFFF" d="M77.954,235.378c-0.049,0.432-0.049,0.832,0.016,1.264c-1.473,0.528-3.121,1.233-4.273,1.841
		c-0.064-0.528-0.225-1.152-0.416-1.729c0.319-0.016,0.88-0.128,1.696-0.368v-4.306c-0.641,0-1.072,0.032-1.473,0.096v-1.393
		c0.416,0.064,0.832,0.097,1.473,0.112v-3.745c-0.721,0.016-1.104,0.048-1.601,0.112v-1.441c0.656,0.08,1.104,0.112,2.32,0.112
		c1.233,0,1.697-0.032,2.354-0.112v1.441c-0.544-0.064-0.944-0.097-1.761-0.112v3.745c0.544-0.016,0.929-0.048,1.312-0.112v1.393
		c-0.384-0.063-0.672-0.079-1.312-0.079v3.873C76.993,235.747,77.426,235.602,77.954,235.378z M81.604,226.878
		c0,1.969-0.017,3.474-0.049,4.754c-0.096,3.538-0.96,4.962-2.785,7.123c-0.367-0.304-0.784-0.48-1.472-0.624
		c2.785-2.161,3.169-3.938,3.073-8.691c-0.064-3.521-0.097-4.114-0.16-4.562c0.448,0.112,1.2,0.145,1.584,0.097
		c0.24-0.032,0.337,0.128,0.08,0.319C81.731,225.39,81.604,225.902,81.604,226.878z M79.475,233.009l-1.201,0.016
		c0.097-1.44,0.049-3.602-0.08-4.994l1.345,0.048C79.41,229.328,79.395,231.457,79.475,233.009z M82.388,232.048v-1.376
		c0.464,0.063,0.8,0.096,1.393,0.096v-3.745c-0.624,0.016-1.041,0.031-1.489,0.096v-1.425c0.656,0.08,1.201,0.112,2.417,0.112
		c1.232,0,1.825-0.032,2.481-0.112v1.425c-0.576-0.064-1.12-0.096-2.097-0.096v3.761c0.944-0.016,1.36-0.048,1.937-0.111v1.376
		c-0.576-0.08-0.992-0.096-1.937-0.096v5.074c1.152-0.017,1.856-0.048,2.561-0.112v1.393c-0.848-0.08-1.28-0.096-3.281-0.096
		c-1.793,0-2.385,0.016-3.217,0.096v-1.393c0.736,0.064,1.424,0.096,2.625,0.112v-5.074
		C83.188,231.968,82.836,231.985,82.388,232.048z"/>
	<path fill="#FFFFFF" d="M90.736,230.64c-0.544,0.048-0.832,0.112-1.104,0.192c-0.063-0.48-0.176-0.801-0.384-1.185
		c0.512-0.257,1.328-1.152,2.721-4.898c0.561,0.305,1.137,0.593,1.36,0.673c0.305,0.111,0.32,0.271,0.097,0.352
		c-0.288,0.097-0.625,0.576-2.705,3.89l2.257-0.16c0.608-1.008,0.88-1.553,1.088-2.049c0.48,0.368,0.944,0.656,1.201,0.769
		c0.256,0.112,0.271,0.272,0.016,0.336c-0.24,0.064-0.769,0.656-3.537,4.594c1.136-0.096,1.584-0.128,2.833-0.24
		c-0.16,0.353-0.24,0.833-0.24,1.169l-2.801,0.192c-0.608,0.048-1.153,0.128-1.457,0.239c-0.048-0.384-0.192-0.815-0.384-1.168
		c0.848-0.368,1.296-0.672,2.657-2.833L90.736,230.64z M94.113,236.93c-2.513,0.465-3.473,0.673-4.226,1.024
		c-0.063-0.464-0.208-0.992-0.496-1.681c1.041,0.032,2.417-0.048,4.979-0.56C94.162,236.05,94.065,236.562,94.113,236.93z
		 M94.738,226.911v-1.408c0.912,0.063,2.369,0.096,3.841,0.096c0.929,0,2.178-0.048,3.521-0.128l-1.424,4.081h1.12
		c0.464,0,0.929-0.031,1.265-0.08c-0.769,3.298-1.44,5.139-2.449,6.579c0.784,0.769,1.937,1.393,2.993,1.633
		c-0.48,0.416-0.784,0.864-0.944,1.456c-0.912-0.479-1.889-1.104-2.801-2.129c-0.929,1.057-1.921,1.729-3.09,2.321
		c-0.352-0.384-0.8-0.721-1.296-1.009c1.473-0.512,2.705-1.264,3.633-2.24c-0.864-1.249-1.424-2.785-1.776-4.658l1.137-0.224
		c0.256,1.584,0.784,2.929,1.393,3.89c0.656-1.073,1.12-2.481,1.536-4.418h-0.944c-0.608,0-1.057,0.032-1.425,0.08l1.329-4.018
		h-2.961c0,2.977-0.209,5.538-0.641,7.522c-0.433,1.938-1.152,3.346-2.545,4.979c-0.256-0.272-0.736-0.593-1.232-0.833
		c1.616-1.456,2.192-2.673,2.625-4.562c0.368-1.665,0.608-4.065,0.496-7.059C95.618,226.815,95.106,226.863,94.738,226.911z"/>
	<path fill="#FFFFFF" d="M129.937,237.987v-10.355h-0.031l-2.033,1.12l-0.416-1.36l2.721-1.457h1.569v12.053H129.937z"/>
	<path fill="#FFFFFF" d="M141.282,226.798c-0.816,1.761-2.737,4.322-4.45,5.938c-0.304-0.4-0.784-0.8-1.248-1.104
		c1.664-1.137,2.897-2.705,3.697-4.098c0.561-0.977,0.912-1.776,1.2-2.608c0.496,0.256,1.297,0.56,1.633,0.592
		c0.256,0.048,0.288,0.224,0.017,0.336C141.714,226.014,141.538,226.222,141.282,226.798z M138.721,232.433v-1.489
		c0.513,0.08,1.649,0.129,3.33,0.129c2.017,0,4.514-0.032,5.25-0.064l-0.545,6.227c-0.111,1.312-0.672,1.648-2.929,1.969
		c-0.096-0.576-0.336-1.185-0.736-1.713c1.776,0.176,2.241-0.032,2.369-1.456l0.32-3.714h-3.586
		c-0.096,1.473-0.496,2.865-1.104,3.777c-1.008,1.505-1.856,2.257-3.265,3.073c-0.353-0.416-0.896-0.832-1.473-1.057
		c1.761-0.72,2.944-1.729,3.457-2.528c0.624-0.977,0.96-1.905,1.057-3.266C139.825,232.321,139.394,232.336,138.721,232.433z
		 M149.062,232.289c-1.425-0.992-2.562-2.032-3.409-3.153c-0.721-0.944-1.393-2.545-1.81-4.161l1.345-0.272
		c0.416,1.585,0.992,2.865,1.648,3.617c1.137,1.232,2.146,1.873,3.41,2.386C149.798,231.104,149.413,231.632,149.062,232.289z"/>
	<path fill="#FFFFFF" d="M157.522,226.766v1.377c-0.416-0.064-1.089-0.112-3.426-0.128c-0.624,1.104-1.04,1.729-1.568,2.353
		c-0.208-0.448-0.48-0.832-0.801-1.12c0.993-1.04,2.226-3.313,2.77-4.802c0.304,0.208,0.736,0.4,1.104,0.496
		c0.464,0.128,0.48,0.224,0.08,0.528c-0.176,0.144-0.433,0.528-0.944,1.425C156.45,226.878,157.106,226.831,157.522,226.766z
		 M152.288,233.969v-1.28c0.48,0.064,1.072,0.096,1.856,0.096v-1.904c-0.416,0.016-0.736,0.048-1.024,0.112v-1.281
		c0.48,0.064,1.137,0.097,2.033,0.097s1.553-0.032,2.017-0.097v1.281c-0.432-0.097-1.04-0.129-1.841-0.129v1.921
		c0.833,0,1.457-0.031,1.937-0.096v1.28c-0.496-0.063-1.104-0.096-1.937-0.096v2.705c0.721-0.513,1.169-0.832,1.729-1.312
		c0.017,0.64,0.097,1.088,0.272,1.408l-1.856,1.345c-0.561,0.4-0.896,0.688-1.152,0.992c-0.24-0.56-0.417-0.816-0.769-1.232
		c0.368-0.384,0.592-0.944,0.592-1.616v-2.289C153.345,233.874,152.752,233.906,152.288,233.969z M162.276,234.097v2.369
		c0,0.721,0.063,1.841,0.16,2.722h-1.473c0.08-0.769,0.111-2.001,0.111-2.722v-2.369h-1.824v1.329h-1.28
		c0.063-0.736,0.08-1.409,0.08-2.081v-4.178c0-0.561-0.032-1.185-0.08-1.648c0.496,0.063,1.473,0.144,3.104,0.16v-0.881
		c0-1.057-0.063-1.889-0.144-2.289c0.496,0.097,1.009,0.112,1.505,0.112c0.319,0,0.368,0.112,0.048,0.305
		c-0.145,0.079-0.208,0.352-0.208,0.752v2.001c1.776-0.017,2.801-0.064,3.329-0.16c-0.048,0.448-0.08,1.088-0.08,1.648v3.89
		c0,0.849,0.016,1.425,0.08,2.097h-1.312v-1.057H162.276z M161.075,233.025v-4.258h-1.824v4.258H161.075z M164.293,233.025v-4.258
		h-2.017v4.258H164.293z"/>
	<path fill="#FFFFFF" d="M170.705,237.25c-0.641,0.625-1.072,1.137-1.232,1.489c-0.256-0.513-0.561-0.977-0.896-1.297
		c0.448-0.4,0.576-0.881,0.576-1.665v-4.882c-0.576,0-0.992,0.017-1.456,0.097v-1.377c0.864,0.144,1.889,0.16,2.816,0
		c-0.111,0.464-0.16,0.96-0.16,2.001v4.466c0.513-0.448,1.153-1.121,1.521-1.601c0.031,0.464,0.191,0.816,0.464,1.185
		L170.705,237.25z M169.984,228.159c-0.336-0.832-0.704-1.504-1.344-2.368l1.168-0.641c0.48,0.801,0.944,1.521,1.457,2.209
		L169.984,228.159z M172.401,238.771c-0.304-0.271-0.736-0.56-1.168-0.784c1.776-1.312,2.785-2.385,3.521-4.193
		c-1.745,0.016-2.529,0.063-3.201,0.128v-1.265c0.704,0.08,1.681,0.128,4.401,0.145v-1.232c-2.081,0-2.769,0.031-3.441,0.111
		c0.096-0.464,0.112-0.864,0.112-1.536v-3.361c0-0.576-0.017-0.944-0.112-1.377c0.688,0.097,1.617,0.128,4.098,0.128
		c2.657,0,3.441-0.031,4.018-0.128c-0.096,0.496-0.112,0.881-0.112,1.36v3.378c0,0.544,0.032,0.992,0.097,1.521
		c-0.881-0.064-1.713-0.096-3.521-0.096v1.232c2.305,0,3.745-0.064,4.498-0.145v1.265c-0.656-0.08-1.889-0.128-3.618-0.128
		c0.961,1.648,2.401,2.913,4.178,3.297c-0.496,0.368-0.912,0.881-1.12,1.473c-1.729-0.977-2.993-2.497-3.825-4.77h-0.112v2.225
		c0,0.929,0.032,1.841,0.16,3.105h-1.473c0.144-1.28,0.176-2.177,0.176-3.105v-2.225h-0.224
		C174.963,235.955,173.986,237.427,172.401,238.771z M175.955,226.558h-2.209v1.569h2.209V226.558z M173.746,230.576h2.209v-1.552
		h-2.209V230.576z M179.349,226.558h-2.257v1.569h2.257V226.558z M177.092,230.576h2.257v-1.552h-2.257V230.576z"/>
	<path fill="#FFFFFF" d="M184.4,227.391c-0.16-0.448-0.288-0.881-0.545-1.217c0.785-0.064,1.873-0.304,2.562-0.496
		c0.736-0.208,1.536-0.544,1.904-0.769c0.16,0.368,0.641,0.864,0.961,1.104c0.304,0.225,0.272,0.4-0.096,0.353
		c-0.32-0.049-0.929,0.016-1.602,0.176v2.513c0.736-0.016,1.329-0.048,1.761-0.111v1.312c-0.432-0.064-1.024-0.097-1.761-0.112
		v2.081l0.721-0.688c0.448,0.576,0.977,1.312,1.377,1.937l-0.993,0.769c-0.304-0.673-0.736-1.457-1.104-1.937v4.001
		c0,0.784,0.032,1.793,0.112,2.753h-1.473c0.08-0.96,0.128-1.969,0.128-2.753v-3.97c-0.624,1.713-1.393,3.073-2.064,3.778
		c-0.224-0.497-0.496-0.896-0.849-1.249c1.057-1.088,2.401-2.961,2.897-4.738c-1.024,0-1.761,0.049-2.321,0.129v-1.312
		c0.576,0.096,1.312,0.128,2.337,0.128v-2.193C185.601,227.103,184.88,227.294,184.4,227.391z M197.974,237.298v1.345
		c-1.312-0.111-2.321-0.144-4.242-0.144c-2.337,0-3.457,0.048-4.545,0.144c0,0.064,0-1.345,0-1.345
		c0.976,0.097,1.904,0.129,3.601,0.129v-2.098c-1.12,0-1.856,0.032-2.528,0.097v-1.249c0.688,0.064,1.424,0.097,2.528,0.112v-1.568
		c-1.36,0.016-2.08,0.048-2.896,0.128v-1.312c1.008,0.096,1.841,0.112,3.841,0.112c1.602,0,2.514-0.017,3.538-0.112v1.312
		c-0.977-0.096-1.793-0.128-3.17-0.128v1.568c1.233-0.016,2.018-0.048,2.722-0.112v1.249c-0.704-0.064-1.488-0.097-2.722-0.097
		v2.098C195.797,237.427,196.773,237.411,197.974,237.298z M193.652,230.448c-1.585,0-2.594,0.048-3.33,0.112
		c0.08-0.656,0.112-1.969,0.112-2.897c0-0.784-0.048-1.553-0.112-2.129c0.849,0.064,1.745,0.097,3.33,0.097
		c1.616,0,2.513-0.032,3.329-0.128c-0.064,0.592-0.097,1.36-0.097,2.145c0,0.929,0.049,2.337,0.097,2.929
		C196.277,230.512,195.253,230.448,193.652,230.448z M195.621,226.67h-4.018v2.721h4.018V226.67z"/>
	<path fill="#FFFFFF" d="M213.926,236.531v1.601c-1.729-0.112-3.794-0.16-6.979-0.16c-3.186,0-5.314,0.048-7.027,0.16v-1.601
		c1.473,0.096,3.201,0.144,5.635,0.16v-7.747c0-2.577-0.049-3.57-0.129-4.034c0.528,0.096,1.232,0.145,1.857,0.145
		c0.288,0,0.336,0.144,0.063,0.336c-0.176,0.128-0.304,0.736-0.304,1.456v2.113h2.112c1.441,0,2.529-0.048,3.394-0.128v1.584
		c-0.848-0.096-1.952-0.128-3.394-0.128h-2.112v6.403C210.18,236.691,212.213,236.642,213.926,236.531z"/>
	<path fill="#FFFFFF" d="M217.312,230.848c-0.528,0.096-0.992,0.225-1.28,0.304c0-0.304-0.192-0.944-0.4-1.248
		c0.688-0.256,2.145-2.673,2.961-5.33c0.465,0.288,1.137,0.528,1.457,0.592c0.288,0.064,0.271,0.305,0.048,0.4
		c-0.48,0.208-0.832,0.641-2.865,4.273l2.129-0.319c0.544-0.977,0.704-1.377,0.88-2.001c0.608,0.368,1.024,0.544,1.457,0.656
		c0.256,0.063,0.256,0.304-0.064,0.384c-0.111,0.032-0.224,0.097-0.496,0.448c0.753,0,1.185-0.048,2.241-0.256
		c-0.032-1.265-0.064-2.689-0.096-4.098c0.464,0.112,1.104,0.16,1.536,0.128c0.24-0.016,0.353,0.16,0.128,0.368
		c-0.08,0.08-0.256,0.544-0.271,0.801c-0.032,0.688-0.064,1.84-0.08,2.561c1.761-0.368,3.521-0.801,4.449-1.057l0.257,1.232
		c-1.009,0.128-2.897,0.496-4.674,0.864c0.048,0.641,0.096,1.232,0.176,1.793c1.824-0.4,3.729-0.8,4.706-1.072l0.256,1.232
		c-1.04,0.128-2.961,0.528-4.786,0.881c0.176,0.928,0.433,1.729,0.752,2.4c0.705-0.656,1.505-1.601,1.905-2.289
		c0.464,0.385,1.12,0.769,1.248,0.833c0.192,0.096,0.192,0.271,0.017,0.288c-0.24,0.016-0.992,0.607-1.601,1.344
		c-0.192,0.225-0.513,0.545-0.929,0.913c0.433,0.56,0.929,1.024,1.505,1.408c0.544,0.368,0.688,0.336,0.88-1.473
		c0.385,0.561,0.977,0.864,1.425,0.929c-0.752,2.48-1.137,2.737-2.161,2.192c-1.216-0.64-1.904-1.28-2.577-2.272
		c-1.04,0.8-2.337,1.696-3.633,2.337c-0.192-0.4-0.545-0.832-0.977-1.152c1.217-0.336,1.793-0.608,3.938-2.257
		c-0.433-0.816-0.769-1.793-1.009-2.93c-1.04,0.24-1.536,0.353-2.305,0.576l-0.256-1.265c0.816-0.128,1.297-0.208,2.369-0.399
		c-0.064-0.545-0.128-1.121-0.16-1.745c-0.929,0.225-1.36,0.336-2.081,0.561l-0.304-1.232c-0.48,0.64-1.312,1.872-3.025,4.449
		c1.12-0.08,2.272-0.271,3.137-0.512c-0.096,0.368-0.08,0.688-0.016,1.12l-2.945,0.496c-1.088,0.192-1.425,0.24-1.696,0.368
		c0-0.448-0.208-1.12-0.416-1.473c0.72-0.288,1.328-0.769,2.673-3.009L217.312,230.848z M221.282,236.707
		c-2.978,0.641-4.065,1.024-4.979,1.521c-0.08-0.544-0.16-0.896-0.479-1.585c0.912-0.016,2.24-0.224,5.41-1.136
		C221.138,235.842,221.187,236.354,221.282,236.707z M226.933,227.502c-0.272-0.496-0.641-1.088-1.104-1.632l1.248-0.625
		c0.433,0.608,0.833,1.169,1.121,1.537L226.933,227.502z"/>
	<path fill="#FFFFFF" d="M254.881,239.316c-0.337-0.561-0.705-1.024-1.153-1.44c3.554-0.656,5.314-1.697,6.243-3.362
		c-2.85,0-4.866,0.049-6.419,0.16v-1.536c1.601,0.112,3.682,0.16,6.883,0.16c0.24-1.329,0.256-4.146,0.208-5.026
		c0.608,0.08,1.169,0.112,1.713,0.08c0.192-0.016,0.208,0.064,0.048,0.176c-0.128,0.097-0.256,0.545-0.288,1.024
		c-0.063,1.217-0.176,2.834-0.304,3.746c2.129-0.017,3.841-0.064,5.17-0.16v1.568c-1.377-0.096-3.121-0.176-5.506-0.192
		C260.659,236.579,258.626,238.035,254.881,239.316z M259.395,224.734l1.713-0.305c0.176,0.656,0.352,1.185,0.624,1.873
		c2.769-0.016,3.953-0.048,4.945-0.096v3.089h-1.456v-1.809h-9.924v1.904h-1.345v-3.185c1.12,0.063,2.401,0.096,5.986,0.096
		C259.778,225.694,259.603,225.182,259.395,224.734z M257.537,233.042c-0.656-0.561-1.504-1.057-2.465-1.521l0.977-0.896
		c0.992,0.527,1.889,1.024,2.609,1.521L257.537,233.042z M259.059,231.184c-0.673-0.592-1.521-1.248-2.497-1.776l0.784-0.864
		c0.96,0.56,1.792,1.072,2.545,1.568L259.059,231.184z M265.637,239.171c-1.473-1.185-2.785-2.017-4.306-2.785l0.769-1.04
		c1.937,0.928,2.993,1.488,4.609,2.497L265.637,239.171z"/>
	<path fill="#FFFFFF" d="M271.28,238.227h-1.344c0.096-0.864,0.111-1.505,0.111-2.129v-8.308c0-0.56-0.016-1.28-0.096-1.776
		c0.48,0.096,1.232,0.128,2.625,0.128c1.377,0,2.145-0.032,2.609-0.128c-0.08,0.464-0.097,1.217-0.097,1.776v7.636
		c0,0.752,0.032,1.312,0.112,2.112h-1.345v-1.456h-2.577V238.227z M273.857,227.279h-2.577v3.313h2.577V227.279z M273.857,231.712
		h-2.577v3.298h2.577V231.712z M280.324,224.509c0.513,0.064,1.185,0.097,1.553,0.08c0.336-0.016,0.416,0.128,0.224,0.24
		c-0.224,0.128-0.288,0.32-0.288,0.624v2.705c0.721-0.016,1.377-0.063,1.921-0.111v1.473c-0.528-0.064-1.185-0.097-1.921-0.112
		v8.051c0,1.249-0.319,1.521-2.865,1.745c-0.063-0.641-0.288-1.217-0.672-1.713c1.937,0.128,2.225-0.016,2.225-0.512v-7.588h-1.937
		c-1.185,0-2.241,0.049-3.025,0.129v-1.473c0.769,0.08,1.857,0.128,3.025,0.128h1.937
		C280.5,226.287,280.452,225.198,280.324,224.509z M277.555,234.242c-0.239-0.944-0.704-2.177-1.088-3.025l1.297-0.448
		c0.191,0.896,0.688,2.097,1.216,2.961L277.555,234.242z"/>
	<path fill="#FFFFFF" d="M299.077,236.642v1.441c-1.601-0.112-3.665-0.16-6.643-0.16s-5.042,0.048-6.643,0.16v-1.441
		c2.033,0.129,4.113,0.145,8.708,0.145l0.304-2.577l-3.394,0.112c-1.36,0.048-2.289,0.096-2.978,0.16
		c0.145-0.528,0.225-0.864,0.465-2.177l0.912-5.059c-1.393,0.032-2.369,0.064-3.441,0.145v-1.44
		c1.665,0.128,3.058,0.159,6.131,0.159s4.449-0.048,6.099-0.159v1.44c-1.905-0.128-3.874-0.16-7.428-0.16l-0.384,2.177h3.153
		c1.425,0,2.145-0.032,2.833-0.096c-0.145,0.527-0.192,0.864-0.336,2.177l-0.593,5.282
		C297.125,236.754,298.165,236.707,299.077,236.642z M290.065,233.33l4.851-0.177l0.304-2.673h-4.626L290.065,233.33z"/>
	<path fill="#FFFFFF" d="M301.264,231.088v-1.312c0.832,0.112,1.681,0.144,3.346,0.144c1.2,0,2.16-0.031,3.153-0.128v1.297
		c-0.736-0.064-1.601-0.112-2.625-0.128c-0.721,1.904-1.537,3.873-1.953,4.481l3.297-0.769c-0.256-0.624-0.527-1.216-0.768-1.584
		l1.136-0.528c0.305,0.849,1.057,2.417,1.505,3.297l-1.28,0.608c-0.048-0.24-0.145-0.544-0.256-0.864
		c-3.058,0.752-4.21,1.249-4.803,1.713c-0.128-0.496-0.416-1.137-0.688-1.568c0.592-0.257,0.864-0.593,1.328-1.665
		c0.448-1.057,0.881-2.241,1.089-3.121C302.593,230.993,301.808,231.024,301.264,231.088z M304.913,227.551
		c-1.681,0-2.272,0.048-2.801,0.128v-1.409c0.544,0.097,1.152,0.145,2.817,0.145c1.232,0,1.84-0.048,2.448-0.128v1.393
		C306.77,227.599,306.082,227.551,304.913,227.551z M310.26,224.606c0.544,0.144,1.056,0.224,1.681,0.224
		c0.319,0,0.352,0.064,0.128,0.32c-0.192,0.224-0.353,0.656-0.465,2.705c1.249-0.032,3.153-0.16,3.618-0.256
		c-0.112,0.432-0.225,1.12-0.257,1.952l-0.271,6.099c-0.112,2.481-0.528,2.882-2.785,3.25c-0.112-0.656-0.4-1.217-0.881-1.745
		c1.81,0.144,2.273-0.016,2.337-1.057l0.417-7.187h-2.241c-0.064,1.345-0.16,2.449-0.336,3.729
		c-0.385,2.769-1.072,4.289-3.874,6.418c-0.32-0.416-0.784-0.736-1.553-0.96c2.514-1.328,3.554-2.305,4.018-4.689
		c0.208-1.024,0.4-2.77,0.496-4.482c-0.96,0.032-2.097,0.128-2.736,0.208v-1.376c0.672,0.08,1.584,0.111,2.801,0.111
		C310.403,226.542,310.388,225.326,310.26,224.606z"/>
	<path fill="#FFFFFF" d="M337.921,230.192c-0.16-0.384-0.4-0.608-1.12-0.929c2.08-1.072,3.665-3.073,4.129-4.626
		c0.576,0.24,1.137,0.448,1.649,0.528c0.271,0.049,0.319,0.192,0,0.32c-0.24,0.097-0.576,0.4-1.009,0.912h2.705
		c1.873,0,3.201-0.031,4.082-0.128c-1.745,2.545-2.802,3.41-5.747,4.962c0.417,0.177,0.929,0.305,1.265,0.337
		c0.225,0.016,0.256,0.128,0.017,0.271c-0.225,0.128-0.433,0.272-0.688,0.48h2.48c1.601,0,2.674-0.032,3.426-0.128
		c-1.393,3.073-2.721,4.594-5.058,5.522c-2.258,0.896-4.435,1.296-7.14,1.328c-0.144-0.592-0.336-0.992-0.784-1.488
		c1.169,0.352,5.042-0.08,7.251-0.881c-0.656-0.64-1.616-1.408-2.593-2.081c-0.736,0.593-1.568,1.137-2.465,1.602
		c-0.208-0.353-0.576-0.688-1.249-1.009c1.969-0.688,4.338-2.433,5.41-3.89c-1.216,0.688-3.281,1.473-5.202,1.904
		c-0.144-0.512-0.32-0.815-0.848-1.264c1.473-0.24,3.185-0.721,4.785-1.377c-0.528-0.48-1.168-1.024-1.889-1.521
		C338.93,229.408,338.449,229.808,337.921,230.192z M340.098,228.271c0.816,0.544,1.553,1.104,2.337,1.745
		c1.312-0.673,2.897-1.905,3.346-2.609h-4.979C340.61,227.679,340.37,227.967,340.098,228.271z M341.666,233.826
		c1.041,0.736,2.065,1.568,2.897,2.272c1.169-0.72,2.097-1.841,2.401-2.705h-4.834C341.986,233.538,341.826,233.681,341.666,233.826
		z"/>
	<path fill="#FFFFFF" d="M355.521,227.71c0.368,0.272,0.896,0.465,1.232,0.513c0.256,0.032,0.256,0.144-0.016,0.288
		c-0.192,0.096-0.576,0.704-2.865,5.058c0.784-0.08,1.696-0.191,2.561-0.336c-0.176,0.48-0.256,0.896-0.24,1.312l-2.513,0.257
		c-0.416,0.048-1.04,0.144-1.377,0.256c-0.063-0.465-0.224-0.929-0.447-1.312c0.607-0.272,1.232-0.816,2.368-3.153
		c-1.04,0.032-1.841,0.176-2.353,0.352c-0.112-0.496-0.256-0.896-0.464-1.216c0.736-0.465,1.488-1.521,2.448-5.026
		c0.448,0.272,0.929,0.448,1.441,0.544c0.304,0.064,0.319,0.16,0.048,0.32c-0.177,0.096-0.337,0.336-2.273,4.098l1.648-0.096
		C355.138,228.687,355.377,228.095,355.521,227.71z M356.786,237.187c-2.961,0.608-4.018,0.896-4.818,1.216
		c-0.111-0.527-0.304-1.12-0.56-1.681c1.568-0.063,3.024-0.271,5.538-0.88C356.786,236.386,356.754,236.834,356.786,237.187z
		 M358.707,239.236h-1.345c0.128-0.896,0.176-1.953,0.176-3.441V230.4c-0.224,0.384-0.464,0.801-0.704,1.185
		c-0.224-0.304-0.496-0.576-0.864-0.88c0.704-0.896,1.345-2.161,1.824-3.41c0.305-0.752,0.561-1.809,0.688-2.705
		c0.465,0.192,1.121,0.368,1.457,0.4s0.4,0.225,0.032,0.416c-0.129,0.064-0.337,0.465-1.041,2.033h2.625
		c2.417,0,3.105-0.032,3.506-0.08v1.28c-0.385-0.048-0.977-0.08-3.025-0.08v1.841c1.616-0.016,2.161-0.048,2.497-0.096v1.216
		c-0.353-0.048-0.864-0.063-2.497-0.063v2.032c1.585-0.016,2.129-0.031,2.465-0.079v1.216c-0.352-0.048-0.864-0.063-2.465-0.08
		v2.161c2.257,0,2.913-0.032,3.297-0.08v1.297c-0.416-0.048-1.056-0.08-3.505-0.08h-3.121V239.236z M358.707,230.4h2.129v-1.841
		h-2.129V230.4z M358.707,233.489h2.129v-2.049h-2.129V233.489z M358.707,236.707h2.129v-2.161h-2.129V236.707z M361.636,227.103
		c-0.208-0.608-0.544-1.329-0.912-1.841l1.297-0.528c0.224,0.528,0.56,1.152,0.96,1.776L361.636,227.103z"/>
	<path fill="#FFFFFF" d="M372.61,236.867c-3.01,0.512-4.354,0.832-5.139,1.104c-0.08-0.513-0.208-0.977-0.416-1.568
		c0.929,0.031,2.385-0.097,5.603-0.656C372.53,236.083,372.562,236.499,372.61,236.867z M371.377,227.615
		c0.561,0.433,0.881,0.608,1.265,0.704c0.32,0.08,0.353,0.272,0,0.368c-0.256,0.064-0.496,0.433-3.313,4.658l3.09-0.353
		c-0.096,0.368-0.208,0.896-0.208,1.281c-2.594,0.016-3.842,0.176-4.354,0.352c-0.08-0.368-0.24-0.832-0.465-1.185
		c0.544-0.16,1.265-0.992,2.625-3.121c-1.488,0.096-2.049,0.16-2.497,0.272c-0.08-0.4-0.224-0.833-0.368-1.137
		c0.561-0.432,1.553-2.192,2.273-4.658c0.769,0.32,1.168,0.448,1.473,0.496c0.352,0.049,0.4,0.225,0.048,0.337
		c-0.128,0.048-0.305,0.32-2.385,3.825l2.017-0.096C370.913,228.751,371.186,228.143,371.377,227.615z M377.652,229.631l0.992-0.512
		c0.816,0.912,1.681,1.969,2.32,2.817l-1.152,0.784c-0.144-0.272-0.319-0.545-0.496-0.833l-1.137,0.08v4.931
		c0,0.672,0.064,0.736,0.977,0.736c0.513,0,0.704-0.225,1.041-1.553c0.352,0.4,0.72,0.624,1.216,0.752
		c-0.607,1.713-0.912,2.001-2.305,2.001c-2.064,0-2.177-0.32-2.177-1.312v-5.458l-1.152,0.096c-0.176,4.002-0.736,5.442-2.913,7.091
		c-0.32-0.4-0.784-0.752-1.329-0.992c2.401-0.992,2.962-2.562,2.978-5.986c-0.688,0.063-1.072,0.128-1.28,0.191
		c-0.097-0.336-0.256-0.848-0.416-1.216c0.304-0.032,0.576-0.24,0.944-0.656c1.28-1.457,1.616-1.969,1.776-2.529
		c0.656,0.304,1.009,0.4,1.265,0.448c0.384,0.08,0.416,0.192,0,0.464c-0.192,0.128-0.896,0.769-2.129,2.177l4.018-0.176
		C378.356,230.512,378.004,230.064,377.652,229.631z M375.779,224.894l1.488-0.305c0.112,0.769,0.272,1.553,0.465,2.306
		c1.504-0.017,2.673-0.064,3.521-0.16v1.393c-0.992-0.112-2.4-0.16-4.257-0.16c-1.857,0-3.266,0.048-4.258,0.16v-1.393
		c0.896,0.096,2.112,0.144,3.697,0.16C376.243,226.159,375.987,225.342,375.779,224.894z"/>
	<path fill="#FFFFFF" d="M387.153,237.235c-0.513,0.496-1.2,1.408-1.44,1.776c-0.305-0.432-0.721-0.944-1.121-1.312
		c0.4-0.464,0.545-0.88,0.545-1.681v-5.202c-1.024,0-1.697,0.048-2.193,0.112v-1.553c0.545,0.08,1.185,0.112,1.889,0.112
		c0.641,0,1.361-0.048,1.873-0.112c-0.128,0.544-0.208,1.312-0.208,2.081v4.674c0.592-0.593,1.425-1.553,1.873-2.273
		c0.128,0.561,0.416,1.217,0.64,1.537L387.153,237.235z M386.097,228.127c-0.352-0.849-0.912-1.81-1.584-2.705l1.344-0.753
		c0.513,0.913,1.137,1.889,1.681,2.625L386.097,228.127z M397.638,229.248v1.601c-0.961-0.064-2.129-0.128-3.729-0.128v5.683
		c0,0.8,0.032,1.681,0.144,2.881h-1.776c0.112-1.152,0.145-2.049,0.145-2.881v-5.698c-1.905,0.016-3.218,0.063-4.29,0.144v-1.601
		c1.088,0.08,2.385,0.128,4.29,0.144v-2.448c0-1.104-0.08-2.097-0.177-2.449c0.608,0.112,1.185,0.16,1.777,0.128
		c0.399-0.016,0.464,0.128,0.111,0.336c-0.176,0.097-0.224,0.32-0.224,1.185v3.249C395.509,229.375,396.677,229.328,397.638,229.248
		z"/>
	<path fill="#FFFFFF" d="M1.217,255.489C0.864,255.008,0.4,254.64,0,254.416c2.785-1.088,5.395-3.409,6.627-6.114
		c0.576,0.24,1.248,0.416,1.744,0.496c0.4,0.064,0.4,0.24,0.08,0.353c-0.08,0.032-0.16,0.064-0.256,0.128
		c1.377,2.369,3.794,3.81,6.467,4.082c-0.433,0.464-0.721,0.977-0.944,1.633c-0.784-0.305-1.537-0.656-2.241-1.057v1.152
		c-0.832-0.08-1.953-0.128-3.409-0.145v2.257c1.824-0.016,3.186-0.063,4.226-0.128v1.409c-1.04-0.08-2.401-0.128-4.226-0.145v2.833
		c2.385-0.016,4.05-0.063,5.426-0.16v1.489c-1.521-0.112-3.409-0.16-6.227-0.16c-2.816,0-4.689,0.048-6.21,0.16v-1.489
		c1.456,0.112,3.169,0.16,5.698,0.16v-2.833c-1.856,0.017-3.233,0.064-4.29,0.145v-1.409c1.072,0.064,2.449,0.112,4.29,0.128v-2.257
		c-1.505,0.017-2.657,0.064-3.506,0.145v-1.057C2.593,254.56,1.889,255.073,1.217,255.489z M3.602,253.744
		c0.944,0.064,2.161,0.096,3.762,0.096s2.833-0.031,3.761-0.096c-1.616-0.992-2.961-2.289-3.713-3.857
		C6.467,251.039,5.106,252.463,3.602,253.744z"/>
	<path fill="#FFFFFF" d="M18.529,259.682c-0.528,0.816-0.753,1.169-1.217,2.033c-0.384-0.305-0.752-0.448-1.297-0.513
		c0.977-0.944,1.601-1.824,2.018-3.057c0.448,0.208,0.944,0.416,1.088,0.447c0.353,0.08,0.353,0.145,0.032,0.32
		C19.025,258.994,18.737,259.362,18.529,259.682z M23.939,253.904v1.28c-0.736-0.096-1.617-0.144-2.897-0.16v1.601
		c1.232-0.016,1.921-0.063,2.689-0.144v1.328c-0.753-0.111-1.457-0.144-2.689-0.144v3.617c0,1.169-0.176,1.377-2.257,1.713
		c-0.016-0.448-0.145-0.977-0.561-1.521c1.457,0.256,1.633,0.191,1.633-1.232v-2.594c-1.408,0.017-2.257,0.064-3.073,0.16v-1.328
		c0.816,0.096,1.665,0.144,3.073,0.144v-1.601c-1.473,0.017-2.561,0.064-3.361,0.16v-1.28c0.961,0.112,2.337,0.16,4.226,0.145
		c0.353-0.688,0.721-1.457,0.992-2.241c0.48,0.32,0.865,0.48,1.249,0.576c0.176,0.048,0.224,0.16-0.032,0.272
		c-0.176,0.079-0.448,0.399-1.248,1.376C22.61,254.016,23.331,253.968,23.939,253.904z M19.617,249.005l1.44-0.288
		c0.129,0.561,0.225,0.993,0.4,1.681c0.992-0.031,1.729-0.08,2.354-0.159v1.36c-0.801-0.112-1.81-0.177-3.313-0.177
		c-1.505,0-2.657,0.064-3.458,0.177v-1.36c0.736,0.096,1.745,0.144,3.058,0.159C19.953,249.918,19.794,249.438,19.617,249.005z
		 M18.545,253.856c-0.176-0.736-0.353-1.169-0.672-1.601l1.2-0.465c0.192,0.513,0.4,0.961,0.752,1.601L18.545,253.856z
		 M22.658,261.01c-0.399-0.912-0.768-1.473-1.328-2.064l0.944-0.641c0.576,0.688,0.944,1.185,1.488,1.905L22.658,261.01z
		 M28.133,253.984c1.137,0,1.696-0.032,2.369-0.192v1.505c-0.561-0.128-0.929-0.176-1.697-0.208v5.65
		c0,0.96,0.032,1.696,0.129,2.545h-1.553c0.096-0.896,0.128-1.585,0.128-2.545v-5.65h-1.457c-0.063,3.89-0.592,6.034-1.921,8.035
		c-0.399-0.32-0.64-0.433-1.456-0.656c1.488-1.521,2.017-3.313,2.145-8.1c0.048-1.889-0.032-3.569-0.112-4.401
		c1.393,0.08,3.474-0.384,4.771-0.912c0.176,0.399,0.592,1.056,0.816,1.264c0.32,0.305,0.224,0.385-0.176,0.305
		c-0.337-0.064-0.608-0.032-2.033,0.144c-1.185,0.145-1.345,0.16-2.033,0.192v3.025H28.133z"/>
	<path fill="#FFFFFF" d="M41.652,252.303c0.544-1.457,1.376-2.993,2-3.89l0.753-0.064c-0.465,1.073-0.993,2.577-1.281,3.842
		L41.652,252.303z M44.117,252.303c0.544-1.457,1.376-2.993,2.001-3.89l0.752-0.064c-0.464,1.073-0.992,2.577-1.28,3.842
		L44.117,252.303z"/>
	<path fill="#FFFFFF" d="M49.536,251.743v-1.345c0.593,0.112,1.297,0.16,2.354,0.16c0-0.784-0.048-1.616-0.096-1.952
		c0.416,0.096,0.912,0.16,1.408,0.176c0.24,0,0.304,0.16,0.048,0.368c-0.176,0.144-0.256,0.353-0.256,0.544v0.864
		c0.784-0.016,1.088-0.048,1.553-0.144v1.312c-0.465-0.096-0.769-0.128-1.553-0.128v1.633h0.384c1.137-1.249,1.793-2.209,2.257-3.49
		c0.337,0.257,0.641,0.433,1.041,0.576c0.224,0.08,0.256,0.272,0.063,0.32c-0.144,0.032-0.32,0.177-0.672,0.736
		c-0.433,0.688-0.624,0.977-1.36,1.841c0.576-0.016,0.96-0.063,1.424-0.144v1.265c-0.672-0.112-1.168-0.145-2.272-0.16
		c-0.496,0.544-1.04,1.072-1.617,1.584c1.633,0,2.466-0.031,3.058-0.096v1.024c-0.336,0.208-0.561,0.353-0.88,0.592l-0.929,0.673
		v0.688c0.752-0.145,1.616-0.32,2.625-0.545c-0.08,0.448-0.096,0.769-0.064,1.121c-1.008,0.16-1.856,0.304-2.561,0.432v1.809
		c0,1.009-0.064,1.089-2.369,1.553c-0.063-0.464-0.192-0.912-0.432-1.44c1.28,0.064,1.664-0.063,1.664-0.448v-1.265
		c-1.504,0.272-2.337,0.465-3.425,0.721c-0.097-0.4-0.225-0.864-0.465-1.377c1.041,0.017,2.161-0.063,3.89-0.352v-1.249l1.297-0.88
		c-1.265-0.017-2.033-0.017-2.577,0c-0.688,0.544-1.393,1.04-2.064,1.456c-0.225-0.352-0.528-0.656-0.913-0.848
		c0.784-0.4,1.425-0.769,2.018-1.153v-0.496c0.191,0.017,0.399,0.032,0.64,0.049c0.608-0.448,1.152-0.945,1.745-1.553
		c-1.745,0-3.058,0.048-4.002,0.176v-1.297c0.864,0.097,1.665,0.16,3.394,0.177v-1.649
		C50.833,251.583,50.129,251.631,49.536,251.743z M55.443,263.171c-0.257-0.384-0.673-0.8-1.121-1.088
		c1.681-0.576,2.93-1.457,3.922-2.705c-0.641-1.185-1.089-2.785-1.217-4.034c-0.176,0.32-0.336,0.544-0.512,0.784
		c-0.256-0.416-0.48-0.624-0.849-0.768c1.057-1.393,2.017-3.65,2.753-6.691c0.496,0.16,0.977,0.272,1.44,0.32
		c0.368,0.032,0.368,0.176,0.017,0.353c-0.16,0.08-0.368,0.464-1.185,2.593c2.961,0.016,3.521,0,3.922-0.112v1.217
		c-0.417-0.032-0.769-0.048-1.505-0.048c-0.225,3.361-0.673,5.122-1.457,6.402c0.929,1.152,1.601,1.553,2.962,2.097
		c-0.513,0.528-0.785,0.929-1.104,1.521c-1.009-0.784-1.841-1.616-2.577-2.593C57.988,261.571,56.836,262.452,55.443,263.171z
		 M59.829,252.992h-1.553c-0.305,0.704-0.688,1.424-1.169,2.192l0.896-0.063c0.112,1.328,0.433,2.385,0.912,3.233
		C59.444,257.265,59.765,255.569,59.829,252.992z"/>
	<path fill="#FFFFFF" d="M64.561,252.416c0.416-1.089,0.832-2.642,1.04-3.938l1.473-0.129c-0.448,1.457-1.169,3.073-1.761,3.97
		L64.561,252.416z M67.041,252.416c0.416-1.089,0.833-2.642,1.041-3.938l1.456-0.129c-0.432,1.457-1.168,3.073-1.744,3.97
		L67.041,252.416z"/>
	<path fill="#FFFFFF" d="M85.41,259.426c-2.001,0-3.409,0.048-4.514,0.144v-1.504c1.088,0.096,2.513,0.128,4.514,0.128
		s3.554-0.064,4.642-0.177v1.553C88.964,259.49,87.411,259.426,85.41,259.426z M84.401,254.592h4.883
		c1.681,0,2.977-0.064,3.857-0.192c-0.08,1.265-0.257,3.249-0.448,5.187c-0.288,2.913-0.48,3.217-3.682,3.602
		c-0.08-0.497-0.32-1.153-0.673-1.633c2.817,0.271,2.978,0.176,3.25-5.795h-4.61c-1.232,0-2.737,0.064-4.033,0.192
		c0.176-1.169,0.32-5.778,0.144-7.219c0.337,0.128,1.329,0.24,1.761,0.208c0.225-0.016,0.272,0.063,0.049,0.336
		c-0.097,0.112-0.16,0.496-0.289,1.617h4.274c2.161,0,3.633-0.064,4.706-0.16v1.488c-0.944-0.08-2.545-0.16-4.706-0.16h-4.386
		C84.45,252.864,84.418,253.744,84.401,254.592z"/>
	<path fill="#FFFFFF" d="M105.652,252.303c0.544-1.457,1.376-2.993,2-3.89l0.753-0.064c-0.465,1.073-0.993,2.577-1.281,3.842
		L105.652,252.303z M108.117,252.303c0.544-1.457,1.376-2.993,2.001-3.89l0.752-0.064c-0.464,1.073-0.992,2.577-1.28,3.842
		L108.117,252.303z"/>
	<path fill="#FFFFFF" d="M112.641,259.442v-1.521c1.568,0.112,3.409,0.16,6.227,0.16v-1.12c0.992-0.368,1.729-0.721,2.225-1.057
		h-3.714c-0.977,0-1.729,0.016-2.272,0.048v-1.2c1.248,0.08,2.049,0.096,4.209,0.096c2.674,0,3.65-0.032,4.242-0.096v1.44
		c-0.544-0.032-1.265,0.224-3.266,1.328v0.561c2.545-0.016,4.274-0.064,5.73-0.16v1.521c-1.456-0.096-3.186-0.16-5.73-0.176v2.337
		c0,0.96-0.352,1.217-2.833,1.633c-0.048-0.496-0.224-1.041-0.544-1.633c1.681,0.144,1.953-0.032,1.953-0.528v-1.809
		C116.05,259.266,114.192,259.33,112.641,259.442z M125.958,251.935v2.993h-1.329V253.2h-10.564v1.856h-1.328v-3.121
		c0.864,0.064,2.049,0.096,3.649,0.096h4.914c0.721-1.072,1.601-2.737,1.824-3.425c0.448,0.32,1.057,0.64,1.441,0.784
		c0.256,0.112,0.239,0.192-0.064,0.336c-0.192,0.096-0.769,0.752-1.904,2.305C124.069,252.031,125.142,252,125.958,251.935z
		 M115.377,251.679c-0.208-0.608-0.672-1.521-0.96-2.018l1.312-0.592c0.32,0.544,0.769,1.408,1.089,2.097L115.377,251.679z
		 M118.818,251.263c-0.08-0.625-0.304-1.681-0.464-2.241l1.408-0.288c0.177,0.56,0.4,1.425,0.545,2.177L118.818,251.263z"/>
	<path fill="#FFFFFF" d="M128.561,252.416c0.416-1.089,0.832-2.642,1.04-3.938l1.473-0.129c-0.448,1.457-1.169,3.073-1.761,3.97
		L128.561,252.416z M131.041,252.416c0.416-1.089,0.833-2.642,1.041-3.938l1.456-0.129c-0.432,1.457-1.168,3.073-1.744,3.97
		L131.041,252.416z"/>
	<path fill="#FFFFFF" d="M146.401,262.563h-1.473c0.111-0.992,0.128-1.473,0.128-2.353v-7.155c0-0.496-0.032-1.056-0.112-1.456
		c0.433,0.048,1.024,0.08,1.665,0.111c0.208-1.072,0.319-2.08,0.319-2.864c0.513,0.128,1.217,0.224,1.729,0.239
		c0.256,0.017,0.288,0.16,0.031,0.4c-0.239,0.225-0.399,0.593-0.815,2.241c1.184,0,2.08-0.032,2.881-0.128
		c-0.08,0.432-0.112,0.992-0.112,1.456v7.043c0,0.896,0.032,1.393,0.128,2.337h-1.488v-1.425h-2.881V262.563z M149.282,252.832
		h-2.881v2.817h2.881V252.832z M149.282,256.737h-2.881v3.186h2.881V256.737z M156.293,251.551c0.608,0,1.408-0.064,1.809-0.129
		c-0.08,0.465-0.112,1.024-0.128,1.585l-0.336,8.052c-0.048,1.136-0.753,1.889-3.09,2.049c-0.063-0.576-0.368-1.329-0.88-1.777
		c2.161,0.24,2.609-0.063,2.641-0.992l0.305-7.555h-3.394c-0.368,1.04-0.721,1.744-1.2,2.608c-0.385-0.399-0.801-0.688-1.185-0.8
		c0.912-1.201,1.664-3.138,2.112-5.73c0.448,0.16,1.169,0.288,1.665,0.272c0.304-0.017,0.336,0.159,0.016,0.399
		c-0.224,0.177-0.624,0.993-0.992,2.018H156.293z M153.604,258.706c-0.271-0.992-0.832-2.272-1.344-2.993l1.296-0.561
		c0.353,0.865,0.929,2.001,1.457,2.817L153.604,258.706z"/>
	<path fill="#FFFFFF" d="M160.816,256.705c-0.272-0.384-0.624-0.752-0.992-1.04c0.88-0.977,1.681-2.433,2.145-3.922
		c0.353-1.12,0.641-2.272,0.784-3.073c0.544,0.208,1.265,0.4,1.681,0.48c0.256,0.048,0.272,0.144,0.017,0.353
		c-0.112,0.096-0.448,0.656-1.185,2.288v11.429h-1.425c0.112-1.104,0.192-2.24,0.192-3.393v-5.347
		C161.633,255.264,161.248,255.968,160.816,256.705z M168.035,252.815c-0.288,3.122-1.328,5.427-3.489,7.924
		c-0.305-0.448-0.624-0.801-0.992-1.104c1.712-1.553,2.945-3.857,3.505-6.803c-1.12,0.016-2.032,0.063-2.817,0.128v-1.393
		c1.089,0.08,2.417,0.128,4.258,0.144c0-1.824-0.031-2.528-0.144-3.232c0.448,0.08,1.024,0.111,1.44,0.096
		c0.32-0.016,0.368,0.096,0.096,0.32c-0.144,0.111-0.191,0.352-0.191,0.56v2.257c1.969,0,3.394-0.048,4.514-0.144v1.393
		c-0.944-0.08-2.097-0.128-3.602-0.145c0.304,1.329,0.849,2.754,1.473,3.666c0.736,1.072,1.713,1.953,2.801,2.513
		c-0.416,0.433-0.768,0.929-1.088,1.521c-1.232-1.072-2.321-2.368-2.817-3.425c-0.528-1.137-0.912-2.625-1.137-4.274H169.7v6.275
		c0.848-0.017,1.553-0.049,2.032-0.129v1.297c-0.479-0.063-1.185-0.112-2.032-0.128c0.016,0.96,0.08,1.937,0.176,2.945h-1.553
		c0.096-1.009,0.16-1.985,0.176-2.945c-0.992,0.016-1.792,0.064-2.337,0.128v-1.297c0.561,0.08,1.345,0.112,2.337,0.129v-6.275
		H168.035z"/>
	<path fill="#FFFFFF" d="M179.794,259.57c-1.425,0.192-2.626,0.385-3.441,0.641c-0.032-0.48-0.112-0.929-0.24-1.425
		c1.393-0.032,2.369-0.128,3.777-0.384C179.762,258.866,179.762,259.282,179.794,259.57z M181.938,255.792
		c-0.112,1.648-0.272,3.602-0.368,4.466c-0.256,2.113-0.353,2.289-3.058,2.673c-0.096-0.528-0.24-0.944-0.528-1.473
		c1.89,0.177,2.178,0.032,2.337-1.008c0.129-0.816,0.288-2.465,0.337-3.394c-2.209,0-3.058,0.032-3.698,0.144
		c0.112-0.992,0.32-4.545,0.288-5.441c0.433,0.111,0.896,0.191,1.361,0.176c0.288-0.016,0.319,0.096,0.128,0.24
		c-0.16,0.112-0.225,0.304-0.24,0.528l-0.336,3.265h1.488l0.641-5.266c-2.081,0-2.978,0.063-3.698,0.176v-1.488
		c0.736,0.08,1.713,0.128,2.562,0.128c0.832,0,1.729-0.048,2.449-0.128l-0.801,6.53
		C181.314,255.905,181.618,255.873,181.938,255.792z M183.731,253.375c0.479,0.08,1.136,0.128,2.225,0.128
		c1.137,0,1.776-0.032,2.289-0.128v1.297c-0.513-0.064-1.137-0.097-2.289-0.097c-1.12,0-1.761,0.064-2.257,0.16v-1.312
		c-0.368,0.433-0.801,0.864-1.28,1.329c-0.272-0.305-0.641-0.593-1.041-0.769c1.009-0.641,2.033-1.953,2.833-3.426
		c0.496-0.912,0.736-1.632,0.849-2.145c0.48,0.176,1.249,0.416,1.696,0.48c0.24,0.032,0.257,0.191,0.017,0.288
		c-0.064,0.032-0.145,0.063-0.208,0.111c1.104,2.065,2.4,3.17,4.289,3.746c-0.432,0.416-0.832,1.009-0.976,1.425
		c-2.001-1.169-3.218-2.481-3.874-4.61C185.22,251.327,184.579,252.367,183.731,253.375z M187.877,255.665
		c0.56,0.24,1.217,0.433,1.568,0.512c0.192,0.049,0.192,0.129-0.048,0.272c-0.16,0.096-0.353,0.433-0.496,0.881
		c-0.513,1.584-0.992,2.913-1.425,3.969c1.009,0,1.729-0.048,2.305-0.144v1.408c-0.688-0.096-1.792-0.144-3.841-0.144
		c-2.161,0-3.298,0.048-3.89,0.144v-1.408c0.592,0.096,1.744,0.144,2.465,0.144h1.856
		C187.061,259.538,187.524,257.889,187.877,255.665z M183.251,260.226c-0.08-1.072-0.433-3.153-0.704-4.05l1.057-0.208
		c0.159,0.864,0.624,3.09,0.832,4.002L183.251,260.226z M185.268,259.506c-0.096-1.185-0.288-2.689-0.48-3.649l1.153-0.192
		c0.111,0.977,0.319,2.577,0.512,3.649L185.268,259.506z"/>
	<path fill="#FFFFFF" d="M195.714,254.768c0.944,1.232,1.312,2.465,1.296,2.913c-0.048,1.648-0.64,2.113-2.289,2.465
		c-0.016-0.512-0.239-1.152-0.544-1.648c1.217,0.16,1.473,0.048,1.568-0.832c0.08-0.721-0.191-1.537-1.168-2.802l1.185-4.306h-1.761
		v12.55h-1.265c0.08-1.441,0.112-2.354,0.112-3.698v-7.314c0-1.137-0.048-2.209-0.112-2.642c0.624,0.064,1.168,0.097,2.321,0.097
		c1.136,0,1.616-0.017,2.24-0.097L195.714,254.768z M205.861,262.835c-4.178-0.112-5.426-0.304-6.482-1.024
		c-0.96-0.672-1.185-0.624-2.353,0.977c-0.305-0.416-0.608-0.704-1.009-0.977c0.721-0.641,1.345-1.089,1.809-1.312v-4.93
		c-0.416,0-0.704,0-0.992,0.063v-1.185c0.88,0.128,1.393,0.128,2.305,0c-0.096,0.593-0.144,1.057-0.144,1.953v4.002
		c0.271,0.08,0.56,0.224,1.008,0.56c0.816,0.593,2.465,0.816,6.371,0.32C205.989,262.003,205.909,262.292,205.861,262.835z
		 M198.162,253.232c-0.224-0.961-0.592-2.081-0.912-2.674l1.04-0.384c0.337,0.784,0.736,1.921,0.961,2.689L198.162,253.232z
		 M199.604,251.775v-1.28c0.624,0.063,1.152,0.112,2.064,0.128c0.48-0.912,0.704-1.521,0.784-2.064
		c0.384,0.159,1.185,0.432,1.408,0.464c0.24,0.048,0.272,0.208,0,0.336c-0.288,0.128-0.527,0.4-0.992,1.265
		c1.937,0,2.497-0.016,3.233-0.128v1.28c-0.816-0.112-2.032-0.144-3.777-0.128c-0.24,0.416-0.544,0.849-0.912,1.345h1.12
		c1.776,0,2.465-0.048,3.041-0.16c-0.048,0.368-0.08,1.072-0.08,1.408v5.026c0,0.912-0.24,1.2-2.032,1.456
		c-0.032-0.448-0.128-0.816-0.4-1.248c1.088,0.208,1.265,0.032,1.265-0.656v-0.433h-2.802v2.113h-1.28
		c0.064-0.849,0.145-1.633,0.145-2.273v-3.969c-0.16,0.191-0.32,0.368-0.496,0.56c-0.257-0.336-0.513-0.528-1.057-0.688
		c0.912-0.607,1.648-1.44,2.257-2.465C200.499,251.679,200.083,251.71,199.604,251.775z M204.325,254h-2.802v1.281h2.802V254z
		 M201.523,257.361h2.802v-1.104h-2.802V257.361z"/>
	<path fill="#FFFFFF" d="M210.289,262.227h-1.345c0.096-0.864,0.112-1.505,0.112-2.129v-8.308c0-0.56-0.017-1.28-0.097-1.776
		c0.48,0.096,1.232,0.128,2.625,0.128c1.377,0,2.146-0.032,2.609-0.128c-0.08,0.464-0.096,1.217-0.096,1.776v7.636
		c0,0.752,0.032,1.312,0.112,2.112h-1.345v-1.456h-2.577V262.227z M212.866,251.279h-2.577v3.313h2.577V251.279z M212.866,255.712
		h-2.577v3.298h2.577V255.712z M219.333,248.509c0.512,0.064,1.184,0.097,1.552,0.08c0.337-0.016,0.417,0.128,0.225,0.24
		c-0.225,0.128-0.288,0.32-0.288,0.624v2.705c0.72-0.016,1.376-0.063,1.921-0.111v1.473c-0.528-0.064-1.185-0.097-1.921-0.112v8.051
		c0,1.249-0.32,1.521-2.865,1.745c-0.064-0.641-0.288-1.217-0.672-1.713c1.937,0.128,2.225-0.016,2.225-0.512v-7.588h-1.937
		c-1.185,0-2.241,0.049-3.025,0.129v-1.473c0.768,0.08,1.856,0.128,3.025,0.128h1.937
		C219.509,250.287,219.461,249.198,219.333,248.509z M216.563,258.242c-0.24-0.944-0.704-2.177-1.089-3.025l1.297-0.448
		c0.192,0.896,0.688,2.097,1.217,2.961L216.563,258.242z"/>
	<path fill="#FFFFFF" d="M227.186,260.722c-0.08-0.56-0.288-1.152-0.576-1.584c1.553,0.128,1.872-0.192,1.729-1.377
		c-0.112-0.88-0.769-2.032-1.568-2.753l1.088-4.065h-1.648v8.852c0,1.473,0.032,2.369,0.144,3.537h-1.504
		c0.096-1.152,0.144-2.112,0.144-3.537v-7.331c0-0.944-0.032-2.305-0.112-2.705c0.688,0.08,1.633,0.096,2.354,0.096
		c0.752,0,1.713-0.032,2.337-0.096l-1.665,4.994c1.009,1.185,1.633,2.177,1.713,3.249
		C229.73,259.538,229.074,260.371,227.186,260.722z M238.357,254.512v1.36c-1.088-0.112-2.561-0.16-4.546-0.16
		c-1.969,0-3.425,0.048-4.466,0.16v-1.36c0.896,0.08,1.665,0.112,2.546,0.112h2.208c0.545-1.089,0.801-1.89,0.896-2.674
		c0.305,0.128,1.217,0.416,1.521,0.48c0.16,0.032,0.16,0.272-0.063,0.4c-0.208,0.112-0.416,0.384-1.169,1.793
		C236.453,254.625,237.621,254.592,238.357,254.512z M233.731,251.695c-1.792,0-3.024,0.032-3.985,0.112v-1.329
		c0.961,0.064,2.193,0.112,3.985,0.112c1.793,0,3.042-0.032,4.002-0.112v1.329C236.773,251.743,235.524,251.695,233.731,251.695z
		 M231.619,263.076h-1.377c0.08-0.753,0.112-1.28,0.112-2.001v-2.465c0-0.561-0.032-1.217-0.096-1.585
		c0.624,0.08,1.248,0.112,3.361,0.112c2.112,0,2.913-0.048,3.457-0.112c-0.063,0.416-0.112,1.041-0.112,1.585v2.289
		c0,0.72,0.032,1.36,0.112,2.001h-1.376v-1.233h-4.082V263.076z M231.619,254.432c-0.128-0.448-0.528-1.312-0.864-1.809l1.248-0.496
		c0.192,0.448,0.656,1.36,0.881,1.761L231.619,254.432z M235.701,258.162h-4.082v2.449h4.082V258.162z M232.996,250.398
		c-0.08-0.527-0.305-1.216-0.528-1.616l1.521-0.32c0.208,0.528,0.399,1.057,0.576,1.521L232.996,250.398z"/>
	<path fill="#FFFFFF" d="M240.944,256.513c-0.272-0.416-0.576-0.736-0.977-0.977c0.641-0.656,1.601-2.241,2.257-3.826
		c0.385-0.912,0.816-2.112,0.977-2.896c0.544,0.271,1.057,0.432,1.537,0.528c0.399,0.08,0.384,0.224,0,0.464
		c-0.192,0.112-0.528,0.704-1.249,2.145v11.108h-1.393c0.096-0.912,0.145-2.24,0.145-3.393v-5.251
		C241.713,255.409,241.345,255.968,240.944,256.513z M253.829,254.32v1.393c-0.928-0.08-2.049-0.128-3.585-0.128v2.369
		c1.889,0,3.249-0.048,4.306-0.145v1.457c-1.057-0.096-2.417-0.145-4.306-0.145v1.617c0,0.72,0.048,1.776,0.128,2.593h-1.616
		c0.096-0.816,0.144-1.856,0.144-2.593v-1.617c-1.921,0-3.345,0.049-4.369,0.145v-1.457c1.104,0.097,2.465,0.145,4.369,0.145v-2.369
		c-1.648,0-2.849,0.048-3.793,0.128v-1.393c0.96,0.08,2.112,0.128,3.793,0.128v-3.297c0-1.568-0.08-2.241-0.176-2.514
		c0.576,0.112,1.088,0.16,1.633,0.145c0.352-0.016,0.448,0.145,0.111,0.353c-0.144,0.08-0.224,0.496-0.224,1.072v4.241
		C251.78,254.432,252.885,254.384,253.829,254.32z M247.955,253.007l-1.297,0.561c-0.224-0.833-0.864-2.434-1.248-3.025l1.232-0.528
		C246.979,250.703,247.619,252.143,247.955,253.007z M254.134,250.655c-0.256,0.128-1.249,1.568-1.905,2.913
		c-0.384-0.208-0.848-0.368-1.312-0.433c0.496-0.656,1.457-2.353,1.745-3.329c0.736,0.384,1.2,0.576,1.505,0.608
		C254.422,250.462,254.422,250.558,254.134,250.655z"/>
	<path fill="#FFFFFF" d="M256.384,263.507c0.337-1.024,0.688-2.608,0.849-3.761l2.177-0.209c-0.416,1.329-1.088,2.978-1.633,3.826
		L256.384,263.507z"/>
	<path fill="#FFFFFF" d="M276.961,252.175v-1.473c1.168,0.08,2.497,0.128,4.257,0.16c0.337-0.833,0.545-1.665,0.641-2.497
		c0.48,0.16,1.345,0.352,1.713,0.384c0.336,0.032,0.416,0.16,0.016,0.448c-0.111,0.08-0.24,0.272-0.912,1.665
		c3.009,0.016,5.41-0.032,7.139-0.16v1.473c-1.824-0.128-4.546-0.176-7.699-0.16c-0.544,1.137-1.36,2.337-2.385,3.554v4.466
		c0,0.72,0.017,1.408,0.08,2.833h-1.473c0.064-1.425,0.097-2.113,0.097-2.833v-3.042c-0.513,0.513-1.057,1.024-1.617,1.521
		c-0.448-0.544-0.8-0.8-1.185-0.976c1.009-0.641,1.937-1.425,2.77-2.289c-0.032-0.544-0.08-0.961-0.145-1.169
		c0.433,0.08,0.753,0.097,1.072,0.08c0.528-0.672,0.993-1.393,1.361-2.129C279.186,252.063,278.001,252.095,276.961,252.175z
		 M289.014,255.745v1.44c-0.881-0.096-1.921-0.144-3.489-0.144v3.905c1.889-0.017,3.169-0.064,4.257-0.16v1.473
		c-1.2-0.112-2.608-0.16-4.817-0.16c-2.193,0-3.617,0.048-4.802,0.16v-1.473c1.072,0.096,2.289,0.144,4.065,0.16v-3.905
		c-1.425,0.031-2.385,0.096-3.218,0.191v-1.488c0.864,0.096,1.793,0.144,3.218,0.16c0-1.601-0.048-2.593-0.145-3.025
		c0.465,0.096,1.024,0.16,1.585,0.16c0.256,0,0.288,0.096,0.064,0.256c-0.128,0.096-0.208,0.368-0.208,0.561v2.049
		C287.093,255.888,288.133,255.84,289.014,255.745z"/>
	<path fill="#FFFFFF" d="M294.113,253.12c-0.864,0.016-1.521,0.063-2.065,0.144v-1.376c0.545,0.08,1.185,0.112,2.065,0.128
		c0-1.713-0.048-2.433-0.192-3.025c0.641,0.096,0.977,0.128,1.473,0.128c0.528,0,0.576,0.112,0.224,0.4
		c-0.224,0.176-0.256,0.288-0.256,0.561v1.937c0.753-0.016,1.329-0.048,1.825-0.128v1.376c-0.496-0.08-1.072-0.111-1.825-0.128
		v2.577c0.608-0.224,1.217-0.464,1.793-0.72c-0.128,0.496-0.112,0.896,0.016,1.296c-0.479,0.128-1.12,0.353-1.809,0.624v4.354
		c0,1.056-0.352,1.488-2.465,1.809c-0.08-0.593-0.24-1.041-0.608-1.568c1.537,0.111,1.825-0.129,1.825-0.785v-3.312
		c-0.736,0.319-1.457,0.656-1.985,0.96c-0.08-0.496-0.24-1.169-0.416-1.713c0.704-0.08,1.537-0.271,2.401-0.528V253.12z
		 M299.235,261.923v1.216h-1.393c0.111-0.848,0.144-1.312,0.144-2.064v-3.953c0-0.577-0.016-0.977-0.063-1.329
		c0.64,0.128,1.296,0.16,3.569,0.16c2.369,0,3.041-0.048,3.617-0.16c-0.112,0.288-0.128,0.688-0.128,1.329v3.761
		c0,0.736,0.048,1.312,0.144,2.065h-1.424v-1.024H299.235z M304.726,249.214c0.288,0.56,0.608,1.024,0.912,1.344
		c0.144,0.16,0.08,0.272-0.112,0.24c-0.256-0.048-1.28,0.097-2.833,0.528c-1.345,0.368-2.529,0.641-3.377,0.801v0.832
		c0,0.576,0.111,0.656,0.752,0.688c1.28,0.063,2.993,0,3.938-0.177c0.353-0.063,0.544-0.304,0.896-1.568
		c0.368,0.448,0.801,0.721,1.297,0.849c-0.641,1.473-0.993,1.809-1.905,1.921c-1.217,0.128-3.297,0.128-4.449,0.08
		c-1.649-0.08-1.841-0.465-1.841-1.617v-2.513c0-0.769-0.017-1.265-0.112-1.873c0.512,0.145,1.088,0.192,1.521,0.145
		c0.272-0.032,0.304,0.144,0.096,0.271c-0.08,0.049-0.191,0.353-0.191,0.641v1.265C301.492,250.703,303.364,250.03,304.726,249.214z
		 M303.701,258.45v-1.473h-4.466v1.473H303.701z M303.701,260.915v-1.456h-4.466v1.456H303.701z"/>
	<path fill="#FFFFFF" d="M308.816,263.284c-0.208-0.513-0.496-0.961-0.896-1.393c3.378-0.944,5.298-2.85,5.73-4.338
		c-2.993,0.016-4.386,0.08-5.666,0.16v-1.457c1.345,0.08,2.913,0.145,5.842,0.16c0.048-0.512,0.032-0.977-0.031-1.456
		c0.656,0.112,1.296,0.16,1.856,0.144c0.24,0,0.288,0.128,0.032,0.353c-0.112,0.096-0.305,0.544-0.4,0.96
		c3.105,0,5.09-0.048,6.627-0.16v1.457c-1.345-0.08-3.138-0.145-5.778-0.16c1.024,1.681,2.561,3.249,5.618,3.89
		c-0.4,0.641-0.576,1.104-0.656,1.681c-3.649-1.28-4.979-3.138-6.019-5.57h-0.048C314.274,260.115,312.21,262.244,308.816,263.284z
		 M311.617,252.063c-0.768,1.488-1.2,2.209-1.856,3.138c-0.4-0.288-0.896-0.513-1.408-0.673c1.248-1.44,1.984-2.833,2.369-4.401
		c0.592,0.288,1.2,0.496,1.568,0.56c0.416,0.064,0.416,0.257,0.048,0.433C312.162,251.199,311.954,251.407,311.617,252.063z
		 M315.587,249.774v3.361c0,0.561,0.032,1.024,0.08,1.505h-1.584c0.048-0.48,0.063-0.96,0.063-1.505v-3.185
		c0-0.561-0.032-1.009-0.096-1.265c0.64,0.08,1.168,0.096,1.648,0.08c0.4-0.017,0.433,0.176,0.112,0.384
		C315.667,249.262,315.587,249.55,315.587,249.774z M320.053,254.56c-0.832-1.345-1.824-2.625-2.896-3.602l1.104-0.849
		c1.168,1.104,2.128,2.146,3.121,3.361L320.053,254.56z"/>
	<path fill="#FFFFFF" d="M326.993,254.256c-0.8,0.016-1.44,0.048-1.937,0.111c0.096-0.704,0.144-1.601,0.144-2.465
		s-0.063-1.824-0.144-2.433c0.608,0.096,1.297,0.16,2.289,0.16s1.713-0.064,2.24-0.16c-0.063,0.608-0.111,1.601-0.111,2.465
		s0.032,1.856,0.111,2.449c-0.416-0.064-0.88-0.097-1.488-0.112v1.809c1.104,0,1.36-0.016,1.665-0.063v1.12
		c-0.305-0.064-0.561-0.064-1.665-0.064v2.865c0.641-0.144,1.217-0.304,1.633-0.448c-0.128,0.353-0.176,0.896-0.096,1.201
		c-2.562,0.544-4.515,1.12-5.41,1.504c-0.08-0.479-0.225-1.056-0.4-1.568c0.256,0,0.592-0.032,0.992-0.08v-3.058
		c0-0.944-0.032-1.456-0.128-1.904c0.464,0.064,1.12,0.112,1.377,0.096c0.256-0.016,0.304,0.16,0.111,0.24
		c-0.208,0.08-0.288,0.256-0.288,0.4v4.065c0.353-0.063,0.736-0.128,1.104-0.208V254.256z M328.354,250.655h-2.064v2.625h2.064
		V250.655z M331.731,248.942c0.576,0.096,1.04,0.128,1.488,0.128c0.288,0,0.32,0.145,0.08,0.353
		c-0.128,0.111-0.256,0.864-0.256,2.049c0,1.952,0,4.529-0.032,5.89c-0.048,2.018-0.672,3.458-3.457,5.49
		c-0.225-0.448-0.673-0.832-1.312-1.024c3.024-1.248,3.633-2.608,3.697-5.25c-0.721,0.704-1.408,1.393-2.001,2.033
		c-0.256-0.416-0.48-0.688-0.896-1.009c0.929-0.464,1.921-1.265,2.913-2.305C331.972,252.143,331.907,249.438,331.731,248.942z
		 M330.354,254.192c-0.112-1.104-0.368-2.129-0.752-2.913l1.185-0.32c0.144,0.849,0.4,1.905,0.769,2.93L330.354,254.192z
		 M337.878,257.601l-1.024,0.977c-0.561-0.816-1.057-1.44-1.585-1.953v4.018c0,0.625,0.128,0.769,0.593,0.769
		c0.768,0,0.96-0.16,1.152-1.761c0.288,0.465,0.544,0.641,1.232,0.816c-0.544,1.873-0.688,2.049-2.401,2.049
		c-1.553,0-1.696-0.08-1.696-1.248v-10.532c0-0.528-0.048-1.345-0.128-1.969c0.464,0.063,1.024,0.111,1.456,0.111
		c0.353,0,0.416,0.192,0.112,0.353c-0.208,0.112-0.32,0.32-0.32,0.736v5.426C336.021,255.92,336.917,256.657,337.878,257.601z
		 M337.813,251.455c-0.176,0.08-0.72,1.377-1.312,3.073l-1.04-0.512c0.592-0.992,1.008-2.625,1.088-3.538
		c0.433,0.225,0.993,0.497,1.329,0.641C338.149,251.214,338.166,251.311,337.813,251.455z"/>
	<path fill="#FFFFFF" d="M343.025,254.24c-0.977,0-1.696,0-2.209,0.048c0.048-0.607,0.064-1.568,0.064-2.465s-0.017-1.809-0.064-2.4
		c0.561,0.063,1.312,0.096,2.385,0.096s1.777-0.032,2.337-0.096c-0.031,0.592-0.048,1.504-0.048,2.4
		c0,0.912,0.017,1.889,0.048,2.481c-0.368-0.032-0.784-0.048-1.345-0.064v1.905c1.185,0,1.489-0.017,1.793-0.064
		c-0.063,0.384-0.063,0.816,0,1.169c-0.304-0.064-0.608-0.064-1.793-0.064v2.353l2.178-0.784c-0.129,0.353-0.16,1.089-0.08,1.393
		c-2.177,0.593-4.931,1.537-5.986,2.049c-0.049-0.56-0.209-1.168-0.433-1.681c0.24-0.016,0.48-0.048,0.721-0.096v-3.073
		c0-1.024-0.032-1.505-0.097-1.905c0.465,0.064,1.217,0.112,1.473,0.097c0.256-0.017,0.32,0.096,0.112,0.24
		c-0.192,0.128-0.288,0.256-0.288,0.399v4.019l1.232-0.305V254.24z M342.033,253.248h2.305v-2.689h-2.305V253.248z M353.67,254.24
		v1.473c-0.881-0.096-1.938-0.16-3.426-0.16c0.673,3.025,1.505,4.643,3.97,5.938c-0.496,0.544-0.832,1.12-1.04,1.617
		c-2.018-1.489-3.281-3.842-3.618-6.787c-0.624,3.714-1.216,4.706-3.985,6.851c-0.304-0.448-0.721-0.832-1.232-1.137
		c2.801-1.456,3.665-3.232,4.193-6.466c-0.96,0.016-1.664,0.063-2.337,0.144v-1.473c0.688,0.08,1.425,0.128,2.449,0.145
		c0.064-1.024,0.08-2.129-0.016-3.281c-0.576,0.111-1.169,0.224-1.889,0.368c-0.097-0.465-0.337-0.944-0.593-1.265
		c1.041-0.017,2.033-0.177,3.169-0.48c1.329-0.336,2.273-0.736,2.962-1.104c0.208,0.561,0.512,1.089,0.8,1.377
		c0.225,0.224,0.208,0.256-0.176,0.24c-0.32-0.017-1.297,0.176-2.097,0.368c-0.288,0.063-0.544,0.128-0.801,0.191
		c0.064,1.232-0.016,2.465-0.144,3.602C351.557,254.4,352.726,254.352,353.67,254.24z"/>
	<path fill="#FFFFFF" d="M357.697,260.819c0-0.721,0.56-1.297,1.264-1.297c0.705,0,1.281,0.576,1.281,1.297
		c0,0.736-0.576,1.312-1.281,1.312C358.225,262.131,357.697,261.523,357.697,260.819z M358.257,258.177l-0.32-8.499h2.113
		l-0.32,8.499H358.257z"/>
</g>
<g>
	<path fill="#FFFFFF" d="M138.938,41.82h-6.576c-1.968,0-3.889,0.048-5.185,0.144v-3.888c2.064,0.192,3.6,0.192,8.161,0.192
		s6.241-0.048,8.353-0.24c-1.248,8.017-2.496,13.537-4.32,18.722c2.256,3.168,4.32,6.24,5.712,8.4l-3.552,2.592
		c-0.912-1.968-2.208-4.368-3.744-6.864c-2.016,4.896-4.369,8.785-7.441,12.337c-0.72-0.96-1.68-1.632-3.6-2.352
		c3.792-3.889,5.665-6.913,8.545-13.825c-2.256-3.409-4.752-6.673-6.769-8.833l2.976-2.112c1.536,1.92,3.456,4.417,5.329,7.057
		C137.833,49.933,138.41,45.997,138.938,41.82z M169.612,69.807c-1.584,1.92-2.16,3.072-2.832,4.896
		c-6-3.024-9.361-7.393-10.801-15.458c-1.824,8.257-5.04,12.241-12.241,16.945c-0.96-1.104-1.729-1.728-3.792-3.072
		c7.777-3.936,11.569-8.017,12.721-16.513c0.624-4.464,0.528-6.336,0.24-8.929c1.776,0.336,3.745,0.48,4.993,0.432
		c0.768-0.048,0.864,0.336,0.192,0.96c-0.24,0.24-0.528,0.864-0.912,3.264C157.852,62.222,162.508,67.647,169.612,69.807z
		 M162.124,39.948c2.16,0,4.801-0.192,6.241-0.384l-2.64,10.513l-3.984-0.432l1.392-6.096h-11.905
		c-1.056,3.264-2.256,6.24-3.6,8.929c-1.248-0.528-2.304-0.864-3.984-1.248c2.88-4.513,5.424-12.865,5.712-19.586
		c1.488,0.528,3.984,1.056,5.185,1.056c0.72,0,0.768,0.48,0.096,1.008c-0.624,0.528-1.008,1.536-2.353,6.24H162.124z"/>
	<path fill="#FFFFFF" d="M217.373,74.031c-22.754,0.432-25.395-0.24-30.339-2.976c-3.36-1.872-4.608-1.584-7.969,4.08
		c-1.104-1.296-2.352-2.448-3.744-3.408c2.88-2.544,4.608-3.792,5.904-4.368V51.901c-3.024,0-3.84,0.048-4.992,0.192v-4.08
		c1.296,0.192,3.024,0.288,4.705,0.288c1.584,0,3.312-0.096,4.608-0.288c-0.336,1.584-0.432,3.216-0.432,5.76v13.25
		c1.152,0.144,2.448,0.576,4.128,1.392c4.224,2.064,18.434,2.304,29.475,0.432C217.612,71.055,217.276,72.591,217.373,74.031z
		 M181.609,43.693c-0.384-2.784-1.296-6.721-2.4-9.121l4.081-1.008c1.008,2.592,2.256,6.48,2.928,8.977L181.609,43.693z
		 M200.619,37.26c-0.528-0.048-2.208,0.144-5.856,1.152v20.21c1.776-0.96,3.648-2.016,5.472-3.312
		c-0.096,1.632,0.096,2.928,0.384,3.648l-4.849,2.88c-1.392,0.816-2.4,1.392-3.984,2.496c-0.624-1.392-1.344-2.592-2.112-3.6
		c1.056-0.864,1.296-1.824,1.296-4.128V40.765c0-1.92-0.144-3.504-0.48-4.945c3.792-0.816,5.856-1.584,8.257-2.832
		c0.624,1.296,1.536,2.88,2.16,3.552C201.435,37.068,201.339,37.308,200.619,37.26z M215.932,39.66v18.914
		c0,2.304-0.384,3.12-6.24,4.704c-0.336-1.488-0.816-2.736-2.064-4.704c3.504,0.672,4.513-0.576,4.513-2.256V38.844h-6.097v29.139
		h-4.224c0.288-4.32,0.384-7.104,0.384-11.089V39.66c0-1.728-0.096-3.6-0.288-4.512c1.92,0.096,3.84,0.192,7.249,0.192
		c3.265,0,5.137-0.096,7.009-0.192C216.028,36.012,215.932,37.692,215.932,39.66z"/>
	<path fill="#FFFFFF" d="M248.811,66.831c0,3.552,0.096,5.953,0.384,9.217h-4.801c0.288-3.312,0.336-5.712,0.336-9.217V56.75h-0.48
		c-3.216,6.096-9.457,12.529-15.409,16.657c-0.96-1.2-2.352-2.256-4.224-3.168c6.625-3.312,12.001-7.729,16.129-13.489
		c-6.577,0.048-10.417,0.192-14.498,0.384v-4.128c4.896,0.336,9.265,0.48,18.482,0.432V41.964c-8.113,0-12.385,0.144-16.226,0.384
		v-4.225c3.984,0.288,8.017,0.432,16.226,0.48c0-4.321,0-5.665-0.24-6.913c1.344,0.288,3.264,0.432,4.561,0.336
		c1.248-0.096,1.44,0.432,0.528,1.248c-0.672,0.576-0.768,1.152-0.768,2.016v3.312c7.249-0.048,12.481-0.24,16.514-0.48v4.225
		c-4.128-0.24-9.217-0.384-16.514-0.384v11.473c7.873-0.048,14.113-0.192,18.194-0.432v4.128c-3.697-0.24-8.737-0.336-15.266-0.384
		c2.64,6,9.985,10.657,15.985,11.569c-1.056,1.392-2.064,3.312-2.832,5.136c-10.129-4.56-13.153-8.785-15.841-16.705h-0.24V66.831z
		 M235.801,52.093c-0.96-2.064-2.352-3.984-3.792-5.616l3.216-1.968c1.584,1.44,3.072,3.264,4.224,5.041L235.801,52.093z
		 M256.299,52.478c-0.864-0.72-2.64-1.632-3.792-1.728c2.016-2.4,3.36-4.896,4.176-7.297c1.344,0.624,3.216,1.344,4.177,1.632
		c0.816,0.288,0.768,0.48,0.048,0.96C260.14,46.573,258.075,49.357,256.299,52.478z"/>
	<path fill="#FFFFFF" d="M289.994,43.645l3.024-1.824c1.68,2.785,3.984,6.337,6,9.265l-3.312,1.92
		c-0.288-0.624-0.624-1.248-0.96-1.872l-6.721,0.624v6.529c3.552-0.048,6.721-0.192,8.689-0.48v3.888
		c-1.872-0.288-5.185-0.24-8.689-0.192v6.096c4.369-0.672,8.449-1.44,10.513-1.968c-0.288,1.44-0.336,2.304-0.192,3.744
		c-3.408,0.432-7.44,1.056-11.185,1.728c-4.465,0.768-9.169,1.824-11.377,2.833c-0.192-1.536-0.624-3.024-1.296-4.608
		c2.352-0.192,5.953-0.624,9.745-1.152V61.55c-3.264,0.048-6.192,0.24-7.968,0.528v-4.08c1.824,0.288,4.752,0.336,7.968,0.288
		v-6.145c-4.992,0.48-6.625,0.72-8.112,1.296c0-1.488-0.432-2.688-1.152-3.792c1.44-0.432,2.64-1.152,3.264-1.872
		c3.36-4.08,4.225-5.76,4.705-8.208c1.824,0.864,3.312,1.392,4.176,1.536c1.2,0.24,1.296,0.768-0.048,1.296
		c-0.96,0.384-2.016,1.392-6.289,7.104l12.433-1.056C292.25,46.861,291.194,45.277,289.994,43.645z M275.257,39.564v-4.176
		c2.208,0.288,7.057,0.48,11.137,0.48c4.177,0,9.073-0.144,11.329-0.48v4.176c-2.16-0.336-7.345-0.48-11.425-0.48
		C282.217,39.084,277.417,39.229,275.257,39.564z M304.827,43.549v15.313c0,1.873,0.048,3.697,0.24,5.905h-4.08
		c0.24-2.208,0.288-4.032,0.288-5.905V46.333c0-2.352-0.096-5.424-0.336-7.537c1.488,0.384,3.072,0.528,3.937,0.384
		c0.816-0.144,0.96,0.192,0.24,1.056C304.875,40.477,304.827,41.004,304.827,43.549z M313.516,38.316v31.298
		c0,5.089-0.288,5.473-7.777,6.481c-0.24-1.44-1.056-3.168-2.448-4.752c5.809,0.432,6.481,0,6.481-2.256v-27.65
		c0-3.648-0.096-6.672-0.24-8.449c1.296,0.24,3.072,0.336,4.081,0.24c0.96-0.096,1.104,0.336,0.432,1.008
		C313.564,34.668,313.516,35.388,313.516,38.316z"/>
	<path fill="#FFFFFF" d="M168.988,132.791v4.8c-5.185-0.336-11.377-0.48-20.93-0.48s-15.938,0.144-21.074,0.48v-4.8
		c4.416,0.288,9.601,0.432,16.897,0.48v-23.234c0-7.729-0.144-10.705-0.384-12.097c1.584,0.288,3.696,0.432,5.568,0.432
		c0.864,0,1.008,0.432,0.192,1.008c-0.528,0.384-0.912,2.208-0.912,4.368v6.337h6.336c4.32,0,7.584-0.144,10.177-0.384v4.752
		c-2.544-0.288-5.856-0.384-10.177-0.384h-6.336v19.202C157.755,133.271,163.852,133.127,168.988,132.791z"/>
	<path fill="#FFFFFF" d="M182.954,131.303c-1.152,3.168-1.92,5.856-2.592,8.785c-1.488-1.344-3.168-2.544-4.608-3.216
		c1.296-2.016,1.872-3.264,3.504-7.729c1.44-3.889,1.824-5.137,2.496-7.729c0.768,1.248,2.208,2.352,3.648,2.928
		C184.729,126.07,184.105,127.798,182.954,131.303z M183.481,117.717c-1.632-1.536-5.041-3.6-7.44-4.608l2.304-3.408
		c2.112,1.248,5.472,3.264,7.632,4.513L183.481,117.717z M185.498,106.389c-1.392-1.729-4.656-4.464-7.057-5.856l2.977-2.88
		c2.304,1.824,5.041,4.08,7.104,5.856L185.498,106.389z M189.674,113.013c-0.912-0.768-2.304-1.392-3.552-1.536
		c3.36-3.36,7.825-10.273,9.457-15.122c1.008,0.48,3.744,1.392,4.896,1.584c0.624,0.096,0.72,0.72-0.144,0.864
		c-0.672,0.144-1.104,0.48-2.736,2.977h13.153c3.264,0,5.232-0.192,7.008-0.528v3.937c-1.68-0.144-4.224-0.24-7.008-0.24h-15.217
		c-0.864,1.344-1.92,2.88-2.928,4.272h11.377c4.08,0,8.064-0.144,10.513-0.384l-0.816,11.137c1.92,0,3.6-0.096,4.896-0.288v3.601
		c-1.344-0.192-3.121-0.288-5.137-0.336l-0.576,8.208c1.729-0.048,2.977-0.144,3.937-0.288v3.937
		c-0.96-0.192-2.256-0.336-4.128-0.384c-0.288,4.705-0.72,5.856-7.44,7.009c-0.144-1.488-1.056-2.928-2.16-4.081
		c4.608,0.096,5.521-0.768,5.856-3.024h-11.521c-3.696,0-5.041,0.096-7.729,0.336l1.2-11.665c-1.584,0.048-3.264,0.144-4.416,0.288
		v-3.601c1.248,0.144,3.072,0.24,4.752,0.336l1.104-10.417C191.45,110.757,190.538,111.957,189.674,113.013z M194.619,122.95
		l-0.96,8.256h15.505l0.624-8.256H194.619z M210.028,120.021l0.576-7.92h-14.737l-0.912,7.92H210.028z M200.907,130.343
		c0-1.248-1.104-4.272-1.776-5.376l3.6-0.912c0.625,1.584,1.584,4.128,1.968,5.424L200.907,130.343z M201.819,118.966
		c-0.192-1.296-1.008-3.457-1.68-4.513l3.6-0.912c0.816,1.392,1.632,3.265,2.016,4.752L201.819,118.966z"/>
	<path fill="#FFFFFF" d="M231.673,130.247c-1.584,2.448-2.256,3.504-3.648,6.097c-1.152-0.912-2.256-1.344-3.888-1.536
		c2.928-2.833,4.8-5.473,6.048-9.169c1.344,0.624,2.832,1.248,3.264,1.344c1.056,0.24,1.056,0.432,0.096,0.96
		C233.161,128.183,232.297,129.287,231.673,130.247z M247.898,112.917v3.84c-2.208-0.288-4.848-0.432-8.688-0.48v4.8
		c3.696-0.048,5.76-0.192,8.064-0.432v3.984c-2.256-0.336-4.368-0.432-8.064-0.432v10.849c0,3.504-0.528,4.128-6.769,5.137
		c-0.048-1.344-0.432-2.928-1.68-4.561c4.368,0.768,4.896,0.576,4.896-3.696v-7.777c-4.224,0.048-6.769,0.192-9.217,0.48v-3.984
		c2.448,0.288,4.993,0.432,9.217,0.432v-4.8c-4.416,0.048-7.681,0.192-10.081,0.48v-3.84c2.88,0.336,7.008,0.48,12.673,0.432
		c1.056-2.064,2.16-4.368,2.977-6.721c1.44,0.96,2.592,1.44,3.744,1.728c0.528,0.144,0.672,0.48-0.096,0.816
		c-0.528,0.24-1.344,1.2-3.744,4.128C243.914,113.253,246.074,113.109,247.898,112.917z M234.938,98.228l4.32-0.864
		c0.384,1.68,0.672,2.976,1.2,5.041c2.976-0.096,5.185-0.24,7.057-0.48v4.08c-2.4-0.336-5.425-0.528-9.937-0.528
		s-7.969,0.192-10.369,0.528v-4.08c2.208,0.288,5.232,0.432,9.168,0.48C235.945,100.964,235.465,99.524,234.938,98.228z
		 M231.721,112.773c-0.528-2.208-1.056-3.504-2.016-4.8l3.6-1.392c0.576,1.536,1.2,2.88,2.256,4.8L231.721,112.773z
		 M244.058,134.231c-1.2-2.736-2.304-4.417-3.984-6.192l2.833-1.92c1.728,2.064,2.832,3.552,4.464,5.712L244.058,134.231z
		 M260.476,113.157c3.408,0,5.088-0.096,7.104-0.576v4.512c-1.68-0.384-2.784-0.528-5.088-0.624v16.946
		c0,2.88,0.096,5.088,0.384,7.632h-4.657c0.288-2.688,0.384-4.752,0.384-7.632v-16.946h-4.369
		c-0.192,11.665-1.776,18.098-5.76,24.098c-1.2-0.96-1.92-1.296-4.368-1.968c4.464-4.56,6.048-9.937,6.432-24.29
		c0.144-5.665-0.096-10.705-0.336-13.201c4.176,0.24,10.417-1.152,14.305-2.736c0.528,1.2,1.776,3.168,2.448,3.792
		c0.96,0.912,0.672,1.152-0.528,0.912c-1.008-0.192-1.824-0.096-6.097,0.432c-3.552,0.432-4.032,0.48-6.097,0.576v9.073H260.476z"/>
	<path fill="#FFFFFF" d="M275.737,119.83c-0.672-1.152-1.584-2.16-2.784-3.168c2.256-2.353,4.128-5.569,5.76-9.745
		c1.393-3.552,2.448-7.201,2.833-9.793c1.536,0.624,3.216,1.152,4.752,1.392c1.152,0.192,1.2,0.624,0.048,1.488
		c-0.432,0.336-1.248,1.776-3.12,5.617v34.707h-4.176c0.288-2.736,0.528-6.865,0.528-10.321v-16.849
		C278.329,115.509,277.177,117.573,275.737,119.83z M308.428,122.854v10.369c0,1.92,0.096,4.464,0.336,6.769h-4.368
		c0.144-2.304,0.192-4.848,0.192-6.769v-7.057c0-4.512-0.048-5.521-0.192-6.432c1.152,0.24,2.352,0.336,3.456,0.384
		c-2.16-2.016-3.6-4.368-4.944-7.633h-2.64c-1.152,2.977-2.784,5.425-5.185,7.777c1.2,0.24,2.4,0.384,3.408,0.384
		c1.008,0,1.008,0.336,0.24,0.864c-0.192,0.144-0.528,0.96-0.624,2.64c-0.528,9.121-1.968,12.049-7.105,16.658
		c-0.864-0.96-2.208-1.824-3.984-2.448c4.368-2.16,7.2-7.104,7.393-11.137c0.144-2.16,0.048-4.464-0.096-6.24
		c-1.92,1.776-4.272,3.552-7.152,5.424c-0.384-0.816-1.296-1.68-2.977-2.784c6.769-3.696,10.177-6.865,12.001-11.137
		c-3.648,0.048-6.289,0.144-9.265,0.336v-3.937c3.024,0.192,5.76,0.288,10.321,0.336c0.432-1.632,0.72-3.408,0.912-5.424
		c-3.264,0.288-6.577,0.576-8.785,0.768c-0.24-1.44-0.624-2.64-1.344-3.696c2.112,0.24,6.145,0.048,12.001-0.816
		c6.721-1.008,8.401-1.488,10.417-2.544c0.48,1.152,1.824,3.408,2.544,4.224c0.48,0.528,0.24,0.864-0.192,0.816
		c-1.344-0.096-2.688-0.048-5.521,0.288c-1.344,0.144-3.12,0.384-5.136,0.576c-0.192,2.16-0.48,4.081-0.912,5.809
		c6.625,0,11.473-0.096,15.025-0.336v3.937c-3.024-0.192-6.913-0.288-10.177-0.336c2.976,4.801,5.76,6.337,11.665,7.585
		c-1.249,1.632-2.112,3.216-2.641,4.656c-2.544-1.2-4.512-2.4-6.145-3.648C308.668,121.414,308.428,122.182,308.428,122.854z"/>
	<path fill="#FFFFFF" d="M331.705,125.734v-4.417c3.216,0.288,7.345,0.48,13.345,0.48s10.225-0.192,13.393-0.48v4.417
		c-2.928-0.288-6.672-0.432-11.857-0.48v9.841c8.017,0,13.585-0.144,18.05-0.432v4.464c-4.801-0.288-11.281-0.432-20.306-0.432
		c-8.929,0-14.737,0.144-19.489,0.432v-4.464c4.416,0.24,9.792,0.384,17.377,0.432v-9.841
		C337.706,125.302,334.345,125.494,331.705,125.734z M363.868,102.596v8.785h-3.889v-5.185h-30.818v6.049h-3.84v-9.649
		c3.12,0.288,8.017,0.384,18.097,0.384c-0.48-1.92-0.96-3.409-1.824-5.377l4.56-1.152c1.008,2.208,1.632,4.417,1.872,6.529
		C356.619,102.98,360.988,102.836,363.868,102.596z M341.114,112.965c-0.624,0.24-2.832,1.873-11.329,8.353
		c-0.624-0.816-2.112-2.208-3.121-2.833c4.705-2.208,8.497-5.521,11.089-9.073c1.008,0.816,2.784,2.112,3.504,2.448
		C342.074,112.245,342.218,112.581,341.114,112.965z M360.939,121.27c-4.368-3.36-9.409-6.481-13.201-8.209l2.496-2.88
		c3.792,1.584,9.505,4.945,13.537,7.777L360.939,121.27z"/>
	<path fill="#FFFFFF" d="M395.931,124.822v7.008c0,2.16,0.192,6,0.48,8.641h-5.136c0.24-2.304,0.48-6.481,0.48-8.641v-7.008h-11.137
		v3.408h-4.416c0.192-2.016,0.336-5.137,0.336-7.153v-10.369c0-1.68-0.144-3.745-0.336-4.944c2.352,0.336,7.537,0.48,15.553,0.528
		v-2.256c0-4.512-0.144-6.096-0.48-7.152c1.776,0.192,3.36,0.288,5.088,0.288c0.768,0,0.912,0.192,0.144,0.864
		c-0.384,0.336-0.576,1.2-0.576,2.64v5.617c8.401-0.048,13.681-0.24,16.033-0.528c-0.096,1.248-0.24,4.224-0.24,5.904v9.217
		c0,1.92,0.144,4.849,0.24,6.865h-4.56v-2.928H395.931z M391.754,121.222v-11.329h-11.137v11.329H391.754z M407.404,121.222v-11.329
		h-11.473v11.329H407.404z"/>
	<path fill="#FFFFFF" d="M430.538,134.951c-1.92,1.872-3.216,3.408-3.696,4.464c-0.768-1.536-1.68-2.928-2.688-3.889
		c1.344-1.2,1.729-2.64,1.729-4.992v-14.641c-1.729,0-2.977,0.048-4.369,0.288v-4.128c2.592,0.432,5.665,0.48,8.449,0
		c-0.336,1.392-0.48,2.88-0.48,6v13.393c1.536-1.344,3.457-3.36,4.561-4.8c0.096,1.392,0.576,2.448,1.392,3.552L430.538,134.951z
		 M428.377,107.685c-1.008-2.496-2.112-4.512-4.032-7.104l3.504-1.92c1.44,2.4,2.832,4.561,4.368,6.625L428.377,107.685z
		 M435.626,139.511c-0.912-0.816-2.208-1.68-3.504-2.352c5.329-3.937,8.353-7.153,10.561-12.577
		c-5.232,0.048-7.584,0.192-9.601,0.384v-3.792c2.112,0.24,5.04,0.384,13.201,0.432v-3.696c-6.241,0-8.305,0.096-10.321,0.336
		c0.288-1.392,0.336-2.592,0.336-4.608v-10.081c0-1.728-0.048-2.832-0.336-4.128c2.064,0.288,4.849,0.384,12.289,0.384
		c7.969,0,10.321-0.096,12.049-0.384c-0.288,1.488-0.336,2.641-0.336,4.081v10.129c0,1.632,0.096,2.976,0.288,4.561
		c-2.64-0.192-5.136-0.288-10.561-0.288v3.696c6.913,0,11.233-0.192,13.489-0.432v3.792c-1.968-0.24-5.665-0.384-10.849-0.384
		c2.88,4.944,7.201,8.737,12.529,9.889c-1.488,1.104-2.736,2.641-3.36,4.417c-5.185-2.928-8.977-7.489-11.473-14.305h-0.336v6.673
		c0,2.784,0.096,5.521,0.48,9.312h-4.417c0.432-3.84,0.528-6.528,0.528-9.312v-6.673h-0.672
		C443.307,131.062,440.378,135.479,435.626,139.511z M446.283,102.884h-6.625v4.705h6.625V102.884z M439.658,114.933h6.625v-4.656
		h-6.625V114.933z M456.46,102.884h-6.769v4.705h6.769V102.884z M449.691,114.933h6.769v-4.656h-6.769V114.933z"/>
	<path fill="#FFFFFF" d="M489.914,96.596c1.392,0.192,3.024,0.288,4.464,0.288c0.816,0,1.008,0.288,0.24,0.816
		c-0.48,0.336-0.672,0.768-0.672,1.536v6.817h4.321c2.064-2.688,3.696-5.857,4.56-8.353c1.536,0.912,2.88,1.536,4.272,1.968
		c0.72,0.24,0.624,0.864-0.144,0.864c-0.576,0-1.104,0.48-4.752,5.472c5.041-0.048,7.777-0.144,10.129-0.24v8.88h-3.888v-5.376
		h-31.683v7.057h-3.889v-10.561c3.312,0.192,7.297,0.288,17.234,0.288C490.106,99.86,490.058,97.556,489.914,96.596z
		 M476.809,131.015v-3.984c3.36,0.24,7.681,0.384,13.633,0.384v-3.84c-4.752,0-7.873,0.048-10.561,0.144
		c0.192-1.44,0.24-3.648,0.24-5.712c0-2.112-0.048-4.272-0.24-5.712c3.072,0.192,6.672,0.24,12.577,0.24
		c5.953,0,9.361-0.048,12.481-0.24c-0.144,1.2-0.192,3.552-0.192,5.712c0,2.88,0.048,4.464,0.192,5.761
		c-2.736-0.144-5.809-0.192-10.609-0.192v3.84c6.048,0,10.369-0.144,13.729-0.384v3.984c-3.36-0.24-7.681-0.384-13.729-0.384v4.464
		c7.825,0,13.489-0.096,17.762-0.384v4.128c-4.561-0.288-10.705-0.384-19.394-0.384c-8.544,0-14.785,0.096-19.25,0.384v-4.128
		c4.128,0.24,9.601,0.384,16.994,0.384v-4.464C484.49,130.631,480.073,130.774,476.809,131.015z M481.465,105.38
		c-1.344-2.16-2.352-3.312-4.08-4.561l3.792-1.968c1.44,1.248,2.592,2.448,3.745,3.936L481.465,105.38z M501.291,115.845h-17.81
		v4.561h17.81V115.845z"/>
</g>
<g>
	<rect x="2.368" y="169.774" fill="#FFFFFF" width="534.383" height="2"/>
</g>
<g>
	<rect x="0.901" fill="#FFFFFF" width="534.383" height="2"/>
</g>
<g>
	
		<rect x="238.932" y="230.963" transform="matrix(-0.7071 0.7071 -0.7071 -0.7071 575.5497 227.1315)" fill="#FFFFFF" width="3.606" height="3.606"/>
</g>
<g>
	
		<rect x="324.265" y="231.08" transform="matrix(-0.7071 0.7071 -0.7071 -0.7071 721.3057 166.9917)" fill="#FFFFFF" width="3.606" height="3.606"/>
</g>
<g>
	
		<rect x="114.814" y="229.747" transform="matrix(-0.7071 0.7071 -0.7071 -0.7071 362.8085 312.8194)" fill="#FFFFFF" width="3.606" height="3.606"/>
</g>
<g>
	<path fill="#FFFFFF" d="M16.459,200.866v1.801c-1.944-0.126-4.267-0.181-7.85-0.181s-5.978,0.055-7.904,0.181v-1.801
		c1.656,0.108,3.601,0.162,6.338,0.18v-8.714c0-2.899-0.054-4.016-0.144-4.538c0.594,0.108,1.386,0.162,2.088,0.162
		c0.324,0,0.378,0.162,0.072,0.378c-0.198,0.145-0.342,0.829-0.342,1.639v2.377h2.377c1.62,0,2.845-0.054,3.817-0.145v1.783
		c-0.954-0.108-2.197-0.145-3.817-0.145H8.717v7.202C12.247,201.045,14.533,200.992,16.459,200.866z"/>
	<path fill="#FFFFFF" d="M21.694,200.307c-0.432,1.188-0.72,2.197-0.972,3.295c-0.558-0.504-1.188-0.954-1.729-1.206
		c0.486-0.756,0.702-1.225,1.314-2.898c0.54-1.459,0.684-1.927,0.936-2.899c0.288,0.469,0.828,0.883,1.369,1.099
		C22.36,198.345,22.126,198.993,21.694,200.307z M21.892,195.212c-0.612-0.576-1.891-1.351-2.791-1.729l0.864-1.279
		c0.792,0.469,2.053,1.225,2.863,1.693L21.892,195.212z M22.648,190.962c-0.522-0.647-1.746-1.674-2.646-2.196l1.116-1.08
		c0.864,0.684,1.891,1.53,2.665,2.196L22.648,190.962z M24.215,193.448c-0.342-0.288-0.864-0.522-1.333-0.576
		c1.26-1.261,2.935-3.854,3.547-5.672c0.378,0.18,1.404,0.522,1.837,0.594c0.234,0.036,0.27,0.271-0.054,0.324
		c-0.252,0.054-0.414,0.181-1.026,1.116h4.934c1.224,0,1.962-0.071,2.628-0.198v1.477c-0.63-0.054-1.584-0.09-2.628-0.09h-5.708
		c-0.324,0.504-0.72,1.08-1.098,1.603h4.267c1.531,0,3.025-0.054,3.943-0.144l-0.306,4.177c0.72,0,1.351-0.036,1.836-0.108v1.351
		c-0.504-0.071-1.17-0.107-1.926-0.126l-0.216,3.079c0.648-0.018,1.117-0.054,1.477-0.108v1.477
		c-0.36-0.071-0.846-0.126-1.548-0.144c-0.108,1.765-0.27,2.196-2.791,2.629c-0.054-0.559-0.396-1.099-0.81-1.531
		c1.729,0.036,2.07-0.288,2.197-1.134h-4.321c-1.387,0-1.891,0.036-2.899,0.126l0.45-4.375c-0.594,0.018-1.224,0.054-1.656,0.107
		v-1.351c0.468,0.055,1.152,0.091,1.783,0.127l0.414-3.907C24.881,192.601,24.539,193.051,24.215,193.448z M26.069,197.174
		l-0.36,3.097h5.816l0.234-3.097H26.069z M31.849,196.077l0.216-2.972h-5.527l-0.342,2.972H31.849z M28.428,199.948
		c0-0.469-0.414-1.603-0.666-2.017l1.351-0.343c0.234,0.595,0.594,1.549,0.738,2.035L28.428,199.948z M28.77,195.68
		c-0.072-0.486-0.378-1.297-0.63-1.692l1.351-0.343c0.306,0.522,0.612,1.225,0.756,1.783L28.77,195.68z"/>
	<path fill="#FFFFFF" d="M39.963,199.912c-0.594,0.918-0.846,1.314-1.368,2.286c-0.432-0.342-0.846-0.504-1.458-0.576
		c1.098-1.062,1.8-2.053,2.269-3.438c0.504,0.233,1.062,0.468,1.225,0.504c0.396,0.09,0.396,0.162,0.036,0.36
		C40.522,199.137,40.198,199.551,39.963,199.912z M46.049,193.412v1.44c-0.828-0.108-1.818-0.162-3.259-0.181v1.801
		c1.386-0.018,2.161-0.072,3.025-0.162v1.495c-0.846-0.127-1.639-0.162-3.025-0.162v4.068c0,1.314-0.198,1.549-2.539,1.927
		c-0.018-0.504-0.162-1.098-0.63-1.71c1.638,0.288,1.836,0.216,1.836-1.387v-2.917c-1.584,0.019-2.539,0.072-3.457,0.181v-1.495
		c0.918,0.108,1.873,0.162,3.457,0.162v-1.801c-1.657,0.019-2.881,0.072-3.781,0.181v-1.44c1.081,0.126,2.629,0.18,4.753,0.162
		c0.396-0.774,0.811-1.639,1.116-2.521c0.541,0.36,0.973,0.541,1.405,0.648c0.198,0.055,0.252,0.181-0.036,0.307
		c-0.198,0.09-0.504,0.45-1.404,1.548C44.555,193.538,45.365,193.484,46.049,193.412z M41.188,187.902l1.621-0.324
		c0.144,0.63,0.252,1.116,0.45,1.891c1.117-0.036,1.945-0.09,2.647-0.18v1.53c-0.9-0.126-2.035-0.198-3.727-0.198
		s-2.989,0.072-3.889,0.198v-1.53c0.828,0.107,1.962,0.162,3.439,0.18C41.566,188.928,41.386,188.388,41.188,187.902z
		 M39.981,193.357c-0.198-0.828-0.396-1.313-0.756-1.8l1.351-0.522c0.216,0.576,0.45,1.08,0.846,1.801L39.981,193.357z
		 M44.609,201.406c-0.45-1.026-0.864-1.656-1.494-2.322l1.062-0.721c0.648,0.774,1.062,1.332,1.674,2.143L44.609,201.406z
		 M50.767,193.501c1.279,0,1.909-0.036,2.665-0.216v1.692c-0.63-0.145-1.044-0.198-1.909-0.234v6.356
		c0,1.08,0.036,1.908,0.144,2.862H49.92c0.108-1.008,0.144-1.782,0.144-2.862v-6.356h-1.638c-0.072,4.375-0.667,6.788-2.161,9.039
		c-0.45-0.36-0.72-0.486-1.639-0.738c1.674-1.711,2.269-3.728,2.413-9.111c0.054-2.124-0.036-4.015-0.126-4.951
		c1.566,0.09,3.907-0.432,5.366-1.026c0.198,0.45,0.666,1.188,0.918,1.423c0.36,0.342,0.252,0.432-0.198,0.342
		c-0.378-0.072-0.684-0.036-2.287,0.162c-1.333,0.162-1.513,0.18-2.287,0.216v3.403H50.767z"/>
	<path fill="#FFFFFF" d="M56.487,196.004c-0.252-0.433-0.594-0.811-1.044-1.188c0.846-0.883,1.548-2.089,2.161-3.655
		c0.522-1.332,0.918-2.701,1.062-3.673c0.576,0.234,1.206,0.432,1.782,0.522c0.432,0.071,0.45,0.233,0.018,0.558
		c-0.162,0.126-0.468,0.666-1.17,2.106v13.019h-1.566c0.108-1.026,0.198-2.575,0.198-3.871v-6.32
		C57.459,194.383,57.027,195.158,56.487,196.004z M68.749,197.138v3.89c0,0.72,0.036,1.675,0.126,2.539h-1.639
		c0.054-0.864,0.072-1.819,0.072-2.539v-2.646c0-1.693-0.018-2.071-0.072-2.413c0.432,0.09,0.882,0.126,1.296,0.144
		c-0.81-0.756-1.351-1.638-1.854-2.862h-0.99c-0.432,1.116-1.044,2.034-1.945,2.917c0.45,0.09,0.9,0.144,1.279,0.144
		c0.378,0,0.378,0.126,0.09,0.324c-0.072,0.054-0.198,0.36-0.234,0.99c-0.198,3.421-0.738,4.52-2.665,6.248
		c-0.324-0.36-0.828-0.685-1.495-0.918c1.639-0.811,2.701-2.665,2.773-4.178c0.054-0.811,0.018-1.675-0.036-2.341
		c-0.72,0.666-1.602,1.333-2.683,2.035c-0.144-0.307-0.486-0.631-1.116-1.045c2.539-1.386,3.817-2.574,4.501-4.177
		c-1.369,0.018-2.359,0.054-3.475,0.126v-1.477c1.134,0.072,2.161,0.108,3.871,0.126c0.162-0.612,0.27-1.278,0.342-2.034
		c-1.224,0.107-2.466,0.216-3.295,0.288c-0.09-0.54-0.234-0.99-0.504-1.387c0.792,0.09,2.305,0.018,4.501-0.306
		c2.521-0.379,3.151-0.559,3.907-0.955c0.18,0.433,0.685,1.278,0.955,1.585c0.18,0.198,0.09,0.324-0.072,0.306
		c-0.504-0.036-1.008-0.018-2.07,0.108c-0.504,0.054-1.17,0.144-1.927,0.216c-0.072,0.811-0.18,1.53-0.342,2.179
		c2.485,0,4.303-0.036,5.636-0.126v1.477c-1.134-0.072-2.593-0.108-3.817-0.126c1.116,1.801,2.161,2.377,4.375,2.845
		c-0.468,0.612-0.792,1.206-0.99,1.746c-0.954-0.45-1.692-0.899-2.305-1.368C68.839,196.598,68.749,196.886,68.749,197.138z"/>
	<path fill="#FFFFFF" d="M74.379,189.739v-1.513c0.81,0.107,1.476,0.144,3.763,0.144c2.322,0,3.007-0.036,3.763-0.144v1.513
		c-0.45-0.072-0.846-0.108-1.206-0.127v9.219c0.666-0.107,1.008-0.197,1.332-0.342l-0.036,1.351c-0.198,0-0.576,0.072-1.296,0.216
		c-0.018,0.954,0.018,2.827,0.108,3.835h-1.458c0.054-0.954,0.09-2.61,0.09-3.601c-2.809,0.522-3.745,0.756-4.771,1.188
		l-0.486-1.873c0.378,0.019,0.648,0,1.296-0.09v-9.903C75.153,189.63,74.811,189.667,74.379,189.739z M76.755,189.594v2.575h2.683
		v-2.575H76.755z M79.438,193.286h-2.683v2.538h2.683V193.286z M79.438,196.941h-2.683v2.412l2.683-0.36V196.941z M85.434,199.624
		c-0.18,0.126-0.9,1.044-3.115,4.177c-0.288-0.378-0.828-0.702-1.332-0.792c1.332-1.206,2.521-3.115,3.115-4.609
		c0.36,0.342,1.062,0.774,1.351,0.847C85.74,199.317,85.758,199.425,85.434,199.624z M86.082,197.21
		c-1.89,0-2.358,0.036-3.421,0.162c0.126-1.332,0.18-2.827,0.18-4.411c0-1.585-0.054-3.493-0.18-4.735
		c1.152,0.144,1.729,0.18,3.475,0.18c1.422,0,1.962-0.054,3.061-0.18c-0.072,1.044-0.126,3.079-0.126,4.627
		c0,1.621,0.054,3.385,0.126,4.502C88.117,197.229,87.775,197.21,86.082,197.21z M87.721,189.612h-3.529v6.41h3.529V189.612z
		 M89.179,203.369c-0.54-1.314-1.891-3.565-2.503-4.268l1.152-0.774c1.026,1.53,1.891,2.755,2.845,4.033L89.179,203.369z"/>
	<path fill="#FFFFFF" d="M98.267,190.333c0-0.828-0.054-1.818-0.144-2.557c0.54,0.107,1.242,0.162,1.854,0.144
		c0.27,0,0.324,0.126,0.108,0.307c-0.234,0.18-0.306,0.324-0.306,0.576v12.495h2.053v-10.929c0-0.757-0.054-1.675-0.144-2.557
		c0.522,0.107,1.243,0.144,1.854,0.126c0.27,0,0.324,0.126,0.108,0.306c-0.234,0.198-0.306,0.343-0.306,0.595v12.459
		c2.701,0,4.645-0.071,5.401-0.162v1.711c-0.846-0.108-2.719-0.162-7.94-0.162c-4.753,0-6.572,0.054-7.634,0.162v-1.711
		c1.044,0.108,2.899,0.162,5.096,0.162V190.333z M95.674,198.471c-0.36-2.233-1.225-4.844-2.179-6.464l1.657-0.702
		c0.612,1.962,1.494,4.429,2.376,6.554L95.674,198.471z M107.179,193.717c-0.576,2.035-1.134,3.619-1.513,4.592
		c-0.54-0.307-0.9-0.396-1.548-0.343c0.9-1.8,1.621-4.555,2.035-7.094c0.558,0.271,1.404,0.504,2.017,0.559
		c0.27,0.018,0.27,0.162,0,0.324C107.936,191.899,107.413,192.889,107.179,193.717z"/>
	<path fill="#FFFFFF" d="M113.692,192.637c-1.099,0.018-1.854,0.072-2.485,0.18v-1.638c0.63,0.107,1.386,0.144,2.485,0.144
		c0-2.287-0.036-2.898-0.18-3.728c0.648,0.091,1.278,0.127,1.692,0.091c0.612-0.055,0.648,0.18,0.27,0.485
		c-0.252,0.198-0.324,0.379-0.324,0.685v2.449c0.648-0.019,1.116-0.055,1.566-0.126v1.62c-0.45-0.072-0.918-0.126-1.566-0.145v3.043
		c0.612-0.197,1.224-0.396,1.854-0.63c-0.054,0.559-0.018,0.99,0.144,1.44c-0.684,0.162-1.333,0.342-1.999,0.559v4.951
		c0,1.08-0.252,1.278-2.935,1.746c-0.162-0.63-0.468-1.296-0.882-1.891c1.675,0.181,2.359-0.018,2.359-0.504v-3.781
		c-0.72,0.288-1.458,0.612-2.251,1.009c-0.072-0.559-0.216-1.351-0.378-1.873c0.9-0.18,1.765-0.378,2.629-0.594V192.637z
		 M117.455,195.5v-1.549c0.846,0.09,2.701,0.126,3.799,0.144v-2.683c-1.584,0.019-2.971,0.055-3.961,0.145v-1.603
		c0.99,0.072,2.395,0.126,3.961,0.144c-0.018-1.026-0.09-2.034-0.18-2.521c0.666,0.108,1.206,0.145,1.818,0.145
		c0.396,0,0.396,0.126,0.072,0.323c-0.162,0.091-0.198,0.307-0.198,0.612v1.44c1.962,0,3.061-0.054,4.123-0.144v1.603
		c-1.098-0.108-2.161-0.145-4.123-0.145v2.683c1.26-0.018,2.305-0.107,3.205-0.197c-0.792,2.826-1.693,4.501-3.241,6.229
		c1.243,0.847,2.863,1.458,4.79,1.746c-0.396,0.559-0.756,1.314-0.937,1.909c-2.07-0.559-3.619-1.585-4.897-2.629
		c-1.026,0.846-2.719,1.98-4.123,2.755c-0.252-0.486-0.738-0.99-1.386-1.278c1.638-0.469,3.223-1.261,4.465-2.503
		c-0.774-0.973-1.603-2.701-2.125-4.718C118.157,195.446,117.779,195.464,117.455,195.5z M121.704,199.137
		c1.026-1.206,1.963-2.503,2.215-3.764h-3.907C120.39,197.084,121.128,198.327,121.704,199.137z"/>
	<path fill="#FFFFFF" d="M136.859,193.412c-1.512,4.123-2.989,6.229-5.689,8.57c-0.468-0.468-0.811-0.738-1.584-1.206
		c2.521-1.513,4.429-3.8,6.05-7.364c-1.801,0-3.781,0.072-5.366,0.18v-1.656c1.621,0.108,3.709,0.162,6.626,0.18
		c0-2.629-0.072-3.907-0.234-4.681c0.756,0.09,1.458,0.107,2.035,0.054c0.468-0.036,0.541,0.18,0.18,0.396
		c-0.198,0.127-0.432,0.541-0.432,0.883v3.349c2.989-0.018,5.258-0.09,6.626-0.18v1.656c-1.422-0.09-3.439-0.162-5.438-0.18
		c1.495,3.943,3.061,5.617,6.248,6.283c-0.72,0.721-1.134,1.243-1.476,1.927c-3.511-2.034-4.771-4.087-5.798-8.21h-0.162v7.346
		c0,1.242,0.018,1.927,0.144,2.971h-1.873c0.126-1.044,0.18-1.729,0.18-2.971v-7.346H136.859z M142.099,191.161
		c-0.378-0.738-0.864-1.387-1.621-2.089l1.296-0.936c0.648,0.702,1.081,1.206,1.747,2.017L142.099,191.161z"/>
	<path fill="#FFFFFF" d="M148.539,199.641v-1.71c1.765,0.126,3.835,0.18,7.004,0.18v-1.261c1.116-0.414,1.944-0.81,2.502-1.188
		h-4.177c-1.098,0-1.944,0.019-2.557,0.055v-1.351c1.404,0.09,2.305,0.108,4.735,0.108c3.007,0,4.105-0.036,4.771-0.108v1.62
		c-0.612-0.036-1.422,0.252-3.673,1.495v0.63c2.863-0.018,4.808-0.072,6.446-0.18v1.71c-1.639-0.107-3.583-0.18-6.446-0.198v2.629
		c0,1.08-0.396,1.368-3.187,1.837c-0.054-0.559-0.252-1.171-0.612-1.837c1.891,0.162,2.197-0.036,2.197-0.594v-2.035
		C152.375,199.443,150.286,199.515,148.539,199.641z M163.52,191.197v3.367h-1.495v-1.944h-11.883v2.088h-1.495v-3.511
		c0.973,0.072,2.305,0.108,4.105,0.108h5.527c0.811-1.207,1.801-3.079,2.053-3.854c0.504,0.36,1.188,0.72,1.621,0.882
		c0.288,0.126,0.27,0.217-0.072,0.379c-0.216,0.107-0.864,0.846-2.143,2.593C161.395,191.305,162.601,191.269,163.52,191.197z
		 M151.618,190.909c-0.234-0.685-0.756-1.711-1.081-2.269l1.477-0.666c0.36,0.612,0.864,1.584,1.225,2.358L151.618,190.909z
		 M155.489,190.441c-0.09-0.702-0.342-1.891-0.522-2.521l1.584-0.324c0.198,0.631,0.45,1.603,0.612,2.449L155.489,190.441z"/>
	<path fill="#FFFFFF" d="M170.644,194.042c1.008,1.387,1.477,2.521,1.477,3.691c0,1.548-0.847,2.341-2.557,2.538
		c0-0.611-0.126-1.17-0.45-1.71c1.062,0.09,1.549,0,1.621-1.062c0.072-1.134-0.486-2.358-1.351-3.367l1.17-4.465h-1.908v13.9h-1.495
		c0.072-1.603,0.09-2.701,0.09-4.195v-9.291c0-0.685-0.018-1.513-0.054-1.837c0.684,0.055,1.35,0.09,2.593,0.09
		c1.26,0,1.908-0.018,2.611-0.09L170.644,194.042z M172.552,197.012v-1.566c1.405,0.108,2.017,0.126,4.609,0.126
		s3.043-0.018,4.43-0.126v1.566c-1.314-0.126-1.729-0.126-2.899-0.126v4.123c0,0.576,0.162,0.702,1.098,0.667
		c0.99-0.036,1.225-0.253,1.584-2.089c0.396,0.432,0.99,0.756,1.422,0.864c-0.54,2.251-1.152,2.629-3.043,2.629
		c-2.214,0-2.448-0.234-2.448-1.387v-4.808h-1.188c-0.09,3.854-1.477,5.42-4.375,6.446c-0.234-0.433-0.594-0.864-1.17-1.297
		c2.881-0.846,4.105-1.998,4.142-5.149C174.065,196.905,173.489,196.922,172.552,197.012z M175.757,187.542l1.675-0.324
		c0.108,0.505,0.414,1.459,0.72,2.197c2.484-0.019,2.863-0.036,3.727-0.108v2.971h-1.458v-1.62h-6.482v1.603h-1.458v-2.953
		c0.882,0.072,1.351,0.09,3.925,0.108C176.244,188.802,175.956,187.992,175.757,187.542z M176.946,193.952
		c-1.351,0-2.701,0.018-3.421,0.126v-1.53c0.738,0.107,2.07,0.144,3.421,0.144c1.333,0,2.719-0.036,3.421-0.144v1.53
		C179.665,193.988,178.278,193.952,176.946,193.952z"/>
</g>
</svg>
